%TF.GenerationSoftware,KiCad,Pcbnew,10.0.3-10.0.3~ubuntu24.04.1*%
%TF.CreationDate,2026-06-08T12:14:23+08:00*%
%TF.ProjectId,hybridimager-v2-als-pt19-32x32,68796272-6964-4696-9d61-6765722d7632,0.2.0-draft*%
%TF.SameCoordinates,Original*%
%TF.FileFunction,Soldermask,Top*%
%TF.FilePolarity,Negative*%
%FSLAX46Y46*%
G04 Gerber Fmt 4.6, Leading zero omitted, Abs format (unit mm)*
G04 Created by KiCad (PCBNEW 10.0.3-10.0.3~ubuntu24.04.1) date 2026-06-08 12:14:23*
%MOMM*%
%LPD*%
G01*
G04 APERTURE LIST*
G04 Aperture macros list*
%AMRoundRect*
0 Rectangle with rounded corners*
0 $1 Rounding radius*
0 $2 $3 $4 $5 $6 $7 $8 $9 X,Y pos of 4 corners*
0 Add a 4 corners polygon primitive as box body*
4,1,4,$2,$3,$4,$5,$6,$7,$8,$9,$2,$3,0*
0 Add four circle primitives for the rounded corners*
1,1,$1+$1,$2,$3*
1,1,$1+$1,$4,$5*
1,1,$1+$1,$6,$7*
1,1,$1+$1,$8,$9*
0 Add four rect primitives between the rounded corners*
20,1,$1+$1,$2,$3,$4,$5,0*
20,1,$1+$1,$4,$5,$6,$7,0*
20,1,$1+$1,$6,$7,$8,$9,0*
20,1,$1+$1,$8,$9,$2,$3,0*%
G04 Aperture macros list end*
%ADD10RoundRect,0.050000X-0.400000X-0.400000X0.400000X-0.400000X0.400000X0.400000X-0.400000X0.400000X0*%
%ADD11RoundRect,0.050000X-0.800000X-0.600000X0.800000X-0.600000X0.800000X0.600000X-0.800000X0.600000X0*%
%ADD12O,1.700000X1.300000*%
%ADD13C,3.300000*%
%ADD14O,1.650000X1.250000*%
%ADD15O,1.250000X1.650000*%
%ADD16RoundRect,0.076000X-0.114000X-0.474000X0.114000X-0.474000X0.114000X0.474000X-0.114000X0.474000X0*%
%ADD17RoundRect,0.076000X-0.474000X-0.114000X0.474000X-0.114000X0.474000X0.114000X-0.474000X0.114000X0*%
G04 APERTURE END LIST*
D10*
%TO.C,Q2426*%
X117750000Y-106420000D03*
X119250000Y-106420000D03*
%TD*%
%TO.C,Q0603*%
X59330000Y-60700000D03*
X60830000Y-60700000D03*
%TD*%
%TO.C,Q0112*%
X82190000Y-48000000D03*
X83690000Y-48000000D03*
%TD*%
%TO.C,Q0830*%
X127910000Y-65780000D03*
X129410000Y-65780000D03*
%TD*%
%TO.C,Q2409*%
X74570000Y-106420000D03*
X76070000Y-106420000D03*
%TD*%
%TO.C,Q2306*%
X66950000Y-103880000D03*
X68450000Y-103880000D03*
%TD*%
%TO.C,Q0624*%
X112670000Y-60700000D03*
X114170000Y-60700000D03*
%TD*%
%TO.C,Q0429*%
X125370000Y-55620000D03*
X126870000Y-55620000D03*
%TD*%
%TO.C,Q1201*%
X54250000Y-75940000D03*
X55750000Y-75940000D03*
%TD*%
%TO.C,Q2004*%
X61870000Y-96260000D03*
X63370000Y-96260000D03*
%TD*%
%TO.C,Q3229*%
X125370000Y-126740000D03*
X126870000Y-126740000D03*
%TD*%
%TO.C,Q2432*%
X132990000Y-106420000D03*
X134490000Y-106420000D03*
%TD*%
%TO.C,Q1719*%
X99970000Y-88640000D03*
X101470000Y-88640000D03*
%TD*%
%TO.C,Q2609*%
X74570000Y-111500000D03*
X76070000Y-111500000D03*
%TD*%
%TO.C,Q1924*%
X112670000Y-93720000D03*
X114170000Y-93720000D03*
%TD*%
%TO.C,Q2207*%
X69490000Y-101340000D03*
X70990000Y-101340000D03*
%TD*%
%TO.C,Q2806*%
X66950000Y-116580000D03*
X68450000Y-116580000D03*
%TD*%
%TO.C,Q0911*%
X79650000Y-68320000D03*
X81150000Y-68320000D03*
%TD*%
%TO.C,Q1302*%
X56790000Y-78480000D03*
X58290000Y-78480000D03*
%TD*%
%TO.C,Q2210*%
X77110000Y-101340000D03*
X78610000Y-101340000D03*
%TD*%
%TO.C,Q2428*%
X122830000Y-106420000D03*
X124330000Y-106420000D03*
%TD*%
%TO.C,Q2910*%
X77110000Y-119120000D03*
X78610000Y-119120000D03*
%TD*%
%TO.C,Q2030*%
X127910000Y-96260000D03*
X129410000Y-96260000D03*
%TD*%
%TO.C,Q3208*%
X72030000Y-126740000D03*
X73530000Y-126740000D03*
%TD*%
%TO.C,Q1214*%
X87270000Y-75940000D03*
X88770000Y-75940000D03*
%TD*%
%TO.C,Q0820*%
X102510000Y-65780000D03*
X104010000Y-65780000D03*
%TD*%
%TO.C,Q2811*%
X79650000Y-116580000D03*
X81150000Y-116580000D03*
%TD*%
%TO.C,Q0815*%
X89810000Y-65780000D03*
X91310000Y-65780000D03*
%TD*%
%TO.C,Q0205*%
X64410000Y-50540000D03*
X65910000Y-50540000D03*
%TD*%
%TO.C,Q0302*%
X56790000Y-53080000D03*
X58290000Y-53080000D03*
%TD*%
%TO.C,Q2723*%
X110130000Y-114040000D03*
X111630000Y-114040000D03*
%TD*%
%TO.C,Q2813*%
X84730000Y-116580000D03*
X86230000Y-116580000D03*
%TD*%
%TO.C,Q1420*%
X102510000Y-81020000D03*
X104010000Y-81020000D03*
%TD*%
%TO.C,Q1801*%
X54250000Y-91180000D03*
X55750000Y-91180000D03*
%TD*%
%TO.C,Q1609*%
X74570000Y-86100000D03*
X76070000Y-86100000D03*
%TD*%
%TO.C,Q1606*%
X66950000Y-86100000D03*
X68450000Y-86100000D03*
%TD*%
%TO.C,Q2303*%
X59330000Y-103880000D03*
X60830000Y-103880000D03*
%TD*%
%TO.C,Q2118*%
X97430000Y-98800000D03*
X98930000Y-98800000D03*
%TD*%
%TO.C,Q2725*%
X115210000Y-114040000D03*
X116710000Y-114040000D03*
%TD*%
%TO.C,Q0618*%
X97430000Y-60700000D03*
X98930000Y-60700000D03*
%TD*%
%TO.C,Q3020*%
X102510000Y-121660000D03*
X104010000Y-121660000D03*
%TD*%
%TO.C,Q1919*%
X99970000Y-93720000D03*
X101470000Y-93720000D03*
%TD*%
%TO.C,Q3112*%
X82190000Y-124200000D03*
X83690000Y-124200000D03*
%TD*%
%TO.C,Q0129*%
X125370000Y-48000000D03*
X126870000Y-48000000D03*
%TD*%
%TO.C,Q1706*%
X66950000Y-88640000D03*
X68450000Y-88640000D03*
%TD*%
%TO.C,Q1425*%
X115210000Y-81020000D03*
X116710000Y-81020000D03*
%TD*%
%TO.C,Q0817*%
X94890000Y-65780000D03*
X96390000Y-65780000D03*
%TD*%
%TO.C,Q1112*%
X82190000Y-73400000D03*
X83690000Y-73400000D03*
%TD*%
%TO.C,Q2503*%
X59330000Y-108960000D03*
X60830000Y-108960000D03*
%TD*%
%TO.C,Q1305*%
X64410000Y-78480000D03*
X65910000Y-78480000D03*
%TD*%
%TO.C,Q0928*%
X122830000Y-68320000D03*
X124330000Y-68320000D03*
%TD*%
%TO.C,Q1313*%
X84730000Y-78480000D03*
X86230000Y-78480000D03*
%TD*%
%TO.C,Q1710*%
X77110000Y-88640000D03*
X78610000Y-88640000D03*
%TD*%
%TO.C,Q2420*%
X102510000Y-106420000D03*
X104010000Y-106420000D03*
%TD*%
%TO.C,Q1019*%
X99970000Y-70860000D03*
X101470000Y-70860000D03*
%TD*%
%TO.C,Q0217*%
X94890000Y-50540000D03*
X96390000Y-50540000D03*
%TD*%
%TO.C,Q2002*%
X56790000Y-96260000D03*
X58290000Y-96260000D03*
%TD*%
%TO.C,Q2504*%
X61870000Y-108960000D03*
X63370000Y-108960000D03*
%TD*%
%TO.C,Q2411*%
X79650000Y-106420000D03*
X81150000Y-106420000D03*
%TD*%
%TO.C,Q0811*%
X79650000Y-65780000D03*
X81150000Y-65780000D03*
%TD*%
%TO.C,Q2125*%
X115210000Y-98800000D03*
X116710000Y-98800000D03*
%TD*%
%TO.C,Q0311*%
X79650000Y-53080000D03*
X81150000Y-53080000D03*
%TD*%
%TO.C,Q0801*%
X54250000Y-65780000D03*
X55750000Y-65780000D03*
%TD*%
%TO.C,Q1111*%
X79650000Y-73400000D03*
X81150000Y-73400000D03*
%TD*%
%TO.C,Q1118*%
X97430000Y-73400000D03*
X98930000Y-73400000D03*
%TD*%
%TO.C,Q1911*%
X79650000Y-93720000D03*
X81150000Y-93720000D03*
%TD*%
%TO.C,Q2117*%
X94890000Y-98800000D03*
X96390000Y-98800000D03*
%TD*%
%TO.C,Q1814*%
X87270000Y-91180000D03*
X88770000Y-91180000D03*
%TD*%
%TO.C,Q1008*%
X72030000Y-70860000D03*
X73530000Y-70860000D03*
%TD*%
%TO.C,Q3120*%
X102510000Y-124200000D03*
X104010000Y-124200000D03*
%TD*%
%TO.C,Q1001*%
X54250000Y-70860000D03*
X55750000Y-70860000D03*
%TD*%
%TO.C,Q1825*%
X115210000Y-91180000D03*
X116710000Y-91180000D03*
%TD*%
%TO.C,Q2402*%
X56790000Y-106420000D03*
X58290000Y-106420000D03*
%TD*%
%TO.C,Q0620*%
X102510000Y-60700000D03*
X104010000Y-60700000D03*
%TD*%
%TO.C,Q1315*%
X89810000Y-78480000D03*
X91310000Y-78480000D03*
%TD*%
%TO.C,Q2022*%
X107590000Y-96260000D03*
X109090000Y-96260000D03*
%TD*%
%TO.C,Q1006*%
X66950000Y-70860000D03*
X68450000Y-70860000D03*
%TD*%
%TO.C,Q2920*%
X102510000Y-119120000D03*
X104010000Y-119120000D03*
%TD*%
%TO.C,Q1831*%
X130450000Y-91180000D03*
X131950000Y-91180000D03*
%TD*%
%TO.C,Q3209*%
X74570000Y-126740000D03*
X76070000Y-126740000D03*
%TD*%
%TO.C,Q0612*%
X82190000Y-60700000D03*
X83690000Y-60700000D03*
%TD*%
%TO.C,Q0726*%
X117750000Y-63240000D03*
X119250000Y-63240000D03*
%TD*%
%TO.C,Q2407*%
X69490000Y-106420000D03*
X70990000Y-106420000D03*
%TD*%
%TO.C,Q0109*%
X74570000Y-48000000D03*
X76070000Y-48000000D03*
%TD*%
%TO.C,Q2513*%
X84730000Y-108960000D03*
X86230000Y-108960000D03*
%TD*%
%TO.C,Q3015*%
X89810000Y-121660000D03*
X91310000Y-121660000D03*
%TD*%
%TO.C,Q2519*%
X99970000Y-108960000D03*
X101470000Y-108960000D03*
%TD*%
%TO.C,Q2704*%
X61870000Y-114040000D03*
X63370000Y-114040000D03*
%TD*%
%TO.C,Q1827*%
X120290000Y-91180000D03*
X121790000Y-91180000D03*
%TD*%
%TO.C,Q3121*%
X105050000Y-124200000D03*
X106550000Y-124200000D03*
%TD*%
%TO.C,Q1119*%
X99970000Y-73400000D03*
X101470000Y-73400000D03*
%TD*%
%TO.C,Q2904*%
X61870000Y-119120000D03*
X63370000Y-119120000D03*
%TD*%
%TO.C,Q0829*%
X125370000Y-65780000D03*
X126870000Y-65780000D03*
%TD*%
%TO.C,Q1007*%
X69490000Y-70860000D03*
X70990000Y-70860000D03*
%TD*%
%TO.C,Q1724*%
X112670000Y-88640000D03*
X114170000Y-88640000D03*
%TD*%
%TO.C,Q1908*%
X72030000Y-93720000D03*
X73530000Y-93720000D03*
%TD*%
%TO.C,Q3011*%
X79650000Y-121660000D03*
X81150000Y-121660000D03*
%TD*%
%TO.C,Q1731*%
X130450000Y-88640000D03*
X131950000Y-88640000D03*
%TD*%
%TO.C,Q2724*%
X112670000Y-114040000D03*
X114170000Y-114040000D03*
%TD*%
%TO.C,Q1714*%
X87270000Y-88640000D03*
X88770000Y-88640000D03*
%TD*%
%TO.C,Q2726*%
X117750000Y-114040000D03*
X119250000Y-114040000D03*
%TD*%
%TO.C,Q2427*%
X120290000Y-106420000D03*
X121790000Y-106420000D03*
%TD*%
%TO.C,Q0428*%
X122830000Y-55620000D03*
X124330000Y-55620000D03*
%TD*%
%TO.C,Q1804*%
X61870000Y-91180000D03*
X63370000Y-91180000D03*
%TD*%
%TO.C,Q3022*%
X107590000Y-121660000D03*
X109090000Y-121660000D03*
%TD*%
%TO.C,Q1329*%
X125370000Y-78480000D03*
X126870000Y-78480000D03*
%TD*%
%TO.C,Q2029*%
X125370000Y-96260000D03*
X126870000Y-96260000D03*
%TD*%
%TO.C,Q2304*%
X61870000Y-103880000D03*
X63370000Y-103880000D03*
%TD*%
%TO.C,Q0218*%
X97430000Y-50540000D03*
X98930000Y-50540000D03*
%TD*%
%TO.C,Q2626*%
X117750000Y-111500000D03*
X119250000Y-111500000D03*
%TD*%
%TO.C,Q1310*%
X77110000Y-78480000D03*
X78610000Y-78480000D03*
%TD*%
%TO.C,Q0126*%
X117750000Y-48000000D03*
X119250000Y-48000000D03*
%TD*%
%TO.C,Q3231*%
X130450000Y-126740000D03*
X131950000Y-126740000D03*
%TD*%
%TO.C,Q1124*%
X112670000Y-73400000D03*
X114170000Y-73400000D03*
%TD*%
%TO.C,Q0329*%
X125370000Y-53080000D03*
X126870000Y-53080000D03*
%TD*%
%TO.C,Q3012*%
X82190000Y-121660000D03*
X83690000Y-121660000D03*
%TD*%
%TO.C,Q1206*%
X66950000Y-75940000D03*
X68450000Y-75940000D03*
%TD*%
%TO.C,Q1920*%
X102510000Y-93720000D03*
X104010000Y-93720000D03*
%TD*%
%TO.C,Q1521*%
X105050000Y-83560000D03*
X106550000Y-83560000D03*
%TD*%
%TO.C,Q2422*%
X107590000Y-106420000D03*
X109090000Y-106420000D03*
%TD*%
%TO.C,Q2932*%
X132990000Y-119120000D03*
X134490000Y-119120000D03*
%TD*%
%TO.C,Q1401*%
X54250000Y-81020000D03*
X55750000Y-81020000D03*
%TD*%
%TO.C,Q3003*%
X59330000Y-121660000D03*
X60830000Y-121660000D03*
%TD*%
%TO.C,Q1522*%
X107590000Y-83560000D03*
X109090000Y-83560000D03*
%TD*%
%TO.C,Q2620*%
X102510000Y-111500000D03*
X104010000Y-111500000D03*
%TD*%
%TO.C,Q1207*%
X69490000Y-75940000D03*
X70990000Y-75940000D03*
%TD*%
%TO.C,Q1828*%
X122830000Y-91180000D03*
X124330000Y-91180000D03*
%TD*%
%TO.C,Q2521*%
X105050000Y-108960000D03*
X106550000Y-108960000D03*
%TD*%
%TO.C,Q1602*%
X56790000Y-86100000D03*
X58290000Y-86100000D03*
%TD*%
%TO.C,Q1821*%
X105050000Y-91180000D03*
X106550000Y-91180000D03*
%TD*%
%TO.C,Q1031*%
X130450000Y-70860000D03*
X131950000Y-70860000D03*
%TD*%
%TO.C,Q0818*%
X97430000Y-65780000D03*
X98930000Y-65780000D03*
%TD*%
%TO.C,Q0316*%
X92350000Y-53080000D03*
X93850000Y-53080000D03*
%TD*%
%TO.C,Q0408*%
X72030000Y-55620000D03*
X73530000Y-55620000D03*
%TD*%
%TO.C,Q3206*%
X66950000Y-126740000D03*
X68450000Y-126740000D03*
%TD*%
%TO.C,Q1607*%
X69490000Y-86100000D03*
X70990000Y-86100000D03*
%TD*%
%TO.C,Q2318*%
X97430000Y-103880000D03*
X98930000Y-103880000D03*
%TD*%
%TO.C,Q1330*%
X127910000Y-78480000D03*
X129410000Y-78480000D03*
%TD*%
%TO.C,Q1527*%
X120290000Y-83560000D03*
X121790000Y-83560000D03*
%TD*%
%TO.C,Q3009*%
X74570000Y-121660000D03*
X76070000Y-121660000D03*
%TD*%
%TO.C,Q2831*%
X130450000Y-116580000D03*
X131950000Y-116580000D03*
%TD*%
%TO.C,Q0431*%
X130450000Y-55620000D03*
X131950000Y-55620000D03*
%TD*%
%TO.C,Q1510*%
X77110000Y-83560000D03*
X78610000Y-83560000D03*
%TD*%
%TO.C,Q2718*%
X97430000Y-114040000D03*
X98930000Y-114040000D03*
%TD*%
%TO.C,Q0710*%
X77110000Y-63240000D03*
X78610000Y-63240000D03*
%TD*%
%TO.C,Q0414*%
X87270000Y-55620000D03*
X88770000Y-55620000D03*
%TD*%
%TO.C,Q1709*%
X74570000Y-88640000D03*
X76070000Y-88640000D03*
%TD*%
%TO.C,Q2819*%
X99970000Y-116580000D03*
X101470000Y-116580000D03*
%TD*%
%TO.C,Q0226*%
X117750000Y-50540000D03*
X119250000Y-50540000D03*
%TD*%
%TO.C,Q0310*%
X77110000Y-53080000D03*
X78610000Y-53080000D03*
%TD*%
%TO.C,Q0304*%
X61870000Y-53080000D03*
X63370000Y-53080000D03*
%TD*%
%TO.C,Q1016*%
X92350000Y-70860000D03*
X93850000Y-70860000D03*
%TD*%
%TO.C,Q2715*%
X89810000Y-114040000D03*
X91310000Y-114040000D03*
%TD*%
%TO.C,Q2714*%
X87270000Y-114040000D03*
X88770000Y-114040000D03*
%TD*%
%TO.C,Q0925*%
X115210000Y-68320000D03*
X116710000Y-68320000D03*
%TD*%
%TO.C,Q1102*%
X56790000Y-73400000D03*
X58290000Y-73400000D03*
%TD*%
%TO.C,Q3221*%
X105050000Y-126740000D03*
X106550000Y-126740000D03*
%TD*%
%TO.C,Q3030*%
X127910000Y-121660000D03*
X129410000Y-121660000D03*
%TD*%
%TO.C,Q0701*%
X54250000Y-63240000D03*
X55750000Y-63240000D03*
%TD*%
%TO.C,Q1910*%
X77110000Y-93720000D03*
X78610000Y-93720000D03*
%TD*%
%TO.C,Q0621*%
X105050000Y-60700000D03*
X106550000Y-60700000D03*
%TD*%
%TO.C,Q1802*%
X56790000Y-91180000D03*
X58290000Y-91180000D03*
%TD*%
%TO.C,Q0111*%
X79650000Y-48000000D03*
X81150000Y-48000000D03*
%TD*%
%TO.C,Q0708*%
X72030000Y-63240000D03*
X73530000Y-63240000D03*
%TD*%
%TO.C,Q0509*%
X74570000Y-58160000D03*
X76070000Y-58160000D03*
%TD*%
%TO.C,Q3105*%
X64410000Y-124200000D03*
X65910000Y-124200000D03*
%TD*%
%TO.C,Q3211*%
X79650000Y-126740000D03*
X81150000Y-126740000D03*
%TD*%
%TO.C,Q0423*%
X110130000Y-55620000D03*
X111630000Y-55620000D03*
%TD*%
%TO.C,Q2713*%
X84730000Y-114040000D03*
X86230000Y-114040000D03*
%TD*%
%TO.C,Q1520*%
X102510000Y-83560000D03*
X104010000Y-83560000D03*
%TD*%
%TO.C,Q1331*%
X130450000Y-78480000D03*
X131950000Y-78480000D03*
%TD*%
%TO.C,Q1531*%
X130450000Y-83560000D03*
X131950000Y-83560000D03*
%TD*%
%TO.C,Q0503*%
X59330000Y-58160000D03*
X60830000Y-58160000D03*
%TD*%
%TO.C,Q0706*%
X66950000Y-63240000D03*
X68450000Y-63240000D03*
%TD*%
%TO.C,Q2124*%
X112670000Y-98800000D03*
X114170000Y-98800000D03*
%TD*%
%TO.C,Q0608*%
X72030000Y-60700000D03*
X73530000Y-60700000D03*
%TD*%
%TO.C,Q0303*%
X59330000Y-53080000D03*
X60830000Y-53080000D03*
%TD*%
%TO.C,Q3214*%
X87270000Y-126740000D03*
X88770000Y-126740000D03*
%TD*%
%TO.C,Q0416*%
X92350000Y-55620000D03*
X93850000Y-55620000D03*
%TD*%
%TO.C,Q0616*%
X92350000Y-60700000D03*
X93850000Y-60700000D03*
%TD*%
%TO.C,Q2202*%
X56790000Y-101340000D03*
X58290000Y-101340000D03*
%TD*%
%TO.C,Q1418*%
X97430000Y-81020000D03*
X98930000Y-81020000D03*
%TD*%
%TO.C,Q0927*%
X120290000Y-68320000D03*
X121790000Y-68320000D03*
%TD*%
%TO.C,Q2222*%
X107590000Y-101340000D03*
X109090000Y-101340000D03*
%TD*%
%TO.C,Q1523*%
X110130000Y-83560000D03*
X111630000Y-83560000D03*
%TD*%
%TO.C,Q1616*%
X92350000Y-86100000D03*
X93850000Y-86100000D03*
%TD*%
%TO.C,Q0816*%
X92350000Y-65780000D03*
X93850000Y-65780000D03*
%TD*%
%TO.C,Q1304*%
X61870000Y-78480000D03*
X63370000Y-78480000D03*
%TD*%
%TO.C,Q1426*%
X117750000Y-81020000D03*
X119250000Y-81020000D03*
%TD*%
%TO.C,Q2430*%
X127910000Y-106420000D03*
X129410000Y-106420000D03*
%TD*%
%TO.C,Q0117*%
X94890000Y-48000000D03*
X96390000Y-48000000D03*
%TD*%
%TO.C,Q2408*%
X72030000Y-106420000D03*
X73530000Y-106420000D03*
%TD*%
%TO.C,Q0417*%
X94890000Y-55620000D03*
X96390000Y-55620000D03*
%TD*%
%TO.C,Q1412*%
X82190000Y-81020000D03*
X83690000Y-81020000D03*
%TD*%
%TO.C,Q3203*%
X59330000Y-126740000D03*
X60830000Y-126740000D03*
%TD*%
%TO.C,Q1529*%
X125370000Y-83560000D03*
X126870000Y-83560000D03*
%TD*%
%TO.C,Q1904*%
X61870000Y-93720000D03*
X63370000Y-93720000D03*
%TD*%
%TO.C,Q2912*%
X82190000Y-119120000D03*
X83690000Y-119120000D03*
%TD*%
%TO.C,Q0207*%
X69490000Y-50540000D03*
X70990000Y-50540000D03*
%TD*%
%TO.C,Q1030*%
X127910000Y-70860000D03*
X129410000Y-70860000D03*
%TD*%
%TO.C,Q0824*%
X112670000Y-65780000D03*
X114170000Y-65780000D03*
%TD*%
%TO.C,Q1826*%
X117750000Y-91180000D03*
X119250000Y-91180000D03*
%TD*%
%TO.C,Q3220*%
X102510000Y-126740000D03*
X104010000Y-126740000D03*
%TD*%
%TO.C,Q1830*%
X127910000Y-91180000D03*
X129410000Y-91180000D03*
%TD*%
%TO.C,Q2730*%
X127910000Y-114040000D03*
X129410000Y-114040000D03*
%TD*%
%TO.C,Q2608*%
X72030000Y-111500000D03*
X73530000Y-111500000D03*
%TD*%
%TO.C,Q0703*%
X59330000Y-63240000D03*
X60830000Y-63240000D03*
%TD*%
%TO.C,Q1630*%
X127910000Y-86100000D03*
X129410000Y-86100000D03*
%TD*%
%TO.C,Q1808*%
X72030000Y-91180000D03*
X73530000Y-91180000D03*
%TD*%
%TO.C,Q3207*%
X69490000Y-126740000D03*
X70990000Y-126740000D03*
%TD*%
%TO.C,Q1501*%
X54250000Y-83560000D03*
X55750000Y-83560000D03*
%TD*%
%TO.C,Q0407*%
X69490000Y-55620000D03*
X70990000Y-55620000D03*
%TD*%
%TO.C,Q2011*%
X79650000Y-96260000D03*
X81150000Y-96260000D03*
%TD*%
%TO.C,Q2305*%
X64410000Y-103880000D03*
X65910000Y-103880000D03*
%TD*%
%TO.C,Q2821*%
X105050000Y-116580000D03*
X106550000Y-116580000D03*
%TD*%
%TO.C,Q0422*%
X107590000Y-55620000D03*
X109090000Y-55620000D03*
%TD*%
%TO.C,Q0402*%
X56790000Y-55620000D03*
X58290000Y-55620000D03*
%TD*%
%TO.C,Q0222*%
X107590000Y-50540000D03*
X109090000Y-50540000D03*
%TD*%
%TO.C,Q2610*%
X77110000Y-111500000D03*
X78610000Y-111500000D03*
%TD*%
%TO.C,Q2010*%
X77110000Y-96260000D03*
X78610000Y-96260000D03*
%TD*%
%TO.C,Q1930*%
X127910000Y-93720000D03*
X129410000Y-93720000D03*
%TD*%
%TO.C,Q1502*%
X56790000Y-83560000D03*
X58290000Y-83560000D03*
%TD*%
%TO.C,Q1003*%
X59330000Y-70860000D03*
X60830000Y-70860000D03*
%TD*%
%TO.C,Q0619*%
X99970000Y-60700000D03*
X101470000Y-60700000D03*
%TD*%
%TO.C,Q2603*%
X59330000Y-111500000D03*
X60830000Y-111500000D03*
%TD*%
%TO.C,Q0919*%
X99970000Y-68320000D03*
X101470000Y-68320000D03*
%TD*%
%TO.C,Q0220*%
X102510000Y-50540000D03*
X104010000Y-50540000D03*
%TD*%
%TO.C,Q2606*%
X66950000Y-111500000D03*
X68450000Y-111500000D03*
%TD*%
%TO.C,Q2119*%
X99970000Y-98800000D03*
X101470000Y-98800000D03*
%TD*%
%TO.C,Q1925*%
X115210000Y-93720000D03*
X116710000Y-93720000D03*
%TD*%
%TO.C,Q1718*%
X97430000Y-88640000D03*
X98930000Y-88640000D03*
%TD*%
%TO.C,Q1312*%
X82190000Y-78480000D03*
X83690000Y-78480000D03*
%TD*%
%TO.C,Q1705*%
X64410000Y-88640000D03*
X65910000Y-88640000D03*
%TD*%
%TO.C,Q0802*%
X56790000Y-65780000D03*
X58290000Y-65780000D03*
%TD*%
%TO.C,Q0219*%
X99970000Y-50540000D03*
X101470000Y-50540000D03*
%TD*%
%TO.C,Q1803*%
X59330000Y-91180000D03*
X60830000Y-91180000D03*
%TD*%
%TO.C,Q2418*%
X97430000Y-106420000D03*
X98930000Y-106420000D03*
%TD*%
%TO.C,Q1503*%
X59330000Y-83560000D03*
X60830000Y-83560000D03*
%TD*%
%TO.C,Q1716*%
X92350000Y-88640000D03*
X93850000Y-88640000D03*
%TD*%
%TO.C,Q2812*%
X82190000Y-116580000D03*
X83690000Y-116580000D03*
%TD*%
%TO.C,Q1721*%
X105050000Y-88640000D03*
X106550000Y-88640000D03*
%TD*%
%TO.C,Q1530*%
X127910000Y-83560000D03*
X129410000Y-83560000D03*
%TD*%
%TO.C,Q3223*%
X110130000Y-126740000D03*
X111630000Y-126740000D03*
%TD*%
%TO.C,Q2223*%
X110130000Y-101340000D03*
X111630000Y-101340000D03*
%TD*%
%TO.C,Q0715*%
X89810000Y-63240000D03*
X91310000Y-63240000D03*
%TD*%
%TO.C,Q1215*%
X89810000Y-75940000D03*
X91310000Y-75940000D03*
%TD*%
%TO.C,Q1916*%
X92350000Y-93720000D03*
X93850000Y-93720000D03*
%TD*%
%TO.C,Q0524*%
X112670000Y-58160000D03*
X114170000Y-58160000D03*
%TD*%
%TO.C,Q1204*%
X61870000Y-75940000D03*
X63370000Y-75940000D03*
%TD*%
%TO.C,Q1010*%
X77110000Y-70860000D03*
X78610000Y-70860000D03*
%TD*%
%TO.C,Q2325*%
X115210000Y-103880000D03*
X116710000Y-103880000D03*
%TD*%
%TO.C,Q0626*%
X117750000Y-60700000D03*
X119250000Y-60700000D03*
%TD*%
%TO.C,Q2218*%
X97430000Y-101340000D03*
X98930000Y-101340000D03*
%TD*%
%TO.C,Q0123*%
X110130000Y-48000000D03*
X111630000Y-48000000D03*
%TD*%
%TO.C,Q0609*%
X74570000Y-60700000D03*
X76070000Y-60700000D03*
%TD*%
%TO.C,Q0403*%
X59330000Y-55620000D03*
X60830000Y-55620000D03*
%TD*%
%TO.C,Q0629*%
X125370000Y-60700000D03*
X126870000Y-60700000D03*
%TD*%
%TO.C,Q2014*%
X87270000Y-96260000D03*
X88770000Y-96260000D03*
%TD*%
%TO.C,Q1209*%
X74570000Y-75940000D03*
X76070000Y-75940000D03*
%TD*%
%TO.C,Q2517*%
X94890000Y-108960000D03*
X96390000Y-108960000D03*
%TD*%
%TO.C,Q2226*%
X117750000Y-101340000D03*
X119250000Y-101340000D03*
%TD*%
%TO.C,Q1921*%
X105050000Y-93720000D03*
X106550000Y-93720000D03*
%TD*%
%TO.C,Q3005*%
X64410000Y-121660000D03*
X65910000Y-121660000D03*
%TD*%
%TO.C,Q1009*%
X74570000Y-70860000D03*
X76070000Y-70860000D03*
%TD*%
%TO.C,Q0632*%
X132990000Y-60700000D03*
X134490000Y-60700000D03*
%TD*%
%TO.C,Q0729*%
X125370000Y-63240000D03*
X126870000Y-63240000D03*
%TD*%
%TO.C,Q1810*%
X77110000Y-91180000D03*
X78610000Y-91180000D03*
%TD*%
%TO.C,Q3230*%
X127910000Y-126740000D03*
X129410000Y-126740000D03*
%TD*%
%TO.C,Q3224*%
X112670000Y-126740000D03*
X114170000Y-126740000D03*
%TD*%
%TO.C,Q1519*%
X99970000Y-83560000D03*
X101470000Y-83560000D03*
%TD*%
%TO.C,Q2201*%
X54250000Y-101340000D03*
X55750000Y-101340000D03*
%TD*%
%TO.C,Q0131*%
X130450000Y-48000000D03*
X131950000Y-48000000D03*
%TD*%
%TO.C,Q0527*%
X120290000Y-58160000D03*
X121790000Y-58160000D03*
%TD*%
%TO.C,Q1525*%
X115210000Y-83560000D03*
X116710000Y-83560000D03*
%TD*%
%TO.C,Q3008*%
X72030000Y-121660000D03*
X73530000Y-121660000D03*
%TD*%
%TO.C,Q0101*%
X54250000Y-48000000D03*
X55750000Y-48000000D03*
%TD*%
%TO.C,Q1626*%
X117750000Y-86100000D03*
X119250000Y-86100000D03*
%TD*%
%TO.C,Q1727*%
X120290000Y-88640000D03*
X121790000Y-88640000D03*
%TD*%
%TO.C,Q0731*%
X130450000Y-63240000D03*
X131950000Y-63240000D03*
%TD*%
%TO.C,Q0114*%
X87270000Y-48000000D03*
X88770000Y-48000000D03*
%TD*%
%TO.C,Q1610*%
X77110000Y-86100000D03*
X78610000Y-86100000D03*
%TD*%
%TO.C,Q0229*%
X125370000Y-50540000D03*
X126870000Y-50540000D03*
%TD*%
%TO.C,Q0528*%
X122830000Y-58160000D03*
X124330000Y-58160000D03*
%TD*%
%TO.C,Q2023*%
X110130000Y-96260000D03*
X111630000Y-96260000D03*
%TD*%
%TO.C,Q2510*%
X77110000Y-108960000D03*
X78610000Y-108960000D03*
%TD*%
%TO.C,Q2518*%
X97430000Y-108960000D03*
X98930000Y-108960000D03*
%TD*%
%TO.C,Q0505*%
X64410000Y-58160000D03*
X65910000Y-58160000D03*
%TD*%
%TO.C,Q0827*%
X120290000Y-65780000D03*
X121790000Y-65780000D03*
%TD*%
%TO.C,Q1701*%
X54250000Y-88640000D03*
X55750000Y-88640000D03*
%TD*%
%TO.C,Q0232*%
X132990000Y-50540000D03*
X134490000Y-50540000D03*
%TD*%
%TO.C,Q0926*%
X117750000Y-68320000D03*
X119250000Y-68320000D03*
%TD*%
%TO.C,Q1017*%
X94890000Y-70860000D03*
X96390000Y-70860000D03*
%TD*%
%TO.C,Q0523*%
X110130000Y-58160000D03*
X111630000Y-58160000D03*
%TD*%
%TO.C,Q0728*%
X122830000Y-63240000D03*
X124330000Y-63240000D03*
%TD*%
%TO.C,Q0804*%
X61870000Y-65780000D03*
X63370000Y-65780000D03*
%TD*%
%TO.C,Q2017*%
X94890000Y-96260000D03*
X96390000Y-96260000D03*
%TD*%
%TO.C,Q1332*%
X132990000Y-78480000D03*
X134490000Y-78480000D03*
%TD*%
%TO.C,Q0924*%
X112670000Y-68320000D03*
X114170000Y-68320000D03*
%TD*%
%TO.C,Q2104*%
X61870000Y-98800000D03*
X63370000Y-98800000D03*
%TD*%
%TO.C,Q1923*%
X110130000Y-93720000D03*
X111630000Y-93720000D03*
%TD*%
%TO.C,Q1812*%
X82190000Y-91180000D03*
X83690000Y-91180000D03*
%TD*%
%TO.C,Q3010*%
X77110000Y-121660000D03*
X78610000Y-121660000D03*
%TD*%
%TO.C,Q0705*%
X64410000Y-63240000D03*
X65910000Y-63240000D03*
%TD*%
%TO.C,Q0932*%
X132990000Y-68320000D03*
X134490000Y-68320000D03*
%TD*%
%TO.C,Q2028*%
X122830000Y-96260000D03*
X124330000Y-96260000D03*
%TD*%
%TO.C,Q0419*%
X99970000Y-55620000D03*
X101470000Y-55620000D03*
%TD*%
%TO.C,Q2822*%
X107590000Y-116580000D03*
X109090000Y-116580000D03*
%TD*%
%TO.C,Q0413*%
X84730000Y-55620000D03*
X86230000Y-55620000D03*
%TD*%
%TO.C,Q1114*%
X87270000Y-73400000D03*
X88770000Y-73400000D03*
%TD*%
%TO.C,Q2719*%
X99970000Y-114040000D03*
X101470000Y-114040000D03*
%TD*%
%TO.C,Q1213*%
X84730000Y-75940000D03*
X86230000Y-75940000D03*
%TD*%
%TO.C,Q2801*%
X54250000Y-116580000D03*
X55750000Y-116580000D03*
%TD*%
%TO.C,Q0916*%
X92350000Y-68320000D03*
X93850000Y-68320000D03*
%TD*%
%TO.C,Q3131*%
X130450000Y-124200000D03*
X131950000Y-124200000D03*
%TD*%
%TO.C,Q3016*%
X92350000Y-121660000D03*
X93850000Y-121660000D03*
%TD*%
%TO.C,Q0210*%
X77110000Y-50540000D03*
X78610000Y-50540000D03*
%TD*%
%TO.C,Q0825*%
X115210000Y-65780000D03*
X116710000Y-65780000D03*
%TD*%
%TO.C,Q3119*%
X99970000Y-124200000D03*
X101470000Y-124200000D03*
%TD*%
%TO.C,Q1431*%
X130450000Y-81020000D03*
X131950000Y-81020000D03*
%TD*%
%TO.C,Q1823*%
X110130000Y-91180000D03*
X111630000Y-91180000D03*
%TD*%
%TO.C,Q0821*%
X105050000Y-65780000D03*
X106550000Y-65780000D03*
%TD*%
%TO.C,Q1729*%
X125370000Y-88640000D03*
X126870000Y-88640000D03*
%TD*%
%TO.C,Q1728*%
X122830000Y-88640000D03*
X124330000Y-88640000D03*
%TD*%
%TO.C,Q2009*%
X74570000Y-96260000D03*
X76070000Y-96260000D03*
%TD*%
%TO.C,Q1410*%
X77110000Y-81020000D03*
X78610000Y-81020000D03*
%TD*%
%TO.C,Q3111*%
X79650000Y-124200000D03*
X81150000Y-124200000D03*
%TD*%
%TO.C,Q1320*%
X102510000Y-78480000D03*
X104010000Y-78480000D03*
%TD*%
%TO.C,Q2114*%
X87270000Y-98800000D03*
X88770000Y-98800000D03*
%TD*%
%TO.C,Q0714*%
X87270000Y-63240000D03*
X88770000Y-63240000D03*
%TD*%
%TO.C,Q0604*%
X61870000Y-60700000D03*
X63370000Y-60700000D03*
%TD*%
%TO.C,Q2909*%
X74570000Y-119120000D03*
X76070000Y-119120000D03*
%TD*%
%TO.C,Q2316*%
X92350000Y-103880000D03*
X93850000Y-103880000D03*
%TD*%
%TO.C,Q3216*%
X92350000Y-126740000D03*
X93850000Y-126740000D03*
%TD*%
%TO.C,Q2805*%
X64410000Y-116580000D03*
X65910000Y-116580000D03*
%TD*%
%TO.C,Q2101*%
X54250000Y-98800000D03*
X55750000Y-98800000D03*
%TD*%
%TO.C,Q1321*%
X105050000Y-78480000D03*
X106550000Y-78480000D03*
%TD*%
%TO.C,Q1506*%
X66950000Y-83560000D03*
X68450000Y-83560000D03*
%TD*%
%TO.C,Q2406*%
X66950000Y-106420000D03*
X68450000Y-106420000D03*
%TD*%
%TO.C,Q2607*%
X69490000Y-111500000D03*
X70990000Y-111500000D03*
%TD*%
%TO.C,Q1002*%
X56790000Y-70860000D03*
X58290000Y-70860000D03*
%TD*%
%TO.C,Q0810*%
X77110000Y-65780000D03*
X78610000Y-65780000D03*
%TD*%
%TO.C,Q0531*%
X130450000Y-58160000D03*
X131950000Y-58160000D03*
%TD*%
%TO.C,Q2216*%
X92350000Y-101340000D03*
X93850000Y-101340000D03*
%TD*%
%TO.C,Q2012*%
X82190000Y-96260000D03*
X83690000Y-96260000D03*
%TD*%
%TO.C,Q0920*%
X102510000Y-68320000D03*
X104010000Y-68320000D03*
%TD*%
%TO.C,Q1005*%
X64410000Y-70860000D03*
X65910000Y-70860000D03*
%TD*%
%TO.C,Q0312*%
X82190000Y-53080000D03*
X83690000Y-53080000D03*
%TD*%
%TO.C,Q2720*%
X102510000Y-114040000D03*
X104010000Y-114040000D03*
%TD*%
%TO.C,Q2027*%
X120290000Y-96260000D03*
X121790000Y-96260000D03*
%TD*%
%TO.C,Q1428*%
X122830000Y-81020000D03*
X124330000Y-81020000D03*
%TD*%
%TO.C,Q1210*%
X77110000Y-75940000D03*
X78610000Y-75940000D03*
%TD*%
D11*
%TO.C,JCTL*%
X161500000Y-55000000D03*
D12*
X161500000Y-58000000D03*
X161500000Y-61000000D03*
X161500000Y-64000000D03*
X161500000Y-67000000D03*
X161500000Y-70000000D03*
X161500000Y-73000000D03*
X161500000Y-76000000D03*
X161500000Y-79000000D03*
X161500000Y-82000000D03*
X161500000Y-85000000D03*
X161500000Y-88000000D03*
X161500000Y-91000000D03*
%TD*%
D10*
%TO.C,Q2032*%
X132990000Y-96260000D03*
X134490000Y-96260000D03*
%TD*%
%TO.C,Q1301*%
X54250000Y-78480000D03*
X55750000Y-78480000D03*
%TD*%
%TO.C,Q2722*%
X107590000Y-114040000D03*
X109090000Y-114040000D03*
%TD*%
%TO.C,Q0602*%
X56790000Y-60700000D03*
X58290000Y-60700000D03*
%TD*%
%TO.C,Q1311*%
X79650000Y-78480000D03*
X81150000Y-78480000D03*
%TD*%
%TO.C,Q1028*%
X122830000Y-70860000D03*
X124330000Y-70860000D03*
%TD*%
%TO.C,Q2214*%
X87270000Y-101340000D03*
X88770000Y-101340000D03*
%TD*%
%TO.C,Q1423*%
X110130000Y-81020000D03*
X111630000Y-81020000D03*
%TD*%
%TO.C,Q3006*%
X66950000Y-121660000D03*
X68450000Y-121660000D03*
%TD*%
%TO.C,Q1932*%
X132990000Y-93720000D03*
X134490000Y-93720000D03*
%TD*%
%TO.C,Q0409*%
X74570000Y-55620000D03*
X76070000Y-55620000D03*
%TD*%
%TO.C,Q2120*%
X102510000Y-98800000D03*
X104010000Y-98800000D03*
%TD*%
%TO.C,Q1927*%
X120290000Y-93720000D03*
X121790000Y-93720000D03*
%TD*%
%TO.C,Q1909*%
X74570000Y-93720000D03*
X76070000Y-93720000D03*
%TD*%
%TO.C,Q0917*%
X94890000Y-68320000D03*
X96390000Y-68320000D03*
%TD*%
%TO.C,Q3018*%
X97430000Y-121660000D03*
X98930000Y-121660000D03*
%TD*%
%TO.C,Q2919*%
X99970000Y-119120000D03*
X101470000Y-119120000D03*
%TD*%
%TO.C,Q0212*%
X82190000Y-50540000D03*
X83690000Y-50540000D03*
%TD*%
%TO.C,Q3027*%
X120290000Y-121660000D03*
X121790000Y-121660000D03*
%TD*%
%TO.C,Q2915*%
X89810000Y-119120000D03*
X91310000Y-119120000D03*
%TD*%
%TO.C,Q1325*%
X115210000Y-78480000D03*
X116710000Y-78480000D03*
%TD*%
%TO.C,Q0627*%
X120290000Y-60700000D03*
X121790000Y-60700000D03*
%TD*%
%TO.C,Q1926*%
X117750000Y-93720000D03*
X119250000Y-93720000D03*
%TD*%
%TO.C,Q1722*%
X107590000Y-88640000D03*
X109090000Y-88640000D03*
%TD*%
%TO.C,Q1123*%
X110130000Y-73400000D03*
X111630000Y-73400000D03*
%TD*%
%TO.C,Q2121*%
X105050000Y-98800000D03*
X106550000Y-98800000D03*
%TD*%
%TO.C,Q1105*%
X64410000Y-73400000D03*
X65910000Y-73400000D03*
%TD*%
%TO.C,Q2618*%
X97430000Y-111500000D03*
X98930000Y-111500000D03*
%TD*%
%TO.C,Q0630*%
X127910000Y-60700000D03*
X129410000Y-60700000D03*
%TD*%
%TO.C,Q2024*%
X112670000Y-96260000D03*
X114170000Y-96260000D03*
%TD*%
%TO.C,Q1901*%
X54250000Y-93720000D03*
X55750000Y-93720000D03*
%TD*%
%TO.C,Q3128*%
X122830000Y-124200000D03*
X124330000Y-124200000D03*
%TD*%
%TO.C,Q1702*%
X56790000Y-88640000D03*
X58290000Y-88640000D03*
%TD*%
%TO.C,Q0401*%
X54250000Y-55620000D03*
X55750000Y-55620000D03*
%TD*%
%TO.C,Q1307*%
X69490000Y-78480000D03*
X70990000Y-78480000D03*
%TD*%
%TO.C,Q2324*%
X112670000Y-103880000D03*
X114170000Y-103880000D03*
%TD*%
%TO.C,Q1625*%
X115210000Y-86100000D03*
X116710000Y-86100000D03*
%TD*%
D13*
%TO.C,H4*%
X25000000Y-139000000D03*
%TD*%
D10*
%TO.C,Q0913*%
X84730000Y-68320000D03*
X86230000Y-68320000D03*
%TD*%
%TO.C,Q0221*%
X105050000Y-50540000D03*
X106550000Y-50540000D03*
%TD*%
%TO.C,Q2227*%
X120290000Y-101340000D03*
X121790000Y-101340000D03*
%TD*%
%TO.C,Q2622*%
X107590000Y-111500000D03*
X109090000Y-111500000D03*
%TD*%
%TO.C,Q2230*%
X127910000Y-101340000D03*
X129410000Y-101340000D03*
%TD*%
%TO.C,Q2707*%
X69490000Y-114040000D03*
X70990000Y-114040000D03*
%TD*%
%TO.C,Q0718*%
X97430000Y-63240000D03*
X98930000Y-63240000D03*
%TD*%
%TO.C,Q1025*%
X115210000Y-70860000D03*
X116710000Y-70860000D03*
%TD*%
%TO.C,Q2204*%
X61870000Y-101340000D03*
X63370000Y-101340000D03*
%TD*%
%TO.C,Q1913*%
X84730000Y-93720000D03*
X86230000Y-93720000D03*
%TD*%
%TO.C,Q2615*%
X89810000Y-111500000D03*
X91310000Y-111500000D03*
%TD*%
%TO.C,Q1020*%
X102510000Y-70860000D03*
X104010000Y-70860000D03*
%TD*%
%TO.C,Q1317*%
X94890000Y-78480000D03*
X96390000Y-78480000D03*
%TD*%
%TO.C,Q1424*%
X112670000Y-81020000D03*
X114170000Y-81020000D03*
%TD*%
%TO.C,Q0206*%
X66950000Y-50540000D03*
X68450000Y-50540000D03*
%TD*%
%TO.C,Q0611*%
X79650000Y-60700000D03*
X81150000Y-60700000D03*
%TD*%
%TO.C,Q2108*%
X72030000Y-98800000D03*
X73530000Y-98800000D03*
%TD*%
%TO.C,Q2832*%
X132990000Y-116580000D03*
X134490000Y-116580000D03*
%TD*%
%TO.C,Q1509*%
X74570000Y-83560000D03*
X76070000Y-83560000D03*
%TD*%
%TO.C,Q3115*%
X89810000Y-124200000D03*
X91310000Y-124200000D03*
%TD*%
%TO.C,Q2616*%
X92350000Y-111500000D03*
X93850000Y-111500000D03*
%TD*%
%TO.C,Q0901*%
X54250000Y-68320000D03*
X55750000Y-68320000D03*
%TD*%
%TO.C,Q2820*%
X102510000Y-116580000D03*
X104010000Y-116580000D03*
%TD*%
%TO.C,Q1404*%
X61870000Y-81020000D03*
X63370000Y-81020000D03*
%TD*%
%TO.C,Q2001*%
X54250000Y-96260000D03*
X55750000Y-96260000D03*
%TD*%
%TO.C,Q2732*%
X132990000Y-114040000D03*
X134490000Y-114040000D03*
%TD*%
%TO.C,Q2312*%
X82190000Y-103880000D03*
X83690000Y-103880000D03*
%TD*%
%TO.C,Q0102*%
X56790000Y-48000000D03*
X58290000Y-48000000D03*
%TD*%
%TO.C,Q2225*%
X115210000Y-101340000D03*
X116710000Y-101340000D03*
%TD*%
%TO.C,Q0406*%
X66950000Y-55620000D03*
X68450000Y-55620000D03*
%TD*%
%TO.C,Q0525*%
X115210000Y-58160000D03*
X116710000Y-58160000D03*
%TD*%
%TO.C,Q3125*%
X115210000Y-124200000D03*
X116710000Y-124200000D03*
%TD*%
%TO.C,Q1130*%
X127910000Y-73400000D03*
X129410000Y-73400000D03*
%TD*%
%TO.C,Q2523*%
X110130000Y-108960000D03*
X111630000Y-108960000D03*
%TD*%
%TO.C,Q1021*%
X105050000Y-70860000D03*
X106550000Y-70860000D03*
%TD*%
%TO.C,Q2902*%
X56790000Y-119120000D03*
X58290000Y-119120000D03*
%TD*%
%TO.C,Q2107*%
X69490000Y-98800000D03*
X70990000Y-98800000D03*
%TD*%
%TO.C,Q2105*%
X64410000Y-98800000D03*
X65910000Y-98800000D03*
%TD*%
%TO.C,Q1416*%
X92350000Y-81020000D03*
X93850000Y-81020000D03*
%TD*%
%TO.C,Q1024*%
X112670000Y-70860000D03*
X114170000Y-70860000D03*
%TD*%
%TO.C,Q0301*%
X54250000Y-53080000D03*
X55750000Y-53080000D03*
%TD*%
%TO.C,Q0522*%
X107590000Y-58160000D03*
X109090000Y-58160000D03*
%TD*%
%TO.C,Q1109*%
X74570000Y-73400000D03*
X76070000Y-73400000D03*
%TD*%
%TO.C,Q1219*%
X99970000Y-75940000D03*
X101470000Y-75940000D03*
%TD*%
%TO.C,Q3108*%
X72030000Y-124200000D03*
X73530000Y-124200000D03*
%TD*%
%TO.C,Q0709*%
X74570000Y-63240000D03*
X76070000Y-63240000D03*
%TD*%
%TO.C,Q0722*%
X107590000Y-63240000D03*
X109090000Y-63240000D03*
%TD*%
%TO.C,Q2605*%
X64410000Y-111500000D03*
X65910000Y-111500000D03*
%TD*%
%TO.C,Q0204*%
X61870000Y-50540000D03*
X63370000Y-50540000D03*
%TD*%
%TO.C,Q0903*%
X59330000Y-68320000D03*
X60830000Y-68320000D03*
%TD*%
%TO.C,Q1726*%
X117750000Y-88640000D03*
X119250000Y-88640000D03*
%TD*%
%TO.C,Q2923*%
X110130000Y-119120000D03*
X111630000Y-119120000D03*
%TD*%
%TO.C,Q1122*%
X107590000Y-73400000D03*
X109090000Y-73400000D03*
%TD*%
%TO.C,Q2823*%
X110130000Y-116580000D03*
X111630000Y-116580000D03*
%TD*%
%TO.C,Q1110*%
X77110000Y-73400000D03*
X78610000Y-73400000D03*
%TD*%
%TO.C,Q1223*%
X110130000Y-75940000D03*
X111630000Y-75940000D03*
%TD*%
%TO.C,Q1415*%
X89810000Y-81020000D03*
X91310000Y-81020000D03*
%TD*%
%TO.C,Q2929*%
X125370000Y-119120000D03*
X126870000Y-119120000D03*
%TD*%
%TO.C,Q1205*%
X64410000Y-75940000D03*
X65910000Y-75940000D03*
%TD*%
%TO.C,Q0514*%
X87270000Y-58160000D03*
X88770000Y-58160000D03*
%TD*%
%TO.C,Q2619*%
X99970000Y-111500000D03*
X101470000Y-111500000D03*
%TD*%
%TO.C,Q1229*%
X125370000Y-75940000D03*
X126870000Y-75940000D03*
%TD*%
%TO.C,Q0931*%
X130450000Y-68320000D03*
X131950000Y-68320000D03*
%TD*%
%TO.C,Q0510*%
X77110000Y-58160000D03*
X78610000Y-58160000D03*
%TD*%
%TO.C,Q2323*%
X110130000Y-103880000D03*
X111630000Y-103880000D03*
%TD*%
%TO.C,Q0307*%
X69490000Y-53080000D03*
X70990000Y-53080000D03*
%TD*%
%TO.C,Q3024*%
X112670000Y-121660000D03*
X114170000Y-121660000D03*
%TD*%
%TO.C,Q2729*%
X125370000Y-114040000D03*
X126870000Y-114040000D03*
%TD*%
%TO.C,Q1516*%
X92350000Y-83560000D03*
X93850000Y-83560000D03*
%TD*%
%TO.C,Q1429*%
X125370000Y-81020000D03*
X126870000Y-81020000D03*
%TD*%
%TO.C,Q1308*%
X72030000Y-78480000D03*
X73530000Y-78480000D03*
%TD*%
%TO.C,Q2531*%
X130450000Y-108960000D03*
X131950000Y-108960000D03*
%TD*%
%TO.C,Q1619*%
X99970000Y-86100000D03*
X101470000Y-86100000D03*
%TD*%
%TO.C,Q0110*%
X77110000Y-48000000D03*
X78610000Y-48000000D03*
%TD*%
%TO.C,Q2127*%
X120290000Y-98800000D03*
X121790000Y-98800000D03*
%TD*%
%TO.C,Q3114*%
X87270000Y-124200000D03*
X88770000Y-124200000D03*
%TD*%
%TO.C,Q3225*%
X115210000Y-126740000D03*
X116710000Y-126740000D03*
%TD*%
%TO.C,Q0521*%
X105050000Y-58160000D03*
X106550000Y-58160000D03*
%TD*%
%TO.C,Q2019*%
X99970000Y-96260000D03*
X101470000Y-96260000D03*
%TD*%
%TO.C,Q1511*%
X79650000Y-83560000D03*
X81150000Y-83560000D03*
%TD*%
%TO.C,Q0512*%
X82190000Y-58160000D03*
X83690000Y-58160000D03*
%TD*%
%TO.C,Q2810*%
X77110000Y-116580000D03*
X78610000Y-116580000D03*
%TD*%
%TO.C,Q2524*%
X112670000Y-108960000D03*
X114170000Y-108960000D03*
%TD*%
%TO.C,Q3017*%
X94890000Y-121660000D03*
X96390000Y-121660000D03*
%TD*%
%TO.C,Q2611*%
X79650000Y-111500000D03*
X81150000Y-111500000D03*
%TD*%
%TO.C,Q2308*%
X72030000Y-103880000D03*
X73530000Y-103880000D03*
%TD*%
%TO.C,Q0605*%
X64410000Y-60700000D03*
X65910000Y-60700000D03*
%TD*%
%TO.C,Q2414*%
X87270000Y-106420000D03*
X88770000Y-106420000D03*
%TD*%
%TO.C,Q2321*%
X105050000Y-103880000D03*
X106550000Y-103880000D03*
%TD*%
%TO.C,Q1713*%
X84730000Y-88640000D03*
X86230000Y-88640000D03*
%TD*%
%TO.C,Q0325*%
X115210000Y-53080000D03*
X116710000Y-53080000D03*
%TD*%
%TO.C,Q1115*%
X89810000Y-73400000D03*
X91310000Y-73400000D03*
%TD*%
%TO.C,Q1621*%
X105050000Y-86100000D03*
X106550000Y-86100000D03*
%TD*%
%TO.C,Q0315*%
X89810000Y-53080000D03*
X91310000Y-53080000D03*
%TD*%
%TO.C,Q2931*%
X130450000Y-119120000D03*
X131950000Y-119120000D03*
%TD*%
%TO.C,Q2913*%
X84730000Y-119120000D03*
X86230000Y-119120000D03*
%TD*%
%TO.C,Q0719*%
X99970000Y-63240000D03*
X101470000Y-63240000D03*
%TD*%
%TO.C,Q1725*%
X115210000Y-88640000D03*
X116710000Y-88640000D03*
%TD*%
%TO.C,Q1018*%
X97430000Y-70860000D03*
X98930000Y-70860000D03*
%TD*%
%TO.C,Q2717*%
X94890000Y-114040000D03*
X96390000Y-114040000D03*
%TD*%
%TO.C,Q0725*%
X115210000Y-63240000D03*
X116710000Y-63240000D03*
%TD*%
%TO.C,Q2921*%
X105050000Y-119120000D03*
X106550000Y-119120000D03*
%TD*%
%TO.C,Q1929*%
X125370000Y-93720000D03*
X126870000Y-93720000D03*
%TD*%
%TO.C,Q0330*%
X127910000Y-53080000D03*
X129410000Y-53080000D03*
%TD*%
%TO.C,Q2220*%
X102510000Y-101340000D03*
X104010000Y-101340000D03*
%TD*%
%TO.C,Q0203*%
X59330000Y-50540000D03*
X60830000Y-50540000D03*
%TD*%
%TO.C,Q2807*%
X69490000Y-116580000D03*
X70990000Y-116580000D03*
%TD*%
%TO.C,Q2224*%
X112670000Y-101340000D03*
X114170000Y-101340000D03*
%TD*%
%TO.C,Q0519*%
X99970000Y-58160000D03*
X101470000Y-58160000D03*
%TD*%
%TO.C,Q3004*%
X61870000Y-121660000D03*
X63370000Y-121660000D03*
%TD*%
%TO.C,Q0223*%
X110130000Y-50540000D03*
X111630000Y-50540000D03*
%TD*%
%TO.C,Q1515*%
X89810000Y-83560000D03*
X91310000Y-83560000D03*
%TD*%
%TO.C,Q0321*%
X105050000Y-53080000D03*
X106550000Y-53080000D03*
%TD*%
%TO.C,Q2501*%
X54250000Y-108960000D03*
X55750000Y-108960000D03*
%TD*%
%TO.C,Q2509*%
X74570000Y-108960000D03*
X76070000Y-108960000D03*
%TD*%
%TO.C,Q0108*%
X72030000Y-48000000D03*
X73530000Y-48000000D03*
%TD*%
%TO.C,Q3215*%
X89810000Y-126740000D03*
X91310000Y-126740000D03*
%TD*%
%TO.C,Q2808*%
X72030000Y-116580000D03*
X73530000Y-116580000D03*
%TD*%
%TO.C,Q1132*%
X132990000Y-73400000D03*
X134490000Y-73400000D03*
%TD*%
%TO.C,Q3202*%
X56790000Y-126740000D03*
X58290000Y-126740000D03*
%TD*%
%TO.C,Q1703*%
X59330000Y-88640000D03*
X60830000Y-88640000D03*
%TD*%
%TO.C,Q2417*%
X94890000Y-106420000D03*
X96390000Y-106420000D03*
%TD*%
%TO.C,Q1711*%
X79650000Y-88640000D03*
X81150000Y-88640000D03*
%TD*%
%TO.C,Q3210*%
X77110000Y-126740000D03*
X78610000Y-126740000D03*
%TD*%
%TO.C,Q0327*%
X120290000Y-53080000D03*
X121790000Y-53080000D03*
%TD*%
%TO.C,Q1623*%
X110130000Y-86100000D03*
X111630000Y-86100000D03*
%TD*%
%TO.C,Q2709*%
X74570000Y-114040000D03*
X76070000Y-114040000D03*
%TD*%
%TO.C,Q1507*%
X69490000Y-83560000D03*
X70990000Y-83560000D03*
%TD*%
%TO.C,Q2003*%
X59330000Y-96260000D03*
X60830000Y-96260000D03*
%TD*%
%TO.C,Q2708*%
X72030000Y-114040000D03*
X73530000Y-114040000D03*
%TD*%
%TO.C,Q0202*%
X56790000Y-50540000D03*
X58290000Y-50540000D03*
%TD*%
%TO.C,Q2526*%
X117750000Y-108960000D03*
X119250000Y-108960000D03*
%TD*%
%TO.C,Q3124*%
X112670000Y-124200000D03*
X114170000Y-124200000D03*
%TD*%
%TO.C,Q3213*%
X84730000Y-126740000D03*
X86230000Y-126740000D03*
%TD*%
%TO.C,Q0617*%
X94890000Y-60700000D03*
X96390000Y-60700000D03*
%TD*%
%TO.C,Q3117*%
X94890000Y-124200000D03*
X96390000Y-124200000D03*
%TD*%
%TO.C,Q0610*%
X77110000Y-60700000D03*
X78610000Y-60700000D03*
%TD*%
%TO.C,Q1432*%
X132990000Y-81020000D03*
X134490000Y-81020000D03*
%TD*%
%TO.C,Q3232*%
X132990000Y-126740000D03*
X134490000Y-126740000D03*
%TD*%
%TO.C,Q2302*%
X56790000Y-103880000D03*
X58290000Y-103880000D03*
%TD*%
%TO.C,Q1231*%
X130450000Y-75940000D03*
X131950000Y-75940000D03*
%TD*%
%TO.C,Q1319*%
X99970000Y-78480000D03*
X101470000Y-78480000D03*
%TD*%
%TO.C,Q0532*%
X132990000Y-58160000D03*
X134490000Y-58160000D03*
%TD*%
%TO.C,Q2816*%
X92350000Y-116580000D03*
X93850000Y-116580000D03*
%TD*%
%TO.C,Q0211*%
X79650000Y-50540000D03*
X81150000Y-50540000D03*
%TD*%
%TO.C,Q1228*%
X122830000Y-75940000D03*
X124330000Y-75940000D03*
%TD*%
%TO.C,Q3021*%
X105050000Y-121660000D03*
X106550000Y-121660000D03*
%TD*%
%TO.C,Q1227*%
X120290000Y-75940000D03*
X121790000Y-75940000D03*
%TD*%
%TO.C,Q2632*%
X132990000Y-111500000D03*
X134490000Y-111500000D03*
%TD*%
%TO.C,Q0107*%
X69490000Y-48000000D03*
X70990000Y-48000000D03*
%TD*%
%TO.C,Q2309*%
X74570000Y-103880000D03*
X76070000Y-103880000D03*
%TD*%
%TO.C,Q0103*%
X59330000Y-48000000D03*
X60830000Y-48000000D03*
%TD*%
%TO.C,Q1408*%
X72030000Y-81020000D03*
X73530000Y-81020000D03*
%TD*%
%TO.C,Q0201*%
X54250000Y-50540000D03*
X55750000Y-50540000D03*
%TD*%
%TO.C,Q2205*%
X64410000Y-101340000D03*
X65910000Y-101340000D03*
%TD*%
%TO.C,Q2906*%
X66950000Y-119120000D03*
X68450000Y-119120000D03*
%TD*%
%TO.C,Q1614*%
X87270000Y-86100000D03*
X88770000Y-86100000D03*
%TD*%
%TO.C,Q2827*%
X120290000Y-116580000D03*
X121790000Y-116580000D03*
%TD*%
D13*
%TO.C,H2*%
X167000000Y-25000000D03*
%TD*%
D10*
%TO.C,Q0511*%
X79650000Y-58160000D03*
X81150000Y-58160000D03*
%TD*%
%TO.C,Q2927*%
X120290000Y-119120000D03*
X121790000Y-119120000D03*
%TD*%
%TO.C,Q3129*%
X125370000Y-124200000D03*
X126870000Y-124200000D03*
%TD*%
%TO.C,Q3019*%
X99970000Y-121660000D03*
X101470000Y-121660000D03*
%TD*%
%TO.C,Q2525*%
X115210000Y-108960000D03*
X116710000Y-108960000D03*
%TD*%
%TO.C,Q0518*%
X97430000Y-58160000D03*
X98930000Y-58160000D03*
%TD*%
%TO.C,Q2116*%
X92350000Y-98800000D03*
X93850000Y-98800000D03*
%TD*%
%TO.C,Q1128*%
X122830000Y-73400000D03*
X124330000Y-73400000D03*
%TD*%
%TO.C,Q0929*%
X125370000Y-68320000D03*
X126870000Y-68320000D03*
%TD*%
%TO.C,Q0209*%
X74570000Y-50540000D03*
X76070000Y-50540000D03*
%TD*%
%TO.C,Q2410*%
X77110000Y-106420000D03*
X78610000Y-106420000D03*
%TD*%
%TO.C,Q2916*%
X92350000Y-119120000D03*
X93850000Y-119120000D03*
%TD*%
%TO.C,Q2705*%
X64410000Y-114040000D03*
X65910000Y-114040000D03*
%TD*%
%TO.C,Q0914*%
X87270000Y-68320000D03*
X88770000Y-68320000D03*
%TD*%
%TO.C,Q2132*%
X132990000Y-98800000D03*
X134490000Y-98800000D03*
%TD*%
%TO.C,Q1704*%
X61870000Y-88640000D03*
X63370000Y-88640000D03*
%TD*%
%TO.C,Q2914*%
X87270000Y-119120000D03*
X88770000Y-119120000D03*
%TD*%
%TO.C,Q1430*%
X127910000Y-81020000D03*
X129410000Y-81020000D03*
%TD*%
%TO.C,Q0323*%
X110130000Y-53080000D03*
X111630000Y-53080000D03*
%TD*%
%TO.C,Q1013*%
X84730000Y-70860000D03*
X86230000Y-70860000D03*
%TD*%
%TO.C,Q2602*%
X56790000Y-111500000D03*
X58290000Y-111500000D03*
%TD*%
%TO.C,Q2803*%
X59330000Y-116580000D03*
X60830000Y-116580000D03*
%TD*%
%TO.C,Q3013*%
X84730000Y-121660000D03*
X86230000Y-121660000D03*
%TD*%
%TO.C,Q1715*%
X89810000Y-88640000D03*
X91310000Y-88640000D03*
%TD*%
%TO.C,Q1407*%
X69490000Y-81020000D03*
X70990000Y-81020000D03*
%TD*%
%TO.C,Q1414*%
X87270000Y-81020000D03*
X88770000Y-81020000D03*
%TD*%
%TO.C,Q2026*%
X117750000Y-96260000D03*
X119250000Y-96260000D03*
%TD*%
%TO.C,Q2507*%
X69490000Y-108960000D03*
X70990000Y-108960000D03*
%TD*%
%TO.C,Q0805*%
X64410000Y-65780000D03*
X65910000Y-65780000D03*
%TD*%
%TO.C,Q0317*%
X94890000Y-53080000D03*
X96390000Y-53080000D03*
%TD*%
%TO.C,Q1604*%
X61870000Y-86100000D03*
X63370000Y-86100000D03*
%TD*%
%TO.C,Q0331*%
X130450000Y-53080000D03*
X131950000Y-53080000D03*
%TD*%
%TO.C,Q3023*%
X110130000Y-121660000D03*
X111630000Y-121660000D03*
%TD*%
%TO.C,Q0118*%
X97430000Y-48000000D03*
X98930000Y-48000000D03*
%TD*%
%TO.C,Q2604*%
X61870000Y-111500000D03*
X63370000Y-111500000D03*
%TD*%
%TO.C,Q1402*%
X56790000Y-81020000D03*
X58290000Y-81020000D03*
%TD*%
%TO.C,Q2332*%
X132990000Y-103880000D03*
X134490000Y-103880000D03*
%TD*%
%TO.C,Q0306*%
X66950000Y-53080000D03*
X68450000Y-53080000D03*
%TD*%
%TO.C,Q0813*%
X84730000Y-65780000D03*
X86230000Y-65780000D03*
%TD*%
%TO.C,Q2623*%
X110130000Y-111500000D03*
X111630000Y-111500000D03*
%TD*%
%TO.C,Q1508*%
X72030000Y-83560000D03*
X73530000Y-83560000D03*
%TD*%
%TO.C,Q0814*%
X87270000Y-65780000D03*
X88770000Y-65780000D03*
%TD*%
%TO.C,Q1220*%
X102510000Y-75940000D03*
X104010000Y-75940000D03*
%TD*%
%TO.C,Q2629*%
X125370000Y-111500000D03*
X126870000Y-111500000D03*
%TD*%
%TO.C,Q1806*%
X66950000Y-91180000D03*
X68450000Y-91180000D03*
%TD*%
%TO.C,Q1807*%
X69490000Y-91180000D03*
X70990000Y-91180000D03*
%TD*%
%TO.C,Q1615*%
X89810000Y-86100000D03*
X91310000Y-86100000D03*
%TD*%
%TO.C,Q0615*%
X89810000Y-60700000D03*
X91310000Y-60700000D03*
%TD*%
%TO.C,Q2131*%
X130450000Y-98800000D03*
X131950000Y-98800000D03*
%TD*%
%TO.C,Q3217*%
X94890000Y-126740000D03*
X96390000Y-126740000D03*
%TD*%
%TO.C,Q2315*%
X89810000Y-103880000D03*
X91310000Y-103880000D03*
%TD*%
%TO.C,Q2419*%
X99970000Y-106420000D03*
X101470000Y-106420000D03*
%TD*%
%TO.C,Q0809*%
X74570000Y-65780000D03*
X76070000Y-65780000D03*
%TD*%
%TO.C,Q0912*%
X82190000Y-68320000D03*
X83690000Y-68320000D03*
%TD*%
%TO.C,Q2005*%
X64410000Y-96260000D03*
X65910000Y-96260000D03*
%TD*%
%TO.C,Q2008*%
X72030000Y-96260000D03*
X73530000Y-96260000D03*
%TD*%
%TO.C,Q2506*%
X66950000Y-108960000D03*
X68450000Y-108960000D03*
%TD*%
%TO.C,Q1818*%
X97430000Y-91180000D03*
X98930000Y-91180000D03*
%TD*%
%TO.C,Q0119*%
X99970000Y-48000000D03*
X101470000Y-48000000D03*
%TD*%
%TO.C,Q2112*%
X82190000Y-98800000D03*
X83690000Y-98800000D03*
%TD*%
%TO.C,Q1318*%
X97430000Y-78480000D03*
X98930000Y-78480000D03*
%TD*%
%TO.C,Q0915*%
X89810000Y-68320000D03*
X91310000Y-68320000D03*
%TD*%
%TO.C,Q1514*%
X87270000Y-83560000D03*
X88770000Y-83560000D03*
%TD*%
%TO.C,Q1120*%
X102510000Y-73400000D03*
X104010000Y-73400000D03*
%TD*%
%TO.C,Q2311*%
X79650000Y-103880000D03*
X81150000Y-103880000D03*
%TD*%
%TO.C,Q1720*%
X102510000Y-88640000D03*
X104010000Y-88640000D03*
%TD*%
%TO.C,Q0309*%
X74570000Y-53080000D03*
X76070000Y-53080000D03*
%TD*%
%TO.C,Q3226*%
X117750000Y-126740000D03*
X119250000Y-126740000D03*
%TD*%
%TO.C,Q1708*%
X72030000Y-88640000D03*
X73530000Y-88640000D03*
%TD*%
%TO.C,Q0631*%
X130450000Y-60700000D03*
X131950000Y-60700000D03*
%TD*%
%TO.C,Q2926*%
X117750000Y-119120000D03*
X119250000Y-119120000D03*
%TD*%
%TO.C,Q3031*%
X130450000Y-121660000D03*
X131950000Y-121660000D03*
%TD*%
%TO.C,Q2329*%
X125370000Y-103880000D03*
X126870000Y-103880000D03*
%TD*%
%TO.C,Q1324*%
X112670000Y-78480000D03*
X114170000Y-78480000D03*
%TD*%
%TO.C,Q0231*%
X130450000Y-50540000D03*
X131950000Y-50540000D03*
%TD*%
%TO.C,Q0508*%
X72030000Y-58160000D03*
X73530000Y-58160000D03*
%TD*%
%TO.C,Q2617*%
X94890000Y-111500000D03*
X96390000Y-111500000D03*
%TD*%
%TO.C,Q1029*%
X125370000Y-70860000D03*
X126870000Y-70860000D03*
%TD*%
%TO.C,Q3228*%
X122830000Y-126740000D03*
X124330000Y-126740000D03*
%TD*%
%TO.C,Q2310*%
X77110000Y-103880000D03*
X78610000Y-103880000D03*
%TD*%
%TO.C,Q1608*%
X72030000Y-86100000D03*
X73530000Y-86100000D03*
%TD*%
%TO.C,Q1409*%
X74570000Y-81020000D03*
X76070000Y-81020000D03*
%TD*%
%TO.C,Q0704*%
X61870000Y-63240000D03*
X63370000Y-63240000D03*
%TD*%
%TO.C,Q3204*%
X61870000Y-126740000D03*
X63370000Y-126740000D03*
%TD*%
%TO.C,Q0332*%
X132990000Y-53080000D03*
X134490000Y-53080000D03*
%TD*%
%TO.C,Q1512*%
X82190000Y-83560000D03*
X83690000Y-83560000D03*
%TD*%
%TO.C,Q2007*%
X69490000Y-96260000D03*
X70990000Y-96260000D03*
%TD*%
%TO.C,Q1906*%
X66950000Y-93720000D03*
X68450000Y-93720000D03*
%TD*%
%TO.C,Q0506*%
X66950000Y-58160000D03*
X68450000Y-58160000D03*
%TD*%
%TO.C,Q1618*%
X97430000Y-86100000D03*
X98930000Y-86100000D03*
%TD*%
%TO.C,Q3032*%
X132990000Y-121660000D03*
X134490000Y-121660000D03*
%TD*%
%TO.C,Q0711*%
X79650000Y-63240000D03*
X81150000Y-63240000D03*
%TD*%
%TO.C,Q0208*%
X72030000Y-50540000D03*
X73530000Y-50540000D03*
%TD*%
%TO.C,Q2731*%
X130450000Y-114040000D03*
X131950000Y-114040000D03*
%TD*%
%TO.C,Q0502*%
X56790000Y-58160000D03*
X58290000Y-58160000D03*
%TD*%
%TO.C,Q2815*%
X89810000Y-116580000D03*
X91310000Y-116580000D03*
%TD*%
%TO.C,Q1817*%
X94890000Y-91180000D03*
X96390000Y-91180000D03*
%TD*%
%TO.C,Q2522*%
X107590000Y-108960000D03*
X109090000Y-108960000D03*
%TD*%
%TO.C,Q0115*%
X89810000Y-48000000D03*
X91310000Y-48000000D03*
%TD*%
%TO.C,Q1406*%
X66950000Y-81020000D03*
X68450000Y-81020000D03*
%TD*%
%TO.C,Q1620*%
X102510000Y-86100000D03*
X104010000Y-86100000D03*
%TD*%
%TO.C,Q1922*%
X107590000Y-93720000D03*
X109090000Y-93720000D03*
%TD*%
D14*
%TO.C,JROW*%
X28000000Y-48000000D03*
X28000000Y-50540000D03*
X28000000Y-53080000D03*
X28000000Y-55620000D03*
X28000000Y-58160000D03*
X28000000Y-60700000D03*
X28000000Y-63240000D03*
X28000000Y-65780000D03*
X28000000Y-68320000D03*
X28000000Y-70860000D03*
X28000000Y-73400000D03*
X28000000Y-75940000D03*
X28000000Y-78480000D03*
X28000000Y-81020000D03*
X28000000Y-83560000D03*
X28000000Y-86100000D03*
X28000000Y-88640000D03*
X28000000Y-91180000D03*
X28000000Y-93720000D03*
X28000000Y-96260000D03*
X28000000Y-98800000D03*
X28000000Y-101340000D03*
X28000000Y-103880000D03*
X28000000Y-106420000D03*
X28000000Y-108960000D03*
X28000000Y-111500000D03*
X28000000Y-114040000D03*
X28000000Y-116580000D03*
X28000000Y-119120000D03*
X28000000Y-121660000D03*
X28000000Y-124200000D03*
X28000000Y-126740000D03*
%TD*%
D10*
%TO.C,Q0727*%
X120290000Y-63240000D03*
X121790000Y-63240000D03*
%TD*%
%TO.C,Q1217*%
X94890000Y-75940000D03*
X96390000Y-75940000D03*
%TD*%
%TO.C,Q0322*%
X107590000Y-53080000D03*
X109090000Y-53080000D03*
%TD*%
%TO.C,Q2327*%
X120290000Y-103880000D03*
X121790000Y-103880000D03*
%TD*%
%TO.C,Q1918*%
X97430000Y-93720000D03*
X98930000Y-93720000D03*
%TD*%
%TO.C,Q1208*%
X72030000Y-75940000D03*
X73530000Y-75940000D03*
%TD*%
%TO.C,Q2123*%
X110130000Y-98800000D03*
X111630000Y-98800000D03*
%TD*%
%TO.C,Q1121*%
X105050000Y-73400000D03*
X106550000Y-73400000D03*
%TD*%
%TO.C,Q0908*%
X72030000Y-68320000D03*
X73530000Y-68320000D03*
%TD*%
%TO.C,Q2431*%
X130450000Y-106420000D03*
X131950000Y-106420000D03*
%TD*%
%TO.C,Q2313*%
X84730000Y-103880000D03*
X86230000Y-103880000D03*
%TD*%
%TO.C,Q1309*%
X74570000Y-78480000D03*
X76070000Y-78480000D03*
%TD*%
%TO.C,Q0723*%
X110130000Y-63240000D03*
X111630000Y-63240000D03*
%TD*%
%TO.C,Q0826*%
X117750000Y-65780000D03*
X119250000Y-65780000D03*
%TD*%
%TO.C,Q1202*%
X56790000Y-75940000D03*
X58290000Y-75940000D03*
%TD*%
%TO.C,Q1422*%
X107590000Y-81020000D03*
X109090000Y-81020000D03*
%TD*%
%TO.C,Q1829*%
X125370000Y-91180000D03*
X126870000Y-91180000D03*
%TD*%
%TO.C,Q2424*%
X112670000Y-106420000D03*
X114170000Y-106420000D03*
%TD*%
%TO.C,Q2528*%
X122830000Y-108960000D03*
X124330000Y-108960000D03*
%TD*%
%TO.C,Q2213*%
X84730000Y-101340000D03*
X86230000Y-101340000D03*
%TD*%
%TO.C,Q0215*%
X89810000Y-50540000D03*
X91310000Y-50540000D03*
%TD*%
%TO.C,Q1405*%
X64410000Y-81020000D03*
X65910000Y-81020000D03*
%TD*%
%TO.C,Q0930*%
X127910000Y-68320000D03*
X129410000Y-68320000D03*
%TD*%
%TO.C,Q2631*%
X130450000Y-111500000D03*
X131950000Y-111500000D03*
%TD*%
%TO.C,Q2804*%
X61870000Y-116580000D03*
X63370000Y-116580000D03*
%TD*%
%TO.C,Q3109*%
X74570000Y-124200000D03*
X76070000Y-124200000D03*
%TD*%
%TO.C,Q0426*%
X117750000Y-55620000D03*
X119250000Y-55620000D03*
%TD*%
%TO.C,Q2403*%
X59330000Y-106420000D03*
X60830000Y-106420000D03*
%TD*%
%TO.C,Q0326*%
X117750000Y-53080000D03*
X119250000Y-53080000D03*
%TD*%
%TO.C,Q1915*%
X89810000Y-93720000D03*
X91310000Y-93720000D03*
%TD*%
%TO.C,Q0803*%
X59330000Y-65780000D03*
X60830000Y-65780000D03*
%TD*%
%TO.C,Q0922*%
X107590000Y-68320000D03*
X109090000Y-68320000D03*
%TD*%
%TO.C,Q2712*%
X82190000Y-114040000D03*
X83690000Y-114040000D03*
%TD*%
%TO.C,Q1413*%
X84730000Y-81020000D03*
X86230000Y-81020000D03*
%TD*%
%TO.C,Q0906*%
X66950000Y-68320000D03*
X68450000Y-68320000D03*
%TD*%
%TO.C,Q2627*%
X120290000Y-111500000D03*
X121790000Y-111500000D03*
%TD*%
%TO.C,Q2006*%
X66950000Y-96260000D03*
X68450000Y-96260000D03*
%TD*%
%TO.C,Q2126*%
X117750000Y-98800000D03*
X119250000Y-98800000D03*
%TD*%
%TO.C,Q3126*%
X117750000Y-124200000D03*
X119250000Y-124200000D03*
%TD*%
%TO.C,Q0923*%
X110130000Y-68320000D03*
X111630000Y-68320000D03*
%TD*%
%TO.C,Q0125*%
X115210000Y-48000000D03*
X116710000Y-48000000D03*
%TD*%
%TO.C,Q2330*%
X127910000Y-103880000D03*
X129410000Y-103880000D03*
%TD*%
%TO.C,Q1912*%
X82190000Y-93720000D03*
X83690000Y-93720000D03*
%TD*%
%TO.C,Q1316*%
X92350000Y-78480000D03*
X93850000Y-78480000D03*
%TD*%
%TO.C,Q1222*%
X107590000Y-75940000D03*
X109090000Y-75940000D03*
%TD*%
%TO.C,Q2530*%
X127910000Y-108960000D03*
X129410000Y-108960000D03*
%TD*%
%TO.C,Q2614*%
X87270000Y-111500000D03*
X88770000Y-111500000D03*
%TD*%
%TO.C,Q2212*%
X82190000Y-101340000D03*
X83690000Y-101340000D03*
%TD*%
%TO.C,Q1107*%
X69490000Y-73400000D03*
X70990000Y-73400000D03*
%TD*%
%TO.C,Q2512*%
X82190000Y-108960000D03*
X83690000Y-108960000D03*
%TD*%
%TO.C,Q1417*%
X94890000Y-81020000D03*
X96390000Y-81020000D03*
%TD*%
%TO.C,Q1023*%
X110130000Y-70860000D03*
X111630000Y-70860000D03*
%TD*%
%TO.C,Q1027*%
X120290000Y-70860000D03*
X121790000Y-70860000D03*
%TD*%
%TO.C,Q2018*%
X97430000Y-96260000D03*
X98930000Y-96260000D03*
%TD*%
%TO.C,Q1624*%
X112670000Y-86100000D03*
X114170000Y-86100000D03*
%TD*%
%TO.C,Q0404*%
X61870000Y-55620000D03*
X63370000Y-55620000D03*
%TD*%
%TO.C,Q0724*%
X112670000Y-63240000D03*
X114170000Y-63240000D03*
%TD*%
%TO.C,Q2624*%
X112670000Y-111500000D03*
X114170000Y-111500000D03*
%TD*%
%TO.C,Q0314*%
X87270000Y-53080000D03*
X88770000Y-53080000D03*
%TD*%
%TO.C,Q3025*%
X115210000Y-121660000D03*
X116710000Y-121660000D03*
%TD*%
%TO.C,Q0305*%
X64410000Y-53080000D03*
X65910000Y-53080000D03*
%TD*%
%TO.C,Q1012*%
X82190000Y-70860000D03*
X83690000Y-70860000D03*
%TD*%
%TO.C,Q2103*%
X59330000Y-98800000D03*
X60830000Y-98800000D03*
%TD*%
%TO.C,Q1022*%
X107590000Y-70860000D03*
X109090000Y-70860000D03*
%TD*%
%TO.C,Q0625*%
X115210000Y-60700000D03*
X116710000Y-60700000D03*
%TD*%
%TO.C,Q0702*%
X56790000Y-63240000D03*
X58290000Y-63240000D03*
%TD*%
%TO.C,Q0807*%
X69490000Y-65780000D03*
X70990000Y-65780000D03*
%TD*%
%TO.C,Q1403*%
X59330000Y-81020000D03*
X60830000Y-81020000D03*
%TD*%
%TO.C,Q1903*%
X59330000Y-93720000D03*
X60830000Y-93720000D03*
%TD*%
%TO.C,Q0828*%
X122830000Y-65780000D03*
X124330000Y-65780000D03*
%TD*%
%TO.C,Q3122*%
X107590000Y-124200000D03*
X109090000Y-124200000D03*
%TD*%
%TO.C,Q1113*%
X84730000Y-73400000D03*
X86230000Y-73400000D03*
%TD*%
%TO.C,Q2413*%
X84730000Y-106420000D03*
X86230000Y-106420000D03*
%TD*%
%TO.C,Q0424*%
X112670000Y-55620000D03*
X114170000Y-55620000D03*
%TD*%
%TO.C,Q1907*%
X69490000Y-93720000D03*
X70990000Y-93720000D03*
%TD*%
%TO.C,Q0121*%
X105050000Y-48000000D03*
X106550000Y-48000000D03*
%TD*%
%TO.C,Q2015*%
X89810000Y-96260000D03*
X91310000Y-96260000D03*
%TD*%
%TO.C,Q0418*%
X97430000Y-55620000D03*
X98930000Y-55620000D03*
%TD*%
%TO.C,Q0412*%
X82190000Y-55620000D03*
X83690000Y-55620000D03*
%TD*%
%TO.C,Q2211*%
X79650000Y-101340000D03*
X81150000Y-101340000D03*
%TD*%
%TO.C,Q3116*%
X92350000Y-124200000D03*
X93850000Y-124200000D03*
%TD*%
%TO.C,Q1917*%
X94890000Y-93720000D03*
X96390000Y-93720000D03*
%TD*%
%TO.C,Q1125*%
X115210000Y-73400000D03*
X116710000Y-73400000D03*
%TD*%
%TO.C,Q1824*%
X112670000Y-91180000D03*
X114170000Y-91180000D03*
%TD*%
%TO.C,Q2020*%
X102510000Y-96260000D03*
X104010000Y-96260000D03*
%TD*%
%TO.C,Q0104*%
X61870000Y-48000000D03*
X63370000Y-48000000D03*
%TD*%
%TO.C,Q0324*%
X112670000Y-53080000D03*
X114170000Y-53080000D03*
%TD*%
%TO.C,Q0517*%
X94890000Y-58160000D03*
X96390000Y-58160000D03*
%TD*%
%TO.C,Q0320*%
X102510000Y-53080000D03*
X104010000Y-53080000D03*
%TD*%
%TO.C,Q3205*%
X64410000Y-126740000D03*
X65910000Y-126740000D03*
%TD*%
%TO.C,Q2401*%
X54250000Y-106420000D03*
X55750000Y-106420000D03*
%TD*%
%TO.C,Q0707*%
X69490000Y-63240000D03*
X70990000Y-63240000D03*
%TD*%
%TO.C,Q2128*%
X122830000Y-98800000D03*
X124330000Y-98800000D03*
%TD*%
%TO.C,Q0712*%
X82190000Y-63240000D03*
X83690000Y-63240000D03*
%TD*%
%TO.C,Q0910*%
X77110000Y-68320000D03*
X78610000Y-68320000D03*
%TD*%
%TO.C,Q1106*%
X66950000Y-73400000D03*
X68450000Y-73400000D03*
%TD*%
%TO.C,Q2130*%
X127910000Y-98800000D03*
X129410000Y-98800000D03*
%TD*%
%TO.C,Q2527*%
X120290000Y-108960000D03*
X121790000Y-108960000D03*
%TD*%
%TO.C,Q1127*%
X120290000Y-73400000D03*
X121790000Y-73400000D03*
%TD*%
%TO.C,Q0313*%
X84730000Y-53080000D03*
X86230000Y-53080000D03*
%TD*%
%TO.C,Q0132*%
X132990000Y-48000000D03*
X134490000Y-48000000D03*
%TD*%
%TO.C,Q0720*%
X102510000Y-63240000D03*
X104010000Y-63240000D03*
%TD*%
%TO.C,Q1104*%
X61870000Y-73400000D03*
X63370000Y-73400000D03*
%TD*%
%TO.C,Q2115*%
X89810000Y-98800000D03*
X91310000Y-98800000D03*
%TD*%
%TO.C,Q2516*%
X92350000Y-108960000D03*
X93850000Y-108960000D03*
%TD*%
%TO.C,Q2228*%
X122830000Y-101340000D03*
X124330000Y-101340000D03*
%TD*%
%TO.C,Q1813*%
X84730000Y-91180000D03*
X86230000Y-91180000D03*
%TD*%
%TO.C,Q0405*%
X64410000Y-55620000D03*
X65910000Y-55620000D03*
%TD*%
%TO.C,Q2630*%
X127910000Y-111500000D03*
X129410000Y-111500000D03*
%TD*%
%TO.C,Q0516*%
X92350000Y-58160000D03*
X93850000Y-58160000D03*
%TD*%
%TO.C,Q3001*%
X54250000Y-121660000D03*
X55750000Y-121660000D03*
%TD*%
%TO.C,Q1314*%
X87270000Y-78480000D03*
X88770000Y-78480000D03*
%TD*%
%TO.C,Q1732*%
X132990000Y-88640000D03*
X134490000Y-88640000D03*
%TD*%
%TO.C,Q2031*%
X130450000Y-96260000D03*
X131950000Y-96260000D03*
%TD*%
%TO.C,Q0832*%
X132990000Y-65780000D03*
X134490000Y-65780000D03*
%TD*%
%TO.C,Q3110*%
X77110000Y-124200000D03*
X78610000Y-124200000D03*
%TD*%
%TO.C,Q2515*%
X89810000Y-108960000D03*
X91310000Y-108960000D03*
%TD*%
%TO.C,Q0808*%
X72030000Y-65780000D03*
X73530000Y-65780000D03*
%TD*%
%TO.C,Q3212*%
X82190000Y-126740000D03*
X83690000Y-126740000D03*
%TD*%
%TO.C,Q2802*%
X56790000Y-116580000D03*
X58290000Y-116580000D03*
%TD*%
%TO.C,Q2908*%
X72030000Y-119120000D03*
X73530000Y-119120000D03*
%TD*%
%TO.C,Q2505*%
X64410000Y-108960000D03*
X65910000Y-108960000D03*
%TD*%
%TO.C,Q2711*%
X79650000Y-114040000D03*
X81150000Y-114040000D03*
%TD*%
%TO.C,Q1221*%
X105050000Y-75940000D03*
X106550000Y-75940000D03*
%TD*%
%TO.C,Q1504*%
X61870000Y-83560000D03*
X63370000Y-83560000D03*
%TD*%
%TO.C,Q0921*%
X105050000Y-68320000D03*
X106550000Y-68320000D03*
%TD*%
%TO.C,Q0823*%
X110130000Y-65780000D03*
X111630000Y-65780000D03*
%TD*%
%TO.C,Q2601*%
X54250000Y-111500000D03*
X55750000Y-111500000D03*
%TD*%
%TO.C,Q0213*%
X84730000Y-50540000D03*
X86230000Y-50540000D03*
%TD*%
%TO.C,Q0831*%
X130450000Y-65780000D03*
X131950000Y-65780000D03*
%TD*%
%TO.C,Q1328*%
X122830000Y-78480000D03*
X124330000Y-78480000D03*
%TD*%
%TO.C,Q0902*%
X56790000Y-68320000D03*
X58290000Y-68320000D03*
%TD*%
%TO.C,Q2231*%
X130450000Y-101340000D03*
X131950000Y-101340000D03*
%TD*%
%TO.C,Q2917*%
X94890000Y-119120000D03*
X96390000Y-119120000D03*
%TD*%
%TO.C,Q2013*%
X84730000Y-96260000D03*
X86230000Y-96260000D03*
%TD*%
%TO.C,Q1811*%
X79650000Y-91180000D03*
X81150000Y-91180000D03*
%TD*%
%TO.C,Q1411*%
X79650000Y-81020000D03*
X81150000Y-81020000D03*
%TD*%
%TO.C,Q0308*%
X72030000Y-53080000D03*
X73530000Y-53080000D03*
%TD*%
%TO.C,Q3104*%
X61870000Y-124200000D03*
X63370000Y-124200000D03*
%TD*%
%TO.C,Q2415*%
X89810000Y-106420000D03*
X91310000Y-106420000D03*
%TD*%
%TO.C,Q2728*%
X122830000Y-114040000D03*
X124330000Y-114040000D03*
%TD*%
%TO.C,Q1815*%
X89810000Y-91180000D03*
X91310000Y-91180000D03*
%TD*%
%TO.C,Q0515*%
X89810000Y-58160000D03*
X91310000Y-58160000D03*
%TD*%
%TO.C,Q1611*%
X79650000Y-86100000D03*
X81150000Y-86100000D03*
%TD*%
%TO.C,Q0415*%
X89810000Y-55620000D03*
X91310000Y-55620000D03*
%TD*%
%TO.C,Q2625*%
X115210000Y-111500000D03*
X116710000Y-111500000D03*
%TD*%
%TO.C,Q2219*%
X99970000Y-101340000D03*
X101470000Y-101340000D03*
%TD*%
%TO.C,Q0721*%
X105050000Y-63240000D03*
X106550000Y-63240000D03*
%TD*%
%TO.C,Q3219*%
X99970000Y-126740000D03*
X101470000Y-126740000D03*
%TD*%
%TO.C,Q0425*%
X115210000Y-55620000D03*
X116710000Y-55620000D03*
%TD*%
%TO.C,Q1011*%
X79650000Y-70860000D03*
X81150000Y-70860000D03*
%TD*%
%TO.C,Q2710*%
X77110000Y-114040000D03*
X78610000Y-114040000D03*
%TD*%
%TO.C,Q2129*%
X125370000Y-98800000D03*
X126870000Y-98800000D03*
%TD*%
%TO.C,Q2113*%
X84730000Y-98800000D03*
X86230000Y-98800000D03*
%TD*%
%TO.C,Q2529*%
X125370000Y-108960000D03*
X126870000Y-108960000D03*
%TD*%
%TO.C,Q2429*%
X125370000Y-106420000D03*
X126870000Y-106420000D03*
%TD*%
%TO.C,Q2109*%
X74570000Y-98800000D03*
X76070000Y-98800000D03*
%TD*%
%TO.C,Q3127*%
X120290000Y-124200000D03*
X121790000Y-124200000D03*
%TD*%
%TO.C,Q1631*%
X130450000Y-86100000D03*
X131950000Y-86100000D03*
%TD*%
%TO.C,Q1419*%
X99970000Y-81020000D03*
X101470000Y-81020000D03*
%TD*%
%TO.C,Q0427*%
X120290000Y-55620000D03*
X121790000Y-55620000D03*
%TD*%
%TO.C,Q2021*%
X105050000Y-96260000D03*
X106550000Y-96260000D03*
%TD*%
%TO.C,Q2229*%
X125370000Y-101340000D03*
X126870000Y-101340000D03*
%TD*%
%TO.C,Q0124*%
X112670000Y-48000000D03*
X114170000Y-48000000D03*
%TD*%
%TO.C,Q3107*%
X69490000Y-124200000D03*
X70990000Y-124200000D03*
%TD*%
%TO.C,Q1101*%
X54250000Y-73400000D03*
X55750000Y-73400000D03*
%TD*%
%TO.C,Q2423*%
X110130000Y-106420000D03*
X111630000Y-106420000D03*
%TD*%
%TO.C,Q2514*%
X87270000Y-108960000D03*
X88770000Y-108960000D03*
%TD*%
%TO.C,Q1212*%
X82190000Y-75940000D03*
X83690000Y-75940000D03*
%TD*%
%TO.C,Q1730*%
X127910000Y-88640000D03*
X129410000Y-88640000D03*
%TD*%
%TO.C,Q0228*%
X122830000Y-50540000D03*
X124330000Y-50540000D03*
%TD*%
%TO.C,Q2901*%
X54250000Y-119120000D03*
X55750000Y-119120000D03*
%TD*%
%TO.C,Q1816*%
X92350000Y-91180000D03*
X93850000Y-91180000D03*
%TD*%
%TO.C,Q3218*%
X97430000Y-126740000D03*
X98930000Y-126740000D03*
%TD*%
%TO.C,Q1822*%
X107590000Y-91180000D03*
X109090000Y-91180000D03*
%TD*%
%TO.C,Q0601*%
X54250000Y-60700000D03*
X55750000Y-60700000D03*
%TD*%
%TO.C,Q1832*%
X132990000Y-91180000D03*
X134490000Y-91180000D03*
%TD*%
%TO.C,Q1528*%
X122830000Y-83560000D03*
X124330000Y-83560000D03*
%TD*%
%TO.C,Q1126*%
X117750000Y-73400000D03*
X119250000Y-73400000D03*
%TD*%
%TO.C,Q3106*%
X66950000Y-124200000D03*
X68450000Y-124200000D03*
%TD*%
%TO.C,Q2111*%
X79650000Y-98800000D03*
X81150000Y-98800000D03*
%TD*%
%TO.C,Q1117*%
X94890000Y-73400000D03*
X96390000Y-73400000D03*
%TD*%
%TO.C,Q1603*%
X59330000Y-86100000D03*
X60830000Y-86100000D03*
%TD*%
%TO.C,Q0224*%
X112670000Y-50540000D03*
X114170000Y-50540000D03*
%TD*%
%TO.C,Q2809*%
X74570000Y-116580000D03*
X76070000Y-116580000D03*
%TD*%
%TO.C,Q0106*%
X66950000Y-48000000D03*
X68450000Y-48000000D03*
%TD*%
%TO.C,Q2829*%
X125370000Y-116580000D03*
X126870000Y-116580000D03*
%TD*%
%TO.C,Q2110*%
X77110000Y-98800000D03*
X78610000Y-98800000D03*
%TD*%
%TO.C,Q2122*%
X107590000Y-98800000D03*
X109090000Y-98800000D03*
%TD*%
%TO.C,Q2701*%
X54250000Y-114040000D03*
X55750000Y-114040000D03*
%TD*%
%TO.C,Q0216*%
X92350000Y-50540000D03*
X93850000Y-50540000D03*
%TD*%
%TO.C,Q0410*%
X77110000Y-55620000D03*
X78610000Y-55620000D03*
%TD*%
%TO.C,Q1513*%
X84730000Y-83560000D03*
X86230000Y-83560000D03*
%TD*%
%TO.C,Q0730*%
X127910000Y-63240000D03*
X129410000Y-63240000D03*
%TD*%
%TO.C,Q0909*%
X74570000Y-68320000D03*
X76070000Y-68320000D03*
%TD*%
%TO.C,Q2217*%
X94890000Y-101340000D03*
X96390000Y-101340000D03*
%TD*%
%TO.C,Q0116*%
X92350000Y-48000000D03*
X93850000Y-48000000D03*
%TD*%
%TO.C,Q0716*%
X92350000Y-63240000D03*
X93850000Y-63240000D03*
%TD*%
%TO.C,Q0717*%
X94890000Y-63240000D03*
X96390000Y-63240000D03*
%TD*%
%TO.C,Q1131*%
X130450000Y-73400000D03*
X131950000Y-73400000D03*
%TD*%
%TO.C,Q1303*%
X59330000Y-78480000D03*
X60830000Y-78480000D03*
%TD*%
%TO.C,Q0822*%
X107590000Y-65780000D03*
X109090000Y-65780000D03*
%TD*%
%TO.C,Q0732*%
X132990000Y-63240000D03*
X134490000Y-63240000D03*
%TD*%
D15*
%TO.C,JCOL*%
X55750000Y-29000000D03*
X58290000Y-29000000D03*
X60830000Y-29000000D03*
X63370000Y-29000000D03*
X65910000Y-29000000D03*
X68450000Y-29000000D03*
X70990000Y-29000000D03*
X73530000Y-29000000D03*
X76070000Y-29000000D03*
X78610000Y-29000000D03*
X81150000Y-29000000D03*
X83690000Y-29000000D03*
X86230000Y-29000000D03*
X88770000Y-29000000D03*
X91310000Y-29000000D03*
X93850000Y-29000000D03*
X96390000Y-29000000D03*
X98930000Y-29000000D03*
X101470000Y-29000000D03*
X104010000Y-29000000D03*
X106550000Y-29000000D03*
X109090000Y-29000000D03*
X111630000Y-29000000D03*
X114170000Y-29000000D03*
X116710000Y-29000000D03*
X119250000Y-29000000D03*
X121790000Y-29000000D03*
X124330000Y-29000000D03*
X126870000Y-29000000D03*
X129410000Y-29000000D03*
X131950000Y-29000000D03*
X134490000Y-29000000D03*
%TD*%
D10*
%TO.C,Q0227*%
X120290000Y-50540000D03*
X121790000Y-50540000D03*
%TD*%
%TO.C,Q0907*%
X69490000Y-68320000D03*
X70990000Y-68320000D03*
%TD*%
%TO.C,Q1004*%
X61870000Y-70860000D03*
X63370000Y-70860000D03*
%TD*%
%TO.C,Q1902*%
X56790000Y-93720000D03*
X58290000Y-93720000D03*
%TD*%
%TO.C,Q0819*%
X99970000Y-65780000D03*
X101470000Y-65780000D03*
%TD*%
%TO.C,Q2922*%
X107590000Y-119120000D03*
X109090000Y-119120000D03*
%TD*%
%TO.C,Q3029*%
X125370000Y-121660000D03*
X126870000Y-121660000D03*
%TD*%
%TO.C,Q3026*%
X117750000Y-121660000D03*
X119250000Y-121660000D03*
%TD*%
%TO.C,Q3102*%
X56790000Y-124200000D03*
X58290000Y-124200000D03*
%TD*%
%TO.C,Q0530*%
X127910000Y-58160000D03*
X129410000Y-58160000D03*
%TD*%
%TO.C,Q0622*%
X107590000Y-60700000D03*
X109090000Y-60700000D03*
%TD*%
%TO.C,Q0513*%
X84730000Y-58160000D03*
X86230000Y-58160000D03*
%TD*%
%TO.C,Q2826*%
X117750000Y-116580000D03*
X119250000Y-116580000D03*
%TD*%
%TO.C,Q2314*%
X87270000Y-103880000D03*
X88770000Y-103880000D03*
%TD*%
%TO.C,Q1108*%
X72030000Y-73400000D03*
X73530000Y-73400000D03*
%TD*%
%TO.C,Q2319*%
X99970000Y-103880000D03*
X101470000Y-103880000D03*
%TD*%
%TO.C,Q2326*%
X117750000Y-103880000D03*
X119250000Y-103880000D03*
%TD*%
%TO.C,Q0318*%
X97430000Y-53080000D03*
X98930000Y-53080000D03*
%TD*%
%TO.C,Q1632*%
X132990000Y-86100000D03*
X134490000Y-86100000D03*
%TD*%
%TO.C,Q2911*%
X79650000Y-119120000D03*
X81150000Y-119120000D03*
%TD*%
%TO.C,Q1232*%
X132990000Y-75940000D03*
X134490000Y-75940000D03*
%TD*%
%TO.C,Q1129*%
X125370000Y-73400000D03*
X126870000Y-73400000D03*
%TD*%
%TO.C,Q1216*%
X92350000Y-75940000D03*
X93850000Y-75940000D03*
%TD*%
%TO.C,Q3113*%
X84730000Y-124200000D03*
X86230000Y-124200000D03*
%TD*%
%TO.C,Q2209*%
X74570000Y-101340000D03*
X76070000Y-101340000D03*
%TD*%
%TO.C,Q2721*%
X105050000Y-114040000D03*
X106550000Y-114040000D03*
%TD*%
%TO.C,Q0113*%
X84730000Y-48000000D03*
X86230000Y-48000000D03*
%TD*%
%TO.C,Q2520*%
X102510000Y-108960000D03*
X104010000Y-108960000D03*
%TD*%
%TO.C,Q2818*%
X97430000Y-116580000D03*
X98930000Y-116580000D03*
%TD*%
%TO.C,Q1203*%
X59330000Y-75940000D03*
X60830000Y-75940000D03*
%TD*%
%TO.C,Q1014*%
X87270000Y-70860000D03*
X88770000Y-70860000D03*
%TD*%
%TO.C,Q1605*%
X64410000Y-86100000D03*
X65910000Y-86100000D03*
%TD*%
D13*
%TO.C,H1*%
X25000000Y-25000000D03*
%TD*%
D10*
%TO.C,Q0430*%
X127910000Y-55620000D03*
X129410000Y-55620000D03*
%TD*%
%TO.C,Q1322*%
X107590000Y-78480000D03*
X109090000Y-78480000D03*
%TD*%
%TO.C,Q2322*%
X107590000Y-103880000D03*
X109090000Y-103880000D03*
%TD*%
%TO.C,Q1032*%
X132990000Y-70860000D03*
X134490000Y-70860000D03*
%TD*%
%TO.C,Q2905*%
X64410000Y-119120000D03*
X65910000Y-119120000D03*
%TD*%
%TO.C,Q0130*%
X127910000Y-48000000D03*
X129410000Y-48000000D03*
%TD*%
%TO.C,Q2208*%
X72030000Y-101340000D03*
X73530000Y-101340000D03*
%TD*%
D16*
%TO.C,UCOL*%
X147250000Y-104150000D03*
X147750000Y-104150000D03*
X148250000Y-104150000D03*
X148750000Y-104150000D03*
X149250000Y-104150000D03*
X149750000Y-104150000D03*
X150250000Y-104150000D03*
X150750000Y-104150000D03*
X151250000Y-104150000D03*
X151750000Y-104150000D03*
X152250000Y-104150000D03*
X152750000Y-104150000D03*
D17*
X153850000Y-105250000D03*
X153850000Y-105750000D03*
X153850000Y-106250000D03*
X153850000Y-106750000D03*
X153850000Y-107250000D03*
X153850000Y-107750000D03*
X153850000Y-108250000D03*
X153850000Y-108750000D03*
X153850000Y-109250000D03*
X153850000Y-109750000D03*
X153850000Y-110250000D03*
X153850000Y-110750000D03*
D16*
X152750000Y-111850000D03*
X152250000Y-111850000D03*
X151750000Y-111850000D03*
X151250000Y-111850000D03*
X150750000Y-111850000D03*
X150250000Y-111850000D03*
X149750000Y-111850000D03*
X149250000Y-111850000D03*
X148750000Y-111850000D03*
X148250000Y-111850000D03*
X147750000Y-111850000D03*
X147250000Y-111850000D03*
D17*
X146150000Y-110750000D03*
X146150000Y-110250000D03*
X146150000Y-109750000D03*
X146150000Y-109250000D03*
X146150000Y-108750000D03*
X146150000Y-108250000D03*
X146150000Y-107750000D03*
X146150000Y-107250000D03*
X146150000Y-106750000D03*
X146150000Y-106250000D03*
X146150000Y-105750000D03*
X146150000Y-105250000D03*
%TD*%
D10*
%TO.C,Q0411*%
X79650000Y-55620000D03*
X81150000Y-55620000D03*
%TD*%
%TO.C,Q2331*%
X130450000Y-103880000D03*
X131950000Y-103880000D03*
%TD*%
%TO.C,Q2918*%
X97430000Y-119120000D03*
X98930000Y-119120000D03*
%TD*%
%TO.C,Q2702*%
X56790000Y-114040000D03*
X58290000Y-114040000D03*
%TD*%
%TO.C,Q2727*%
X120290000Y-114040000D03*
X121790000Y-114040000D03*
%TD*%
%TO.C,Q3002*%
X56790000Y-121660000D03*
X58290000Y-121660000D03*
%TD*%
%TO.C,Q1526*%
X117750000Y-83560000D03*
X119250000Y-83560000D03*
%TD*%
%TO.C,Q1628*%
X122830000Y-86100000D03*
X124330000Y-86100000D03*
%TD*%
%TO.C,Q1226*%
X117750000Y-75940000D03*
X119250000Y-75940000D03*
%TD*%
%TO.C,Q2404*%
X61870000Y-106420000D03*
X63370000Y-106420000D03*
%TD*%
%TO.C,Q1103*%
X59330000Y-73400000D03*
X60830000Y-73400000D03*
%TD*%
%TO.C,Q2232*%
X132990000Y-101340000D03*
X134490000Y-101340000D03*
%TD*%
%TO.C,Q2612*%
X82190000Y-111500000D03*
X83690000Y-111500000D03*
%TD*%
%TO.C,Q1723*%
X110130000Y-88640000D03*
X111630000Y-88640000D03*
%TD*%
%TO.C,Q2830*%
X127910000Y-116580000D03*
X129410000Y-116580000D03*
%TD*%
%TO.C,Q1421*%
X105050000Y-81020000D03*
X106550000Y-81020000D03*
%TD*%
%TO.C,Q2928*%
X122830000Y-119120000D03*
X124330000Y-119120000D03*
%TD*%
%TO.C,Q2828*%
X122830000Y-116580000D03*
X124330000Y-116580000D03*
%TD*%
%TO.C,Q2102*%
X56790000Y-98800000D03*
X58290000Y-98800000D03*
%TD*%
%TO.C,Q0613*%
X84730000Y-60700000D03*
X86230000Y-60700000D03*
%TD*%
%TO.C,Q0529*%
X125370000Y-58160000D03*
X126870000Y-58160000D03*
%TD*%
%TO.C,Q2317*%
X94890000Y-103880000D03*
X96390000Y-103880000D03*
%TD*%
%TO.C,Q0214*%
X87270000Y-50540000D03*
X88770000Y-50540000D03*
%TD*%
%TO.C,Q1306*%
X66950000Y-78480000D03*
X68450000Y-78480000D03*
%TD*%
%TO.C,Q1225*%
X115210000Y-75940000D03*
X116710000Y-75940000D03*
%TD*%
%TO.C,Q0105*%
X64410000Y-48000000D03*
X65910000Y-48000000D03*
%TD*%
%TO.C,Q2206*%
X66950000Y-101340000D03*
X68450000Y-101340000D03*
%TD*%
%TO.C,Q1211*%
X79650000Y-75940000D03*
X81150000Y-75940000D03*
%TD*%
%TO.C,Q1327*%
X120290000Y-78480000D03*
X121790000Y-78480000D03*
%TD*%
%TO.C,Q0328*%
X122830000Y-53080000D03*
X124330000Y-53080000D03*
%TD*%
%TO.C,Q2412*%
X82190000Y-106420000D03*
X83690000Y-106420000D03*
%TD*%
%TO.C,Q1707*%
X69490000Y-88640000D03*
X70990000Y-88640000D03*
%TD*%
%TO.C,Q3007*%
X69490000Y-121660000D03*
X70990000Y-121660000D03*
%TD*%
%TO.C,Q2508*%
X72030000Y-108960000D03*
X73530000Y-108960000D03*
%TD*%
%TO.C,Q2930*%
X127910000Y-119120000D03*
X129410000Y-119120000D03*
%TD*%
%TO.C,Q1820*%
X102510000Y-91180000D03*
X104010000Y-91180000D03*
%TD*%
%TO.C,Q3222*%
X107590000Y-126740000D03*
X109090000Y-126740000D03*
%TD*%
%TO.C,Q1914*%
X87270000Y-93720000D03*
X88770000Y-93720000D03*
%TD*%
%TO.C,Q0623*%
X110130000Y-60700000D03*
X111630000Y-60700000D03*
%TD*%
%TO.C,Q2416*%
X92350000Y-106420000D03*
X93850000Y-106420000D03*
%TD*%
%TO.C,Q0614*%
X87270000Y-60700000D03*
X88770000Y-60700000D03*
%TD*%
%TO.C,Q0421*%
X105050000Y-55620000D03*
X106550000Y-55620000D03*
%TD*%
%TO.C,Q0918*%
X97430000Y-68320000D03*
X98930000Y-68320000D03*
%TD*%
%TO.C,Q2924*%
X112670000Y-119120000D03*
X114170000Y-119120000D03*
%TD*%
%TO.C,Q2628*%
X122830000Y-111500000D03*
X124330000Y-111500000D03*
%TD*%
%TO.C,Q3227*%
X120290000Y-126740000D03*
X121790000Y-126740000D03*
%TD*%
%TO.C,Q2421*%
X105050000Y-106420000D03*
X106550000Y-106420000D03*
%TD*%
%TO.C,Q2502*%
X56790000Y-108960000D03*
X58290000Y-108960000D03*
%TD*%
%TO.C,Q0812*%
X82190000Y-65780000D03*
X83690000Y-65780000D03*
%TD*%
%TO.C,Q1524*%
X112670000Y-83560000D03*
X114170000Y-83560000D03*
%TD*%
%TO.C,Q0520*%
X102510000Y-58160000D03*
X104010000Y-58160000D03*
%TD*%
%TO.C,Q0120*%
X102510000Y-48000000D03*
X104010000Y-48000000D03*
%TD*%
%TO.C,Q3123*%
X110130000Y-124200000D03*
X111630000Y-124200000D03*
%TD*%
%TO.C,Q0128*%
X122830000Y-48000000D03*
X124330000Y-48000000D03*
%TD*%
%TO.C,Q2016*%
X92350000Y-96260000D03*
X93850000Y-96260000D03*
%TD*%
%TO.C,Q3118*%
X97430000Y-124200000D03*
X98930000Y-124200000D03*
%TD*%
%TO.C,Q2221*%
X105050000Y-101340000D03*
X106550000Y-101340000D03*
%TD*%
%TO.C,Q1116*%
X92350000Y-73400000D03*
X93850000Y-73400000D03*
%TD*%
%TO.C,Q0507*%
X69490000Y-58160000D03*
X70990000Y-58160000D03*
%TD*%
%TO.C,Q1905*%
X64410000Y-93720000D03*
X65910000Y-93720000D03*
%TD*%
%TO.C,Q1928*%
X122830000Y-93720000D03*
X124330000Y-93720000D03*
%TD*%
%TO.C,Q0526*%
X117750000Y-58160000D03*
X119250000Y-58160000D03*
%TD*%
%TO.C,Q2307*%
X69490000Y-103880000D03*
X70990000Y-103880000D03*
%TD*%
%TO.C,Q0607*%
X69490000Y-60700000D03*
X70990000Y-60700000D03*
%TD*%
%TO.C,Q3132*%
X132990000Y-124200000D03*
X134490000Y-124200000D03*
%TD*%
%TO.C,Q2824*%
X112670000Y-116580000D03*
X114170000Y-116580000D03*
%TD*%
%TO.C,Q1629*%
X125370000Y-86100000D03*
X126870000Y-86100000D03*
%TD*%
%TO.C,Q0122*%
X107590000Y-48000000D03*
X109090000Y-48000000D03*
%TD*%
%TO.C,Q1601*%
X54250000Y-86100000D03*
X55750000Y-86100000D03*
%TD*%
%TO.C,Q2814*%
X87270000Y-116580000D03*
X88770000Y-116580000D03*
%TD*%
%TO.C,Q0905*%
X64410000Y-68320000D03*
X65910000Y-68320000D03*
%TD*%
%TO.C,Q1805*%
X64410000Y-91180000D03*
X65910000Y-91180000D03*
%TD*%
%TO.C,Q2203*%
X59330000Y-101340000D03*
X60830000Y-101340000D03*
%TD*%
%TO.C,Q1427*%
X120290000Y-81020000D03*
X121790000Y-81020000D03*
%TD*%
%TO.C,Q1717*%
X94890000Y-88640000D03*
X96390000Y-88640000D03*
%TD*%
%TO.C,Q0606*%
X66950000Y-60700000D03*
X68450000Y-60700000D03*
%TD*%
%TO.C,Q3201*%
X54250000Y-126740000D03*
X55750000Y-126740000D03*
%TD*%
%TO.C,Q2613*%
X84730000Y-111500000D03*
X86230000Y-111500000D03*
%TD*%
%TO.C,Q1809*%
X74570000Y-91180000D03*
X76070000Y-91180000D03*
%TD*%
%TO.C,Q2320*%
X102510000Y-103880000D03*
X104010000Y-103880000D03*
%TD*%
%TO.C,Q2532*%
X132990000Y-108960000D03*
X134490000Y-108960000D03*
%TD*%
%TO.C,Q0230*%
X127910000Y-50540000D03*
X129410000Y-50540000D03*
%TD*%
%TO.C,Q2907*%
X69490000Y-119120000D03*
X70990000Y-119120000D03*
%TD*%
%TO.C,Q2703*%
X59330000Y-114040000D03*
X60830000Y-114040000D03*
%TD*%
%TO.C,Q1224*%
X112670000Y-75940000D03*
X114170000Y-75940000D03*
%TD*%
%TO.C,Q0806*%
X66950000Y-65780000D03*
X68450000Y-65780000D03*
%TD*%
%TO.C,Q2716*%
X92350000Y-114040000D03*
X93850000Y-114040000D03*
%TD*%
%TO.C,Q1218*%
X97430000Y-75940000D03*
X98930000Y-75940000D03*
%TD*%
%TO.C,Q0432*%
X132990000Y-55620000D03*
X134490000Y-55620000D03*
%TD*%
%TO.C,Q2425*%
X115210000Y-106420000D03*
X116710000Y-106420000D03*
%TD*%
%TO.C,Q1518*%
X97430000Y-83560000D03*
X98930000Y-83560000D03*
%TD*%
%TO.C,Q0904*%
X61870000Y-68320000D03*
X63370000Y-68320000D03*
%TD*%
%TO.C,Q2106*%
X66950000Y-98800000D03*
X68450000Y-98800000D03*
%TD*%
%TO.C,Q1622*%
X107590000Y-86100000D03*
X109090000Y-86100000D03*
%TD*%
%TO.C,Q0501*%
X54250000Y-58160000D03*
X55750000Y-58160000D03*
%TD*%
%TO.C,Q2511*%
X79650000Y-108960000D03*
X81150000Y-108960000D03*
%TD*%
%TO.C,Q1015*%
X89810000Y-70860000D03*
X91310000Y-70860000D03*
%TD*%
%TO.C,Q1517*%
X94890000Y-83560000D03*
X96390000Y-83560000D03*
%TD*%
%TO.C,Q0713*%
X84730000Y-63240000D03*
X86230000Y-63240000D03*
%TD*%
D13*
%TO.C,H3*%
X167000000Y-139000000D03*
%TD*%
D10*
%TO.C,Q1326*%
X117750000Y-78480000D03*
X119250000Y-78480000D03*
%TD*%
%TO.C,Q0225*%
X115210000Y-50540000D03*
X116710000Y-50540000D03*
%TD*%
%TO.C,Q2817*%
X94890000Y-116580000D03*
X96390000Y-116580000D03*
%TD*%
%TO.C,Q2301*%
X54250000Y-103880000D03*
X55750000Y-103880000D03*
%TD*%
%TO.C,Q1323*%
X110130000Y-78480000D03*
X111630000Y-78480000D03*
%TD*%
%TO.C,Q2025*%
X115210000Y-96260000D03*
X116710000Y-96260000D03*
%TD*%
%TO.C,Q3028*%
X122830000Y-121660000D03*
X124330000Y-121660000D03*
%TD*%
%TO.C,Q1627*%
X120290000Y-86100000D03*
X121790000Y-86100000D03*
%TD*%
%TO.C,Q2405*%
X64410000Y-106420000D03*
X65910000Y-106420000D03*
%TD*%
%TO.C,Q1617*%
X94890000Y-86100000D03*
X96390000Y-86100000D03*
%TD*%
%TO.C,Q0420*%
X102510000Y-55620000D03*
X104010000Y-55620000D03*
%TD*%
D16*
%TO.C,UROW*%
X147250000Y-72150000D03*
X147750000Y-72150000D03*
X148250000Y-72150000D03*
X148750000Y-72150000D03*
X149250000Y-72150000D03*
X149750000Y-72150000D03*
X150250000Y-72150000D03*
X150750000Y-72150000D03*
X151250000Y-72150000D03*
X151750000Y-72150000D03*
X152250000Y-72150000D03*
X152750000Y-72150000D03*
D17*
X153850000Y-73250000D03*
X153850000Y-73750000D03*
X153850000Y-74250000D03*
X153850000Y-74750000D03*
X153850000Y-75250000D03*
X153850000Y-75750000D03*
X153850000Y-76250000D03*
X153850000Y-76750000D03*
X153850000Y-77250000D03*
X153850000Y-77750000D03*
X153850000Y-78250000D03*
X153850000Y-78750000D03*
D16*
X152750000Y-79850000D03*
X152250000Y-79850000D03*
X151750000Y-79850000D03*
X151250000Y-79850000D03*
X150750000Y-79850000D03*
X150250000Y-79850000D03*
X149750000Y-79850000D03*
X149250000Y-79850000D03*
X148750000Y-79850000D03*
X148250000Y-79850000D03*
X147750000Y-79850000D03*
X147250000Y-79850000D03*
D17*
X146150000Y-78750000D03*
X146150000Y-78250000D03*
X146150000Y-77750000D03*
X146150000Y-77250000D03*
X146150000Y-76750000D03*
X146150000Y-76250000D03*
X146150000Y-75750000D03*
X146150000Y-75250000D03*
X146150000Y-74750000D03*
X146150000Y-74250000D03*
X146150000Y-73750000D03*
X146150000Y-73250000D03*
%TD*%
D10*
%TO.C,Q1819*%
X99970000Y-91180000D03*
X101470000Y-91180000D03*
%TD*%
%TO.C,Q3101*%
X54250000Y-124200000D03*
X55750000Y-124200000D03*
%TD*%
%TO.C,Q2903*%
X59330000Y-119120000D03*
X60830000Y-119120000D03*
%TD*%
%TO.C,Q1931*%
X130450000Y-93720000D03*
X131950000Y-93720000D03*
%TD*%
%TO.C,Q3130*%
X127910000Y-124200000D03*
X129410000Y-124200000D03*
%TD*%
%TO.C,Q2706*%
X66950000Y-114040000D03*
X68450000Y-114040000D03*
%TD*%
%TO.C,Q1532*%
X132990000Y-83560000D03*
X134490000Y-83560000D03*
%TD*%
%TO.C,Q0319*%
X99970000Y-53080000D03*
X101470000Y-53080000D03*
%TD*%
%TO.C,Q1612*%
X82190000Y-86100000D03*
X83690000Y-86100000D03*
%TD*%
%TO.C,Q1613*%
X84730000Y-86100000D03*
X86230000Y-86100000D03*
%TD*%
%TO.C,Q3014*%
X87270000Y-121660000D03*
X88770000Y-121660000D03*
%TD*%
%TO.C,Q2215*%
X89810000Y-101340000D03*
X91310000Y-101340000D03*
%TD*%
%TO.C,Q2328*%
X122830000Y-103880000D03*
X124330000Y-103880000D03*
%TD*%
%TO.C,Q1026*%
X117750000Y-70860000D03*
X119250000Y-70860000D03*
%TD*%
%TO.C,Q0628*%
X122830000Y-60700000D03*
X124330000Y-60700000D03*
%TD*%
%TO.C,Q1712*%
X82190000Y-88640000D03*
X83690000Y-88640000D03*
%TD*%
%TO.C,Q2825*%
X115210000Y-116580000D03*
X116710000Y-116580000D03*
%TD*%
%TO.C,Q0127*%
X120290000Y-48000000D03*
X121790000Y-48000000D03*
%TD*%
%TO.C,Q3103*%
X59330000Y-124200000D03*
X60830000Y-124200000D03*
%TD*%
%TO.C,Q2925*%
X115210000Y-119120000D03*
X116710000Y-119120000D03*
%TD*%
%TO.C,Q1230*%
X127910000Y-75940000D03*
X129410000Y-75940000D03*
%TD*%
%TO.C,Q2621*%
X105050000Y-111500000D03*
X106550000Y-111500000D03*
%TD*%
%TO.C,Q0504*%
X61870000Y-58160000D03*
X63370000Y-58160000D03*
%TD*%
%TO.C,Q1505*%
X64410000Y-83560000D03*
X65910000Y-83560000D03*
%TD*%
M02*
