M48
; DRILL file KiCad 10.0.3-10.0.3~ubuntu24.04.1 date 2026-06-08T12:14:22
; FORMAT={-:-/ absolute / metric / decimal}
; #@! TF.CreationDate,2026-06-08T12:14:22+08:00
; #@! TF.GenerationSoftware,Kicad,Pcbnew,10.0.3-10.0.3~ubuntu24.04.1
; #@! TF.FileFunction,MixedPlating,1,2
FMAT,2
METRIC
; #@! TA.AperFunction,Plated,PTH,ViaDrill
T1C0.300
; #@! TA.AperFunction,Plated,PTH,ComponentDrill
T2C0.700
; #@! TA.AperFunction,Plated,PTH,ComponentDrill
T3C0.750
; #@! TA.AperFunction,NonPlated,NPTH,ComponentDrill
T4C3.200
%
G90
G05
T1
X55.75Y-48.72
X55.75Y-51.26
X55.75Y-53.8
X55.75Y-56.34
X55.75Y-58.88
X55.75Y-61.42
X55.75Y-63.96
X55.75Y-66.5
X55.75Y-69.04
X55.75Y-71.58
X55.75Y-74.12
X55.75Y-76.66
X55.75Y-79.2
X55.75Y-81.74
X55.75Y-84.28
X55.75Y-86.82
X55.75Y-89.36
X55.75Y-91.9
X55.75Y-94.44
X55.75Y-96.98
X55.75Y-99.52
X55.75Y-102.06
X55.75Y-104.6
X55.75Y-107.14
X55.75Y-109.68
X55.75Y-112.22
X55.75Y-114.76
X55.75Y-117.3
X55.75Y-119.84
X55.75Y-122.38
X55.75Y-124.92
X55.75Y-127.46
X58.29Y-48.72
X58.29Y-51.26
X58.29Y-53.8
X58.29Y-56.34
X58.29Y-58.88
X58.29Y-61.42
X58.29Y-63.96
X58.29Y-66.5
X58.29Y-69.04
X58.29Y-71.58
X58.29Y-74.12
X58.29Y-76.66
X58.29Y-79.2
X58.29Y-81.74
X58.29Y-84.28
X58.29Y-86.82
X58.29Y-89.36
X58.29Y-91.9
X58.29Y-94.44
X58.29Y-96.98
X58.29Y-99.52
X58.29Y-102.06
X58.29Y-104.6
X58.29Y-107.14
X58.29Y-109.68
X58.29Y-112.22
X58.29Y-114.76
X58.29Y-117.3
X58.29Y-119.84
X58.29Y-122.38
X58.29Y-124.92
X58.29Y-127.46
X60.83Y-48.72
X60.83Y-51.26
X60.83Y-53.8
X60.83Y-56.34
X60.83Y-58.88
X60.83Y-61.42
X60.83Y-63.96
X60.83Y-66.5
X60.83Y-69.04
X60.83Y-71.58
X60.83Y-74.12
X60.83Y-76.66
X60.83Y-79.2
X60.83Y-81.74
X60.83Y-84.28
X60.83Y-86.82
X60.83Y-89.36
X60.83Y-91.9
X60.83Y-94.44
X60.83Y-96.98
X60.83Y-99.52
X60.83Y-102.06
X60.83Y-104.6
X60.83Y-107.14
X60.83Y-109.68
X60.83Y-112.22
X60.83Y-114.76
X60.83Y-117.3
X60.83Y-119.84
X60.83Y-122.38
X60.83Y-124.92
X60.83Y-127.46
X63.37Y-48.72
X63.37Y-51.26
X63.37Y-53.8
X63.37Y-56.34
X63.37Y-58.88
X63.37Y-61.42
X63.37Y-63.96
X63.37Y-66.5
X63.37Y-69.04
X63.37Y-71.58
X63.37Y-74.12
X63.37Y-76.66
X63.37Y-79.2
X63.37Y-81.74
X63.37Y-84.28
X63.37Y-86.82
X63.37Y-89.36
X63.37Y-91.9
X63.37Y-94.44
X63.37Y-96.98
X63.37Y-99.52
X63.37Y-102.06
X63.37Y-104.6
X63.37Y-107.14
X63.37Y-109.68
X63.37Y-112.22
X63.37Y-114.76
X63.37Y-117.3
X63.37Y-119.84
X63.37Y-122.38
X63.37Y-124.92
X63.37Y-127.46
X65.91Y-48.72
X65.91Y-51.26
X65.91Y-53.8
X65.91Y-56.34
X65.91Y-58.88
X65.91Y-61.42
X65.91Y-63.96
X65.91Y-66.5
X65.91Y-69.04
X65.91Y-71.58
X65.91Y-74.12
X65.91Y-76.66
X65.91Y-79.2
X65.91Y-81.74
X65.91Y-84.28
X65.91Y-86.82
X65.91Y-89.36
X65.91Y-91.9
X65.91Y-94.44
X65.91Y-96.98
X65.91Y-99.52
X65.91Y-102.06
X65.91Y-104.6
X65.91Y-107.14
X65.91Y-109.68
X65.91Y-112.22
X65.91Y-114.76
X65.91Y-117.3
X65.91Y-119.84
X65.91Y-122.38
X65.91Y-124.92
X65.91Y-127.46
X68.45Y-48.72
X68.45Y-51.26
X68.45Y-53.8
X68.45Y-56.34
X68.45Y-58.88
X68.45Y-61.42
X68.45Y-63.96
X68.45Y-66.5
X68.45Y-69.04
X68.45Y-71.58
X68.45Y-74.12
X68.45Y-76.66
X68.45Y-79.2
X68.45Y-81.74
X68.45Y-84.28
X68.45Y-86.82
X68.45Y-89.36
X68.45Y-91.9
X68.45Y-94.44
X68.45Y-96.98
X68.45Y-99.52
X68.45Y-102.06
X68.45Y-104.6
X68.45Y-107.14
X68.45Y-109.68
X68.45Y-112.22
X68.45Y-114.76
X68.45Y-117.3
X68.45Y-119.84
X68.45Y-122.38
X68.45Y-124.92
X68.45Y-127.46
X70.99Y-48.72
X70.99Y-51.26
X70.99Y-53.8
X70.99Y-56.34
X70.99Y-58.88
X70.99Y-61.42
X70.99Y-63.96
X70.99Y-66.5
X70.99Y-69.04
X70.99Y-71.58
X70.99Y-74.12
X70.99Y-76.66
X70.99Y-79.2
X70.99Y-81.74
X70.99Y-84.28
X70.99Y-86.82
X70.99Y-89.36
X70.99Y-91.9
X70.99Y-94.44
X70.99Y-96.98
X70.99Y-99.52
X70.99Y-102.06
X70.99Y-104.6
X70.99Y-107.14
X70.99Y-109.68
X70.99Y-112.22
X70.99Y-114.76
X70.99Y-117.3
X70.99Y-119.84
X70.99Y-122.38
X70.99Y-124.92
X70.99Y-127.46
X73.53Y-48.72
X73.53Y-51.26
X73.53Y-53.8
X73.53Y-56.34
X73.53Y-58.88
X73.53Y-61.42
X73.53Y-63.96
X73.53Y-66.5
X73.53Y-69.04
X73.53Y-71.58
X73.53Y-74.12
X73.53Y-76.66
X73.53Y-79.2
X73.53Y-81.74
X73.53Y-84.28
X73.53Y-86.82
X73.53Y-89.36
X73.53Y-91.9
X73.53Y-94.44
X73.53Y-96.98
X73.53Y-99.52
X73.53Y-102.06
X73.53Y-104.6
X73.53Y-107.14
X73.53Y-109.68
X73.53Y-112.22
X73.53Y-114.76
X73.53Y-117.3
X73.53Y-119.84
X73.53Y-122.38
X73.53Y-124.92
X73.53Y-127.46
X76.07Y-48.72
X76.07Y-51.26
X76.07Y-53.8
X76.07Y-56.34
X76.07Y-58.88
X76.07Y-61.42
X76.07Y-63.96
X76.07Y-66.5
X76.07Y-69.04
X76.07Y-71.58
X76.07Y-74.12
X76.07Y-76.66
X76.07Y-79.2
X76.07Y-81.74
X76.07Y-84.28
X76.07Y-86.82
X76.07Y-89.36
X76.07Y-91.9
X76.07Y-94.44
X76.07Y-96.98
X76.07Y-99.52
X76.07Y-102.06
X76.07Y-104.6
X76.07Y-107.14
X76.07Y-109.68
X76.07Y-112.22
X76.07Y-114.76
X76.07Y-117.3
X76.07Y-119.84
X76.07Y-122.38
X76.07Y-124.92
X76.07Y-127.46
X78.61Y-48.72
X78.61Y-51.26
X78.61Y-53.8
X78.61Y-56.34
X78.61Y-58.88
X78.61Y-61.42
X78.61Y-63.96
X78.61Y-66.5
X78.61Y-69.04
X78.61Y-71.58
X78.61Y-74.12
X78.61Y-76.66
X78.61Y-79.2
X78.61Y-81.74
X78.61Y-84.28
X78.61Y-86.82
X78.61Y-89.36
X78.61Y-91.9
X78.61Y-94.44
X78.61Y-96.98
X78.61Y-99.52
X78.61Y-102.06
X78.61Y-104.6
X78.61Y-107.14
X78.61Y-109.68
X78.61Y-112.22
X78.61Y-114.76
X78.61Y-117.3
X78.61Y-119.84
X78.61Y-122.38
X78.61Y-124.92
X78.61Y-127.46
X81.15Y-48.72
X81.15Y-51.26
X81.15Y-53.8
X81.15Y-56.34
X81.15Y-58.88
X81.15Y-61.42
X81.15Y-63.96
X81.15Y-66.5
X81.15Y-69.04
X81.15Y-71.58
X81.15Y-74.12
X81.15Y-76.66
X81.15Y-79.2
X81.15Y-81.74
X81.15Y-84.28
X81.15Y-86.82
X81.15Y-89.36
X81.15Y-91.9
X81.15Y-94.44
X81.15Y-96.98
X81.15Y-99.52
X81.15Y-102.06
X81.15Y-104.6
X81.15Y-107.14
X81.15Y-109.68
X81.15Y-112.22
X81.15Y-114.76
X81.15Y-117.3
X81.15Y-119.84
X81.15Y-122.38
X81.15Y-124.92
X81.15Y-127.46
X83.69Y-48.72
X83.69Y-51.26
X83.69Y-53.8
X83.69Y-56.34
X83.69Y-58.88
X83.69Y-61.42
X83.69Y-63.96
X83.69Y-66.5
X83.69Y-69.04
X83.69Y-71.58
X83.69Y-74.12
X83.69Y-76.66
X83.69Y-79.2
X83.69Y-81.74
X83.69Y-84.28
X83.69Y-86.82
X83.69Y-89.36
X83.69Y-91.9
X83.69Y-94.44
X83.69Y-96.98
X83.69Y-99.52
X83.69Y-102.06
X83.69Y-104.6
X83.69Y-107.14
X83.69Y-109.68
X83.69Y-112.22
X83.69Y-114.76
X83.69Y-117.3
X83.69Y-119.84
X83.69Y-122.38
X83.69Y-124.92
X83.69Y-127.46
X86.23Y-48.72
X86.23Y-51.26
X86.23Y-53.8
X86.23Y-56.34
X86.23Y-58.88
X86.23Y-61.42
X86.23Y-63.96
X86.23Y-66.5
X86.23Y-69.04
X86.23Y-71.58
X86.23Y-74.12
X86.23Y-76.66
X86.23Y-79.2
X86.23Y-81.74
X86.23Y-84.28
X86.23Y-86.82
X86.23Y-89.36
X86.23Y-91.9
X86.23Y-94.44
X86.23Y-96.98
X86.23Y-99.52
X86.23Y-102.06
X86.23Y-104.6
X86.23Y-107.14
X86.23Y-109.68
X86.23Y-112.22
X86.23Y-114.76
X86.23Y-117.3
X86.23Y-119.84
X86.23Y-122.38
X86.23Y-124.92
X86.23Y-127.46
X88.77Y-48.72
X88.77Y-51.26
X88.77Y-53.8
X88.77Y-56.34
X88.77Y-58.88
X88.77Y-61.42
X88.77Y-63.96
X88.77Y-66.5
X88.77Y-69.04
X88.77Y-71.58
X88.77Y-74.12
X88.77Y-76.66
X88.77Y-79.2
X88.77Y-81.74
X88.77Y-84.28
X88.77Y-86.82
X88.77Y-89.36
X88.77Y-91.9
X88.77Y-94.44
X88.77Y-96.98
X88.77Y-99.52
X88.77Y-102.06
X88.77Y-104.6
X88.77Y-107.14
X88.77Y-109.68
X88.77Y-112.22
X88.77Y-114.76
X88.77Y-117.3
X88.77Y-119.84
X88.77Y-122.38
X88.77Y-124.92
X88.77Y-127.46
X91.31Y-48.72
X91.31Y-51.26
X91.31Y-53.8
X91.31Y-56.34
X91.31Y-58.88
X91.31Y-61.42
X91.31Y-63.96
X91.31Y-66.5
X91.31Y-69.04
X91.31Y-71.58
X91.31Y-74.12
X91.31Y-76.66
X91.31Y-79.2
X91.31Y-81.74
X91.31Y-84.28
X91.31Y-86.82
X91.31Y-89.36
X91.31Y-91.9
X91.31Y-94.44
X91.31Y-96.98
X91.31Y-99.52
X91.31Y-102.06
X91.31Y-104.6
X91.31Y-107.14
X91.31Y-109.68
X91.31Y-112.22
X91.31Y-114.76
X91.31Y-117.3
X91.31Y-119.84
X91.31Y-122.38
X91.31Y-124.92
X91.31Y-127.46
X93.85Y-48.72
X93.85Y-51.26
X93.85Y-53.8
X93.85Y-56.34
X93.85Y-58.88
X93.85Y-61.42
X93.85Y-63.96
X93.85Y-66.5
X93.85Y-69.04
X93.85Y-71.58
X93.85Y-74.12
X93.85Y-76.66
X93.85Y-79.2
X93.85Y-81.74
X93.85Y-84.28
X93.85Y-86.82
X93.85Y-89.36
X93.85Y-91.9
X93.85Y-94.44
X93.85Y-96.98
X93.85Y-99.52
X93.85Y-102.06
X93.85Y-104.6
X93.85Y-107.14
X93.85Y-109.68
X93.85Y-112.22
X93.85Y-114.76
X93.85Y-117.3
X93.85Y-119.84
X93.85Y-122.38
X93.85Y-124.92
X93.85Y-127.46
X96.39Y-48.72
X96.39Y-51.26
X96.39Y-53.8
X96.39Y-56.34
X96.39Y-58.88
X96.39Y-61.42
X96.39Y-63.96
X96.39Y-66.5
X96.39Y-69.04
X96.39Y-71.58
X96.39Y-74.12
X96.39Y-76.66
X96.39Y-79.2
X96.39Y-81.74
X96.39Y-84.28
X96.39Y-86.82
X96.39Y-89.36
X96.39Y-91.9
X96.39Y-94.44
X96.39Y-96.98
X96.39Y-99.52
X96.39Y-102.06
X96.39Y-104.6
X96.39Y-107.14
X96.39Y-109.68
X96.39Y-112.22
X96.39Y-114.76
X96.39Y-117.3
X96.39Y-119.84
X96.39Y-122.38
X96.39Y-124.92
X96.39Y-127.46
X98.93Y-48.72
X98.93Y-51.26
X98.93Y-53.8
X98.93Y-56.34
X98.93Y-58.88
X98.93Y-61.42
X98.93Y-63.96
X98.93Y-66.5
X98.93Y-69.04
X98.93Y-71.58
X98.93Y-74.12
X98.93Y-76.66
X98.93Y-79.2
X98.93Y-81.74
X98.93Y-84.28
X98.93Y-86.82
X98.93Y-89.36
X98.93Y-91.9
X98.93Y-94.44
X98.93Y-96.98
X98.93Y-99.52
X98.93Y-102.06
X98.93Y-104.6
X98.93Y-107.14
X98.93Y-109.68
X98.93Y-112.22
X98.93Y-114.76
X98.93Y-117.3
X98.93Y-119.84
X98.93Y-122.38
X98.93Y-124.92
X98.93Y-127.46
X101.47Y-48.72
X101.47Y-51.26
X101.47Y-53.8
X101.47Y-56.34
X101.47Y-58.88
X101.47Y-61.42
X101.47Y-63.96
X101.47Y-66.5
X101.47Y-69.04
X101.47Y-71.58
X101.47Y-74.12
X101.47Y-76.66
X101.47Y-79.2
X101.47Y-81.74
X101.47Y-84.28
X101.47Y-86.82
X101.47Y-89.36
X101.47Y-91.9
X101.47Y-94.44
X101.47Y-96.98
X101.47Y-99.52
X101.47Y-102.06
X101.47Y-104.6
X101.47Y-107.14
X101.47Y-109.68
X101.47Y-112.22
X101.47Y-114.76
X101.47Y-117.3
X101.47Y-119.84
X101.47Y-122.38
X101.47Y-124.92
X101.47Y-127.46
X104.01Y-48.72
X104.01Y-51.26
X104.01Y-53.8
X104.01Y-56.34
X104.01Y-58.88
X104.01Y-61.42
X104.01Y-63.96
X104.01Y-66.5
X104.01Y-69.04
X104.01Y-71.58
X104.01Y-74.12
X104.01Y-76.66
X104.01Y-79.2
X104.01Y-81.74
X104.01Y-84.28
X104.01Y-86.82
X104.01Y-89.36
X104.01Y-91.9
X104.01Y-94.44
X104.01Y-96.98
X104.01Y-99.52
X104.01Y-102.06
X104.01Y-104.6
X104.01Y-107.14
X104.01Y-109.68
X104.01Y-112.22
X104.01Y-114.76
X104.01Y-117.3
X104.01Y-119.84
X104.01Y-122.38
X104.01Y-124.92
X104.01Y-127.46
X106.55Y-48.72
X106.55Y-51.26
X106.55Y-53.8
X106.55Y-56.34
X106.55Y-58.88
X106.55Y-61.42
X106.55Y-63.96
X106.55Y-66.5
X106.55Y-69.04
X106.55Y-71.58
X106.55Y-74.12
X106.55Y-76.66
X106.55Y-79.2
X106.55Y-81.74
X106.55Y-84.28
X106.55Y-86.82
X106.55Y-89.36
X106.55Y-91.9
X106.55Y-94.44
X106.55Y-96.98
X106.55Y-99.52
X106.55Y-102.06
X106.55Y-104.6
X106.55Y-107.14
X106.55Y-109.68
X106.55Y-112.22
X106.55Y-114.76
X106.55Y-117.3
X106.55Y-119.84
X106.55Y-122.38
X106.55Y-124.92
X106.55Y-127.46
X109.09Y-48.72
X109.09Y-51.26
X109.09Y-53.8
X109.09Y-56.34
X109.09Y-58.88
X109.09Y-61.42
X109.09Y-63.96
X109.09Y-66.5
X109.09Y-69.04
X109.09Y-71.58
X109.09Y-74.12
X109.09Y-76.66
X109.09Y-79.2
X109.09Y-81.74
X109.09Y-84.28
X109.09Y-86.82
X109.09Y-89.36
X109.09Y-91.9
X109.09Y-94.44
X109.09Y-96.98
X109.09Y-99.52
X109.09Y-102.06
X109.09Y-104.6
X109.09Y-107.14
X109.09Y-109.68
X109.09Y-112.22
X109.09Y-114.76
X109.09Y-117.3
X109.09Y-119.84
X109.09Y-122.38
X109.09Y-124.92
X109.09Y-127.46
X111.63Y-48.72
X111.63Y-51.26
X111.63Y-53.8
X111.63Y-56.34
X111.63Y-58.88
X111.63Y-61.42
X111.63Y-63.96
X111.63Y-66.5
X111.63Y-69.04
X111.63Y-71.58
X111.63Y-74.12
X111.63Y-76.66
X111.63Y-79.2
X111.63Y-81.74
X111.63Y-84.28
X111.63Y-86.82
X111.63Y-89.36
X111.63Y-91.9
X111.63Y-94.44
X111.63Y-96.98
X111.63Y-99.52
X111.63Y-102.06
X111.63Y-104.6
X111.63Y-107.14
X111.63Y-109.68
X111.63Y-112.22
X111.63Y-114.76
X111.63Y-117.3
X111.63Y-119.84
X111.63Y-122.38
X111.63Y-124.92
X111.63Y-127.46
X114.17Y-48.72
X114.17Y-51.26
X114.17Y-53.8
X114.17Y-56.34
X114.17Y-58.88
X114.17Y-61.42
X114.17Y-63.96
X114.17Y-66.5
X114.17Y-69.04
X114.17Y-71.58
X114.17Y-74.12
X114.17Y-76.66
X114.17Y-79.2
X114.17Y-81.74
X114.17Y-84.28
X114.17Y-86.82
X114.17Y-89.36
X114.17Y-91.9
X114.17Y-94.44
X114.17Y-96.98
X114.17Y-99.52
X114.17Y-102.06
X114.17Y-104.6
X114.17Y-107.14
X114.17Y-109.68
X114.17Y-112.22
X114.17Y-114.76
X114.17Y-117.3
X114.17Y-119.84
X114.17Y-122.38
X114.17Y-124.92
X114.17Y-127.46
X116.71Y-48.72
X116.71Y-51.26
X116.71Y-53.8
X116.71Y-56.34
X116.71Y-58.88
X116.71Y-61.42
X116.71Y-63.96
X116.71Y-66.5
X116.71Y-69.04
X116.71Y-71.58
X116.71Y-74.12
X116.71Y-76.66
X116.71Y-79.2
X116.71Y-81.74
X116.71Y-84.28
X116.71Y-86.82
X116.71Y-89.36
X116.71Y-91.9
X116.71Y-94.44
X116.71Y-96.98
X116.71Y-99.52
X116.71Y-102.06
X116.71Y-104.6
X116.71Y-107.14
X116.71Y-109.68
X116.71Y-112.22
X116.71Y-114.76
X116.71Y-117.3
X116.71Y-119.84
X116.71Y-122.38
X116.71Y-124.92
X116.71Y-127.46
X119.25Y-48.72
X119.25Y-51.26
X119.25Y-53.8
X119.25Y-56.34
X119.25Y-58.88
X119.25Y-61.42
X119.25Y-63.96
X119.25Y-66.5
X119.25Y-69.04
X119.25Y-71.58
X119.25Y-74.12
X119.25Y-76.66
X119.25Y-79.2
X119.25Y-81.74
X119.25Y-84.28
X119.25Y-86.82
X119.25Y-89.36
X119.25Y-91.9
X119.25Y-94.44
X119.25Y-96.98
X119.25Y-99.52
X119.25Y-102.06
X119.25Y-104.6
X119.25Y-107.14
X119.25Y-109.68
X119.25Y-112.22
X119.25Y-114.76
X119.25Y-117.3
X119.25Y-119.84
X119.25Y-122.38
X119.25Y-124.92
X119.25Y-127.46
X121.79Y-48.72
X121.79Y-51.26
X121.79Y-53.8
X121.79Y-56.34
X121.79Y-58.88
X121.79Y-61.42
X121.79Y-63.96
X121.79Y-66.5
X121.79Y-69.04
X121.79Y-71.58
X121.79Y-74.12
X121.79Y-76.66
X121.79Y-79.2
X121.79Y-81.74
X121.79Y-84.28
X121.79Y-86.82
X121.79Y-89.36
X121.79Y-91.9
X121.79Y-94.44
X121.79Y-96.98
X121.79Y-99.52
X121.79Y-102.06
X121.79Y-104.6
X121.79Y-107.14
X121.79Y-109.68
X121.79Y-112.22
X121.79Y-114.76
X121.79Y-117.3
X121.79Y-119.84
X121.79Y-122.38
X121.79Y-124.92
X121.79Y-127.46
X124.33Y-48.72
X124.33Y-51.26
X124.33Y-53.8
X124.33Y-56.34
X124.33Y-58.88
X124.33Y-61.42
X124.33Y-63.96
X124.33Y-66.5
X124.33Y-69.04
X124.33Y-71.58
X124.33Y-74.12
X124.33Y-76.66
X124.33Y-79.2
X124.33Y-81.74
X124.33Y-84.28
X124.33Y-86.82
X124.33Y-89.36
X124.33Y-91.9
X124.33Y-94.44
X124.33Y-96.98
X124.33Y-99.52
X124.33Y-102.06
X124.33Y-104.6
X124.33Y-107.14
X124.33Y-109.68
X124.33Y-112.22
X124.33Y-114.76
X124.33Y-117.3
X124.33Y-119.84
X124.33Y-122.38
X124.33Y-124.92
X124.33Y-127.46
X126.87Y-48.72
X126.87Y-51.26
X126.87Y-53.8
X126.87Y-56.34
X126.87Y-58.88
X126.87Y-61.42
X126.87Y-63.96
X126.87Y-66.5
X126.87Y-69.04
X126.87Y-71.58
X126.87Y-74.12
X126.87Y-76.66
X126.87Y-79.2
X126.87Y-81.74
X126.87Y-84.28
X126.87Y-86.82
X126.87Y-89.36
X126.87Y-91.9
X126.87Y-94.44
X126.87Y-96.98
X126.87Y-99.52
X126.87Y-102.06
X126.87Y-104.6
X126.87Y-107.14
X126.87Y-109.68
X126.87Y-112.22
X126.87Y-114.76
X126.87Y-117.3
X126.87Y-119.84
X126.87Y-122.38
X126.87Y-124.92
X126.87Y-127.46
X129.41Y-48.72
X129.41Y-51.26
X129.41Y-53.8
X129.41Y-56.34
X129.41Y-58.88
X129.41Y-61.42
X129.41Y-63.96
X129.41Y-66.5
X129.41Y-69.04
X129.41Y-71.58
X129.41Y-74.12
X129.41Y-76.66
X129.41Y-79.2
X129.41Y-81.74
X129.41Y-84.28
X129.41Y-86.82
X129.41Y-89.36
X129.41Y-91.9
X129.41Y-94.44
X129.41Y-96.98
X129.41Y-99.52
X129.41Y-102.06
X129.41Y-104.6
X129.41Y-107.14
X129.41Y-109.68
X129.41Y-112.22
X129.41Y-114.76
X129.41Y-117.3
X129.41Y-119.84
X129.41Y-122.38
X129.41Y-124.92
X129.41Y-127.46
X131.95Y-48.72
X131.95Y-51.26
X131.95Y-53.8
X131.95Y-56.34
X131.95Y-58.88
X131.95Y-61.42
X131.95Y-63.96
X131.95Y-66.5
X131.95Y-69.04
X131.95Y-71.58
X131.95Y-74.12
X131.95Y-76.66
X131.95Y-79.2
X131.95Y-81.74
X131.95Y-84.28
X131.95Y-86.82
X131.95Y-89.36
X131.95Y-91.9
X131.95Y-94.44
X131.95Y-96.98
X131.95Y-99.52
X131.95Y-102.06
X131.95Y-104.6
X131.95Y-107.14
X131.95Y-109.68
X131.95Y-112.22
X131.95Y-114.76
X131.95Y-117.3
X131.95Y-119.84
X131.95Y-122.38
X131.95Y-124.92
X131.95Y-127.46
X134.49Y-48.72
X134.49Y-51.26
X134.49Y-53.8
X134.49Y-56.34
X134.49Y-58.88
X134.49Y-61.42
X134.49Y-63.96
X134.49Y-66.5
X134.49Y-69.04
X134.49Y-71.58
X134.49Y-74.12
X134.49Y-76.66
X134.49Y-79.2
X134.49Y-81.74
X134.49Y-84.28
X134.49Y-86.82
X134.49Y-89.36
X134.49Y-91.9
X134.49Y-94.44
X134.49Y-96.98
X134.49Y-99.52
X134.49Y-102.06
X134.49Y-104.6
X134.49Y-107.14
X134.49Y-109.68
X134.49Y-112.22
X134.49Y-114.76
X134.49Y-117.3
X134.49Y-119.84
X134.49Y-122.38
X134.49Y-124.92
X134.49Y-127.46
T2
X28.0Y-48.0
X28.0Y-50.54
X28.0Y-53.08
X28.0Y-55.62
X28.0Y-58.16
X28.0Y-60.7
X28.0Y-63.24
X28.0Y-65.78
X28.0Y-68.32
X28.0Y-70.86
X28.0Y-73.4
X28.0Y-75.94
X28.0Y-78.48
X28.0Y-81.02
X28.0Y-83.56
X28.0Y-86.1
X28.0Y-88.64
X28.0Y-91.18
X28.0Y-93.72
X28.0Y-96.26
X28.0Y-98.8
X28.0Y-101.34
X28.0Y-103.88
X28.0Y-106.42
X28.0Y-108.96
X28.0Y-111.5
X28.0Y-114.04
X28.0Y-116.58
X28.0Y-119.12
X28.0Y-121.66
X28.0Y-124.2
X28.0Y-126.74
X55.75Y-29.0
X58.29Y-29.0
X60.83Y-29.0
X63.37Y-29.0
X65.91Y-29.0
X68.45Y-29.0
X70.99Y-29.0
X73.53Y-29.0
X76.07Y-29.0
X78.61Y-29.0
X81.15Y-29.0
X83.69Y-29.0
X86.23Y-29.0
X88.77Y-29.0
X91.31Y-29.0
X93.85Y-29.0
X96.39Y-29.0
X98.93Y-29.0
X101.47Y-29.0
X104.01Y-29.0
X106.55Y-29.0
X109.09Y-29.0
X111.63Y-29.0
X114.17Y-29.0
X116.71Y-29.0
X119.25Y-29.0
X121.79Y-29.0
X124.33Y-29.0
X126.87Y-29.0
X129.41Y-29.0
X131.95Y-29.0
X134.49Y-29.0
T3
X161.5Y-55.0
X161.5Y-58.0
X161.5Y-61.0
X161.5Y-64.0
X161.5Y-67.0
X161.5Y-70.0
X161.5Y-73.0
X161.5Y-76.0
X161.5Y-79.0
X161.5Y-82.0
X161.5Y-85.0
X161.5Y-88.0
X161.5Y-91.0
T4
X25.0Y-25.0
X25.0Y-139.0
X167.0Y-25.0
X167.0Y-139.0
M30
