%TF.GenerationSoftware,KiCad,Pcbnew,10.0.3-10.0.3~ubuntu24.04.1*%
%TF.CreationDate,2026-06-08T11:09:13+08:00*%
%TF.ProjectId,hybridimager-v1-weiqi-sensor,68796272-6964-4696-9d61-6765722d7631,0.1.0-draft*%
%TF.SameCoordinates,Original*%
%TF.FileFunction,Copper,L2,Bot*%
%TF.FilePolarity,Positive*%
%FSLAX46Y46*%
G04 Gerber Fmt 4.6, Leading zero omitted, Abs format (unit mm)*
G04 Created by KiCad (PCBNEW 10.0.3-10.0.3~ubuntu24.04.1) date 2026-06-08 11:09:13*
%MOMM*%
%LPD*%
G01*
G04 APERTURE LIST*
%TA.AperFunction,ComponentPad*%
%ADD10C,1.600000*%
%TD*%
%TA.AperFunction,ComponentPad*%
%ADD11R,1.600000X1.600000*%
%TD*%
%TA.AperFunction,ComponentPad*%
%ADD12C,2.200000*%
%TD*%
%TA.AperFunction,ComponentPad*%
%ADD13R,1.700000X1.700000*%
%TD*%
%TA.AperFunction,ComponentPad*%
%ADD14C,1.700000*%
%TD*%
%TA.AperFunction,ViaPad*%
%ADD15C,0.800000*%
%TD*%
%TA.AperFunction,Conductor*%
%ADD16C,0.450000*%
%TD*%
%TA.AperFunction,Conductor*%
%ADD17C,0.550000*%
%TD*%
G04 APERTURE END LIST*
D10*
%TO.P,PD03,G,GUARD*%
%TO.N,GND*%
X116500000Y-75770000D03*
D11*
%TO.P,PD03,S,SIGNAL*%
%TO.N,SP03*%
X116500000Y-73230000D03*
%TD*%
D10*
%TO.P,PD09,G,GUARD*%
%TO.N,GND*%
X65500000Y-101270000D03*
D11*
%TO.P,PD09,S,SIGNAL*%
%TO.N,SP09*%
X65500000Y-98730000D03*
%TD*%
D10*
%TO.P,PD20,G,GUARD*%
%TO.N,GND*%
X116500000Y-126770000D03*
D11*
%TO.P,PD20,S,SIGNAL*%
%TO.N,SP20*%
X116500000Y-124230000D03*
%TD*%
D12*
%TO.P,J4,1,SIG*%
%TO.N,SYNC_OUT*%
X83000000Y-137000000D03*
D10*
%TO.P,J4,2,GND*%
%TO.N,GND*%
X80460000Y-134460000D03*
%TO.P,J4,3,GND*%
X85540000Y-134460000D03*
%TO.P,J4,4,GND*%
X80460000Y-139540000D03*
%TO.P,J4,5,GND*%
X85540000Y-139540000D03*
%TD*%
%TO.P,PD11,G,GUARD*%
%TO.N,GND*%
X99500000Y-101270000D03*
D11*
%TO.P,PD11,S,SIGNAL*%
%TO.N,SP11*%
X99500000Y-98730000D03*
%TD*%
D10*
%TO.P,PD17,G,GUARD*%
%TO.N,GND*%
X99500000Y-118270000D03*
D11*
%TO.P,PD17,S,SIGNAL*%
%TO.N,SP17*%
X99500000Y-115730000D03*
%TD*%
D10*
%TO.P,PD14,G,GUARD*%
%TO.N,GND*%
X91000000Y-109770000D03*
D11*
%TO.P,PD14,S,SIGNAL*%
%TO.N,SP14*%
X91000000Y-107230000D03*
%TD*%
D10*
%TO.P,PD06,G,GUARD*%
%TO.N,GND*%
X74000000Y-92770000D03*
D11*
%TO.P,PD06,S,SIGNAL*%
%TO.N,SP06*%
X74000000Y-90230000D03*
%TD*%
D10*
%TO.P,PD16,G,GUARD*%
%TO.N,GND*%
X82500000Y-118270000D03*
D11*
%TO.P,PD16,S,SIGNAL*%
%TO.N,SP16*%
X82500000Y-115730000D03*
%TD*%
D10*
%TO.P,PD12,G,GUARD*%
%TO.N,GND*%
X116500000Y-101270000D03*
D11*
%TO.P,PD12,S,SIGNAL*%
%TO.N,SP12*%
X116500000Y-98730000D03*
%TD*%
D10*
%TO.P,PD21,G,GUARD*%
%TO.N,GND*%
X91000000Y-101270000D03*
D11*
%TO.P,PD21,S,SIGNAL*%
%TO.N,SP21*%
X91000000Y-98730000D03*
%TD*%
D10*
%TO.P,PD04,G,GUARD*%
%TO.N,GND*%
X82500000Y-84270000D03*
D11*
%TO.P,PD04,S,SIGNAL*%
%TO.N,SP04*%
X82500000Y-81730000D03*
%TD*%
D10*
%TO.P,PD01,G,GUARD*%
%TO.N,GND*%
X65500000Y-75770000D03*
D11*
%TO.P,PD01,S,SIGNAL*%
%TO.N,SP01*%
X65500000Y-73230000D03*
%TD*%
D10*
%TO.P,PD18,G,GUARD*%
%TO.N,GND*%
X65500000Y-126770000D03*
D11*
%TO.P,PD18,S,SIGNAL*%
%TO.N,SP18*%
X65500000Y-124230000D03*
%TD*%
D13*
%TO.P,J2,1,+5V*%
%TO.N,+5V*%
X55000000Y-88570000D03*
D14*
%TO.P,J2,2,+3V3*%
%TO.N,+3V3*%
X55000000Y-91110000D03*
%TO.P,J2,3,GND*%
%TO.N,GND*%
X55000000Y-93650000D03*
%TO.P,J2,4,FRAME_TRIG*%
%TO.N,FRAME_TRIG*%
X55000000Y-96190000D03*
%TO.P,J2,5,EVENT_SYNC*%
%TO.N,EVENT_SYNC*%
X55000000Y-98730000D03*
%TO.P,J2,6,ADC_CLK*%
%TO.N,ADC_CLK*%
X55000000Y-101270000D03*
%TO.P,J2,7,I2C_SDA*%
%TO.N,I2C_SDA*%
X55000000Y-103810000D03*
%TO.P,J2,8,I2C_SCL*%
%TO.N,I2C_SCL*%
X55000000Y-106350000D03*
%TO.P,J2,9,SCAN_TTL*%
%TO.N,SCAN_TTL*%
X55000000Y-108890000D03*
%TO.P,J2,10,GPIO0*%
%TO.N,GPIO0*%
X55000000Y-111430000D03*
%TD*%
D10*
%TO.P,PD13,G,GUARD*%
%TO.N,GND*%
X74000000Y-109770000D03*
D11*
%TO.P,PD13,S,SIGNAL*%
%TO.N,SP13*%
X74000000Y-107230000D03*
%TD*%
D13*
%TO.P,J1,1,EXP_01*%
%TO.N,EXP_01*%
X143730000Y-75870000D03*
D14*
%TO.P,J1,2,GND*%
%TO.N,GND*%
X146270000Y-75870000D03*
D13*
%TO.P,J1,3,EXP_02*%
%TO.N,EXP_02*%
X143730000Y-78410000D03*
D14*
%TO.P,J1,4,GND*%
%TO.N,GND*%
X146270000Y-78410000D03*
D13*
%TO.P,J1,5,EXP_03*%
%TO.N,EXP_03*%
X143730000Y-80950000D03*
D14*
%TO.P,J1,6,GND*%
%TO.N,GND*%
X146270000Y-80950000D03*
D13*
%TO.P,J1,7,EXP_04*%
%TO.N,EXP_04*%
X143730000Y-83490000D03*
D14*
%TO.P,J1,8,GND*%
%TO.N,GND*%
X146270000Y-83490000D03*
D13*
%TO.P,J1,9,EXP_05*%
%TO.N,EXP_05*%
X143730000Y-86030000D03*
D14*
%TO.P,J1,10,GND*%
%TO.N,GND*%
X146270000Y-86030000D03*
D13*
%TO.P,J1,11,EXP_06*%
%TO.N,EXP_06*%
X143730000Y-88570000D03*
D14*
%TO.P,J1,12,GND*%
%TO.N,GND*%
X146270000Y-88570000D03*
D13*
%TO.P,J1,13,EXP_07*%
%TO.N,EXP_07*%
X143730000Y-91110000D03*
D14*
%TO.P,J1,14,GND*%
%TO.N,GND*%
X146270000Y-91110000D03*
D13*
%TO.P,J1,15,EXP_08*%
%TO.N,EXP_08*%
X143730000Y-93650000D03*
D14*
%TO.P,J1,16,GND*%
%TO.N,GND*%
X146270000Y-93650000D03*
D13*
%TO.P,J1,17,EXP_09*%
%TO.N,EXP_09*%
X143730000Y-96190000D03*
D14*
%TO.P,J1,18,GND*%
%TO.N,GND*%
X146270000Y-96190000D03*
D13*
%TO.P,J1,19,EXP_10*%
%TO.N,EXP_10*%
X143730000Y-98730000D03*
D14*
%TO.P,J1,20,GND*%
%TO.N,GND*%
X146270000Y-98730000D03*
D13*
%TO.P,J1,21,EXP_11*%
%TO.N,EXP_11*%
X143730000Y-101270000D03*
D14*
%TO.P,J1,22,GND*%
%TO.N,GND*%
X146270000Y-101270000D03*
D13*
%TO.P,J1,23,EXP_12*%
%TO.N,EXP_12*%
X143730000Y-103810000D03*
D14*
%TO.P,J1,24,GND*%
%TO.N,GND*%
X146270000Y-103810000D03*
D13*
%TO.P,J1,25,EXP_13*%
%TO.N,EXP_13*%
X143730000Y-106350000D03*
D14*
%TO.P,J1,26,GND*%
%TO.N,GND*%
X146270000Y-106350000D03*
D13*
%TO.P,J1,27,EXP_14*%
%TO.N,EXP_14*%
X143730000Y-108890000D03*
D14*
%TO.P,J1,28,GND*%
%TO.N,GND*%
X146270000Y-108890000D03*
D13*
%TO.P,J1,29,EXP_15*%
%TO.N,EXP_15*%
X143730000Y-111430000D03*
D14*
%TO.P,J1,30,GND*%
%TO.N,GND*%
X146270000Y-111430000D03*
D13*
%TO.P,J1,31,EXP_16*%
%TO.N,EXP_16*%
X143730000Y-113970000D03*
D14*
%TO.P,J1,32,GND*%
%TO.N,GND*%
X146270000Y-113970000D03*
D13*
%TO.P,J1,33,EXP_17*%
%TO.N,EXP_17*%
X143730000Y-116510000D03*
D14*
%TO.P,J1,34,GND*%
%TO.N,GND*%
X146270000Y-116510000D03*
D13*
%TO.P,J1,35,EXP_18*%
%TO.N,EXP_18*%
X143730000Y-119050000D03*
D14*
%TO.P,J1,36,GND*%
%TO.N,GND*%
X146270000Y-119050000D03*
D13*
%TO.P,J1,37,EXP_19*%
%TO.N,EXP_19*%
X143730000Y-121590000D03*
D14*
%TO.P,J1,38,GND*%
%TO.N,GND*%
X146270000Y-121590000D03*
D13*
%TO.P,J1,39,EXP_20*%
%TO.N,EXP_20*%
X143730000Y-124130000D03*
D14*
%TO.P,J1,40,GND*%
%TO.N,GND*%
X146270000Y-124130000D03*
%TD*%
D10*
%TO.P,PD07,G,GUARD*%
%TO.N,GND*%
X91000000Y-92770000D03*
D11*
%TO.P,PD07,S,SIGNAL*%
%TO.N,SP07*%
X91000000Y-90230000D03*
%TD*%
D10*
%TO.P,PD08,G,GUARD*%
%TO.N,GND*%
X108000000Y-92770000D03*
D11*
%TO.P,PD08,S,SIGNAL*%
%TO.N,SP08*%
X108000000Y-90230000D03*
%TD*%
D10*
%TO.P,PD10,G,GUARD*%
%TO.N,GND*%
X82500000Y-101270000D03*
D11*
%TO.P,PD10,S,SIGNAL*%
%TO.N,SP10*%
X82500000Y-98730000D03*
%TD*%
D10*
%TO.P,PD02,G,GUARD*%
%TO.N,GND*%
X91000000Y-75770000D03*
D11*
%TO.P,PD02,S,SIGNAL*%
%TO.N,SP02*%
X91000000Y-73230000D03*
%TD*%
D10*
%TO.P,PD05,G,GUARD*%
%TO.N,GND*%
X99500000Y-84270000D03*
D11*
%TO.P,PD05,S,SIGNAL*%
%TO.N,SP05*%
X99500000Y-81730000D03*
%TD*%
D12*
%TO.P,J3,1,SIG*%
%TO.N,SYNC_IN*%
X67000000Y-137000000D03*
D10*
%TO.P,J3,2,GND*%
%TO.N,GND*%
X64460000Y-134460000D03*
%TO.P,J3,3,GND*%
X69540000Y-134460000D03*
%TO.P,J3,4,GND*%
X64460000Y-139540000D03*
%TO.P,J3,5,GND*%
X69540000Y-139540000D03*
%TD*%
%TO.P,PD19,G,GUARD*%
%TO.N,GND*%
X91000000Y-126770000D03*
D11*
%TO.P,PD19,S,SIGNAL*%
%TO.N,SP19*%
X91000000Y-124230000D03*
%TD*%
D10*
%TO.P,PD15,G,GUARD*%
%TO.N,GND*%
X108000000Y-109770000D03*
D11*
%TO.P,PD15,S,SIGNAL*%
%TO.N,SP15*%
X108000000Y-107230000D03*
%TD*%
D15*
%TO.N,GND*%
X111000000Y-137000000D03*
%TD*%
%TO.N,GND*%
D16*
X60500000Y-75770000D02*
X116500000Y-75770000D01*
X111000000Y-137000000D02*
X111000000Y-132000000D01*
X60500000Y-118270000D02*
X99500000Y-118270000D01*
X60500000Y-109770000D02*
X108000000Y-109770000D01*
D17*
X55000000Y-93650000D02*
X60500000Y-93650000D01*
X60500000Y-66500000D02*
X146270000Y-66500000D01*
X60500000Y-66500000D02*
X60500000Y-139540000D01*
X146270000Y-66500000D02*
X146270000Y-124130000D01*
D16*
X60500000Y-92770000D02*
X108000000Y-92770000D01*
X60500000Y-132000000D02*
X111000000Y-132000000D01*
X60500000Y-84270000D02*
X99500000Y-84270000D01*
X60500000Y-101270000D02*
X116500000Y-101270000D01*
D17*
X60500000Y-134460000D02*
X85540000Y-134460000D01*
X60500000Y-139540000D02*
X85540000Y-139540000D01*
D16*
X60500000Y-126770000D02*
X116500000Y-126770000D01*
%TD*%
%TA.AperFunction,Conductor*%
%TO.N,GND*%
G36*
X154441621Y-55520502D02*
G01*
X154488114Y-55574158D01*
X154499500Y-55626500D01*
X154499500Y-144373500D01*
X154479498Y-144441621D01*
X154425842Y-144488114D01*
X154373500Y-144499500D01*
X50626500Y-144499500D01*
X50558379Y-144479498D01*
X50511886Y-144425842D01*
X50500500Y-144373500D01*
X50500500Y-137878709D01*
X55149500Y-137878709D01*
X55149500Y-138121290D01*
X55181160Y-138361782D01*
X55243944Y-138596095D01*
X55243945Y-138596097D01*
X55243946Y-138596100D01*
X55336776Y-138820212D01*
X55336777Y-138820213D01*
X55336782Y-138820224D01*
X55458061Y-139030285D01*
X55458063Y-139030288D01*
X55458064Y-139030289D01*
X55605735Y-139222738D01*
X55605739Y-139222742D01*
X55605744Y-139222748D01*
X55777251Y-139394255D01*
X55777256Y-139394259D01*
X55777262Y-139394265D01*
X55969711Y-139541936D01*
X55969714Y-139541938D01*
X56179775Y-139663217D01*
X56179779Y-139663218D01*
X56179788Y-139663224D01*
X56403900Y-139756054D01*
X56638211Y-139818838D01*
X56638215Y-139818838D01*
X56638217Y-139818839D01*
X56700202Y-139826999D01*
X56878712Y-139850500D01*
X56878719Y-139850500D01*
X57121281Y-139850500D01*
X57121288Y-139850500D01*
X57338637Y-139821885D01*
X57361782Y-139818839D01*
X57361782Y-139818838D01*
X57361789Y-139818838D01*
X57596100Y-139756054D01*
X57820212Y-139663224D01*
X58030289Y-139541936D01*
X58222738Y-139394265D01*
X58394265Y-139222738D01*
X58541936Y-139030289D01*
X58663224Y-138820212D01*
X58756054Y-138596100D01*
X58818838Y-138361789D01*
X58850500Y-138121288D01*
X58850500Y-137878712D01*
X58818838Y-137638211D01*
X58756054Y-137403900D01*
X58663224Y-137179788D01*
X58663218Y-137179779D01*
X58663217Y-137179775D01*
X58541935Y-136969708D01*
X58532643Y-136957599D01*
X58532641Y-136957597D01*
X58477582Y-136885843D01*
X65549500Y-136885843D01*
X65549500Y-137114157D01*
X65585216Y-137339660D01*
X65655769Y-137556799D01*
X65759421Y-137760228D01*
X65759423Y-137760231D01*
X65893622Y-137944939D01*
X66055060Y-138106377D01*
X66075583Y-138121288D01*
X66239772Y-138240579D01*
X66443201Y-138344231D01*
X66660340Y-138414784D01*
X66885843Y-138450500D01*
X66885846Y-138450500D01*
X67114154Y-138450500D01*
X67114157Y-138450500D01*
X67339660Y-138414784D01*
X67556799Y-138344231D01*
X67760228Y-138240579D01*
X67944937Y-138106379D01*
X68106379Y-137944937D01*
X68240579Y-137760228D01*
X68344231Y-137556799D01*
X68414784Y-137339660D01*
X68450500Y-137114157D01*
X68450500Y-136885843D01*
X81549500Y-136885843D01*
X81549500Y-137114157D01*
X81585216Y-137339660D01*
X81655769Y-137556799D01*
X81759421Y-137760228D01*
X81759423Y-137760231D01*
X81893622Y-137944939D01*
X82055060Y-138106377D01*
X82075583Y-138121288D01*
X82239772Y-138240579D01*
X82443201Y-138344231D01*
X82660340Y-138414784D01*
X82885843Y-138450500D01*
X82885846Y-138450500D01*
X83114154Y-138450500D01*
X83114157Y-138450500D01*
X83339660Y-138414784D01*
X83556799Y-138344231D01*
X83760228Y-138240579D01*
X83944937Y-138106379D01*
X84106379Y-137944937D01*
X84154497Y-137878709D01*
X146149500Y-137878709D01*
X146149500Y-138121290D01*
X146181160Y-138361782D01*
X146243944Y-138596095D01*
X146243945Y-138596097D01*
X146243946Y-138596100D01*
X146336776Y-138820212D01*
X146336777Y-138820213D01*
X146336782Y-138820224D01*
X146458061Y-139030285D01*
X146458063Y-139030288D01*
X146458064Y-139030289D01*
X146605735Y-139222738D01*
X146605739Y-139222742D01*
X146605744Y-139222748D01*
X146777251Y-139394255D01*
X146777256Y-139394259D01*
X146777262Y-139394265D01*
X146969711Y-139541936D01*
X146969714Y-139541938D01*
X147179775Y-139663217D01*
X147179779Y-139663218D01*
X147179788Y-139663224D01*
X147403900Y-139756054D01*
X147638211Y-139818838D01*
X147638215Y-139818838D01*
X147638217Y-139818839D01*
X147700202Y-139826999D01*
X147878712Y-139850500D01*
X147878719Y-139850500D01*
X148121281Y-139850500D01*
X148121288Y-139850500D01*
X148338637Y-139821885D01*
X148361782Y-139818839D01*
X148361782Y-139818838D01*
X148361789Y-139818838D01*
X148596100Y-139756054D01*
X148820212Y-139663224D01*
X149030289Y-139541936D01*
X149222738Y-139394265D01*
X149394265Y-139222738D01*
X149541936Y-139030289D01*
X149663224Y-138820212D01*
X149756054Y-138596100D01*
X149818838Y-138361789D01*
X149850500Y-138121288D01*
X149850500Y-137878712D01*
X149818838Y-137638211D01*
X149756054Y-137403900D01*
X149663224Y-137179788D01*
X149663218Y-137179779D01*
X149663217Y-137179775D01*
X149541938Y-136969714D01*
X149541936Y-136969711D01*
X149394265Y-136777262D01*
X149394259Y-136777256D01*
X149394255Y-136777251D01*
X149222748Y-136605744D01*
X149222742Y-136605739D01*
X149222738Y-136605735D01*
X149030289Y-136458064D01*
X149030288Y-136458063D01*
X149030285Y-136458061D01*
X148820224Y-136336782D01*
X148820216Y-136336778D01*
X148820212Y-136336776D01*
X148596100Y-136243946D01*
X148596097Y-136243945D01*
X148596095Y-136243944D01*
X148361782Y-136181160D01*
X148121290Y-136149500D01*
X148121288Y-136149500D01*
X147878712Y-136149500D01*
X147878709Y-136149500D01*
X147638217Y-136181160D01*
X147403904Y-136243944D01*
X147403900Y-136243946D01*
X147179786Y-136336777D01*
X147179775Y-136336782D01*
X146969714Y-136458061D01*
X146777262Y-136605735D01*
X146777251Y-136605744D01*
X146605744Y-136777251D01*
X146605735Y-136777262D01*
X146458061Y-136969714D01*
X146336782Y-137179775D01*
X146336777Y-137179786D01*
X146243946Y-137403900D01*
X146243944Y-137403904D01*
X146181160Y-137638217D01*
X146149500Y-137878709D01*
X84154497Y-137878709D01*
X84240579Y-137760228D01*
X84344231Y-137556799D01*
X84414784Y-137339660D01*
X84450500Y-137114157D01*
X84450500Y-136885843D01*
X84414784Y-136660340D01*
X84344231Y-136443201D01*
X84240579Y-136239772D01*
X84106379Y-136055063D01*
X84106377Y-136055060D01*
X83944939Y-135893622D01*
X83760231Y-135759423D01*
X83760230Y-135759422D01*
X83760228Y-135759421D01*
X83556799Y-135655769D01*
X83339660Y-135585216D01*
X83114157Y-135549500D01*
X82885843Y-135549500D01*
X82660340Y-135585216D01*
X82660337Y-135585216D01*
X82660336Y-135585217D01*
X82443201Y-135655769D01*
X82443199Y-135655770D01*
X82239768Y-135759423D01*
X82055060Y-135893622D01*
X81893622Y-136055060D01*
X81759423Y-136239768D01*
X81759421Y-136239772D01*
X81655769Y-136443201D01*
X81585216Y-136660340D01*
X81549500Y-136885843D01*
X68450500Y-136885843D01*
X68414784Y-136660340D01*
X68344231Y-136443201D01*
X68240579Y-136239772D01*
X68106379Y-136055063D01*
X68106377Y-136055060D01*
X67944939Y-135893622D01*
X67760231Y-135759423D01*
X67760230Y-135759422D01*
X67760228Y-135759421D01*
X67556799Y-135655769D01*
X67339660Y-135585216D01*
X67114157Y-135549500D01*
X66885843Y-135549500D01*
X66660340Y-135585216D01*
X66660337Y-135585216D01*
X66660336Y-135585217D01*
X66443201Y-135655769D01*
X66443199Y-135655770D01*
X66239768Y-135759423D01*
X66055060Y-135893622D01*
X65893622Y-136055060D01*
X65759423Y-136239768D01*
X65759421Y-136239772D01*
X65655769Y-136443201D01*
X65585216Y-136660340D01*
X65549500Y-136885843D01*
X58477582Y-136885843D01*
X58394265Y-136777262D01*
X58394264Y-136777261D01*
X58394255Y-136777251D01*
X58222748Y-136605744D01*
X58222742Y-136605739D01*
X58222738Y-136605735D01*
X58030289Y-136458064D01*
X58030288Y-136458063D01*
X58030285Y-136458061D01*
X57820224Y-136336782D01*
X57820216Y-136336778D01*
X57820212Y-136336776D01*
X57596100Y-136243946D01*
X57596097Y-136243945D01*
X57596095Y-136243944D01*
X57361782Y-136181160D01*
X57121290Y-136149500D01*
X57121288Y-136149500D01*
X56878712Y-136149500D01*
X56878709Y-136149500D01*
X56638217Y-136181160D01*
X56403904Y-136243944D01*
X56403900Y-136243946D01*
X56179786Y-136336777D01*
X56179775Y-136336782D01*
X55969714Y-136458061D01*
X55777262Y-136605735D01*
X55777251Y-136605744D01*
X55605744Y-136777251D01*
X55605735Y-136777262D01*
X55458061Y-136969714D01*
X55336782Y-137179775D01*
X55336777Y-137179786D01*
X55243946Y-137403900D01*
X55243944Y-137403904D01*
X55181160Y-137638217D01*
X55149500Y-137878709D01*
X50500500Y-137878709D01*
X50500500Y-123396738D01*
X64349500Y-123396738D01*
X64349500Y-125063261D01*
X64359427Y-125131394D01*
X64410801Y-125236482D01*
X64410803Y-125236485D01*
X64493514Y-125319196D01*
X64493517Y-125319198D01*
X64598607Y-125370573D01*
X64666740Y-125380500D01*
X64666745Y-125380500D01*
X66333255Y-125380500D01*
X66333260Y-125380500D01*
X66401393Y-125370573D01*
X66506483Y-125319198D01*
X66589198Y-125236483D01*
X66640573Y-125131393D01*
X66650500Y-125063260D01*
X66650500Y-123396740D01*
X66650500Y-123396738D01*
X89849500Y-123396738D01*
X89849500Y-125063261D01*
X89859427Y-125131394D01*
X89910801Y-125236482D01*
X89910803Y-125236485D01*
X89993514Y-125319196D01*
X89993517Y-125319198D01*
X90098607Y-125370573D01*
X90166740Y-125380500D01*
X90166745Y-125380500D01*
X91833255Y-125380500D01*
X91833260Y-125380500D01*
X91901393Y-125370573D01*
X92006483Y-125319198D01*
X92089198Y-125236483D01*
X92140573Y-125131393D01*
X92150500Y-125063260D01*
X92150500Y-123396740D01*
X92150500Y-123396738D01*
X115349500Y-123396738D01*
X115349500Y-125063261D01*
X115359427Y-125131394D01*
X115410801Y-125236482D01*
X115410803Y-125236485D01*
X115493514Y-125319196D01*
X115493517Y-125319198D01*
X115598607Y-125370573D01*
X115666740Y-125380500D01*
X115666745Y-125380500D01*
X117333255Y-125380500D01*
X117333260Y-125380500D01*
X117401393Y-125370573D01*
X117506483Y-125319198D01*
X117589198Y-125236483D01*
X117640573Y-125131393D01*
X117650500Y-125063260D01*
X117650500Y-123396740D01*
X117640573Y-123328607D01*
X117589198Y-123223517D01*
X117589196Y-123223514D01*
X117506485Y-123140803D01*
X117506482Y-123140801D01*
X117401394Y-123089427D01*
X117333261Y-123079500D01*
X117333260Y-123079500D01*
X115666740Y-123079500D01*
X115666738Y-123079500D01*
X115598605Y-123089427D01*
X115493517Y-123140801D01*
X115493514Y-123140803D01*
X115410803Y-123223514D01*
X115410801Y-123223517D01*
X115359427Y-123328605D01*
X115349500Y-123396738D01*
X92150500Y-123396738D01*
X92140573Y-123328607D01*
X92089198Y-123223517D01*
X92089196Y-123223514D01*
X92006485Y-123140803D01*
X92006482Y-123140801D01*
X91901394Y-123089427D01*
X91833261Y-123079500D01*
X91833260Y-123079500D01*
X90166740Y-123079500D01*
X90166738Y-123079500D01*
X90098605Y-123089427D01*
X89993517Y-123140801D01*
X89993514Y-123140803D01*
X89910803Y-123223514D01*
X89910801Y-123223517D01*
X89859427Y-123328605D01*
X89849500Y-123396738D01*
X66650500Y-123396738D01*
X66640573Y-123328607D01*
X66589198Y-123223517D01*
X66589196Y-123223514D01*
X66506485Y-123140803D01*
X66506482Y-123140801D01*
X66401394Y-123089427D01*
X66333261Y-123079500D01*
X66333260Y-123079500D01*
X64666740Y-123079500D01*
X64666738Y-123079500D01*
X64598605Y-123089427D01*
X64493517Y-123140801D01*
X64493514Y-123140803D01*
X64410803Y-123223514D01*
X64410801Y-123223517D01*
X64359427Y-123328605D01*
X64349500Y-123396738D01*
X50500500Y-123396738D01*
X50500500Y-114896738D01*
X81349500Y-114896738D01*
X81349500Y-116563261D01*
X81359427Y-116631394D01*
X81410801Y-116736482D01*
X81410803Y-116736485D01*
X81493514Y-116819196D01*
X81493517Y-116819198D01*
X81598607Y-116870573D01*
X81666740Y-116880500D01*
X81666745Y-116880500D01*
X83333255Y-116880500D01*
X83333260Y-116880500D01*
X83401393Y-116870573D01*
X83506483Y-116819198D01*
X83589198Y-116736483D01*
X83640573Y-116631393D01*
X83650500Y-116563260D01*
X83650500Y-114896740D01*
X83650500Y-114896738D01*
X98349500Y-114896738D01*
X98349500Y-116563261D01*
X98359427Y-116631394D01*
X98410801Y-116736482D01*
X98410803Y-116736485D01*
X98493514Y-116819196D01*
X98493517Y-116819198D01*
X98598607Y-116870573D01*
X98666740Y-116880500D01*
X98666745Y-116880500D01*
X100333255Y-116880500D01*
X100333260Y-116880500D01*
X100401393Y-116870573D01*
X100506483Y-116819198D01*
X100589198Y-116736483D01*
X100640573Y-116631393D01*
X100650500Y-116563260D01*
X100650500Y-114896740D01*
X100640573Y-114828607D01*
X100589198Y-114723517D01*
X100589196Y-114723514D01*
X100506485Y-114640803D01*
X100506482Y-114640801D01*
X100401394Y-114589427D01*
X100333261Y-114579500D01*
X100333260Y-114579500D01*
X98666740Y-114579500D01*
X98666738Y-114579500D01*
X98598605Y-114589427D01*
X98493517Y-114640801D01*
X98493514Y-114640803D01*
X98410803Y-114723514D01*
X98410801Y-114723517D01*
X98359427Y-114828605D01*
X98349500Y-114896738D01*
X83650500Y-114896738D01*
X83640573Y-114828607D01*
X83589198Y-114723517D01*
X83589196Y-114723514D01*
X83506485Y-114640803D01*
X83506482Y-114640801D01*
X83401394Y-114589427D01*
X83333261Y-114579500D01*
X83333260Y-114579500D01*
X81666740Y-114579500D01*
X81666738Y-114579500D01*
X81598605Y-114589427D01*
X81493517Y-114640801D01*
X81493514Y-114640803D01*
X81410803Y-114723514D01*
X81410801Y-114723517D01*
X81359427Y-114828605D01*
X81349500Y-114896738D01*
X50500500Y-114896738D01*
X50500500Y-96095519D01*
X53799500Y-96095519D01*
X53799500Y-96284481D01*
X53829060Y-96471118D01*
X53829061Y-96471123D01*
X53887451Y-96650828D01*
X53973242Y-96819202D01*
X54084311Y-96972075D01*
X54217924Y-97105688D01*
X54217927Y-97105690D01*
X54370801Y-97216760D01*
X54539168Y-97302547D01*
X54621185Y-97329196D01*
X54654950Y-97340167D01*
X54713555Y-97380241D01*
X54741192Y-97445637D01*
X54729085Y-97515594D01*
X54681079Y-97567900D01*
X54654950Y-97579833D01*
X54539169Y-97617452D01*
X54370797Y-97703242D01*
X54217924Y-97814311D01*
X54084311Y-97947924D01*
X53973242Y-98100797D01*
X53887451Y-98269171D01*
X53829061Y-98448876D01*
X53829060Y-98448881D01*
X53829060Y-98448882D01*
X53799500Y-98635519D01*
X53799500Y-98824481D01*
X53829060Y-99011118D01*
X53829061Y-99011123D01*
X53887451Y-99190828D01*
X53973242Y-99359202D01*
X54084311Y-99512075D01*
X54217924Y-99645688D01*
X54217927Y-99645690D01*
X54370801Y-99756760D01*
X54539168Y-99842547D01*
X54621185Y-99869196D01*
X54654950Y-99880167D01*
X54713555Y-99920241D01*
X54741192Y-99985637D01*
X54729085Y-100055594D01*
X54681079Y-100107900D01*
X54654950Y-100119833D01*
X54539169Y-100157452D01*
X54370797Y-100243242D01*
X54217924Y-100354311D01*
X54084311Y-100487924D01*
X53973242Y-100640797D01*
X53887451Y-100809171D01*
X53829061Y-100988876D01*
X53829060Y-100988881D01*
X53829060Y-100988882D01*
X53799500Y-101175519D01*
X53799500Y-101364481D01*
X53829060Y-101551118D01*
X53829061Y-101551123D01*
X53887451Y-101730828D01*
X53973242Y-101899202D01*
X54084311Y-102052075D01*
X54217924Y-102185688D01*
X54217927Y-102185690D01*
X54370801Y-102296760D01*
X54539168Y-102382547D01*
X54621185Y-102409196D01*
X54654950Y-102420167D01*
X54713555Y-102460241D01*
X54741192Y-102525637D01*
X54729085Y-102595594D01*
X54681079Y-102647900D01*
X54654950Y-102659833D01*
X54539169Y-102697452D01*
X54370797Y-102783242D01*
X54217924Y-102894311D01*
X54084311Y-103027924D01*
X53973242Y-103180797D01*
X53887451Y-103349171D01*
X53829061Y-103528876D01*
X53829060Y-103528881D01*
X53829060Y-103528882D01*
X53799500Y-103715519D01*
X53799500Y-103904481D01*
X53829060Y-104091118D01*
X53829061Y-104091123D01*
X53887451Y-104270828D01*
X53973242Y-104439202D01*
X54084311Y-104592075D01*
X54217924Y-104725688D01*
X54217927Y-104725690D01*
X54370801Y-104836760D01*
X54539168Y-104922547D01*
X54621185Y-104949196D01*
X54654950Y-104960167D01*
X54713555Y-105000241D01*
X54741192Y-105065637D01*
X54729085Y-105135594D01*
X54681079Y-105187900D01*
X54654950Y-105199833D01*
X54539169Y-105237452D01*
X54370797Y-105323242D01*
X54217924Y-105434311D01*
X54084311Y-105567924D01*
X53973242Y-105720797D01*
X53887451Y-105889171D01*
X53829061Y-106068876D01*
X53829060Y-106068881D01*
X53829060Y-106068882D01*
X53799500Y-106255519D01*
X53799500Y-106444481D01*
X53829060Y-106631118D01*
X53829061Y-106631123D01*
X53887451Y-106810828D01*
X53973242Y-106979202D01*
X54084311Y-107132075D01*
X54217924Y-107265688D01*
X54217927Y-107265690D01*
X54370801Y-107376760D01*
X54539168Y-107462547D01*
X54621185Y-107489196D01*
X54654950Y-107500167D01*
X54713555Y-107540241D01*
X54741192Y-107605637D01*
X54729085Y-107675594D01*
X54681079Y-107727900D01*
X54654950Y-107739833D01*
X54539169Y-107777452D01*
X54370797Y-107863242D01*
X54217924Y-107974311D01*
X54084311Y-108107924D01*
X53973242Y-108260797D01*
X53887451Y-108429171D01*
X53829061Y-108608876D01*
X53829060Y-108608881D01*
X53829060Y-108608882D01*
X53799500Y-108795519D01*
X53799500Y-108984481D01*
X53829060Y-109171118D01*
X53829061Y-109171123D01*
X53887451Y-109350828D01*
X53973242Y-109519202D01*
X54084311Y-109672075D01*
X54217924Y-109805688D01*
X54217927Y-109805690D01*
X54370801Y-109916760D01*
X54539168Y-110002547D01*
X54621185Y-110029196D01*
X54654950Y-110040167D01*
X54713555Y-110080241D01*
X54741192Y-110145637D01*
X54729085Y-110215594D01*
X54681079Y-110267900D01*
X54654950Y-110279833D01*
X54539169Y-110317452D01*
X54370797Y-110403242D01*
X54217924Y-110514311D01*
X54084311Y-110647924D01*
X53973242Y-110800797D01*
X53887451Y-110969171D01*
X53829061Y-111148876D01*
X53829060Y-111148881D01*
X53829060Y-111148882D01*
X53799500Y-111335519D01*
X53799500Y-111524481D01*
X53829060Y-111711118D01*
X53829061Y-111711123D01*
X53887451Y-111890828D01*
X53973242Y-112059202D01*
X54084311Y-112212075D01*
X54217924Y-112345688D01*
X54217927Y-112345690D01*
X54370801Y-112456760D01*
X54539168Y-112542547D01*
X54718882Y-112600940D01*
X54905519Y-112630500D01*
X54905522Y-112630500D01*
X55094478Y-112630500D01*
X55094481Y-112630500D01*
X55281118Y-112600940D01*
X55460832Y-112542547D01*
X55629199Y-112456760D01*
X55782073Y-112345690D01*
X55915690Y-112212073D01*
X56026760Y-112059199D01*
X56112547Y-111890832D01*
X56170940Y-111711118D01*
X56200500Y-111524481D01*
X56200500Y-111335519D01*
X56170940Y-111148882D01*
X56112547Y-110969168D01*
X56026760Y-110800801D01*
X55915690Y-110647927D01*
X55915688Y-110647924D01*
X55782075Y-110514311D01*
X55629202Y-110403242D01*
X55629201Y-110403241D01*
X55629199Y-110403240D01*
X55460832Y-110317453D01*
X55460831Y-110317452D01*
X55460828Y-110317451D01*
X55345050Y-110279833D01*
X55286444Y-110239759D01*
X55258807Y-110174363D01*
X55270914Y-110104406D01*
X55318920Y-110052100D01*
X55345050Y-110040167D01*
X55378815Y-110029196D01*
X55460832Y-110002547D01*
X55629199Y-109916760D01*
X55782073Y-109805690D01*
X55915690Y-109672073D01*
X56026760Y-109519199D01*
X56112547Y-109350832D01*
X56170940Y-109171118D01*
X56200500Y-108984481D01*
X56200500Y-108795519D01*
X56170940Y-108608882D01*
X56112547Y-108429168D01*
X56026760Y-108260801D01*
X55915690Y-108107927D01*
X55915688Y-108107924D01*
X55782075Y-107974311D01*
X55629202Y-107863242D01*
X55629201Y-107863241D01*
X55629199Y-107863240D01*
X55460832Y-107777453D01*
X55460831Y-107777452D01*
X55460828Y-107777451D01*
X55345050Y-107739833D01*
X55286444Y-107699759D01*
X55258807Y-107634363D01*
X55270914Y-107564406D01*
X55318920Y-107512100D01*
X55345050Y-107500167D01*
X55378815Y-107489196D01*
X55460832Y-107462547D01*
X55629199Y-107376760D01*
X55782073Y-107265690D01*
X55915690Y-107132073D01*
X56026760Y-106979199D01*
X56112547Y-106810832D01*
X56170940Y-106631118D01*
X56200500Y-106444481D01*
X56200500Y-106396738D01*
X72849500Y-106396738D01*
X72849500Y-108063261D01*
X72859427Y-108131394D01*
X72910801Y-108236482D01*
X72910803Y-108236485D01*
X72993514Y-108319196D01*
X72993517Y-108319198D01*
X73098607Y-108370573D01*
X73166740Y-108380500D01*
X73166745Y-108380500D01*
X74833255Y-108380500D01*
X74833260Y-108380500D01*
X74901393Y-108370573D01*
X75006483Y-108319198D01*
X75089198Y-108236483D01*
X75140573Y-108131393D01*
X75150500Y-108063260D01*
X75150500Y-106396740D01*
X75150500Y-106396738D01*
X89849500Y-106396738D01*
X89849500Y-108063261D01*
X89859427Y-108131394D01*
X89910801Y-108236482D01*
X89910803Y-108236485D01*
X89993514Y-108319196D01*
X89993517Y-108319198D01*
X90098607Y-108370573D01*
X90166740Y-108380500D01*
X90166745Y-108380500D01*
X91833255Y-108380500D01*
X91833260Y-108380500D01*
X91901393Y-108370573D01*
X92006483Y-108319198D01*
X92089198Y-108236483D01*
X92140573Y-108131393D01*
X92150500Y-108063260D01*
X92150500Y-106396740D01*
X92150500Y-106396738D01*
X106849500Y-106396738D01*
X106849500Y-108063261D01*
X106859427Y-108131394D01*
X106910801Y-108236482D01*
X106910803Y-108236485D01*
X106993514Y-108319196D01*
X106993517Y-108319198D01*
X107098607Y-108370573D01*
X107166740Y-108380500D01*
X107166745Y-108380500D01*
X108833255Y-108380500D01*
X108833260Y-108380500D01*
X108901393Y-108370573D01*
X109006483Y-108319198D01*
X109089198Y-108236483D01*
X109140573Y-108131393D01*
X109150500Y-108063260D01*
X109150500Y-106396740D01*
X109140573Y-106328607D01*
X109089198Y-106223517D01*
X109089196Y-106223514D01*
X109006485Y-106140803D01*
X109006482Y-106140801D01*
X108901394Y-106089427D01*
X108833261Y-106079500D01*
X108833260Y-106079500D01*
X107166740Y-106079500D01*
X107166738Y-106079500D01*
X107098605Y-106089427D01*
X106993517Y-106140801D01*
X106993514Y-106140803D01*
X106910803Y-106223514D01*
X106910801Y-106223517D01*
X106859427Y-106328605D01*
X106849500Y-106396738D01*
X92150500Y-106396738D01*
X92140573Y-106328607D01*
X92089198Y-106223517D01*
X92089196Y-106223514D01*
X92006485Y-106140803D01*
X92006482Y-106140801D01*
X91901394Y-106089427D01*
X91833261Y-106079500D01*
X91833260Y-106079500D01*
X90166740Y-106079500D01*
X90166738Y-106079500D01*
X90098605Y-106089427D01*
X89993517Y-106140801D01*
X89993514Y-106140803D01*
X89910803Y-106223514D01*
X89910801Y-106223517D01*
X89859427Y-106328605D01*
X89849500Y-106396738D01*
X75150500Y-106396738D01*
X75140573Y-106328607D01*
X75089198Y-106223517D01*
X75089196Y-106223514D01*
X75006485Y-106140803D01*
X75006482Y-106140801D01*
X74901394Y-106089427D01*
X74833261Y-106079500D01*
X74833260Y-106079500D01*
X73166740Y-106079500D01*
X73166738Y-106079500D01*
X73098605Y-106089427D01*
X72993517Y-106140801D01*
X72993514Y-106140803D01*
X72910803Y-106223514D01*
X72910801Y-106223517D01*
X72859427Y-106328605D01*
X72849500Y-106396738D01*
X56200500Y-106396738D01*
X56200500Y-106255519D01*
X56170940Y-106068882D01*
X56112547Y-105889168D01*
X56026760Y-105720801D01*
X55915690Y-105567927D01*
X55915688Y-105567924D01*
X55782075Y-105434311D01*
X55629202Y-105323242D01*
X55629201Y-105323241D01*
X55629199Y-105323240D01*
X55460832Y-105237453D01*
X55460831Y-105237452D01*
X55460828Y-105237451D01*
X55345050Y-105199833D01*
X55286444Y-105159759D01*
X55258807Y-105094363D01*
X55270914Y-105024406D01*
X55318920Y-104972100D01*
X55345050Y-104960167D01*
X55378815Y-104949196D01*
X55460832Y-104922547D01*
X55629199Y-104836760D01*
X55782073Y-104725690D01*
X55915690Y-104592073D01*
X56026760Y-104439199D01*
X56112547Y-104270832D01*
X56170940Y-104091118D01*
X56200500Y-103904481D01*
X56200500Y-103715519D01*
X56170940Y-103528882D01*
X56112547Y-103349168D01*
X56026760Y-103180801D01*
X55915690Y-103027927D01*
X55915688Y-103027924D01*
X55782075Y-102894311D01*
X55629202Y-102783242D01*
X55629201Y-102783241D01*
X55629199Y-102783240D01*
X55460832Y-102697453D01*
X55460831Y-102697452D01*
X55460828Y-102697451D01*
X55345050Y-102659833D01*
X55286444Y-102619759D01*
X55258807Y-102554363D01*
X55270914Y-102484406D01*
X55318920Y-102432100D01*
X55345050Y-102420167D01*
X55378815Y-102409196D01*
X55460832Y-102382547D01*
X55629199Y-102296760D01*
X55782073Y-102185690D01*
X55915690Y-102052073D01*
X56026760Y-101899199D01*
X56112547Y-101730832D01*
X56170940Y-101551118D01*
X56200500Y-101364481D01*
X56200500Y-101175519D01*
X56170940Y-100988882D01*
X56112547Y-100809168D01*
X56026760Y-100640801D01*
X55915690Y-100487927D01*
X55915688Y-100487924D01*
X55782075Y-100354311D01*
X55629202Y-100243242D01*
X55629201Y-100243241D01*
X55629199Y-100243240D01*
X55460832Y-100157453D01*
X55460831Y-100157452D01*
X55460828Y-100157451D01*
X55345050Y-100119833D01*
X55286444Y-100079759D01*
X55258807Y-100014363D01*
X55270914Y-99944406D01*
X55318920Y-99892100D01*
X55345050Y-99880167D01*
X55378815Y-99869196D01*
X55460832Y-99842547D01*
X55629199Y-99756760D01*
X55782073Y-99645690D01*
X55915690Y-99512073D01*
X56026760Y-99359199D01*
X56112547Y-99190832D01*
X56170940Y-99011118D01*
X56200500Y-98824481D01*
X56200500Y-98635519D01*
X56170940Y-98448882D01*
X56112547Y-98269168D01*
X56026760Y-98100801D01*
X55915690Y-97947927D01*
X55915687Y-97947924D01*
X55915685Y-97947921D01*
X55864502Y-97896738D01*
X64349500Y-97896738D01*
X64349500Y-99563261D01*
X64359427Y-99631394D01*
X64410801Y-99736482D01*
X64410803Y-99736485D01*
X64493514Y-99819196D01*
X64493517Y-99819198D01*
X64598607Y-99870573D01*
X64666740Y-99880500D01*
X64666745Y-99880500D01*
X66333255Y-99880500D01*
X66333260Y-99880500D01*
X66401393Y-99870573D01*
X66506483Y-99819198D01*
X66589198Y-99736483D01*
X66640573Y-99631393D01*
X66650500Y-99563260D01*
X66650500Y-97896740D01*
X66650500Y-97896738D01*
X81349500Y-97896738D01*
X81349500Y-99563261D01*
X81359427Y-99631394D01*
X81410801Y-99736482D01*
X81410803Y-99736485D01*
X81493514Y-99819196D01*
X81493517Y-99819198D01*
X81598607Y-99870573D01*
X81666740Y-99880500D01*
X81666745Y-99880500D01*
X83333255Y-99880500D01*
X83333260Y-99880500D01*
X83401393Y-99870573D01*
X83506483Y-99819198D01*
X83589198Y-99736483D01*
X83640573Y-99631393D01*
X83650500Y-99563260D01*
X83650500Y-97896740D01*
X83650500Y-97896738D01*
X89849500Y-97896738D01*
X89849500Y-99563261D01*
X89859427Y-99631394D01*
X89910801Y-99736482D01*
X89910803Y-99736485D01*
X89993514Y-99819196D01*
X89993517Y-99819198D01*
X90098607Y-99870573D01*
X90166740Y-99880500D01*
X90166745Y-99880500D01*
X91833255Y-99880500D01*
X91833260Y-99880500D01*
X91901393Y-99870573D01*
X92006483Y-99819198D01*
X92089198Y-99736483D01*
X92140573Y-99631393D01*
X92150500Y-99563260D01*
X92150500Y-97896740D01*
X92150500Y-97896738D01*
X98349500Y-97896738D01*
X98349500Y-99563261D01*
X98359427Y-99631394D01*
X98410801Y-99736482D01*
X98410803Y-99736485D01*
X98493514Y-99819196D01*
X98493517Y-99819198D01*
X98598607Y-99870573D01*
X98666740Y-99880500D01*
X98666745Y-99880500D01*
X100333255Y-99880500D01*
X100333260Y-99880500D01*
X100401393Y-99870573D01*
X100506483Y-99819198D01*
X100589198Y-99736483D01*
X100640573Y-99631393D01*
X100650500Y-99563260D01*
X100650500Y-97896740D01*
X100650500Y-97896738D01*
X115349500Y-97896738D01*
X115349500Y-99563261D01*
X115359427Y-99631394D01*
X115410801Y-99736482D01*
X115410803Y-99736485D01*
X115493514Y-99819196D01*
X115493517Y-99819198D01*
X115598607Y-99870573D01*
X115666740Y-99880500D01*
X115666745Y-99880500D01*
X117333255Y-99880500D01*
X117333260Y-99880500D01*
X117401393Y-99870573D01*
X117506483Y-99819198D01*
X117589198Y-99736483D01*
X117640573Y-99631393D01*
X117650500Y-99563260D01*
X117650500Y-97896740D01*
X117640573Y-97828607D01*
X117589198Y-97723517D01*
X117589196Y-97723514D01*
X117506485Y-97640803D01*
X117506482Y-97640801D01*
X117401394Y-97589427D01*
X117333261Y-97579500D01*
X117333260Y-97579500D01*
X115666740Y-97579500D01*
X115666738Y-97579500D01*
X115598605Y-97589427D01*
X115493517Y-97640801D01*
X115493514Y-97640803D01*
X115410803Y-97723514D01*
X115410801Y-97723517D01*
X115359427Y-97828605D01*
X115349500Y-97896738D01*
X100650500Y-97896738D01*
X100640573Y-97828607D01*
X100589198Y-97723517D01*
X100589196Y-97723514D01*
X100506485Y-97640803D01*
X100506482Y-97640801D01*
X100401394Y-97589427D01*
X100333261Y-97579500D01*
X100333260Y-97579500D01*
X98666740Y-97579500D01*
X98666738Y-97579500D01*
X98598605Y-97589427D01*
X98493517Y-97640801D01*
X98493514Y-97640803D01*
X98410803Y-97723514D01*
X98410801Y-97723517D01*
X98359427Y-97828605D01*
X98349500Y-97896738D01*
X92150500Y-97896738D01*
X92140573Y-97828607D01*
X92089198Y-97723517D01*
X92089196Y-97723514D01*
X92006485Y-97640803D01*
X92006482Y-97640801D01*
X91901394Y-97589427D01*
X91833261Y-97579500D01*
X91833260Y-97579500D01*
X90166740Y-97579500D01*
X90166738Y-97579500D01*
X90098605Y-97589427D01*
X89993517Y-97640801D01*
X89993514Y-97640803D01*
X89910803Y-97723514D01*
X89910801Y-97723517D01*
X89859427Y-97828605D01*
X89849500Y-97896738D01*
X83650500Y-97896738D01*
X83640573Y-97828607D01*
X83589198Y-97723517D01*
X83589196Y-97723514D01*
X83506485Y-97640803D01*
X83506482Y-97640801D01*
X83401394Y-97589427D01*
X83333261Y-97579500D01*
X83333260Y-97579500D01*
X81666740Y-97579500D01*
X81666738Y-97579500D01*
X81598605Y-97589427D01*
X81493517Y-97640801D01*
X81493514Y-97640803D01*
X81410803Y-97723514D01*
X81410801Y-97723517D01*
X81359427Y-97828605D01*
X81349500Y-97896738D01*
X66650500Y-97896738D01*
X66640573Y-97828607D01*
X66589198Y-97723517D01*
X66589196Y-97723514D01*
X66506485Y-97640803D01*
X66506482Y-97640801D01*
X66401394Y-97589427D01*
X66333261Y-97579500D01*
X66333260Y-97579500D01*
X64666740Y-97579500D01*
X64666738Y-97579500D01*
X64598605Y-97589427D01*
X64493517Y-97640801D01*
X64493514Y-97640803D01*
X64410803Y-97723514D01*
X64410801Y-97723517D01*
X64359427Y-97828605D01*
X64349500Y-97896738D01*
X55864502Y-97896738D01*
X55782075Y-97814311D01*
X55629202Y-97703242D01*
X55629201Y-97703241D01*
X55629199Y-97703240D01*
X55460832Y-97617453D01*
X55460831Y-97617452D01*
X55460828Y-97617451D01*
X55345050Y-97579833D01*
X55286444Y-97539759D01*
X55258807Y-97474363D01*
X55270914Y-97404406D01*
X55318920Y-97352100D01*
X55345050Y-97340167D01*
X55378815Y-97329196D01*
X55460832Y-97302547D01*
X55629199Y-97216760D01*
X55782073Y-97105690D01*
X55915690Y-96972073D01*
X56026760Y-96819199D01*
X56112547Y-96650832D01*
X56170940Y-96471118D01*
X56200500Y-96284481D01*
X56200500Y-96095519D01*
X56170940Y-95908882D01*
X56112547Y-95729168D01*
X56026760Y-95560801D01*
X55915690Y-95407927D01*
X55915688Y-95407924D01*
X55782075Y-95274311D01*
X55629202Y-95163242D01*
X55629201Y-95163241D01*
X55629199Y-95163240D01*
X55460832Y-95077453D01*
X55460831Y-95077452D01*
X55460828Y-95077451D01*
X55281123Y-95019061D01*
X55281119Y-95019060D01*
X55281118Y-95019060D01*
X55094481Y-94989500D01*
X54905519Y-94989500D01*
X54718882Y-95019060D01*
X54718876Y-95019061D01*
X54539171Y-95077451D01*
X54370797Y-95163242D01*
X54217924Y-95274311D01*
X54084311Y-95407924D01*
X53973242Y-95560797D01*
X53887451Y-95729171D01*
X53829061Y-95908876D01*
X53829060Y-95908881D01*
X53829060Y-95908882D01*
X53799500Y-96095519D01*
X50500500Y-96095519D01*
X50500500Y-87686738D01*
X53799500Y-87686738D01*
X53799500Y-89453261D01*
X53809427Y-89521394D01*
X53860801Y-89626482D01*
X53860803Y-89626485D01*
X53943514Y-89709196D01*
X53943517Y-89709198D01*
X54048607Y-89760573D01*
X54116740Y-89770500D01*
X54116745Y-89770500D01*
X54459761Y-89770500D01*
X54527882Y-89790502D01*
X54574375Y-89844158D01*
X54584479Y-89914432D01*
X54554985Y-89979012D01*
X54516965Y-90008765D01*
X54429142Y-90053514D01*
X54370797Y-90083242D01*
X54217924Y-90194311D01*
X54084311Y-90327924D01*
X53973242Y-90480797D01*
X53887451Y-90649171D01*
X53829061Y-90828876D01*
X53829060Y-90828881D01*
X53829060Y-90828882D01*
X53799500Y-91015519D01*
X53799500Y-91204481D01*
X53829060Y-91391118D01*
X53829061Y-91391123D01*
X53887451Y-91570828D01*
X53973242Y-91739202D01*
X54084311Y-91892075D01*
X54217924Y-92025688D01*
X54217927Y-92025690D01*
X54370801Y-92136760D01*
X54539168Y-92222547D01*
X54718882Y-92280940D01*
X54905519Y-92310500D01*
X54905522Y-92310500D01*
X55094478Y-92310500D01*
X55094481Y-92310500D01*
X55281118Y-92280940D01*
X55460832Y-92222547D01*
X55629199Y-92136760D01*
X55782073Y-92025690D01*
X55915690Y-91892073D01*
X56026760Y-91739199D01*
X56112547Y-91570832D01*
X56170940Y-91391118D01*
X56200500Y-91204481D01*
X56200500Y-91015519D01*
X56170940Y-90828882D01*
X56112547Y-90649168D01*
X56026760Y-90480801D01*
X55915690Y-90327927D01*
X55915688Y-90327924D01*
X55782075Y-90194311D01*
X55629202Y-90083242D01*
X55629201Y-90083241D01*
X55629199Y-90083240D01*
X55483034Y-90008765D01*
X55431421Y-89960019D01*
X55414355Y-89891104D01*
X55437256Y-89823902D01*
X55492853Y-89779750D01*
X55540239Y-89770500D01*
X55883255Y-89770500D01*
X55883260Y-89770500D01*
X55951393Y-89760573D01*
X56056483Y-89709198D01*
X56139198Y-89626483D01*
X56190573Y-89521393D01*
X56200500Y-89453260D01*
X56200500Y-89396738D01*
X72849500Y-89396738D01*
X72849500Y-91063261D01*
X72859427Y-91131394D01*
X72910801Y-91236482D01*
X72910803Y-91236485D01*
X72993514Y-91319196D01*
X72993517Y-91319198D01*
X73098607Y-91370573D01*
X73166740Y-91380500D01*
X73166745Y-91380500D01*
X74833255Y-91380500D01*
X74833260Y-91380500D01*
X74901393Y-91370573D01*
X75006483Y-91319198D01*
X75089198Y-91236483D01*
X75140573Y-91131393D01*
X75150500Y-91063260D01*
X75150500Y-89396740D01*
X75150500Y-89396738D01*
X89849500Y-89396738D01*
X89849500Y-91063261D01*
X89859427Y-91131394D01*
X89910801Y-91236482D01*
X89910803Y-91236485D01*
X89993514Y-91319196D01*
X89993517Y-91319198D01*
X90098607Y-91370573D01*
X90166740Y-91380500D01*
X90166745Y-91380500D01*
X91833255Y-91380500D01*
X91833260Y-91380500D01*
X91901393Y-91370573D01*
X92006483Y-91319198D01*
X92089198Y-91236483D01*
X92140573Y-91131393D01*
X92150500Y-91063260D01*
X92150500Y-89396740D01*
X92150500Y-89396738D01*
X106849500Y-89396738D01*
X106849500Y-91063261D01*
X106859427Y-91131394D01*
X106910801Y-91236482D01*
X106910803Y-91236485D01*
X106993514Y-91319196D01*
X106993517Y-91319198D01*
X107098607Y-91370573D01*
X107166740Y-91380500D01*
X107166745Y-91380500D01*
X108833255Y-91380500D01*
X108833260Y-91380500D01*
X108901393Y-91370573D01*
X109006483Y-91319198D01*
X109089198Y-91236483D01*
X109140573Y-91131393D01*
X109150500Y-91063260D01*
X109150500Y-89396740D01*
X109140573Y-89328607D01*
X109089198Y-89223517D01*
X109089196Y-89223514D01*
X109006485Y-89140803D01*
X109006482Y-89140801D01*
X108901394Y-89089427D01*
X108833261Y-89079500D01*
X108833260Y-89079500D01*
X107166740Y-89079500D01*
X107166738Y-89079500D01*
X107098605Y-89089427D01*
X106993517Y-89140801D01*
X106993514Y-89140803D01*
X106910803Y-89223514D01*
X106910801Y-89223517D01*
X106859427Y-89328605D01*
X106849500Y-89396738D01*
X92150500Y-89396738D01*
X92140573Y-89328607D01*
X92089198Y-89223517D01*
X92089196Y-89223514D01*
X92006485Y-89140803D01*
X92006482Y-89140801D01*
X91901394Y-89089427D01*
X91833261Y-89079500D01*
X91833260Y-89079500D01*
X90166740Y-89079500D01*
X90166738Y-89079500D01*
X90098605Y-89089427D01*
X89993517Y-89140801D01*
X89993514Y-89140803D01*
X89910803Y-89223514D01*
X89910801Y-89223517D01*
X89859427Y-89328605D01*
X89849500Y-89396738D01*
X75150500Y-89396738D01*
X75140573Y-89328607D01*
X75089198Y-89223517D01*
X75089196Y-89223514D01*
X75006485Y-89140803D01*
X75006482Y-89140801D01*
X74901394Y-89089427D01*
X74833261Y-89079500D01*
X74833260Y-89079500D01*
X73166740Y-89079500D01*
X73166738Y-89079500D01*
X73098605Y-89089427D01*
X72993517Y-89140801D01*
X72993514Y-89140803D01*
X72910803Y-89223514D01*
X72910801Y-89223517D01*
X72859427Y-89328605D01*
X72849500Y-89396738D01*
X56200500Y-89396738D01*
X56200500Y-87686740D01*
X56190573Y-87618607D01*
X56139198Y-87513517D01*
X56139196Y-87513514D01*
X56056485Y-87430803D01*
X56056482Y-87430801D01*
X55951394Y-87379427D01*
X55883261Y-87369500D01*
X55883260Y-87369500D01*
X54116740Y-87369500D01*
X54116738Y-87369500D01*
X54048605Y-87379427D01*
X53943517Y-87430801D01*
X53943514Y-87430803D01*
X53860803Y-87513514D01*
X53860801Y-87513517D01*
X53809427Y-87618605D01*
X53799500Y-87686738D01*
X50500500Y-87686738D01*
X50500500Y-80896738D01*
X81349500Y-80896738D01*
X81349500Y-82563261D01*
X81359427Y-82631394D01*
X81410801Y-82736482D01*
X81410803Y-82736485D01*
X81493514Y-82819196D01*
X81493517Y-82819198D01*
X81598607Y-82870573D01*
X81666740Y-82880500D01*
X81666745Y-82880500D01*
X83333255Y-82880500D01*
X83333260Y-82880500D01*
X83401393Y-82870573D01*
X83506483Y-82819198D01*
X83589198Y-82736483D01*
X83640573Y-82631393D01*
X83650500Y-82563260D01*
X83650500Y-80896740D01*
X83650500Y-80896738D01*
X98349500Y-80896738D01*
X98349500Y-82563261D01*
X98359427Y-82631394D01*
X98410801Y-82736482D01*
X98410803Y-82736485D01*
X98493514Y-82819196D01*
X98493517Y-82819198D01*
X98598607Y-82870573D01*
X98666740Y-82880500D01*
X98666745Y-82880500D01*
X100333255Y-82880500D01*
X100333260Y-82880500D01*
X100401393Y-82870573D01*
X100506483Y-82819198D01*
X100589198Y-82736483D01*
X100640573Y-82631393D01*
X100650500Y-82563260D01*
X100650500Y-80896740D01*
X100640573Y-80828607D01*
X100589198Y-80723517D01*
X100589196Y-80723514D01*
X100506485Y-80640803D01*
X100506482Y-80640801D01*
X100401394Y-80589427D01*
X100333261Y-80579500D01*
X100333260Y-80579500D01*
X98666740Y-80579500D01*
X98666738Y-80579500D01*
X98598605Y-80589427D01*
X98493517Y-80640801D01*
X98493514Y-80640803D01*
X98410803Y-80723514D01*
X98410801Y-80723517D01*
X98359427Y-80828605D01*
X98349500Y-80896738D01*
X83650500Y-80896738D01*
X83640573Y-80828607D01*
X83589198Y-80723517D01*
X83589196Y-80723514D01*
X83506485Y-80640803D01*
X83506482Y-80640801D01*
X83401394Y-80589427D01*
X83333261Y-80579500D01*
X83333260Y-80579500D01*
X81666740Y-80579500D01*
X81666738Y-80579500D01*
X81598605Y-80589427D01*
X81493517Y-80640801D01*
X81493514Y-80640803D01*
X81410803Y-80723514D01*
X81410801Y-80723517D01*
X81359427Y-80828605D01*
X81349500Y-80896738D01*
X50500500Y-80896738D01*
X50500500Y-74986738D01*
X142529500Y-74986738D01*
X142529500Y-76753261D01*
X142539427Y-76821394D01*
X142590801Y-76926482D01*
X142590803Y-76926485D01*
X142673514Y-77009196D01*
X142673516Y-77009197D01*
X142673517Y-77009198D01*
X142693246Y-77018843D01*
X142709528Y-77026803D01*
X142761942Y-77074691D01*
X142780145Y-77143314D01*
X142758358Y-77210885D01*
X142709528Y-77253197D01*
X142673516Y-77270802D01*
X142673514Y-77270803D01*
X142590803Y-77353514D01*
X142590801Y-77353517D01*
X142539427Y-77458605D01*
X142529500Y-77526738D01*
X142529500Y-79293261D01*
X142539427Y-79361394D01*
X142590801Y-79466482D01*
X142590803Y-79466485D01*
X142673514Y-79549196D01*
X142673516Y-79549197D01*
X142673517Y-79549198D01*
X142693246Y-79558843D01*
X142709528Y-79566803D01*
X142761942Y-79614691D01*
X142780145Y-79683314D01*
X142758358Y-79750885D01*
X142709528Y-79793197D01*
X142673516Y-79810802D01*
X142673514Y-79810803D01*
X142590803Y-79893514D01*
X142590801Y-79893517D01*
X142539427Y-79998605D01*
X142529500Y-80066738D01*
X142529500Y-81833261D01*
X142539427Y-81901394D01*
X142590801Y-82006482D01*
X142590803Y-82006485D01*
X142673514Y-82089196D01*
X142673516Y-82089197D01*
X142673517Y-82089198D01*
X142693246Y-82098843D01*
X142709528Y-82106803D01*
X142761942Y-82154691D01*
X142780145Y-82223314D01*
X142758358Y-82290885D01*
X142709528Y-82333197D01*
X142673516Y-82350802D01*
X142673514Y-82350803D01*
X142590803Y-82433514D01*
X142590801Y-82433517D01*
X142539427Y-82538605D01*
X142529500Y-82606738D01*
X142529500Y-84373261D01*
X142539427Y-84441394D01*
X142590801Y-84546482D01*
X142590803Y-84546485D01*
X142673514Y-84629196D01*
X142673516Y-84629197D01*
X142673517Y-84629198D01*
X142693246Y-84638843D01*
X142709528Y-84646803D01*
X142761942Y-84694691D01*
X142780145Y-84763314D01*
X142758358Y-84830885D01*
X142709528Y-84873197D01*
X142673516Y-84890802D01*
X142673514Y-84890803D01*
X142590803Y-84973514D01*
X142590801Y-84973517D01*
X142539427Y-85078605D01*
X142529500Y-85146738D01*
X142529500Y-86913261D01*
X142539427Y-86981394D01*
X142590801Y-87086482D01*
X142590803Y-87086485D01*
X142673514Y-87169196D01*
X142673516Y-87169197D01*
X142673517Y-87169198D01*
X142693246Y-87178843D01*
X142709528Y-87186803D01*
X142761942Y-87234691D01*
X142780145Y-87303314D01*
X142758358Y-87370885D01*
X142709528Y-87413197D01*
X142673516Y-87430802D01*
X142673514Y-87430803D01*
X142590803Y-87513514D01*
X142590801Y-87513517D01*
X142539427Y-87618605D01*
X142529500Y-87686738D01*
X142529500Y-89453261D01*
X142539427Y-89521394D01*
X142590801Y-89626482D01*
X142590803Y-89626485D01*
X142673514Y-89709196D01*
X142673516Y-89709197D01*
X142673517Y-89709198D01*
X142693246Y-89718843D01*
X142709528Y-89726803D01*
X142761942Y-89774691D01*
X142780145Y-89843314D01*
X142758358Y-89910885D01*
X142709528Y-89953197D01*
X142673516Y-89970802D01*
X142673514Y-89970803D01*
X142590803Y-90053514D01*
X142590801Y-90053517D01*
X142539427Y-90158605D01*
X142529500Y-90226738D01*
X142529500Y-91993261D01*
X142539427Y-92061394D01*
X142590801Y-92166482D01*
X142590803Y-92166485D01*
X142673514Y-92249196D01*
X142673516Y-92249197D01*
X142673517Y-92249198D01*
X142693246Y-92258843D01*
X142709528Y-92266803D01*
X142761942Y-92314691D01*
X142780145Y-92383314D01*
X142758358Y-92450885D01*
X142709528Y-92493197D01*
X142673516Y-92510802D01*
X142673514Y-92510803D01*
X142590803Y-92593514D01*
X142590801Y-92593517D01*
X142539427Y-92698605D01*
X142529500Y-92766738D01*
X142529500Y-94533261D01*
X142539427Y-94601394D01*
X142590801Y-94706482D01*
X142590803Y-94706485D01*
X142673514Y-94789196D01*
X142673516Y-94789197D01*
X142673517Y-94789198D01*
X142693246Y-94798843D01*
X142709528Y-94806803D01*
X142761942Y-94854691D01*
X142780145Y-94923314D01*
X142758358Y-94990885D01*
X142709528Y-95033197D01*
X142673516Y-95050802D01*
X142673514Y-95050803D01*
X142590803Y-95133514D01*
X142590801Y-95133517D01*
X142539427Y-95238605D01*
X142529500Y-95306738D01*
X142529500Y-97073261D01*
X142539427Y-97141394D01*
X142590801Y-97246482D01*
X142590803Y-97246485D01*
X142673514Y-97329196D01*
X142673516Y-97329197D01*
X142673517Y-97329198D01*
X142693246Y-97338843D01*
X142709528Y-97346803D01*
X142761942Y-97394691D01*
X142780145Y-97463314D01*
X142758358Y-97530885D01*
X142709528Y-97573197D01*
X142673516Y-97590802D01*
X142673514Y-97590803D01*
X142590803Y-97673514D01*
X142590801Y-97673517D01*
X142539427Y-97778605D01*
X142529500Y-97846738D01*
X142529500Y-99613261D01*
X142539427Y-99681394D01*
X142590801Y-99786482D01*
X142590803Y-99786485D01*
X142673514Y-99869196D01*
X142673516Y-99869197D01*
X142673517Y-99869198D01*
X142693246Y-99878843D01*
X142709528Y-99886803D01*
X142761942Y-99934691D01*
X142780145Y-100003314D01*
X142758358Y-100070885D01*
X142709528Y-100113197D01*
X142673516Y-100130802D01*
X142673514Y-100130803D01*
X142590803Y-100213514D01*
X142590801Y-100213517D01*
X142539427Y-100318605D01*
X142529500Y-100386738D01*
X142529500Y-102153261D01*
X142539427Y-102221394D01*
X142590801Y-102326482D01*
X142590803Y-102326485D01*
X142673514Y-102409196D01*
X142673516Y-102409197D01*
X142673517Y-102409198D01*
X142693246Y-102418843D01*
X142709528Y-102426803D01*
X142761942Y-102474691D01*
X142780145Y-102543314D01*
X142758358Y-102610885D01*
X142709528Y-102653197D01*
X142673516Y-102670802D01*
X142673514Y-102670803D01*
X142590803Y-102753514D01*
X142590801Y-102753517D01*
X142539427Y-102858605D01*
X142529500Y-102926738D01*
X142529500Y-104693261D01*
X142539427Y-104761394D01*
X142590801Y-104866482D01*
X142590803Y-104866485D01*
X142673514Y-104949196D01*
X142673516Y-104949197D01*
X142673517Y-104949198D01*
X142693246Y-104958843D01*
X142709528Y-104966803D01*
X142761942Y-105014691D01*
X142780145Y-105083314D01*
X142758358Y-105150885D01*
X142709528Y-105193197D01*
X142673516Y-105210802D01*
X142673514Y-105210803D01*
X142590803Y-105293514D01*
X142590801Y-105293517D01*
X142539427Y-105398605D01*
X142529500Y-105466738D01*
X142529500Y-107233261D01*
X142539427Y-107301394D01*
X142590801Y-107406482D01*
X142590803Y-107406485D01*
X142673514Y-107489196D01*
X142673516Y-107489197D01*
X142673517Y-107489198D01*
X142693246Y-107498843D01*
X142709528Y-107506803D01*
X142761942Y-107554691D01*
X142780145Y-107623314D01*
X142758358Y-107690885D01*
X142709528Y-107733197D01*
X142673516Y-107750802D01*
X142673514Y-107750803D01*
X142590803Y-107833514D01*
X142590801Y-107833517D01*
X142539427Y-107938605D01*
X142529500Y-108006738D01*
X142529500Y-109773261D01*
X142539427Y-109841394D01*
X142590801Y-109946482D01*
X142590803Y-109946485D01*
X142673514Y-110029196D01*
X142673516Y-110029197D01*
X142673517Y-110029198D01*
X142693246Y-110038843D01*
X142709528Y-110046803D01*
X142761942Y-110094691D01*
X142780145Y-110163314D01*
X142758358Y-110230885D01*
X142709528Y-110273197D01*
X142673516Y-110290802D01*
X142673514Y-110290803D01*
X142590803Y-110373514D01*
X142590801Y-110373517D01*
X142539427Y-110478605D01*
X142529500Y-110546738D01*
X142529500Y-112313261D01*
X142539427Y-112381394D01*
X142590801Y-112486482D01*
X142590803Y-112486485D01*
X142673514Y-112569196D01*
X142673516Y-112569197D01*
X142673517Y-112569198D01*
X142693246Y-112578843D01*
X142709528Y-112586803D01*
X142761942Y-112634691D01*
X142780145Y-112703314D01*
X142758358Y-112770885D01*
X142709528Y-112813197D01*
X142673516Y-112830802D01*
X142673514Y-112830803D01*
X142590803Y-112913514D01*
X142590801Y-112913517D01*
X142539427Y-113018605D01*
X142529500Y-113086738D01*
X142529500Y-114853261D01*
X142539427Y-114921394D01*
X142590801Y-115026482D01*
X142590803Y-115026485D01*
X142673514Y-115109196D01*
X142673516Y-115109197D01*
X142673517Y-115109198D01*
X142693246Y-115118843D01*
X142709528Y-115126803D01*
X142761942Y-115174691D01*
X142780145Y-115243314D01*
X142758358Y-115310885D01*
X142709528Y-115353197D01*
X142673516Y-115370802D01*
X142673514Y-115370803D01*
X142590803Y-115453514D01*
X142590801Y-115453517D01*
X142539427Y-115558605D01*
X142529500Y-115626738D01*
X142529500Y-117393261D01*
X142539427Y-117461394D01*
X142590801Y-117566482D01*
X142590803Y-117566485D01*
X142673514Y-117649196D01*
X142673516Y-117649197D01*
X142673517Y-117649198D01*
X142693246Y-117658843D01*
X142709528Y-117666803D01*
X142761942Y-117714691D01*
X142780145Y-117783314D01*
X142758358Y-117850885D01*
X142709528Y-117893197D01*
X142673516Y-117910802D01*
X142673514Y-117910803D01*
X142590803Y-117993514D01*
X142590801Y-117993517D01*
X142539427Y-118098605D01*
X142529500Y-118166738D01*
X142529500Y-119933261D01*
X142539427Y-120001394D01*
X142590801Y-120106482D01*
X142590803Y-120106485D01*
X142673514Y-120189196D01*
X142673516Y-120189197D01*
X142673517Y-120189198D01*
X142693246Y-120198843D01*
X142709528Y-120206803D01*
X142761942Y-120254691D01*
X142780145Y-120323314D01*
X142758358Y-120390885D01*
X142709528Y-120433197D01*
X142673516Y-120450802D01*
X142673514Y-120450803D01*
X142590803Y-120533514D01*
X142590801Y-120533517D01*
X142539427Y-120638605D01*
X142529500Y-120706738D01*
X142529500Y-122473261D01*
X142539427Y-122541394D01*
X142590801Y-122646482D01*
X142590803Y-122646485D01*
X142673514Y-122729196D01*
X142673516Y-122729197D01*
X142673517Y-122729198D01*
X142693246Y-122738843D01*
X142709528Y-122746803D01*
X142761942Y-122794691D01*
X142780145Y-122863314D01*
X142758358Y-122930885D01*
X142709528Y-122973197D01*
X142673516Y-122990802D01*
X142673514Y-122990803D01*
X142590803Y-123073514D01*
X142590801Y-123073517D01*
X142539427Y-123178605D01*
X142529500Y-123246738D01*
X142529500Y-125013261D01*
X142539427Y-125081394D01*
X142590801Y-125186482D01*
X142590803Y-125186485D01*
X142673514Y-125269196D01*
X142673517Y-125269198D01*
X142778607Y-125320573D01*
X142846740Y-125330500D01*
X142846745Y-125330500D01*
X144613255Y-125330500D01*
X144613260Y-125330500D01*
X144681393Y-125320573D01*
X144786483Y-125269198D01*
X144869198Y-125186483D01*
X144920573Y-125081393D01*
X144930500Y-125013260D01*
X144930500Y-123246740D01*
X144920573Y-123178607D01*
X144869198Y-123073517D01*
X144869196Y-123073514D01*
X144786485Y-122990803D01*
X144786483Y-122990802D01*
X144750470Y-122973196D01*
X144698057Y-122925310D01*
X144679854Y-122856687D01*
X144701640Y-122789115D01*
X144750470Y-122746803D01*
X144786483Y-122729198D01*
X144869198Y-122646483D01*
X144920573Y-122541393D01*
X144930500Y-122473260D01*
X144930500Y-120706740D01*
X144920573Y-120638607D01*
X144869198Y-120533517D01*
X144869196Y-120533514D01*
X144786485Y-120450803D01*
X144786483Y-120450802D01*
X144750470Y-120433196D01*
X144698057Y-120385310D01*
X144679854Y-120316687D01*
X144701640Y-120249115D01*
X144750470Y-120206803D01*
X144786483Y-120189198D01*
X144869198Y-120106483D01*
X144920573Y-120001393D01*
X144930500Y-119933260D01*
X144930500Y-118166740D01*
X144920573Y-118098607D01*
X144869198Y-117993517D01*
X144869196Y-117993514D01*
X144786485Y-117910803D01*
X144786483Y-117910802D01*
X144750470Y-117893196D01*
X144698057Y-117845310D01*
X144679854Y-117776687D01*
X144701640Y-117709115D01*
X144750470Y-117666803D01*
X144786483Y-117649198D01*
X144869198Y-117566483D01*
X144920573Y-117461393D01*
X144930500Y-117393260D01*
X144930500Y-115626740D01*
X144920573Y-115558607D01*
X144869198Y-115453517D01*
X144869196Y-115453514D01*
X144786485Y-115370803D01*
X144786483Y-115370802D01*
X144750470Y-115353196D01*
X144698057Y-115305310D01*
X144679854Y-115236687D01*
X144701640Y-115169115D01*
X144750470Y-115126803D01*
X144786483Y-115109198D01*
X144869198Y-115026483D01*
X144920573Y-114921393D01*
X144930500Y-114853260D01*
X144930500Y-113086740D01*
X144920573Y-113018607D01*
X144869198Y-112913517D01*
X144869196Y-112913514D01*
X144786485Y-112830803D01*
X144786483Y-112830802D01*
X144750470Y-112813196D01*
X144698057Y-112765310D01*
X144679854Y-112696687D01*
X144701640Y-112629115D01*
X144750470Y-112586803D01*
X144786483Y-112569198D01*
X144869198Y-112486483D01*
X144920573Y-112381393D01*
X144930500Y-112313260D01*
X144930500Y-110546740D01*
X144920573Y-110478607D01*
X144869198Y-110373517D01*
X144869196Y-110373514D01*
X144786485Y-110290803D01*
X144764045Y-110279833D01*
X144750470Y-110273196D01*
X144698057Y-110225310D01*
X144679854Y-110156687D01*
X144701640Y-110089115D01*
X144750470Y-110046803D01*
X144786483Y-110029198D01*
X144869198Y-109946483D01*
X144920573Y-109841393D01*
X144930500Y-109773260D01*
X144930500Y-108006740D01*
X144920573Y-107938607D01*
X144869198Y-107833517D01*
X144869196Y-107833514D01*
X144786485Y-107750803D01*
X144764045Y-107739833D01*
X144750470Y-107733196D01*
X144698057Y-107685310D01*
X144679854Y-107616687D01*
X144701640Y-107549115D01*
X144750470Y-107506803D01*
X144786483Y-107489198D01*
X144869198Y-107406483D01*
X144920573Y-107301393D01*
X144930500Y-107233260D01*
X144930500Y-105466740D01*
X144920573Y-105398607D01*
X144869198Y-105293517D01*
X144869196Y-105293514D01*
X144786485Y-105210803D01*
X144764045Y-105199833D01*
X144750470Y-105193196D01*
X144698057Y-105145310D01*
X144679854Y-105076687D01*
X144701640Y-105009115D01*
X144750470Y-104966803D01*
X144786483Y-104949198D01*
X144869198Y-104866483D01*
X144920573Y-104761393D01*
X144930500Y-104693260D01*
X144930500Y-102926740D01*
X144920573Y-102858607D01*
X144869198Y-102753517D01*
X144869196Y-102753514D01*
X144786485Y-102670803D01*
X144764045Y-102659833D01*
X144750470Y-102653196D01*
X144698057Y-102605310D01*
X144679854Y-102536687D01*
X144701640Y-102469115D01*
X144750470Y-102426803D01*
X144786483Y-102409198D01*
X144869198Y-102326483D01*
X144920573Y-102221393D01*
X144930500Y-102153260D01*
X144930500Y-100386740D01*
X144920573Y-100318607D01*
X144869198Y-100213517D01*
X144869196Y-100213514D01*
X144786485Y-100130803D01*
X144764045Y-100119833D01*
X144750470Y-100113196D01*
X144698057Y-100065310D01*
X144679854Y-99996687D01*
X144701640Y-99929115D01*
X144750470Y-99886803D01*
X144786483Y-99869198D01*
X144869198Y-99786483D01*
X144920573Y-99681393D01*
X144930500Y-99613260D01*
X144930500Y-97846740D01*
X144920573Y-97778607D01*
X144869198Y-97673517D01*
X144869196Y-97673514D01*
X144786485Y-97590803D01*
X144764045Y-97579833D01*
X144750470Y-97573196D01*
X144698057Y-97525310D01*
X144679854Y-97456687D01*
X144701640Y-97389115D01*
X144750470Y-97346803D01*
X144786483Y-97329198D01*
X144869198Y-97246483D01*
X144920573Y-97141393D01*
X144930500Y-97073260D01*
X144930500Y-95306740D01*
X144920573Y-95238607D01*
X144869198Y-95133517D01*
X144869196Y-95133514D01*
X144786485Y-95050803D01*
X144786483Y-95050802D01*
X144750470Y-95033196D01*
X144698057Y-94985310D01*
X144679854Y-94916687D01*
X144701640Y-94849115D01*
X144750470Y-94806803D01*
X144786483Y-94789198D01*
X144869198Y-94706483D01*
X144920573Y-94601393D01*
X144930500Y-94533260D01*
X144930500Y-92766740D01*
X144920573Y-92698607D01*
X144869198Y-92593517D01*
X144869196Y-92593514D01*
X144786485Y-92510803D01*
X144786483Y-92510802D01*
X144750470Y-92493196D01*
X144698057Y-92445310D01*
X144679854Y-92376687D01*
X144701640Y-92309115D01*
X144750470Y-92266803D01*
X144786483Y-92249198D01*
X144869198Y-92166483D01*
X144920573Y-92061393D01*
X144930500Y-91993260D01*
X144930500Y-90226740D01*
X144920573Y-90158607D01*
X144869198Y-90053517D01*
X144869196Y-90053514D01*
X144786485Y-89970803D01*
X144786483Y-89970802D01*
X144750470Y-89953196D01*
X144698057Y-89905310D01*
X144679854Y-89836687D01*
X144701640Y-89769115D01*
X144750470Y-89726803D01*
X144786483Y-89709198D01*
X144869198Y-89626483D01*
X144920573Y-89521393D01*
X144930500Y-89453260D01*
X144930500Y-87686740D01*
X144920573Y-87618607D01*
X144869198Y-87513517D01*
X144869196Y-87513514D01*
X144786485Y-87430803D01*
X144786481Y-87430801D01*
X144750470Y-87413196D01*
X144698057Y-87365310D01*
X144679854Y-87296687D01*
X144701640Y-87229115D01*
X144750470Y-87186803D01*
X144786483Y-87169198D01*
X144869198Y-87086483D01*
X144920573Y-86981393D01*
X144930500Y-86913260D01*
X144930500Y-85146740D01*
X144920573Y-85078607D01*
X144869198Y-84973517D01*
X144869196Y-84973514D01*
X144786485Y-84890803D01*
X144786483Y-84890802D01*
X144750470Y-84873196D01*
X144698057Y-84825310D01*
X144679854Y-84756687D01*
X144701640Y-84689115D01*
X144750470Y-84646803D01*
X144786483Y-84629198D01*
X144869198Y-84546483D01*
X144920573Y-84441393D01*
X144930500Y-84373260D01*
X144930500Y-82606740D01*
X144920573Y-82538607D01*
X144869198Y-82433517D01*
X144869196Y-82433514D01*
X144786485Y-82350803D01*
X144786483Y-82350802D01*
X144750470Y-82333196D01*
X144698057Y-82285310D01*
X144679854Y-82216687D01*
X144701640Y-82149115D01*
X144750470Y-82106803D01*
X144786483Y-82089198D01*
X144869198Y-82006483D01*
X144920573Y-81901393D01*
X144930500Y-81833260D01*
X144930500Y-80066740D01*
X144920573Y-79998607D01*
X144869198Y-79893517D01*
X144869196Y-79893514D01*
X144786485Y-79810803D01*
X144786483Y-79810802D01*
X144750470Y-79793196D01*
X144698057Y-79745310D01*
X144679854Y-79676687D01*
X144701640Y-79609115D01*
X144750470Y-79566803D01*
X144786483Y-79549198D01*
X144869198Y-79466483D01*
X144920573Y-79361393D01*
X144930500Y-79293260D01*
X144930500Y-77526740D01*
X144920573Y-77458607D01*
X144869198Y-77353517D01*
X144869196Y-77353514D01*
X144786485Y-77270803D01*
X144786483Y-77270802D01*
X144750470Y-77253196D01*
X144698057Y-77205310D01*
X144679854Y-77136687D01*
X144701640Y-77069115D01*
X144750470Y-77026803D01*
X144786483Y-77009198D01*
X144869198Y-76926483D01*
X144920573Y-76821393D01*
X144930500Y-76753260D01*
X144930500Y-74986740D01*
X144920573Y-74918607D01*
X144869198Y-74813517D01*
X144869196Y-74813514D01*
X144786485Y-74730803D01*
X144786482Y-74730801D01*
X144681394Y-74679427D01*
X144613261Y-74669500D01*
X144613260Y-74669500D01*
X142846740Y-74669500D01*
X142846738Y-74669500D01*
X142778605Y-74679427D01*
X142673517Y-74730801D01*
X142673514Y-74730803D01*
X142590803Y-74813514D01*
X142590801Y-74813517D01*
X142539427Y-74918605D01*
X142529500Y-74986738D01*
X50500500Y-74986738D01*
X50500500Y-72396738D01*
X64349500Y-72396738D01*
X64349500Y-74063261D01*
X64359427Y-74131394D01*
X64410801Y-74236482D01*
X64410803Y-74236485D01*
X64493514Y-74319196D01*
X64493517Y-74319198D01*
X64598607Y-74370573D01*
X64666740Y-74380500D01*
X64666745Y-74380500D01*
X66333255Y-74380500D01*
X66333260Y-74380500D01*
X66401393Y-74370573D01*
X66506483Y-74319198D01*
X66589198Y-74236483D01*
X66640573Y-74131393D01*
X66650500Y-74063260D01*
X66650500Y-72396740D01*
X66650500Y-72396738D01*
X89849500Y-72396738D01*
X89849500Y-74063261D01*
X89859427Y-74131394D01*
X89910801Y-74236482D01*
X89910803Y-74236485D01*
X89993514Y-74319196D01*
X89993517Y-74319198D01*
X90098607Y-74370573D01*
X90166740Y-74380500D01*
X90166745Y-74380500D01*
X91833255Y-74380500D01*
X91833260Y-74380500D01*
X91901393Y-74370573D01*
X92006483Y-74319198D01*
X92089198Y-74236483D01*
X92140573Y-74131393D01*
X92150500Y-74063260D01*
X92150500Y-72396740D01*
X92150500Y-72396738D01*
X115349500Y-72396738D01*
X115349500Y-74063261D01*
X115359427Y-74131394D01*
X115410801Y-74236482D01*
X115410803Y-74236485D01*
X115493514Y-74319196D01*
X115493517Y-74319198D01*
X115598607Y-74370573D01*
X115666740Y-74380500D01*
X115666745Y-74380500D01*
X117333255Y-74380500D01*
X117333260Y-74380500D01*
X117401393Y-74370573D01*
X117506483Y-74319198D01*
X117589198Y-74236483D01*
X117640573Y-74131393D01*
X117650500Y-74063260D01*
X117650500Y-72396740D01*
X117640573Y-72328607D01*
X117589198Y-72223517D01*
X117589196Y-72223514D01*
X117506485Y-72140803D01*
X117506482Y-72140801D01*
X117401394Y-72089427D01*
X117333261Y-72079500D01*
X117333260Y-72079500D01*
X115666740Y-72079500D01*
X115666738Y-72079500D01*
X115598605Y-72089427D01*
X115493517Y-72140801D01*
X115493514Y-72140803D01*
X115410803Y-72223514D01*
X115410801Y-72223517D01*
X115359427Y-72328605D01*
X115349500Y-72396738D01*
X92150500Y-72396738D01*
X92140573Y-72328607D01*
X92089198Y-72223517D01*
X92089196Y-72223514D01*
X92006485Y-72140803D01*
X92006482Y-72140801D01*
X91901394Y-72089427D01*
X91833261Y-72079500D01*
X91833260Y-72079500D01*
X90166740Y-72079500D01*
X90166738Y-72079500D01*
X90098605Y-72089427D01*
X89993517Y-72140801D01*
X89993514Y-72140803D01*
X89910803Y-72223514D01*
X89910801Y-72223517D01*
X89859427Y-72328605D01*
X89849500Y-72396738D01*
X66650500Y-72396738D01*
X66640573Y-72328607D01*
X66589198Y-72223517D01*
X66589196Y-72223514D01*
X66506485Y-72140803D01*
X66506482Y-72140801D01*
X66401394Y-72089427D01*
X66333261Y-72079500D01*
X66333260Y-72079500D01*
X64666740Y-72079500D01*
X64666738Y-72079500D01*
X64598605Y-72089427D01*
X64493517Y-72140801D01*
X64493514Y-72140803D01*
X64410803Y-72223514D01*
X64410801Y-72223517D01*
X64359427Y-72328605D01*
X64349500Y-72396738D01*
X50500500Y-72396738D01*
X50500500Y-61878709D01*
X55149500Y-61878709D01*
X55149500Y-62121290D01*
X55181160Y-62361782D01*
X55243944Y-62596095D01*
X55243945Y-62596097D01*
X55243946Y-62596100D01*
X55336776Y-62820212D01*
X55336777Y-62820213D01*
X55336782Y-62820224D01*
X55458061Y-63030285D01*
X55458063Y-63030288D01*
X55458064Y-63030289D01*
X55605735Y-63222738D01*
X55605739Y-63222742D01*
X55605744Y-63222748D01*
X55777251Y-63394255D01*
X55777256Y-63394259D01*
X55777262Y-63394265D01*
X55969711Y-63541936D01*
X55969714Y-63541938D01*
X56179775Y-63663217D01*
X56179779Y-63663218D01*
X56179788Y-63663224D01*
X56403900Y-63756054D01*
X56638211Y-63818838D01*
X56638215Y-63818838D01*
X56638217Y-63818839D01*
X56700202Y-63826999D01*
X56878712Y-63850500D01*
X56878719Y-63850500D01*
X57121281Y-63850500D01*
X57121288Y-63850500D01*
X57338637Y-63821885D01*
X57361782Y-63818839D01*
X57361782Y-63818838D01*
X57361789Y-63818838D01*
X57596100Y-63756054D01*
X57820212Y-63663224D01*
X58030289Y-63541936D01*
X58222738Y-63394265D01*
X58394265Y-63222738D01*
X58541936Y-63030289D01*
X58663224Y-62820212D01*
X58756054Y-62596100D01*
X58818838Y-62361789D01*
X58850500Y-62121288D01*
X58850500Y-61878712D01*
X58850500Y-61878709D01*
X146149500Y-61878709D01*
X146149500Y-62121290D01*
X146181160Y-62361782D01*
X146243944Y-62596095D01*
X146243945Y-62596097D01*
X146243946Y-62596100D01*
X146336776Y-62820212D01*
X146336777Y-62820213D01*
X146336782Y-62820224D01*
X146458061Y-63030285D01*
X146458063Y-63030288D01*
X146458064Y-63030289D01*
X146605735Y-63222738D01*
X146605739Y-63222742D01*
X146605744Y-63222748D01*
X146777251Y-63394255D01*
X146777256Y-63394259D01*
X146777262Y-63394265D01*
X146969711Y-63541936D01*
X146969714Y-63541938D01*
X147179775Y-63663217D01*
X147179779Y-63663218D01*
X147179788Y-63663224D01*
X147403900Y-63756054D01*
X147638211Y-63818838D01*
X147638215Y-63818838D01*
X147638217Y-63818839D01*
X147700202Y-63826999D01*
X147878712Y-63850500D01*
X147878719Y-63850500D01*
X148121281Y-63850500D01*
X148121288Y-63850500D01*
X148338637Y-63821885D01*
X148361782Y-63818839D01*
X148361782Y-63818838D01*
X148361789Y-63818838D01*
X148596100Y-63756054D01*
X148820212Y-63663224D01*
X149030289Y-63541936D01*
X149222738Y-63394265D01*
X149394265Y-63222738D01*
X149541936Y-63030289D01*
X149663224Y-62820212D01*
X149756054Y-62596100D01*
X149818838Y-62361789D01*
X149850500Y-62121288D01*
X149850500Y-61878712D01*
X149818838Y-61638211D01*
X149756054Y-61403900D01*
X149663224Y-61179788D01*
X149663218Y-61179779D01*
X149663217Y-61179775D01*
X149541938Y-60969714D01*
X149541936Y-60969711D01*
X149394265Y-60777262D01*
X149394259Y-60777256D01*
X149394255Y-60777251D01*
X149222748Y-60605744D01*
X149222742Y-60605739D01*
X149222738Y-60605735D01*
X149030289Y-60458064D01*
X149030288Y-60458063D01*
X149030285Y-60458061D01*
X148820224Y-60336782D01*
X148820216Y-60336778D01*
X148820212Y-60336776D01*
X148596100Y-60243946D01*
X148596097Y-60243945D01*
X148596095Y-60243944D01*
X148361782Y-60181160D01*
X148121290Y-60149500D01*
X148121288Y-60149500D01*
X147878712Y-60149500D01*
X147878709Y-60149500D01*
X147638217Y-60181160D01*
X147403904Y-60243944D01*
X147403900Y-60243946D01*
X147179786Y-60336777D01*
X147179775Y-60336782D01*
X146969714Y-60458061D01*
X146777262Y-60605735D01*
X146777251Y-60605744D01*
X146605744Y-60777251D01*
X146605735Y-60777262D01*
X146458061Y-60969714D01*
X146336782Y-61179775D01*
X146336777Y-61179786D01*
X146243946Y-61403900D01*
X146243944Y-61403904D01*
X146181160Y-61638217D01*
X146149500Y-61878709D01*
X58850500Y-61878709D01*
X58818838Y-61638211D01*
X58756054Y-61403900D01*
X58663224Y-61179788D01*
X58663218Y-61179779D01*
X58663217Y-61179775D01*
X58541938Y-60969714D01*
X58541936Y-60969711D01*
X58394265Y-60777262D01*
X58394259Y-60777256D01*
X58394255Y-60777251D01*
X58222748Y-60605744D01*
X58222742Y-60605739D01*
X58222738Y-60605735D01*
X58030289Y-60458064D01*
X58030288Y-60458063D01*
X58030285Y-60458061D01*
X57820224Y-60336782D01*
X57820216Y-60336778D01*
X57820212Y-60336776D01*
X57596100Y-60243946D01*
X57596097Y-60243945D01*
X57596095Y-60243944D01*
X57361782Y-60181160D01*
X57121290Y-60149500D01*
X57121288Y-60149500D01*
X56878712Y-60149500D01*
X56878709Y-60149500D01*
X56638217Y-60181160D01*
X56403904Y-60243944D01*
X56403900Y-60243946D01*
X56179786Y-60336777D01*
X56179775Y-60336782D01*
X55969714Y-60458061D01*
X55777262Y-60605735D01*
X55777251Y-60605744D01*
X55605744Y-60777251D01*
X55605735Y-60777262D01*
X55458061Y-60969714D01*
X55336782Y-61179775D01*
X55336777Y-61179786D01*
X55243946Y-61403900D01*
X55243944Y-61403904D01*
X55181160Y-61638217D01*
X55149500Y-61878709D01*
X50500500Y-61878709D01*
X50500500Y-55626500D01*
X50520502Y-55558379D01*
X50574158Y-55511886D01*
X50626500Y-55500500D01*
X154373500Y-55500500D01*
X154441621Y-55520502D01*
G37*
%TD.AperFunction*%
%TD*%
M02*
