%TF.GenerationSoftware,KiCad,Pcbnew,10.0.3-10.0.3~ubuntu24.04.1*%
%TF.CreationDate,2026-06-08T11:09:13+08:00*%
%TF.ProjectId,hybridimager-v1-weiqi-sensor,68796272-6964-4696-9d61-6765722d7631,0.1.0-draft*%
%TF.SameCoordinates,Original*%
%TF.FileFunction,Legend,Top*%
%TF.FilePolarity,Positive*%
%FSLAX46Y46*%
G04 Gerber Fmt 4.6, Leading zero omitted, Abs format (unit mm)*
G04 Created by KiCad (PCBNEW 10.0.3-10.0.3~ubuntu24.04.1) date 2026-06-08 11:09:13*
%MOMM*%
%LPD*%
G01*
G04 APERTURE LIST*
%ADD10C,0.110000*%
%ADD11C,0.120000*%
%ADD12C,0.130000*%
%ADD13C,0.180000*%
%ADD14C,0.080000*%
%ADD15C,0.100000*%
G04 APERTURE END LIST*
D10*
X123971427Y-63135803D02*
X124352380Y-63135803D01*
X123895237Y-63364375D02*
X124161904Y-62564375D01*
X124161904Y-62564375D02*
X124428570Y-63364375D01*
X124961903Y-62945327D02*
X124695237Y-62945327D01*
X124695237Y-63364375D02*
X124695237Y-62564375D01*
X124695237Y-62564375D02*
X125076189Y-62564375D01*
X125380951Y-62945327D02*
X125647617Y-62945327D01*
X125761903Y-63364375D02*
X125380951Y-63364375D01*
X125380951Y-63364375D02*
X125380951Y-62564375D01*
X125380951Y-62564375D02*
X125761903Y-62564375D01*
X126714285Y-62831041D02*
X126714285Y-63631041D01*
X126714285Y-62869137D02*
X126790475Y-62831041D01*
X126790475Y-62831041D02*
X126942856Y-62831041D01*
X126942856Y-62831041D02*
X127019047Y-62869137D01*
X127019047Y-62869137D02*
X127057142Y-62907232D01*
X127057142Y-62907232D02*
X127095237Y-62983422D01*
X127095237Y-62983422D02*
X127095237Y-63211994D01*
X127095237Y-63211994D02*
X127057142Y-63288184D01*
X127057142Y-63288184D02*
X127019047Y-63326280D01*
X127019047Y-63326280D02*
X126942856Y-63364375D01*
X126942856Y-63364375D02*
X126790475Y-63364375D01*
X126790475Y-63364375D02*
X126714285Y-63326280D01*
X127552380Y-63364375D02*
X127476190Y-63326280D01*
X127476190Y-63326280D02*
X127438095Y-63250089D01*
X127438095Y-63250089D02*
X127438095Y-62564375D01*
X128200000Y-63364375D02*
X128200000Y-62945327D01*
X128200000Y-62945327D02*
X128161905Y-62869137D01*
X128161905Y-62869137D02*
X128085714Y-62831041D01*
X128085714Y-62831041D02*
X127933333Y-62831041D01*
X127933333Y-62831041D02*
X127857143Y-62869137D01*
X128200000Y-63326280D02*
X128123809Y-63364375D01*
X128123809Y-63364375D02*
X127933333Y-63364375D01*
X127933333Y-63364375D02*
X127857143Y-63326280D01*
X127857143Y-63326280D02*
X127819047Y-63250089D01*
X127819047Y-63250089D02*
X127819047Y-63173899D01*
X127819047Y-63173899D02*
X127857143Y-63097708D01*
X127857143Y-63097708D02*
X127933333Y-63059613D01*
X127933333Y-63059613D02*
X128123809Y-63059613D01*
X128123809Y-63059613D02*
X128200000Y-63021518D01*
X128923810Y-63326280D02*
X128847619Y-63364375D01*
X128847619Y-63364375D02*
X128695238Y-63364375D01*
X128695238Y-63364375D02*
X128619048Y-63326280D01*
X128619048Y-63326280D02*
X128580953Y-63288184D01*
X128580953Y-63288184D02*
X128542857Y-63211994D01*
X128542857Y-63211994D02*
X128542857Y-62983422D01*
X128542857Y-62983422D02*
X128580953Y-62907232D01*
X128580953Y-62907232D02*
X128619048Y-62869137D01*
X128619048Y-62869137D02*
X128695238Y-62831041D01*
X128695238Y-62831041D02*
X128847619Y-62831041D01*
X128847619Y-62831041D02*
X128923810Y-62869137D01*
X129571429Y-63326280D02*
X129495238Y-63364375D01*
X129495238Y-63364375D02*
X129342857Y-63364375D01*
X129342857Y-63364375D02*
X129266667Y-63326280D01*
X129266667Y-63326280D02*
X129228571Y-63250089D01*
X129228571Y-63250089D02*
X129228571Y-62945327D01*
X129228571Y-62945327D02*
X129266667Y-62869137D01*
X129266667Y-62869137D02*
X129342857Y-62831041D01*
X129342857Y-62831041D02*
X129495238Y-62831041D01*
X129495238Y-62831041D02*
X129571429Y-62869137D01*
X129571429Y-62869137D02*
X129609524Y-62945327D01*
X129609524Y-62945327D02*
X129609524Y-63021518D01*
X129609524Y-63021518D02*
X129228571Y-63097708D01*
X129952381Y-63364375D02*
X129952381Y-62564375D01*
X130295238Y-63364375D02*
X130295238Y-62945327D01*
X130295238Y-62945327D02*
X130257143Y-62869137D01*
X130257143Y-62869137D02*
X130180952Y-62831041D01*
X130180952Y-62831041D02*
X130066666Y-62831041D01*
X130066666Y-62831041D02*
X129990476Y-62869137D01*
X129990476Y-62869137D02*
X129952381Y-62907232D01*
X130790476Y-63364375D02*
X130714286Y-63326280D01*
X130714286Y-63326280D02*
X130676191Y-63288184D01*
X130676191Y-63288184D02*
X130638095Y-63211994D01*
X130638095Y-63211994D02*
X130638095Y-62983422D01*
X130638095Y-62983422D02*
X130676191Y-62907232D01*
X130676191Y-62907232D02*
X130714286Y-62869137D01*
X130714286Y-62869137D02*
X130790476Y-62831041D01*
X130790476Y-62831041D02*
X130904762Y-62831041D01*
X130904762Y-62831041D02*
X130980953Y-62869137D01*
X130980953Y-62869137D02*
X131019048Y-62907232D01*
X131019048Y-62907232D02*
X131057143Y-62983422D01*
X131057143Y-62983422D02*
X131057143Y-63211994D01*
X131057143Y-63211994D02*
X131019048Y-63288184D01*
X131019048Y-63288184D02*
X130980953Y-63326280D01*
X130980953Y-63326280D02*
X130904762Y-63364375D01*
X130904762Y-63364375D02*
X130790476Y-63364375D01*
X131514286Y-63364375D02*
X131438096Y-63326280D01*
X131438096Y-63326280D02*
X131400001Y-63250089D01*
X131400001Y-63250089D02*
X131400001Y-62564375D01*
X132161906Y-63364375D02*
X132161906Y-62564375D01*
X132161906Y-63326280D02*
X132085715Y-63364375D01*
X132085715Y-63364375D02*
X131933334Y-63364375D01*
X131933334Y-63364375D02*
X131857144Y-63326280D01*
X131857144Y-63326280D02*
X131819049Y-63288184D01*
X131819049Y-63288184D02*
X131780953Y-63211994D01*
X131780953Y-63211994D02*
X131780953Y-62983422D01*
X131780953Y-62983422D02*
X131819049Y-62907232D01*
X131819049Y-62907232D02*
X131857144Y-62869137D01*
X131857144Y-62869137D02*
X131933334Y-62831041D01*
X131933334Y-62831041D02*
X132085715Y-62831041D01*
X132085715Y-62831041D02*
X132161906Y-62869137D01*
X132847621Y-63326280D02*
X132771430Y-63364375D01*
X132771430Y-63364375D02*
X132619049Y-63364375D01*
X132619049Y-63364375D02*
X132542859Y-63326280D01*
X132542859Y-63326280D02*
X132504763Y-63250089D01*
X132504763Y-63250089D02*
X132504763Y-62945327D01*
X132504763Y-62945327D02*
X132542859Y-62869137D01*
X132542859Y-62869137D02*
X132619049Y-62831041D01*
X132619049Y-62831041D02*
X132771430Y-62831041D01*
X132771430Y-62831041D02*
X132847621Y-62869137D01*
X132847621Y-62869137D02*
X132885716Y-62945327D01*
X132885716Y-62945327D02*
X132885716Y-63021518D01*
X132885716Y-63021518D02*
X132504763Y-63097708D01*
X133228573Y-63364375D02*
X133228573Y-62831041D01*
X133228573Y-62983422D02*
X133266668Y-62907232D01*
X133266668Y-62907232D02*
X133304763Y-62869137D01*
X133304763Y-62869137D02*
X133380954Y-62831041D01*
X133380954Y-62831041D02*
X133457144Y-62831041D01*
X133685715Y-63326280D02*
X133761906Y-63364375D01*
X133761906Y-63364375D02*
X133914287Y-63364375D01*
X133914287Y-63364375D02*
X133990477Y-63326280D01*
X133990477Y-63326280D02*
X134028573Y-63250089D01*
X134028573Y-63250089D02*
X134028573Y-63211994D01*
X134028573Y-63211994D02*
X133990477Y-63135803D01*
X133990477Y-63135803D02*
X133914287Y-63097708D01*
X133914287Y-63097708D02*
X133800001Y-63097708D01*
X133800001Y-63097708D02*
X133723811Y-63059613D01*
X133723811Y-63059613D02*
X133685715Y-62983422D01*
X133685715Y-62983422D02*
X133685715Y-62945327D01*
X133685715Y-62945327D02*
X133723811Y-62869137D01*
X133723811Y-62869137D02*
X133800001Y-62831041D01*
X133800001Y-62831041D02*
X133914287Y-62831041D01*
X133914287Y-62831041D02*
X133990477Y-62869137D01*
D11*
X86028570Y-68410117D02*
X86028570Y-67510117D01*
X86028570Y-67510117D02*
X86242856Y-67510117D01*
X86242856Y-67510117D02*
X86371427Y-67552974D01*
X86371427Y-67552974D02*
X86457142Y-67638688D01*
X86457142Y-67638688D02*
X86499999Y-67724402D01*
X86499999Y-67724402D02*
X86542856Y-67895831D01*
X86542856Y-67895831D02*
X86542856Y-68024402D01*
X86542856Y-68024402D02*
X86499999Y-68195831D01*
X86499999Y-68195831D02*
X86457142Y-68281545D01*
X86457142Y-68281545D02*
X86371427Y-68367260D01*
X86371427Y-68367260D02*
X86242856Y-68410117D01*
X86242856Y-68410117D02*
X86028570Y-68410117D01*
X87271427Y-68367260D02*
X87185713Y-68410117D01*
X87185713Y-68410117D02*
X87014285Y-68410117D01*
X87014285Y-68410117D02*
X86928570Y-68367260D01*
X86928570Y-68367260D02*
X86885713Y-68281545D01*
X86885713Y-68281545D02*
X86885713Y-67938688D01*
X86885713Y-67938688D02*
X86928570Y-67852974D01*
X86928570Y-67852974D02*
X87014285Y-67810117D01*
X87014285Y-67810117D02*
X87185713Y-67810117D01*
X87185713Y-67810117D02*
X87271427Y-67852974D01*
X87271427Y-67852974D02*
X87314285Y-67938688D01*
X87314285Y-67938688D02*
X87314285Y-68024402D01*
X87314285Y-68024402D02*
X86885713Y-68110117D01*
X87571428Y-67810117D02*
X87914285Y-67810117D01*
X87699999Y-67510117D02*
X87699999Y-68281545D01*
X87699999Y-68281545D02*
X87742856Y-68367260D01*
X87742856Y-68367260D02*
X87828571Y-68410117D01*
X87828571Y-68410117D02*
X87914285Y-68410117D01*
X88557142Y-68367260D02*
X88471428Y-68410117D01*
X88471428Y-68410117D02*
X88300000Y-68410117D01*
X88300000Y-68410117D02*
X88214285Y-68367260D01*
X88214285Y-68367260D02*
X88171428Y-68281545D01*
X88171428Y-68281545D02*
X88171428Y-67938688D01*
X88171428Y-67938688D02*
X88214285Y-67852974D01*
X88214285Y-67852974D02*
X88300000Y-67810117D01*
X88300000Y-67810117D02*
X88471428Y-67810117D01*
X88471428Y-67810117D02*
X88557142Y-67852974D01*
X88557142Y-67852974D02*
X88600000Y-67938688D01*
X88600000Y-67938688D02*
X88600000Y-68024402D01*
X88600000Y-68024402D02*
X88171428Y-68110117D01*
X89371429Y-68367260D02*
X89285714Y-68410117D01*
X89285714Y-68410117D02*
X89114286Y-68410117D01*
X89114286Y-68410117D02*
X89028571Y-68367260D01*
X89028571Y-68367260D02*
X88985714Y-68324402D01*
X88985714Y-68324402D02*
X88942857Y-68238688D01*
X88942857Y-68238688D02*
X88942857Y-67981545D01*
X88942857Y-67981545D02*
X88985714Y-67895831D01*
X88985714Y-67895831D02*
X89028571Y-67852974D01*
X89028571Y-67852974D02*
X89114286Y-67810117D01*
X89114286Y-67810117D02*
X89285714Y-67810117D01*
X89285714Y-67810117D02*
X89371429Y-67852974D01*
X89628572Y-67810117D02*
X89971429Y-67810117D01*
X89757143Y-67510117D02*
X89757143Y-68281545D01*
X89757143Y-68281545D02*
X89800000Y-68367260D01*
X89800000Y-68367260D02*
X89885715Y-68410117D01*
X89885715Y-68410117D02*
X89971429Y-68410117D01*
X90400001Y-68410117D02*
X90314286Y-68367260D01*
X90314286Y-68367260D02*
X90271429Y-68324402D01*
X90271429Y-68324402D02*
X90228572Y-68238688D01*
X90228572Y-68238688D02*
X90228572Y-67981545D01*
X90228572Y-67981545D02*
X90271429Y-67895831D01*
X90271429Y-67895831D02*
X90314286Y-67852974D01*
X90314286Y-67852974D02*
X90400001Y-67810117D01*
X90400001Y-67810117D02*
X90528572Y-67810117D01*
X90528572Y-67810117D02*
X90614286Y-67852974D01*
X90614286Y-67852974D02*
X90657144Y-67895831D01*
X90657144Y-67895831D02*
X90700001Y-67981545D01*
X90700001Y-67981545D02*
X90700001Y-68238688D01*
X90700001Y-68238688D02*
X90657144Y-68324402D01*
X90657144Y-68324402D02*
X90614286Y-68367260D01*
X90614286Y-68367260D02*
X90528572Y-68410117D01*
X90528572Y-68410117D02*
X90400001Y-68410117D01*
X91085715Y-68410117D02*
X91085715Y-67810117D01*
X91085715Y-67981545D02*
X91128572Y-67895831D01*
X91128572Y-67895831D02*
X91171430Y-67852974D01*
X91171430Y-67852974D02*
X91257144Y-67810117D01*
X91257144Y-67810117D02*
X91342858Y-67810117D01*
X92328572Y-68410117D02*
X92328572Y-67810117D01*
X92328572Y-67510117D02*
X92285715Y-67552974D01*
X92285715Y-67552974D02*
X92328572Y-67595831D01*
X92328572Y-67595831D02*
X92371429Y-67552974D01*
X92371429Y-67552974D02*
X92328572Y-67510117D01*
X92328572Y-67510117D02*
X92328572Y-67595831D01*
X92714286Y-68367260D02*
X92800000Y-68410117D01*
X92800000Y-68410117D02*
X92971429Y-68410117D01*
X92971429Y-68410117D02*
X93057143Y-68367260D01*
X93057143Y-68367260D02*
X93100000Y-68281545D01*
X93100000Y-68281545D02*
X93100000Y-68238688D01*
X93100000Y-68238688D02*
X93057143Y-68152974D01*
X93057143Y-68152974D02*
X92971429Y-68110117D01*
X92971429Y-68110117D02*
X92842858Y-68110117D01*
X92842858Y-68110117D02*
X92757143Y-68067260D01*
X92757143Y-68067260D02*
X92714286Y-67981545D01*
X92714286Y-67981545D02*
X92714286Y-67938688D01*
X92714286Y-67938688D02*
X92757143Y-67852974D01*
X92757143Y-67852974D02*
X92842858Y-67810117D01*
X92842858Y-67810117D02*
X92971429Y-67810117D01*
X92971429Y-67810117D02*
X93057143Y-67852974D01*
X93614286Y-68410117D02*
X93528571Y-68367260D01*
X93528571Y-68367260D02*
X93485714Y-68281545D01*
X93485714Y-68281545D02*
X93485714Y-67510117D01*
X94342858Y-68410117D02*
X94342858Y-67938688D01*
X94342858Y-67938688D02*
X94300000Y-67852974D01*
X94300000Y-67852974D02*
X94214286Y-67810117D01*
X94214286Y-67810117D02*
X94042858Y-67810117D01*
X94042858Y-67810117D02*
X93957143Y-67852974D01*
X94342858Y-68367260D02*
X94257143Y-68410117D01*
X94257143Y-68410117D02*
X94042858Y-68410117D01*
X94042858Y-68410117D02*
X93957143Y-68367260D01*
X93957143Y-68367260D02*
X93914286Y-68281545D01*
X93914286Y-68281545D02*
X93914286Y-68195831D01*
X93914286Y-68195831D02*
X93957143Y-68110117D01*
X93957143Y-68110117D02*
X94042858Y-68067260D01*
X94042858Y-68067260D02*
X94257143Y-68067260D01*
X94257143Y-68067260D02*
X94342858Y-68024402D01*
X94771429Y-67810117D02*
X94771429Y-68410117D01*
X94771429Y-67895831D02*
X94814286Y-67852974D01*
X94814286Y-67852974D02*
X94900001Y-67810117D01*
X94900001Y-67810117D02*
X95028572Y-67810117D01*
X95028572Y-67810117D02*
X95114286Y-67852974D01*
X95114286Y-67852974D02*
X95157144Y-67938688D01*
X95157144Y-67938688D02*
X95157144Y-68410117D01*
X95971430Y-68410117D02*
X95971430Y-67510117D01*
X95971430Y-68367260D02*
X95885715Y-68410117D01*
X95885715Y-68410117D02*
X95714287Y-68410117D01*
X95714287Y-68410117D02*
X95628572Y-68367260D01*
X95628572Y-68367260D02*
X95585715Y-68324402D01*
X95585715Y-68324402D02*
X95542858Y-68238688D01*
X95542858Y-68238688D02*
X95542858Y-67981545D01*
X95542858Y-67981545D02*
X95585715Y-67895831D01*
X95585715Y-67895831D02*
X95628572Y-67852974D01*
X95628572Y-67852974D02*
X95714287Y-67810117D01*
X95714287Y-67810117D02*
X95885715Y-67810117D01*
X95885715Y-67810117D02*
X95971430Y-67852974D01*
D12*
X81054756Y-141573204D02*
X81099994Y-141527966D01*
X81099994Y-141527966D02*
X81190470Y-141482728D01*
X81190470Y-141482728D02*
X81416661Y-141482728D01*
X81416661Y-141482728D02*
X81507137Y-141527966D01*
X81507137Y-141527966D02*
X81552375Y-141573204D01*
X81552375Y-141573204D02*
X81597613Y-141663680D01*
X81597613Y-141663680D02*
X81597613Y-141754156D01*
X81597613Y-141754156D02*
X81552375Y-141889870D01*
X81552375Y-141889870D02*
X81009518Y-142432728D01*
X81009518Y-142432728D02*
X81597613Y-142432728D01*
X82502375Y-142432728D02*
X81959518Y-142432728D01*
X82230946Y-142432728D02*
X82230946Y-141482728D01*
X82230946Y-141482728D02*
X82140470Y-141618442D01*
X82140470Y-141618442D02*
X82049994Y-141708918D01*
X82049994Y-141708918D02*
X81959518Y-141754156D01*
X83588090Y-142387490D02*
X83678566Y-142432728D01*
X83678566Y-142432728D02*
X83859518Y-142432728D01*
X83859518Y-142432728D02*
X83949995Y-142387490D01*
X83949995Y-142387490D02*
X83995233Y-142297013D01*
X83995233Y-142297013D02*
X83995233Y-142251775D01*
X83995233Y-142251775D02*
X83949995Y-142161299D01*
X83949995Y-142161299D02*
X83859518Y-142116061D01*
X83859518Y-142116061D02*
X83723804Y-142116061D01*
X83723804Y-142116061D02*
X83633328Y-142070823D01*
X83633328Y-142070823D02*
X83588090Y-141980347D01*
X83588090Y-141980347D02*
X83588090Y-141935109D01*
X83588090Y-141935109D02*
X83633328Y-141844632D01*
X83633328Y-141844632D02*
X83723804Y-141799394D01*
X83723804Y-141799394D02*
X83859518Y-141799394D01*
X83859518Y-141799394D02*
X83949995Y-141844632D01*
X84402376Y-141799394D02*
X84402376Y-142749394D01*
X84402376Y-141844632D02*
X84492852Y-141799394D01*
X84492852Y-141799394D02*
X84673805Y-141799394D01*
X84673805Y-141799394D02*
X84764281Y-141844632D01*
X84764281Y-141844632D02*
X84809519Y-141889870D01*
X84809519Y-141889870D02*
X84854757Y-141980347D01*
X84854757Y-141980347D02*
X84854757Y-142251775D01*
X84854757Y-142251775D02*
X84809519Y-142342251D01*
X84809519Y-142342251D02*
X84764281Y-142387490D01*
X84764281Y-142387490D02*
X84673805Y-142432728D01*
X84673805Y-142432728D02*
X84492852Y-142432728D01*
X84492852Y-142432728D02*
X84402376Y-142387490D01*
X85669043Y-142432728D02*
X85669043Y-141935109D01*
X85669043Y-141935109D02*
X85623805Y-141844632D01*
X85623805Y-141844632D02*
X85533329Y-141799394D01*
X85533329Y-141799394D02*
X85352376Y-141799394D01*
X85352376Y-141799394D02*
X85261900Y-141844632D01*
X85669043Y-142387490D02*
X85578567Y-142432728D01*
X85578567Y-142432728D02*
X85352376Y-142432728D01*
X85352376Y-142432728D02*
X85261900Y-142387490D01*
X85261900Y-142387490D02*
X85216662Y-142297013D01*
X85216662Y-142297013D02*
X85216662Y-142206537D01*
X85216662Y-142206537D02*
X85261900Y-142116061D01*
X85261900Y-142116061D02*
X85352376Y-142070823D01*
X85352376Y-142070823D02*
X85578567Y-142070823D01*
X85578567Y-142070823D02*
X85669043Y-142025585D01*
X86121424Y-142432728D02*
X86121424Y-141799394D01*
X86121424Y-141980347D02*
X86166662Y-141889870D01*
X86166662Y-141889870D02*
X86211900Y-141844632D01*
X86211900Y-141844632D02*
X86302376Y-141799394D01*
X86302376Y-141799394D02*
X86392853Y-141799394D01*
X86664281Y-142387490D02*
X86754757Y-142432728D01*
X86754757Y-142432728D02*
X86935709Y-142432728D01*
X86935709Y-142432728D02*
X87026186Y-142387490D01*
X87026186Y-142387490D02*
X87071424Y-142297013D01*
X87071424Y-142297013D02*
X87071424Y-142251775D01*
X87071424Y-142251775D02*
X87026186Y-142161299D01*
X87026186Y-142161299D02*
X86935709Y-142116061D01*
X86935709Y-142116061D02*
X86799995Y-142116061D01*
X86799995Y-142116061D02*
X86709519Y-142070823D01*
X86709519Y-142070823D02*
X86664281Y-141980347D01*
X86664281Y-141980347D02*
X86664281Y-141935109D01*
X86664281Y-141935109D02*
X86709519Y-141844632D01*
X86709519Y-141844632D02*
X86799995Y-141799394D01*
X86799995Y-141799394D02*
X86935709Y-141799394D01*
X86935709Y-141799394D02*
X87026186Y-141844632D01*
X87840472Y-142387490D02*
X87749996Y-142432728D01*
X87749996Y-142432728D02*
X87569043Y-142432728D01*
X87569043Y-142432728D02*
X87478567Y-142387490D01*
X87478567Y-142387490D02*
X87433329Y-142297013D01*
X87433329Y-142297013D02*
X87433329Y-141935109D01*
X87433329Y-141935109D02*
X87478567Y-141844632D01*
X87478567Y-141844632D02*
X87569043Y-141799394D01*
X87569043Y-141799394D02*
X87749996Y-141799394D01*
X87749996Y-141799394D02*
X87840472Y-141844632D01*
X87840472Y-141844632D02*
X87885710Y-141935109D01*
X87885710Y-141935109D02*
X87885710Y-142025585D01*
X87885710Y-142025585D02*
X87433329Y-142116061D01*
X88971425Y-142387490D02*
X89061901Y-142432728D01*
X89061901Y-142432728D02*
X89242853Y-142432728D01*
X89242853Y-142432728D02*
X89333330Y-142387490D01*
X89333330Y-142387490D02*
X89378568Y-142297013D01*
X89378568Y-142297013D02*
X89378568Y-142251775D01*
X89378568Y-142251775D02*
X89333330Y-142161299D01*
X89333330Y-142161299D02*
X89242853Y-142116061D01*
X89242853Y-142116061D02*
X89107139Y-142116061D01*
X89107139Y-142116061D02*
X89016663Y-142070823D01*
X89016663Y-142070823D02*
X88971425Y-141980347D01*
X88971425Y-141980347D02*
X88971425Y-141935109D01*
X88971425Y-141935109D02*
X89016663Y-141844632D01*
X89016663Y-141844632D02*
X89107139Y-141799394D01*
X89107139Y-141799394D02*
X89242853Y-141799394D01*
X89242853Y-141799394D02*
X89333330Y-141844632D01*
X89785711Y-142432728D02*
X89785711Y-141799394D01*
X89785711Y-141482728D02*
X89740473Y-141527966D01*
X89740473Y-141527966D02*
X89785711Y-141573204D01*
X89785711Y-141573204D02*
X89830949Y-141527966D01*
X89830949Y-141527966D02*
X89785711Y-141482728D01*
X89785711Y-141482728D02*
X89785711Y-141573204D01*
X90238092Y-141799394D02*
X90238092Y-142432728D01*
X90238092Y-141889870D02*
X90283330Y-141844632D01*
X90283330Y-141844632D02*
X90373806Y-141799394D01*
X90373806Y-141799394D02*
X90509521Y-141799394D01*
X90509521Y-141799394D02*
X90599997Y-141844632D01*
X90599997Y-141844632D02*
X90645235Y-141935109D01*
X90645235Y-141935109D02*
X90645235Y-142432728D01*
X91504759Y-141799394D02*
X91504759Y-142568442D01*
X91504759Y-142568442D02*
X91459521Y-142658918D01*
X91459521Y-142658918D02*
X91414283Y-142704156D01*
X91414283Y-142704156D02*
X91323806Y-142749394D01*
X91323806Y-142749394D02*
X91188092Y-142749394D01*
X91188092Y-142749394D02*
X91097616Y-142704156D01*
X91504759Y-142387490D02*
X91414283Y-142432728D01*
X91414283Y-142432728D02*
X91233330Y-142432728D01*
X91233330Y-142432728D02*
X91142854Y-142387490D01*
X91142854Y-142387490D02*
X91097616Y-142342251D01*
X91097616Y-142342251D02*
X91052378Y-142251775D01*
X91052378Y-142251775D02*
X91052378Y-141980347D01*
X91052378Y-141980347D02*
X91097616Y-141889870D01*
X91097616Y-141889870D02*
X91142854Y-141844632D01*
X91142854Y-141844632D02*
X91233330Y-141799394D01*
X91233330Y-141799394D02*
X91414283Y-141799394D01*
X91414283Y-141799394D02*
X91504759Y-141844632D01*
X92092854Y-142432728D02*
X92002378Y-142387490D01*
X92002378Y-142387490D02*
X91957140Y-142297013D01*
X91957140Y-142297013D02*
X91957140Y-141482728D01*
X92816664Y-142387490D02*
X92726188Y-142432728D01*
X92726188Y-142432728D02*
X92545235Y-142432728D01*
X92545235Y-142432728D02*
X92454759Y-142387490D01*
X92454759Y-142387490D02*
X92409521Y-142297013D01*
X92409521Y-142297013D02*
X92409521Y-141935109D01*
X92409521Y-141935109D02*
X92454759Y-141844632D01*
X92454759Y-141844632D02*
X92545235Y-141799394D01*
X92545235Y-141799394D02*
X92726188Y-141799394D01*
X92726188Y-141799394D02*
X92816664Y-141844632D01*
X92816664Y-141844632D02*
X92861902Y-141935109D01*
X92861902Y-141935109D02*
X92861902Y-142025585D01*
X92861902Y-142025585D02*
X92409521Y-142116061D01*
X93269045Y-142070823D02*
X93992855Y-142070823D01*
X94445235Y-141799394D02*
X94445235Y-142749394D01*
X94445235Y-141844632D02*
X94535711Y-141799394D01*
X94535711Y-141799394D02*
X94716664Y-141799394D01*
X94716664Y-141799394D02*
X94807140Y-141844632D01*
X94807140Y-141844632D02*
X94852378Y-141889870D01*
X94852378Y-141889870D02*
X94897616Y-141980347D01*
X94897616Y-141980347D02*
X94897616Y-142251775D01*
X94897616Y-142251775D02*
X94852378Y-142342251D01*
X94852378Y-142342251D02*
X94807140Y-142387490D01*
X94807140Y-142387490D02*
X94716664Y-142432728D01*
X94716664Y-142432728D02*
X94535711Y-142432728D01*
X94535711Y-142432728D02*
X94445235Y-142387490D01*
X95304759Y-142432728D02*
X95304759Y-141799394D01*
X95304759Y-141482728D02*
X95259521Y-141527966D01*
X95259521Y-141527966D02*
X95304759Y-141573204D01*
X95304759Y-141573204D02*
X95349997Y-141527966D01*
X95349997Y-141527966D02*
X95304759Y-141482728D01*
X95304759Y-141482728D02*
X95304759Y-141573204D01*
X95666664Y-142432728D02*
X96164283Y-141799394D01*
X95666664Y-141799394D02*
X96164283Y-142432728D01*
X96888093Y-142387490D02*
X96797617Y-142432728D01*
X96797617Y-142432728D02*
X96616664Y-142432728D01*
X96616664Y-142432728D02*
X96526188Y-142387490D01*
X96526188Y-142387490D02*
X96480950Y-142297013D01*
X96480950Y-142297013D02*
X96480950Y-141935109D01*
X96480950Y-141935109D02*
X96526188Y-141844632D01*
X96526188Y-141844632D02*
X96616664Y-141799394D01*
X96616664Y-141799394D02*
X96797617Y-141799394D01*
X96797617Y-141799394D02*
X96888093Y-141844632D01*
X96888093Y-141844632D02*
X96933331Y-141935109D01*
X96933331Y-141935109D02*
X96933331Y-142025585D01*
X96933331Y-142025585D02*
X96480950Y-142116061D01*
X97476188Y-142432728D02*
X97385712Y-142387490D01*
X97385712Y-142387490D02*
X97340474Y-142297013D01*
X97340474Y-142297013D02*
X97340474Y-141482728D01*
X98516665Y-142387490D02*
X98607141Y-142432728D01*
X98607141Y-142432728D02*
X98788093Y-142432728D01*
X98788093Y-142432728D02*
X98878570Y-142387490D01*
X98878570Y-142387490D02*
X98923808Y-142297013D01*
X98923808Y-142297013D02*
X98923808Y-142251775D01*
X98923808Y-142251775D02*
X98878570Y-142161299D01*
X98878570Y-142161299D02*
X98788093Y-142116061D01*
X98788093Y-142116061D02*
X98652379Y-142116061D01*
X98652379Y-142116061D02*
X98561903Y-142070823D01*
X98561903Y-142070823D02*
X98516665Y-141980347D01*
X98516665Y-141980347D02*
X98516665Y-141935109D01*
X98516665Y-141935109D02*
X98561903Y-141844632D01*
X98561903Y-141844632D02*
X98652379Y-141799394D01*
X98652379Y-141799394D02*
X98788093Y-141799394D01*
X98788093Y-141799394D02*
X98878570Y-141844632D01*
X99330951Y-142432728D02*
X99330951Y-141799394D01*
X99330951Y-141482728D02*
X99285713Y-141527966D01*
X99285713Y-141527966D02*
X99330951Y-141573204D01*
X99330951Y-141573204D02*
X99376189Y-141527966D01*
X99376189Y-141527966D02*
X99330951Y-141482728D01*
X99330951Y-141482728D02*
X99330951Y-141573204D01*
X99647618Y-141799394D02*
X100009522Y-141799394D01*
X99783332Y-141482728D02*
X99783332Y-142297013D01*
X99783332Y-142297013D02*
X99828570Y-142387490D01*
X99828570Y-142387490D02*
X99919046Y-142432728D01*
X99919046Y-142432728D02*
X100009522Y-142432728D01*
X100688094Y-142387490D02*
X100597618Y-142432728D01*
X100597618Y-142432728D02*
X100416665Y-142432728D01*
X100416665Y-142432728D02*
X100326189Y-142387490D01*
X100326189Y-142387490D02*
X100280951Y-142297013D01*
X100280951Y-142297013D02*
X100280951Y-141935109D01*
X100280951Y-141935109D02*
X100326189Y-141844632D01*
X100326189Y-141844632D02*
X100416665Y-141799394D01*
X100416665Y-141799394D02*
X100597618Y-141799394D01*
X100597618Y-141799394D02*
X100688094Y-141844632D01*
X100688094Y-141844632D02*
X100733332Y-141935109D01*
X100733332Y-141935109D02*
X100733332Y-142025585D01*
X100733332Y-142025585D02*
X100280951Y-142116061D01*
X101095237Y-142387490D02*
X101185713Y-142432728D01*
X101185713Y-142432728D02*
X101366665Y-142432728D01*
X101366665Y-142432728D02*
X101457142Y-142387490D01*
X101457142Y-142387490D02*
X101502380Y-142297013D01*
X101502380Y-142297013D02*
X101502380Y-142251775D01*
X101502380Y-142251775D02*
X101457142Y-142161299D01*
X101457142Y-142161299D02*
X101366665Y-142116061D01*
X101366665Y-142116061D02*
X101230951Y-142116061D01*
X101230951Y-142116061D02*
X101140475Y-142070823D01*
X101140475Y-142070823D02*
X101095237Y-141980347D01*
X101095237Y-141980347D02*
X101095237Y-141935109D01*
X101095237Y-141935109D02*
X101140475Y-141844632D01*
X101140475Y-141844632D02*
X101230951Y-141799394D01*
X101230951Y-141799394D02*
X101366665Y-141799394D01*
X101366665Y-141799394D02*
X101457142Y-141844632D01*
X101954761Y-142387490D02*
X101954761Y-142432728D01*
X101954761Y-142432728D02*
X101909523Y-142523204D01*
X101909523Y-142523204D02*
X101864285Y-142568442D01*
X101909523Y-141844632D02*
X101954761Y-141889870D01*
X101954761Y-141889870D02*
X101909523Y-141935109D01*
X101909523Y-141935109D02*
X101864285Y-141889870D01*
X101864285Y-141889870D02*
X101909523Y-141844632D01*
X101909523Y-141844632D02*
X101909523Y-141935109D01*
X103040476Y-142161299D02*
X103492857Y-142161299D01*
X102950000Y-142432728D02*
X103266666Y-141482728D01*
X103266666Y-141482728D02*
X103583333Y-142432728D01*
X104216667Y-141935109D02*
X103900000Y-141935109D01*
X103900000Y-142432728D02*
X103900000Y-141482728D01*
X103900000Y-141482728D02*
X104352381Y-141482728D01*
X104714286Y-141935109D02*
X105030953Y-141935109D01*
X105166667Y-142432728D02*
X104714286Y-142432728D01*
X104714286Y-142432728D02*
X104714286Y-141482728D01*
X104714286Y-141482728D02*
X105166667Y-141482728D01*
X106297620Y-141799394D02*
X106297620Y-142749394D01*
X106297620Y-141844632D02*
X106388096Y-141799394D01*
X106388096Y-141799394D02*
X106569049Y-141799394D01*
X106569049Y-141799394D02*
X106659525Y-141844632D01*
X106659525Y-141844632D02*
X106704763Y-141889870D01*
X106704763Y-141889870D02*
X106750001Y-141980347D01*
X106750001Y-141980347D02*
X106750001Y-142251775D01*
X106750001Y-142251775D02*
X106704763Y-142342251D01*
X106704763Y-142342251D02*
X106659525Y-142387490D01*
X106659525Y-142387490D02*
X106569049Y-142432728D01*
X106569049Y-142432728D02*
X106388096Y-142432728D01*
X106388096Y-142432728D02*
X106297620Y-142387490D01*
X107292858Y-142432728D02*
X107202382Y-142387490D01*
X107202382Y-142387490D02*
X107157144Y-142297013D01*
X107157144Y-142297013D02*
X107157144Y-141482728D01*
X108061906Y-142432728D02*
X108061906Y-141935109D01*
X108061906Y-141935109D02*
X108016668Y-141844632D01*
X108016668Y-141844632D02*
X107926192Y-141799394D01*
X107926192Y-141799394D02*
X107745239Y-141799394D01*
X107745239Y-141799394D02*
X107654763Y-141844632D01*
X108061906Y-142387490D02*
X107971430Y-142432728D01*
X107971430Y-142432728D02*
X107745239Y-142432728D01*
X107745239Y-142432728D02*
X107654763Y-142387490D01*
X107654763Y-142387490D02*
X107609525Y-142297013D01*
X107609525Y-142297013D02*
X107609525Y-142206537D01*
X107609525Y-142206537D02*
X107654763Y-142116061D01*
X107654763Y-142116061D02*
X107745239Y-142070823D01*
X107745239Y-142070823D02*
X107971430Y-142070823D01*
X107971430Y-142070823D02*
X108061906Y-142025585D01*
X108921430Y-142387490D02*
X108830954Y-142432728D01*
X108830954Y-142432728D02*
X108650001Y-142432728D01*
X108650001Y-142432728D02*
X108559525Y-142387490D01*
X108559525Y-142387490D02*
X108514287Y-142342251D01*
X108514287Y-142342251D02*
X108469049Y-142251775D01*
X108469049Y-142251775D02*
X108469049Y-141980347D01*
X108469049Y-141980347D02*
X108514287Y-141889870D01*
X108514287Y-141889870D02*
X108559525Y-141844632D01*
X108559525Y-141844632D02*
X108650001Y-141799394D01*
X108650001Y-141799394D02*
X108830954Y-141799394D01*
X108830954Y-141799394D02*
X108921430Y-141844632D01*
X109690478Y-142387490D02*
X109600002Y-142432728D01*
X109600002Y-142432728D02*
X109419049Y-142432728D01*
X109419049Y-142432728D02*
X109328573Y-142387490D01*
X109328573Y-142387490D02*
X109283335Y-142297013D01*
X109283335Y-142297013D02*
X109283335Y-141935109D01*
X109283335Y-141935109D02*
X109328573Y-141844632D01*
X109328573Y-141844632D02*
X109419049Y-141799394D01*
X109419049Y-141799394D02*
X109600002Y-141799394D01*
X109600002Y-141799394D02*
X109690478Y-141844632D01*
X109690478Y-141844632D02*
X109735716Y-141935109D01*
X109735716Y-141935109D02*
X109735716Y-142025585D01*
X109735716Y-142025585D02*
X109283335Y-142116061D01*
X110142859Y-142432728D02*
X110142859Y-141482728D01*
X110550002Y-142432728D02*
X110550002Y-141935109D01*
X110550002Y-141935109D02*
X110504764Y-141844632D01*
X110504764Y-141844632D02*
X110414288Y-141799394D01*
X110414288Y-141799394D02*
X110278573Y-141799394D01*
X110278573Y-141799394D02*
X110188097Y-141844632D01*
X110188097Y-141844632D02*
X110142859Y-141889870D01*
X111138097Y-142432728D02*
X111047621Y-142387490D01*
X111047621Y-142387490D02*
X111002383Y-142342251D01*
X111002383Y-142342251D02*
X110957145Y-142251775D01*
X110957145Y-142251775D02*
X110957145Y-141980347D01*
X110957145Y-141980347D02*
X111002383Y-141889870D01*
X111002383Y-141889870D02*
X111047621Y-141844632D01*
X111047621Y-141844632D02*
X111138097Y-141799394D01*
X111138097Y-141799394D02*
X111273812Y-141799394D01*
X111273812Y-141799394D02*
X111364288Y-141844632D01*
X111364288Y-141844632D02*
X111409526Y-141889870D01*
X111409526Y-141889870D02*
X111454764Y-141980347D01*
X111454764Y-141980347D02*
X111454764Y-142251775D01*
X111454764Y-142251775D02*
X111409526Y-142342251D01*
X111409526Y-142342251D02*
X111364288Y-142387490D01*
X111364288Y-142387490D02*
X111273812Y-142432728D01*
X111273812Y-142432728D02*
X111138097Y-142432728D01*
X111997621Y-142432728D02*
X111907145Y-142387490D01*
X111907145Y-142387490D02*
X111861907Y-142297013D01*
X111861907Y-142297013D02*
X111861907Y-141482728D01*
X112766669Y-142432728D02*
X112766669Y-141482728D01*
X112766669Y-142387490D02*
X112676193Y-142432728D01*
X112676193Y-142432728D02*
X112495240Y-142432728D01*
X112495240Y-142432728D02*
X112404764Y-142387490D01*
X112404764Y-142387490D02*
X112359526Y-142342251D01*
X112359526Y-142342251D02*
X112314288Y-142251775D01*
X112314288Y-142251775D02*
X112314288Y-141980347D01*
X112314288Y-141980347D02*
X112359526Y-141889870D01*
X112359526Y-141889870D02*
X112404764Y-141844632D01*
X112404764Y-141844632D02*
X112495240Y-141799394D01*
X112495240Y-141799394D02*
X112676193Y-141799394D01*
X112676193Y-141799394D02*
X112766669Y-141844632D01*
X113580955Y-142387490D02*
X113490479Y-142432728D01*
X113490479Y-142432728D02*
X113309526Y-142432728D01*
X113309526Y-142432728D02*
X113219050Y-142387490D01*
X113219050Y-142387490D02*
X113173812Y-142297013D01*
X113173812Y-142297013D02*
X113173812Y-141935109D01*
X113173812Y-141935109D02*
X113219050Y-141844632D01*
X113219050Y-141844632D02*
X113309526Y-141799394D01*
X113309526Y-141799394D02*
X113490479Y-141799394D01*
X113490479Y-141799394D02*
X113580955Y-141844632D01*
X113580955Y-141844632D02*
X113626193Y-141935109D01*
X113626193Y-141935109D02*
X113626193Y-142025585D01*
X113626193Y-142025585D02*
X113173812Y-142116061D01*
X114033336Y-142432728D02*
X114033336Y-141799394D01*
X114033336Y-141980347D02*
X114078574Y-141889870D01*
X114078574Y-141889870D02*
X114123812Y-141844632D01*
X114123812Y-141844632D02*
X114214288Y-141799394D01*
X114214288Y-141799394D02*
X114304765Y-141799394D01*
X114576193Y-142387490D02*
X114666669Y-142432728D01*
X114666669Y-142432728D02*
X114847621Y-142432728D01*
X114847621Y-142432728D02*
X114938098Y-142387490D01*
X114938098Y-142387490D02*
X114983336Y-142297013D01*
X114983336Y-142297013D02*
X114983336Y-142251775D01*
X114983336Y-142251775D02*
X114938098Y-142161299D01*
X114938098Y-142161299D02*
X114847621Y-142116061D01*
X114847621Y-142116061D02*
X114711907Y-142116061D01*
X114711907Y-142116061D02*
X114621431Y-142070823D01*
X114621431Y-142070823D02*
X114576193Y-141980347D01*
X114576193Y-141980347D02*
X114576193Y-141935109D01*
X114576193Y-141935109D02*
X114621431Y-141844632D01*
X114621431Y-141844632D02*
X114711907Y-141799394D01*
X114711907Y-141799394D02*
X114847621Y-141799394D01*
X114847621Y-141799394D02*
X114938098Y-141844632D01*
X115435717Y-142387490D02*
X115435717Y-142432728D01*
X115435717Y-142432728D02*
X115390479Y-142523204D01*
X115390479Y-142523204D02*
X115345241Y-142568442D01*
X115390479Y-141844632D02*
X115435717Y-141889870D01*
X115435717Y-141889870D02*
X115390479Y-141935109D01*
X115390479Y-141935109D02*
X115345241Y-141889870D01*
X115345241Y-141889870D02*
X115390479Y-141844632D01*
X115390479Y-141844632D02*
X115390479Y-141935109D01*
X116521432Y-142387490D02*
X116611908Y-142432728D01*
X116611908Y-142432728D02*
X116792860Y-142432728D01*
X116792860Y-142432728D02*
X116883337Y-142387490D01*
X116883337Y-142387490D02*
X116928575Y-142297013D01*
X116928575Y-142297013D02*
X116928575Y-142251775D01*
X116928575Y-142251775D02*
X116883337Y-142161299D01*
X116883337Y-142161299D02*
X116792860Y-142116061D01*
X116792860Y-142116061D02*
X116657146Y-142116061D01*
X116657146Y-142116061D02*
X116566670Y-142070823D01*
X116566670Y-142070823D02*
X116521432Y-141980347D01*
X116521432Y-141980347D02*
X116521432Y-141935109D01*
X116521432Y-141935109D02*
X116566670Y-141844632D01*
X116566670Y-141844632D02*
X116657146Y-141799394D01*
X116657146Y-141799394D02*
X116792860Y-141799394D01*
X116792860Y-141799394D02*
X116883337Y-141844632D01*
X117245242Y-141799394D02*
X117471432Y-142432728D01*
X117697623Y-141799394D02*
X117471432Y-142432728D01*
X117471432Y-142432728D02*
X117380956Y-142658918D01*
X117380956Y-142658918D02*
X117335718Y-142704156D01*
X117335718Y-142704156D02*
X117245242Y-142749394D01*
X118059528Y-141799394D02*
X118059528Y-142432728D01*
X118059528Y-141889870D02*
X118104766Y-141844632D01*
X118104766Y-141844632D02*
X118195242Y-141799394D01*
X118195242Y-141799394D02*
X118330957Y-141799394D01*
X118330957Y-141799394D02*
X118421433Y-141844632D01*
X118421433Y-141844632D02*
X118466671Y-141935109D01*
X118466671Y-141935109D02*
X118466671Y-142432728D01*
X119326195Y-142387490D02*
X119235719Y-142432728D01*
X119235719Y-142432728D02*
X119054766Y-142432728D01*
X119054766Y-142432728D02*
X118964290Y-142387490D01*
X118964290Y-142387490D02*
X118919052Y-142342251D01*
X118919052Y-142342251D02*
X118873814Y-142251775D01*
X118873814Y-142251775D02*
X118873814Y-141980347D01*
X118873814Y-141980347D02*
X118919052Y-141889870D01*
X118919052Y-141889870D02*
X118964290Y-141844632D01*
X118964290Y-141844632D02*
X119054766Y-141799394D01*
X119054766Y-141799394D02*
X119235719Y-141799394D01*
X119235719Y-141799394D02*
X119326195Y-141844632D01*
X120321434Y-141799394D02*
X120683338Y-141799394D01*
X120457148Y-142432728D02*
X120457148Y-141618442D01*
X120457148Y-141618442D02*
X120502386Y-141527966D01*
X120502386Y-141527966D02*
X120592862Y-141482728D01*
X120592862Y-141482728D02*
X120683338Y-141482728D01*
X121000005Y-142432728D02*
X121000005Y-141799394D01*
X121000005Y-141482728D02*
X120954767Y-141527966D01*
X120954767Y-141527966D02*
X121000005Y-141573204D01*
X121000005Y-141573204D02*
X121045243Y-141527966D01*
X121045243Y-141527966D02*
X121000005Y-141482728D01*
X121000005Y-141482728D02*
X121000005Y-141573204D01*
X121452386Y-142432728D02*
X121452386Y-141799394D01*
X121452386Y-141980347D02*
X121497624Y-141889870D01*
X121497624Y-141889870D02*
X121542862Y-141844632D01*
X121542862Y-141844632D02*
X121633338Y-141799394D01*
X121633338Y-141799394D02*
X121723815Y-141799394D01*
X121995243Y-142387490D02*
X122085719Y-142432728D01*
X122085719Y-142432728D02*
X122266671Y-142432728D01*
X122266671Y-142432728D02*
X122357148Y-142387490D01*
X122357148Y-142387490D02*
X122402386Y-142297013D01*
X122402386Y-142297013D02*
X122402386Y-142251775D01*
X122402386Y-142251775D02*
X122357148Y-142161299D01*
X122357148Y-142161299D02*
X122266671Y-142116061D01*
X122266671Y-142116061D02*
X122130957Y-142116061D01*
X122130957Y-142116061D02*
X122040481Y-142070823D01*
X122040481Y-142070823D02*
X121995243Y-141980347D01*
X121995243Y-141980347D02*
X121995243Y-141935109D01*
X121995243Y-141935109D02*
X122040481Y-141844632D01*
X122040481Y-141844632D02*
X122130957Y-141799394D01*
X122130957Y-141799394D02*
X122266671Y-141799394D01*
X122266671Y-141799394D02*
X122357148Y-141844632D01*
X122673815Y-141799394D02*
X123035719Y-141799394D01*
X122809529Y-141482728D02*
X122809529Y-142297013D01*
X122809529Y-142297013D02*
X122854767Y-142387490D01*
X122854767Y-142387490D02*
X122945243Y-142432728D01*
X122945243Y-142432728D02*
X123035719Y-142432728D01*
D13*
X82299997Y-60138306D02*
X82299997Y-58738306D01*
X82299997Y-59404973D02*
X83099997Y-59404973D01*
X83099997Y-60138306D02*
X83099997Y-58738306D01*
X83633331Y-59204973D02*
X83966664Y-60138306D01*
X84299997Y-59204973D02*
X83966664Y-60138306D01*
X83966664Y-60138306D02*
X83833331Y-60471640D01*
X83833331Y-60471640D02*
X83766664Y-60538306D01*
X83766664Y-60538306D02*
X83633331Y-60604973D01*
X84833331Y-60138306D02*
X84833331Y-58738306D01*
X84833331Y-59271640D02*
X84966664Y-59204973D01*
X84966664Y-59204973D02*
X85233331Y-59204973D01*
X85233331Y-59204973D02*
X85366664Y-59271640D01*
X85366664Y-59271640D02*
X85433331Y-59338306D01*
X85433331Y-59338306D02*
X85499998Y-59471640D01*
X85499998Y-59471640D02*
X85499998Y-59871640D01*
X85499998Y-59871640D02*
X85433331Y-60004973D01*
X85433331Y-60004973D02*
X85366664Y-60071640D01*
X85366664Y-60071640D02*
X85233331Y-60138306D01*
X85233331Y-60138306D02*
X84966664Y-60138306D01*
X84966664Y-60138306D02*
X84833331Y-60071640D01*
X86099998Y-60138306D02*
X86099998Y-59204973D01*
X86099998Y-59471640D02*
X86166665Y-59338306D01*
X86166665Y-59338306D02*
X86233331Y-59271640D01*
X86233331Y-59271640D02*
X86366665Y-59204973D01*
X86366665Y-59204973D02*
X86499998Y-59204973D01*
X86966665Y-60138306D02*
X86966665Y-59204973D01*
X86966665Y-58738306D02*
X86899998Y-58804973D01*
X86899998Y-58804973D02*
X86966665Y-58871640D01*
X86966665Y-58871640D02*
X87033332Y-58804973D01*
X87033332Y-58804973D02*
X86966665Y-58738306D01*
X86966665Y-58738306D02*
X86966665Y-58871640D01*
X88233332Y-60138306D02*
X88233332Y-58738306D01*
X88233332Y-60071640D02*
X88099999Y-60138306D01*
X88099999Y-60138306D02*
X87833332Y-60138306D01*
X87833332Y-60138306D02*
X87699999Y-60071640D01*
X87699999Y-60071640D02*
X87633332Y-60004973D01*
X87633332Y-60004973D02*
X87566665Y-59871640D01*
X87566665Y-59871640D02*
X87566665Y-59471640D01*
X87566665Y-59471640D02*
X87633332Y-59338306D01*
X87633332Y-59338306D02*
X87699999Y-59271640D01*
X87699999Y-59271640D02*
X87833332Y-59204973D01*
X87833332Y-59204973D02*
X88099999Y-59204973D01*
X88099999Y-59204973D02*
X88233332Y-59271640D01*
X88899999Y-60138306D02*
X88899999Y-58738306D01*
X89566666Y-60138306D02*
X89566666Y-59204973D01*
X89566666Y-59338306D02*
X89633333Y-59271640D01*
X89633333Y-59271640D02*
X89766666Y-59204973D01*
X89766666Y-59204973D02*
X89966666Y-59204973D01*
X89966666Y-59204973D02*
X90099999Y-59271640D01*
X90099999Y-59271640D02*
X90166666Y-59404973D01*
X90166666Y-59404973D02*
X90166666Y-60138306D01*
X90166666Y-59404973D02*
X90233333Y-59271640D01*
X90233333Y-59271640D02*
X90366666Y-59204973D01*
X90366666Y-59204973D02*
X90566666Y-59204973D01*
X90566666Y-59204973D02*
X90699999Y-59271640D01*
X90699999Y-59271640D02*
X90766666Y-59404973D01*
X90766666Y-59404973D02*
X90766666Y-60138306D01*
X92033333Y-60138306D02*
X92033333Y-59404973D01*
X92033333Y-59404973D02*
X91966666Y-59271640D01*
X91966666Y-59271640D02*
X91833333Y-59204973D01*
X91833333Y-59204973D02*
X91566666Y-59204973D01*
X91566666Y-59204973D02*
X91433333Y-59271640D01*
X92033333Y-60071640D02*
X91900000Y-60138306D01*
X91900000Y-60138306D02*
X91566666Y-60138306D01*
X91566666Y-60138306D02*
X91433333Y-60071640D01*
X91433333Y-60071640D02*
X91366666Y-59938306D01*
X91366666Y-59938306D02*
X91366666Y-59804973D01*
X91366666Y-59804973D02*
X91433333Y-59671640D01*
X91433333Y-59671640D02*
X91566666Y-59604973D01*
X91566666Y-59604973D02*
X91900000Y-59604973D01*
X91900000Y-59604973D02*
X92033333Y-59538306D01*
X93300000Y-59204973D02*
X93300000Y-60338306D01*
X93300000Y-60338306D02*
X93233333Y-60471640D01*
X93233333Y-60471640D02*
X93166667Y-60538306D01*
X93166667Y-60538306D02*
X93033333Y-60604973D01*
X93033333Y-60604973D02*
X92833333Y-60604973D01*
X92833333Y-60604973D02*
X92700000Y-60538306D01*
X93300000Y-60071640D02*
X93166667Y-60138306D01*
X93166667Y-60138306D02*
X92900000Y-60138306D01*
X92900000Y-60138306D02*
X92766667Y-60071640D01*
X92766667Y-60071640D02*
X92700000Y-60004973D01*
X92700000Y-60004973D02*
X92633333Y-59871640D01*
X92633333Y-59871640D02*
X92633333Y-59471640D01*
X92633333Y-59471640D02*
X92700000Y-59338306D01*
X92700000Y-59338306D02*
X92766667Y-59271640D01*
X92766667Y-59271640D02*
X92900000Y-59204973D01*
X92900000Y-59204973D02*
X93166667Y-59204973D01*
X93166667Y-59204973D02*
X93300000Y-59271640D01*
X94500000Y-60071640D02*
X94366667Y-60138306D01*
X94366667Y-60138306D02*
X94100000Y-60138306D01*
X94100000Y-60138306D02*
X93966667Y-60071640D01*
X93966667Y-60071640D02*
X93900000Y-59938306D01*
X93900000Y-59938306D02*
X93900000Y-59404973D01*
X93900000Y-59404973D02*
X93966667Y-59271640D01*
X93966667Y-59271640D02*
X94100000Y-59204973D01*
X94100000Y-59204973D02*
X94366667Y-59204973D01*
X94366667Y-59204973D02*
X94500000Y-59271640D01*
X94500000Y-59271640D02*
X94566667Y-59404973D01*
X94566667Y-59404973D02*
X94566667Y-59538306D01*
X94566667Y-59538306D02*
X93900000Y-59671640D01*
X95166667Y-60138306D02*
X95166667Y-59204973D01*
X95166667Y-59471640D02*
X95233334Y-59338306D01*
X95233334Y-59338306D02*
X95300000Y-59271640D01*
X95300000Y-59271640D02*
X95433334Y-59204973D01*
X95433334Y-59204973D02*
X95566667Y-59204973D01*
X96900001Y-58738306D02*
X97366668Y-60138306D01*
X97366668Y-60138306D02*
X97833334Y-58738306D01*
X99033334Y-60138306D02*
X98233334Y-60138306D01*
X98633334Y-60138306D02*
X98633334Y-58738306D01*
X98633334Y-58738306D02*
X98500001Y-58938306D01*
X98500001Y-58938306D02*
X98366668Y-59071640D01*
X98366668Y-59071640D02*
X98233334Y-59138306D01*
X100566668Y-58738306D02*
X100900001Y-60138306D01*
X100900001Y-60138306D02*
X101166668Y-59138306D01*
X101166668Y-59138306D02*
X101433334Y-60138306D01*
X101433334Y-60138306D02*
X101766668Y-58738306D01*
X102833334Y-60071640D02*
X102700001Y-60138306D01*
X102700001Y-60138306D02*
X102433334Y-60138306D01*
X102433334Y-60138306D02*
X102300001Y-60071640D01*
X102300001Y-60071640D02*
X102233334Y-59938306D01*
X102233334Y-59938306D02*
X102233334Y-59404973D01*
X102233334Y-59404973D02*
X102300001Y-59271640D01*
X102300001Y-59271640D02*
X102433334Y-59204973D01*
X102433334Y-59204973D02*
X102700001Y-59204973D01*
X102700001Y-59204973D02*
X102833334Y-59271640D01*
X102833334Y-59271640D02*
X102900001Y-59404973D01*
X102900001Y-59404973D02*
X102900001Y-59538306D01*
X102900001Y-59538306D02*
X102233334Y-59671640D01*
X103500001Y-60138306D02*
X103500001Y-59204973D01*
X103500001Y-58738306D02*
X103433334Y-58804973D01*
X103433334Y-58804973D02*
X103500001Y-58871640D01*
X103500001Y-58871640D02*
X103566668Y-58804973D01*
X103566668Y-58804973D02*
X103500001Y-58738306D01*
X103500001Y-58738306D02*
X103500001Y-58871640D01*
X104766668Y-59204973D02*
X104766668Y-60604973D01*
X104766668Y-60071640D02*
X104633335Y-60138306D01*
X104633335Y-60138306D02*
X104366668Y-60138306D01*
X104366668Y-60138306D02*
X104233335Y-60071640D01*
X104233335Y-60071640D02*
X104166668Y-60004973D01*
X104166668Y-60004973D02*
X104100001Y-59871640D01*
X104100001Y-59871640D02*
X104100001Y-59471640D01*
X104100001Y-59471640D02*
X104166668Y-59338306D01*
X104166668Y-59338306D02*
X104233335Y-59271640D01*
X104233335Y-59271640D02*
X104366668Y-59204973D01*
X104366668Y-59204973D02*
X104633335Y-59204973D01*
X104633335Y-59204973D02*
X104766668Y-59271640D01*
X105433335Y-60138306D02*
X105433335Y-59204973D01*
X105433335Y-58738306D02*
X105366668Y-58804973D01*
X105366668Y-58804973D02*
X105433335Y-58871640D01*
X105433335Y-58871640D02*
X105500002Y-58804973D01*
X105500002Y-58804973D02*
X105433335Y-58738306D01*
X105433335Y-58738306D02*
X105433335Y-58871640D01*
X107100002Y-60071640D02*
X107300002Y-60138306D01*
X107300002Y-60138306D02*
X107633336Y-60138306D01*
X107633336Y-60138306D02*
X107766669Y-60071640D01*
X107766669Y-60071640D02*
X107833336Y-60004973D01*
X107833336Y-60004973D02*
X107900002Y-59871640D01*
X107900002Y-59871640D02*
X107900002Y-59738306D01*
X107900002Y-59738306D02*
X107833336Y-59604973D01*
X107833336Y-59604973D02*
X107766669Y-59538306D01*
X107766669Y-59538306D02*
X107633336Y-59471640D01*
X107633336Y-59471640D02*
X107366669Y-59404973D01*
X107366669Y-59404973D02*
X107233336Y-59338306D01*
X107233336Y-59338306D02*
X107166669Y-59271640D01*
X107166669Y-59271640D02*
X107100002Y-59138306D01*
X107100002Y-59138306D02*
X107100002Y-59004973D01*
X107100002Y-59004973D02*
X107166669Y-58871640D01*
X107166669Y-58871640D02*
X107233336Y-58804973D01*
X107233336Y-58804973D02*
X107366669Y-58738306D01*
X107366669Y-58738306D02*
X107700002Y-58738306D01*
X107700002Y-58738306D02*
X107900002Y-58804973D01*
X108500002Y-59204973D02*
X108500002Y-60604973D01*
X108500002Y-59271640D02*
X108633335Y-59204973D01*
X108633335Y-59204973D02*
X108900002Y-59204973D01*
X108900002Y-59204973D02*
X109033335Y-59271640D01*
X109033335Y-59271640D02*
X109100002Y-59338306D01*
X109100002Y-59338306D02*
X109166669Y-59471640D01*
X109166669Y-59471640D02*
X109166669Y-59871640D01*
X109166669Y-59871640D02*
X109100002Y-60004973D01*
X109100002Y-60004973D02*
X109033335Y-60071640D01*
X109033335Y-60071640D02*
X108900002Y-60138306D01*
X108900002Y-60138306D02*
X108633335Y-60138306D01*
X108633335Y-60138306D02*
X108500002Y-60071640D01*
X110366669Y-60138306D02*
X110366669Y-59404973D01*
X110366669Y-59404973D02*
X110300002Y-59271640D01*
X110300002Y-59271640D02*
X110166669Y-59204973D01*
X110166669Y-59204973D02*
X109900002Y-59204973D01*
X109900002Y-59204973D02*
X109766669Y-59271640D01*
X110366669Y-60071640D02*
X110233336Y-60138306D01*
X110233336Y-60138306D02*
X109900002Y-60138306D01*
X109900002Y-60138306D02*
X109766669Y-60071640D01*
X109766669Y-60071640D02*
X109700002Y-59938306D01*
X109700002Y-59938306D02*
X109700002Y-59804973D01*
X109700002Y-59804973D02*
X109766669Y-59671640D01*
X109766669Y-59671640D02*
X109900002Y-59604973D01*
X109900002Y-59604973D02*
X110233336Y-59604973D01*
X110233336Y-59604973D02*
X110366669Y-59538306D01*
X111033336Y-60138306D02*
X111033336Y-59204973D01*
X111033336Y-59471640D02*
X111100003Y-59338306D01*
X111100003Y-59338306D02*
X111166669Y-59271640D01*
X111166669Y-59271640D02*
X111300003Y-59204973D01*
X111300003Y-59204973D02*
X111433336Y-59204973D01*
X111833336Y-60071640D02*
X111966670Y-60138306D01*
X111966670Y-60138306D02*
X112233336Y-60138306D01*
X112233336Y-60138306D02*
X112366670Y-60071640D01*
X112366670Y-60071640D02*
X112433336Y-59938306D01*
X112433336Y-59938306D02*
X112433336Y-59871640D01*
X112433336Y-59871640D02*
X112366670Y-59738306D01*
X112366670Y-59738306D02*
X112233336Y-59671640D01*
X112233336Y-59671640D02*
X112033336Y-59671640D01*
X112033336Y-59671640D02*
X111900003Y-59604973D01*
X111900003Y-59604973D02*
X111833336Y-59471640D01*
X111833336Y-59471640D02*
X111833336Y-59404973D01*
X111833336Y-59404973D02*
X111900003Y-59271640D01*
X111900003Y-59271640D02*
X112033336Y-59204973D01*
X112033336Y-59204973D02*
X112233336Y-59204973D01*
X112233336Y-59204973D02*
X112366670Y-59271640D01*
X113566669Y-60071640D02*
X113433336Y-60138306D01*
X113433336Y-60138306D02*
X113166669Y-60138306D01*
X113166669Y-60138306D02*
X113033336Y-60071640D01*
X113033336Y-60071640D02*
X112966669Y-59938306D01*
X112966669Y-59938306D02*
X112966669Y-59404973D01*
X112966669Y-59404973D02*
X113033336Y-59271640D01*
X113033336Y-59271640D02*
X113166669Y-59204973D01*
X113166669Y-59204973D02*
X113433336Y-59204973D01*
X113433336Y-59204973D02*
X113566669Y-59271640D01*
X113566669Y-59271640D02*
X113633336Y-59404973D01*
X113633336Y-59404973D02*
X113633336Y-59538306D01*
X113633336Y-59538306D02*
X112966669Y-59671640D01*
X115233336Y-60071640D02*
X115433336Y-60138306D01*
X115433336Y-60138306D02*
X115766670Y-60138306D01*
X115766670Y-60138306D02*
X115900003Y-60071640D01*
X115900003Y-60071640D02*
X115966670Y-60004973D01*
X115966670Y-60004973D02*
X116033336Y-59871640D01*
X116033336Y-59871640D02*
X116033336Y-59738306D01*
X116033336Y-59738306D02*
X115966670Y-59604973D01*
X115966670Y-59604973D02*
X115900003Y-59538306D01*
X115900003Y-59538306D02*
X115766670Y-59471640D01*
X115766670Y-59471640D02*
X115500003Y-59404973D01*
X115500003Y-59404973D02*
X115366670Y-59338306D01*
X115366670Y-59338306D02*
X115300003Y-59271640D01*
X115300003Y-59271640D02*
X115233336Y-59138306D01*
X115233336Y-59138306D02*
X115233336Y-59004973D01*
X115233336Y-59004973D02*
X115300003Y-58871640D01*
X115300003Y-58871640D02*
X115366670Y-58804973D01*
X115366670Y-58804973D02*
X115500003Y-58738306D01*
X115500003Y-58738306D02*
X115833336Y-58738306D01*
X115833336Y-58738306D02*
X116033336Y-58804973D01*
X117166669Y-60071640D02*
X117033336Y-60138306D01*
X117033336Y-60138306D02*
X116766669Y-60138306D01*
X116766669Y-60138306D02*
X116633336Y-60071640D01*
X116633336Y-60071640D02*
X116566669Y-59938306D01*
X116566669Y-59938306D02*
X116566669Y-59404973D01*
X116566669Y-59404973D02*
X116633336Y-59271640D01*
X116633336Y-59271640D02*
X116766669Y-59204973D01*
X116766669Y-59204973D02*
X117033336Y-59204973D01*
X117033336Y-59204973D02*
X117166669Y-59271640D01*
X117166669Y-59271640D02*
X117233336Y-59404973D01*
X117233336Y-59404973D02*
X117233336Y-59538306D01*
X117233336Y-59538306D02*
X116566669Y-59671640D01*
X117833336Y-59204973D02*
X117833336Y-60138306D01*
X117833336Y-59338306D02*
X117900003Y-59271640D01*
X117900003Y-59271640D02*
X118033336Y-59204973D01*
X118033336Y-59204973D02*
X118233336Y-59204973D01*
X118233336Y-59204973D02*
X118366669Y-59271640D01*
X118366669Y-59271640D02*
X118433336Y-59404973D01*
X118433336Y-59404973D02*
X118433336Y-60138306D01*
X119033336Y-60071640D02*
X119166670Y-60138306D01*
X119166670Y-60138306D02*
X119433336Y-60138306D01*
X119433336Y-60138306D02*
X119566670Y-60071640D01*
X119566670Y-60071640D02*
X119633336Y-59938306D01*
X119633336Y-59938306D02*
X119633336Y-59871640D01*
X119633336Y-59871640D02*
X119566670Y-59738306D01*
X119566670Y-59738306D02*
X119433336Y-59671640D01*
X119433336Y-59671640D02*
X119233336Y-59671640D01*
X119233336Y-59671640D02*
X119100003Y-59604973D01*
X119100003Y-59604973D02*
X119033336Y-59471640D01*
X119033336Y-59471640D02*
X119033336Y-59404973D01*
X119033336Y-59404973D02*
X119100003Y-59271640D01*
X119100003Y-59271640D02*
X119233336Y-59204973D01*
X119233336Y-59204973D02*
X119433336Y-59204973D01*
X119433336Y-59204973D02*
X119566670Y-59271640D01*
X120433336Y-60138306D02*
X120300003Y-60071640D01*
X120300003Y-60071640D02*
X120233336Y-60004973D01*
X120233336Y-60004973D02*
X120166669Y-59871640D01*
X120166669Y-59871640D02*
X120166669Y-59471640D01*
X120166669Y-59471640D02*
X120233336Y-59338306D01*
X120233336Y-59338306D02*
X120300003Y-59271640D01*
X120300003Y-59271640D02*
X120433336Y-59204973D01*
X120433336Y-59204973D02*
X120633336Y-59204973D01*
X120633336Y-59204973D02*
X120766669Y-59271640D01*
X120766669Y-59271640D02*
X120833336Y-59338306D01*
X120833336Y-59338306D02*
X120900003Y-59471640D01*
X120900003Y-59471640D02*
X120900003Y-59871640D01*
X120900003Y-59871640D02*
X120833336Y-60004973D01*
X120833336Y-60004973D02*
X120766669Y-60071640D01*
X120766669Y-60071640D02*
X120633336Y-60138306D01*
X120633336Y-60138306D02*
X120433336Y-60138306D01*
X121500003Y-60138306D02*
X121500003Y-59204973D01*
X121500003Y-59471640D02*
X121566670Y-59338306D01*
X121566670Y-59338306D02*
X121633336Y-59271640D01*
X121633336Y-59271640D02*
X121766670Y-59204973D01*
X121766670Y-59204973D02*
X121900003Y-59204973D01*
D11*
X114957142Y-70710117D02*
X114957142Y-69810117D01*
X114957142Y-69810117D02*
X115299999Y-69810117D01*
X115299999Y-69810117D02*
X115385714Y-69852974D01*
X115385714Y-69852974D02*
X115428571Y-69895831D01*
X115428571Y-69895831D02*
X115471428Y-69981545D01*
X115471428Y-69981545D02*
X115471428Y-70110117D01*
X115471428Y-70110117D02*
X115428571Y-70195831D01*
X115428571Y-70195831D02*
X115385714Y-70238688D01*
X115385714Y-70238688D02*
X115299999Y-70281545D01*
X115299999Y-70281545D02*
X114957142Y-70281545D01*
X115857142Y-70710117D02*
X115857142Y-69810117D01*
X115857142Y-69810117D02*
X116071428Y-69810117D01*
X116071428Y-69810117D02*
X116199999Y-69852974D01*
X116199999Y-69852974D02*
X116285714Y-69938688D01*
X116285714Y-69938688D02*
X116328571Y-70024402D01*
X116328571Y-70024402D02*
X116371428Y-70195831D01*
X116371428Y-70195831D02*
X116371428Y-70324402D01*
X116371428Y-70324402D02*
X116328571Y-70495831D01*
X116328571Y-70495831D02*
X116285714Y-70581545D01*
X116285714Y-70581545D02*
X116199999Y-70667260D01*
X116199999Y-70667260D02*
X116071428Y-70710117D01*
X116071428Y-70710117D02*
X115857142Y-70710117D01*
X116928571Y-69810117D02*
X117014285Y-69810117D01*
X117014285Y-69810117D02*
X117099999Y-69852974D01*
X117099999Y-69852974D02*
X117142857Y-69895831D01*
X117142857Y-69895831D02*
X117185714Y-69981545D01*
X117185714Y-69981545D02*
X117228571Y-70152974D01*
X117228571Y-70152974D02*
X117228571Y-70367260D01*
X117228571Y-70367260D02*
X117185714Y-70538688D01*
X117185714Y-70538688D02*
X117142857Y-70624402D01*
X117142857Y-70624402D02*
X117099999Y-70667260D01*
X117099999Y-70667260D02*
X117014285Y-70710117D01*
X117014285Y-70710117D02*
X116928571Y-70710117D01*
X116928571Y-70710117D02*
X116842857Y-70667260D01*
X116842857Y-70667260D02*
X116799999Y-70624402D01*
X116799999Y-70624402D02*
X116757142Y-70538688D01*
X116757142Y-70538688D02*
X116714285Y-70367260D01*
X116714285Y-70367260D02*
X116714285Y-70152974D01*
X116714285Y-70152974D02*
X116757142Y-69981545D01*
X116757142Y-69981545D02*
X116799999Y-69895831D01*
X116799999Y-69895831D02*
X116842857Y-69852974D01*
X116842857Y-69852974D02*
X116928571Y-69810117D01*
X117528571Y-69810117D02*
X118085714Y-69810117D01*
X118085714Y-69810117D02*
X117785714Y-70152974D01*
X117785714Y-70152974D02*
X117914285Y-70152974D01*
X117914285Y-70152974D02*
X118000000Y-70195831D01*
X118000000Y-70195831D02*
X118042857Y-70238688D01*
X118042857Y-70238688D02*
X118085714Y-70324402D01*
X118085714Y-70324402D02*
X118085714Y-70538688D01*
X118085714Y-70538688D02*
X118042857Y-70624402D01*
X118042857Y-70624402D02*
X118000000Y-70667260D01*
X118000000Y-70667260D02*
X117914285Y-70710117D01*
X117914285Y-70710117D02*
X117657142Y-70710117D01*
X117657142Y-70710117D02*
X117571428Y-70667260D01*
X117571428Y-70667260D02*
X117528571Y-70624402D01*
X63957142Y-96210117D02*
X63957142Y-95310117D01*
X63957142Y-95310117D02*
X64299999Y-95310117D01*
X64299999Y-95310117D02*
X64385714Y-95352974D01*
X64385714Y-95352974D02*
X64428571Y-95395831D01*
X64428571Y-95395831D02*
X64471428Y-95481545D01*
X64471428Y-95481545D02*
X64471428Y-95610117D01*
X64471428Y-95610117D02*
X64428571Y-95695831D01*
X64428571Y-95695831D02*
X64385714Y-95738688D01*
X64385714Y-95738688D02*
X64299999Y-95781545D01*
X64299999Y-95781545D02*
X63957142Y-95781545D01*
X64857142Y-96210117D02*
X64857142Y-95310117D01*
X64857142Y-95310117D02*
X65071428Y-95310117D01*
X65071428Y-95310117D02*
X65199999Y-95352974D01*
X65199999Y-95352974D02*
X65285714Y-95438688D01*
X65285714Y-95438688D02*
X65328571Y-95524402D01*
X65328571Y-95524402D02*
X65371428Y-95695831D01*
X65371428Y-95695831D02*
X65371428Y-95824402D01*
X65371428Y-95824402D02*
X65328571Y-95995831D01*
X65328571Y-95995831D02*
X65285714Y-96081545D01*
X65285714Y-96081545D02*
X65199999Y-96167260D01*
X65199999Y-96167260D02*
X65071428Y-96210117D01*
X65071428Y-96210117D02*
X64857142Y-96210117D01*
X65928571Y-95310117D02*
X66014285Y-95310117D01*
X66014285Y-95310117D02*
X66099999Y-95352974D01*
X66099999Y-95352974D02*
X66142857Y-95395831D01*
X66142857Y-95395831D02*
X66185714Y-95481545D01*
X66185714Y-95481545D02*
X66228571Y-95652974D01*
X66228571Y-95652974D02*
X66228571Y-95867260D01*
X66228571Y-95867260D02*
X66185714Y-96038688D01*
X66185714Y-96038688D02*
X66142857Y-96124402D01*
X66142857Y-96124402D02*
X66099999Y-96167260D01*
X66099999Y-96167260D02*
X66014285Y-96210117D01*
X66014285Y-96210117D02*
X65928571Y-96210117D01*
X65928571Y-96210117D02*
X65842857Y-96167260D01*
X65842857Y-96167260D02*
X65799999Y-96124402D01*
X65799999Y-96124402D02*
X65757142Y-96038688D01*
X65757142Y-96038688D02*
X65714285Y-95867260D01*
X65714285Y-95867260D02*
X65714285Y-95652974D01*
X65714285Y-95652974D02*
X65757142Y-95481545D01*
X65757142Y-95481545D02*
X65799999Y-95395831D01*
X65799999Y-95395831D02*
X65842857Y-95352974D01*
X65842857Y-95352974D02*
X65928571Y-95310117D01*
X66657142Y-96210117D02*
X66828571Y-96210117D01*
X66828571Y-96210117D02*
X66914285Y-96167260D01*
X66914285Y-96167260D02*
X66957142Y-96124402D01*
X66957142Y-96124402D02*
X67042857Y-95995831D01*
X67042857Y-95995831D02*
X67085714Y-95824402D01*
X67085714Y-95824402D02*
X67085714Y-95481545D01*
X67085714Y-95481545D02*
X67042857Y-95395831D01*
X67042857Y-95395831D02*
X67000000Y-95352974D01*
X67000000Y-95352974D02*
X66914285Y-95310117D01*
X66914285Y-95310117D02*
X66742857Y-95310117D01*
X66742857Y-95310117D02*
X66657142Y-95352974D01*
X66657142Y-95352974D02*
X66614285Y-95395831D01*
X66614285Y-95395831D02*
X66571428Y-95481545D01*
X66571428Y-95481545D02*
X66571428Y-95695831D01*
X66571428Y-95695831D02*
X66614285Y-95781545D01*
X66614285Y-95781545D02*
X66657142Y-95824402D01*
X66657142Y-95824402D02*
X66742857Y-95867260D01*
X66742857Y-95867260D02*
X66914285Y-95867260D01*
X66914285Y-95867260D02*
X67000000Y-95824402D01*
X67000000Y-95824402D02*
X67042857Y-95781545D01*
X67042857Y-95781545D02*
X67085714Y-95695831D01*
X114957142Y-121710117D02*
X114957142Y-120810117D01*
X114957142Y-120810117D02*
X115299999Y-120810117D01*
X115299999Y-120810117D02*
X115385714Y-120852974D01*
X115385714Y-120852974D02*
X115428571Y-120895831D01*
X115428571Y-120895831D02*
X115471428Y-120981545D01*
X115471428Y-120981545D02*
X115471428Y-121110117D01*
X115471428Y-121110117D02*
X115428571Y-121195831D01*
X115428571Y-121195831D02*
X115385714Y-121238688D01*
X115385714Y-121238688D02*
X115299999Y-121281545D01*
X115299999Y-121281545D02*
X114957142Y-121281545D01*
X115857142Y-121710117D02*
X115857142Y-120810117D01*
X115857142Y-120810117D02*
X116071428Y-120810117D01*
X116071428Y-120810117D02*
X116199999Y-120852974D01*
X116199999Y-120852974D02*
X116285714Y-120938688D01*
X116285714Y-120938688D02*
X116328571Y-121024402D01*
X116328571Y-121024402D02*
X116371428Y-121195831D01*
X116371428Y-121195831D02*
X116371428Y-121324402D01*
X116371428Y-121324402D02*
X116328571Y-121495831D01*
X116328571Y-121495831D02*
X116285714Y-121581545D01*
X116285714Y-121581545D02*
X116199999Y-121667260D01*
X116199999Y-121667260D02*
X116071428Y-121710117D01*
X116071428Y-121710117D02*
X115857142Y-121710117D01*
X116714285Y-120895831D02*
X116757142Y-120852974D01*
X116757142Y-120852974D02*
X116842857Y-120810117D01*
X116842857Y-120810117D02*
X117057142Y-120810117D01*
X117057142Y-120810117D02*
X117142857Y-120852974D01*
X117142857Y-120852974D02*
X117185714Y-120895831D01*
X117185714Y-120895831D02*
X117228571Y-120981545D01*
X117228571Y-120981545D02*
X117228571Y-121067260D01*
X117228571Y-121067260D02*
X117185714Y-121195831D01*
X117185714Y-121195831D02*
X116671428Y-121710117D01*
X116671428Y-121710117D02*
X117228571Y-121710117D01*
X117785714Y-120810117D02*
X117871428Y-120810117D01*
X117871428Y-120810117D02*
X117957142Y-120852974D01*
X117957142Y-120852974D02*
X118000000Y-120895831D01*
X118000000Y-120895831D02*
X118042857Y-120981545D01*
X118042857Y-120981545D02*
X118085714Y-121152974D01*
X118085714Y-121152974D02*
X118085714Y-121367260D01*
X118085714Y-121367260D02*
X118042857Y-121538688D01*
X118042857Y-121538688D02*
X118000000Y-121624402D01*
X118000000Y-121624402D02*
X117957142Y-121667260D01*
X117957142Y-121667260D02*
X117871428Y-121710117D01*
X117871428Y-121710117D02*
X117785714Y-121710117D01*
X117785714Y-121710117D02*
X117700000Y-121667260D01*
X117700000Y-121667260D02*
X117657142Y-121624402D01*
X117657142Y-121624402D02*
X117614285Y-121538688D01*
X117614285Y-121538688D02*
X117571428Y-121367260D01*
X117571428Y-121367260D02*
X117571428Y-121152974D01*
X117571428Y-121152974D02*
X117614285Y-120981545D01*
X117614285Y-120981545D02*
X117657142Y-120895831D01*
X117657142Y-120895831D02*
X117700000Y-120852974D01*
X117700000Y-120852974D02*
X117785714Y-120810117D01*
X82700000Y-131010117D02*
X82700000Y-131652974D01*
X82700000Y-131652974D02*
X82657143Y-131781545D01*
X82657143Y-131781545D02*
X82571429Y-131867260D01*
X82571429Y-131867260D02*
X82442857Y-131910117D01*
X82442857Y-131910117D02*
X82357143Y-131910117D01*
X83514286Y-131310117D02*
X83514286Y-131910117D01*
X83300000Y-130967260D02*
X83085714Y-131610117D01*
X83085714Y-131610117D02*
X83642857Y-131610117D01*
X97957142Y-96210117D02*
X97957142Y-95310117D01*
X97957142Y-95310117D02*
X98299999Y-95310117D01*
X98299999Y-95310117D02*
X98385714Y-95352974D01*
X98385714Y-95352974D02*
X98428571Y-95395831D01*
X98428571Y-95395831D02*
X98471428Y-95481545D01*
X98471428Y-95481545D02*
X98471428Y-95610117D01*
X98471428Y-95610117D02*
X98428571Y-95695831D01*
X98428571Y-95695831D02*
X98385714Y-95738688D01*
X98385714Y-95738688D02*
X98299999Y-95781545D01*
X98299999Y-95781545D02*
X97957142Y-95781545D01*
X98857142Y-96210117D02*
X98857142Y-95310117D01*
X98857142Y-95310117D02*
X99071428Y-95310117D01*
X99071428Y-95310117D02*
X99199999Y-95352974D01*
X99199999Y-95352974D02*
X99285714Y-95438688D01*
X99285714Y-95438688D02*
X99328571Y-95524402D01*
X99328571Y-95524402D02*
X99371428Y-95695831D01*
X99371428Y-95695831D02*
X99371428Y-95824402D01*
X99371428Y-95824402D02*
X99328571Y-95995831D01*
X99328571Y-95995831D02*
X99285714Y-96081545D01*
X99285714Y-96081545D02*
X99199999Y-96167260D01*
X99199999Y-96167260D02*
X99071428Y-96210117D01*
X99071428Y-96210117D02*
X98857142Y-96210117D01*
X100228571Y-96210117D02*
X99714285Y-96210117D01*
X99971428Y-96210117D02*
X99971428Y-95310117D01*
X99971428Y-95310117D02*
X99885714Y-95438688D01*
X99885714Y-95438688D02*
X99799999Y-95524402D01*
X99799999Y-95524402D02*
X99714285Y-95567260D01*
X101085714Y-96210117D02*
X100571428Y-96210117D01*
X100828571Y-96210117D02*
X100828571Y-95310117D01*
X100828571Y-95310117D02*
X100742857Y-95438688D01*
X100742857Y-95438688D02*
X100657142Y-95524402D01*
X100657142Y-95524402D02*
X100571428Y-95567260D01*
X97957142Y-113210117D02*
X97957142Y-112310117D01*
X97957142Y-112310117D02*
X98299999Y-112310117D01*
X98299999Y-112310117D02*
X98385714Y-112352974D01*
X98385714Y-112352974D02*
X98428571Y-112395831D01*
X98428571Y-112395831D02*
X98471428Y-112481545D01*
X98471428Y-112481545D02*
X98471428Y-112610117D01*
X98471428Y-112610117D02*
X98428571Y-112695831D01*
X98428571Y-112695831D02*
X98385714Y-112738688D01*
X98385714Y-112738688D02*
X98299999Y-112781545D01*
X98299999Y-112781545D02*
X97957142Y-112781545D01*
X98857142Y-113210117D02*
X98857142Y-112310117D01*
X98857142Y-112310117D02*
X99071428Y-112310117D01*
X99071428Y-112310117D02*
X99199999Y-112352974D01*
X99199999Y-112352974D02*
X99285714Y-112438688D01*
X99285714Y-112438688D02*
X99328571Y-112524402D01*
X99328571Y-112524402D02*
X99371428Y-112695831D01*
X99371428Y-112695831D02*
X99371428Y-112824402D01*
X99371428Y-112824402D02*
X99328571Y-112995831D01*
X99328571Y-112995831D02*
X99285714Y-113081545D01*
X99285714Y-113081545D02*
X99199999Y-113167260D01*
X99199999Y-113167260D02*
X99071428Y-113210117D01*
X99071428Y-113210117D02*
X98857142Y-113210117D01*
X100228571Y-113210117D02*
X99714285Y-113210117D01*
X99971428Y-113210117D02*
X99971428Y-112310117D01*
X99971428Y-112310117D02*
X99885714Y-112438688D01*
X99885714Y-112438688D02*
X99799999Y-112524402D01*
X99799999Y-112524402D02*
X99714285Y-112567260D01*
X100528571Y-112310117D02*
X101128571Y-112310117D01*
X101128571Y-112310117D02*
X100742857Y-113210117D01*
X89457142Y-104710117D02*
X89457142Y-103810117D01*
X89457142Y-103810117D02*
X89799999Y-103810117D01*
X89799999Y-103810117D02*
X89885714Y-103852974D01*
X89885714Y-103852974D02*
X89928571Y-103895831D01*
X89928571Y-103895831D02*
X89971428Y-103981545D01*
X89971428Y-103981545D02*
X89971428Y-104110117D01*
X89971428Y-104110117D02*
X89928571Y-104195831D01*
X89928571Y-104195831D02*
X89885714Y-104238688D01*
X89885714Y-104238688D02*
X89799999Y-104281545D01*
X89799999Y-104281545D02*
X89457142Y-104281545D01*
X90357142Y-104710117D02*
X90357142Y-103810117D01*
X90357142Y-103810117D02*
X90571428Y-103810117D01*
X90571428Y-103810117D02*
X90699999Y-103852974D01*
X90699999Y-103852974D02*
X90785714Y-103938688D01*
X90785714Y-103938688D02*
X90828571Y-104024402D01*
X90828571Y-104024402D02*
X90871428Y-104195831D01*
X90871428Y-104195831D02*
X90871428Y-104324402D01*
X90871428Y-104324402D02*
X90828571Y-104495831D01*
X90828571Y-104495831D02*
X90785714Y-104581545D01*
X90785714Y-104581545D02*
X90699999Y-104667260D01*
X90699999Y-104667260D02*
X90571428Y-104710117D01*
X90571428Y-104710117D02*
X90357142Y-104710117D01*
X91728571Y-104710117D02*
X91214285Y-104710117D01*
X91471428Y-104710117D02*
X91471428Y-103810117D01*
X91471428Y-103810117D02*
X91385714Y-103938688D01*
X91385714Y-103938688D02*
X91299999Y-104024402D01*
X91299999Y-104024402D02*
X91214285Y-104067260D01*
X92500000Y-104110117D02*
X92500000Y-104710117D01*
X92285714Y-103767260D02*
X92071428Y-104410117D01*
X92071428Y-104410117D02*
X92628571Y-104410117D01*
X72457142Y-87710117D02*
X72457142Y-86810117D01*
X72457142Y-86810117D02*
X72799999Y-86810117D01*
X72799999Y-86810117D02*
X72885714Y-86852974D01*
X72885714Y-86852974D02*
X72928571Y-86895831D01*
X72928571Y-86895831D02*
X72971428Y-86981545D01*
X72971428Y-86981545D02*
X72971428Y-87110117D01*
X72971428Y-87110117D02*
X72928571Y-87195831D01*
X72928571Y-87195831D02*
X72885714Y-87238688D01*
X72885714Y-87238688D02*
X72799999Y-87281545D01*
X72799999Y-87281545D02*
X72457142Y-87281545D01*
X73357142Y-87710117D02*
X73357142Y-86810117D01*
X73357142Y-86810117D02*
X73571428Y-86810117D01*
X73571428Y-86810117D02*
X73699999Y-86852974D01*
X73699999Y-86852974D02*
X73785714Y-86938688D01*
X73785714Y-86938688D02*
X73828571Y-87024402D01*
X73828571Y-87024402D02*
X73871428Y-87195831D01*
X73871428Y-87195831D02*
X73871428Y-87324402D01*
X73871428Y-87324402D02*
X73828571Y-87495831D01*
X73828571Y-87495831D02*
X73785714Y-87581545D01*
X73785714Y-87581545D02*
X73699999Y-87667260D01*
X73699999Y-87667260D02*
X73571428Y-87710117D01*
X73571428Y-87710117D02*
X73357142Y-87710117D01*
X74428571Y-86810117D02*
X74514285Y-86810117D01*
X74514285Y-86810117D02*
X74599999Y-86852974D01*
X74599999Y-86852974D02*
X74642857Y-86895831D01*
X74642857Y-86895831D02*
X74685714Y-86981545D01*
X74685714Y-86981545D02*
X74728571Y-87152974D01*
X74728571Y-87152974D02*
X74728571Y-87367260D01*
X74728571Y-87367260D02*
X74685714Y-87538688D01*
X74685714Y-87538688D02*
X74642857Y-87624402D01*
X74642857Y-87624402D02*
X74599999Y-87667260D01*
X74599999Y-87667260D02*
X74514285Y-87710117D01*
X74514285Y-87710117D02*
X74428571Y-87710117D01*
X74428571Y-87710117D02*
X74342857Y-87667260D01*
X74342857Y-87667260D02*
X74299999Y-87624402D01*
X74299999Y-87624402D02*
X74257142Y-87538688D01*
X74257142Y-87538688D02*
X74214285Y-87367260D01*
X74214285Y-87367260D02*
X74214285Y-87152974D01*
X74214285Y-87152974D02*
X74257142Y-86981545D01*
X74257142Y-86981545D02*
X74299999Y-86895831D01*
X74299999Y-86895831D02*
X74342857Y-86852974D01*
X74342857Y-86852974D02*
X74428571Y-86810117D01*
X75500000Y-86810117D02*
X75328571Y-86810117D01*
X75328571Y-86810117D02*
X75242857Y-86852974D01*
X75242857Y-86852974D02*
X75200000Y-86895831D01*
X75200000Y-86895831D02*
X75114285Y-87024402D01*
X75114285Y-87024402D02*
X75071428Y-87195831D01*
X75071428Y-87195831D02*
X75071428Y-87538688D01*
X75071428Y-87538688D02*
X75114285Y-87624402D01*
X75114285Y-87624402D02*
X75157142Y-87667260D01*
X75157142Y-87667260D02*
X75242857Y-87710117D01*
X75242857Y-87710117D02*
X75414285Y-87710117D01*
X75414285Y-87710117D02*
X75500000Y-87667260D01*
X75500000Y-87667260D02*
X75542857Y-87624402D01*
X75542857Y-87624402D02*
X75585714Y-87538688D01*
X75585714Y-87538688D02*
X75585714Y-87324402D01*
X75585714Y-87324402D02*
X75542857Y-87238688D01*
X75542857Y-87238688D02*
X75500000Y-87195831D01*
X75500000Y-87195831D02*
X75414285Y-87152974D01*
X75414285Y-87152974D02*
X75242857Y-87152974D01*
X75242857Y-87152974D02*
X75157142Y-87195831D01*
X75157142Y-87195831D02*
X75114285Y-87238688D01*
X75114285Y-87238688D02*
X75071428Y-87324402D01*
X123314285Y-75510117D02*
X123314285Y-76238688D01*
X123314285Y-76238688D02*
X123357142Y-76324402D01*
X123357142Y-76324402D02*
X123400000Y-76367260D01*
X123400000Y-76367260D02*
X123485714Y-76410117D01*
X123485714Y-76410117D02*
X123657142Y-76410117D01*
X123657142Y-76410117D02*
X123742857Y-76367260D01*
X123742857Y-76367260D02*
X123785714Y-76324402D01*
X123785714Y-76324402D02*
X123828571Y-76238688D01*
X123828571Y-76238688D02*
X123828571Y-75510117D01*
X124728571Y-76410117D02*
X124214285Y-76410117D01*
X124471428Y-76410117D02*
X124471428Y-75510117D01*
X124471428Y-75510117D02*
X124385714Y-75638688D01*
X124385714Y-75638688D02*
X124299999Y-75724402D01*
X124299999Y-75724402D02*
X124214285Y-75767260D01*
X80957142Y-113210117D02*
X80957142Y-112310117D01*
X80957142Y-112310117D02*
X81299999Y-112310117D01*
X81299999Y-112310117D02*
X81385714Y-112352974D01*
X81385714Y-112352974D02*
X81428571Y-112395831D01*
X81428571Y-112395831D02*
X81471428Y-112481545D01*
X81471428Y-112481545D02*
X81471428Y-112610117D01*
X81471428Y-112610117D02*
X81428571Y-112695831D01*
X81428571Y-112695831D02*
X81385714Y-112738688D01*
X81385714Y-112738688D02*
X81299999Y-112781545D01*
X81299999Y-112781545D02*
X80957142Y-112781545D01*
X81857142Y-113210117D02*
X81857142Y-112310117D01*
X81857142Y-112310117D02*
X82071428Y-112310117D01*
X82071428Y-112310117D02*
X82199999Y-112352974D01*
X82199999Y-112352974D02*
X82285714Y-112438688D01*
X82285714Y-112438688D02*
X82328571Y-112524402D01*
X82328571Y-112524402D02*
X82371428Y-112695831D01*
X82371428Y-112695831D02*
X82371428Y-112824402D01*
X82371428Y-112824402D02*
X82328571Y-112995831D01*
X82328571Y-112995831D02*
X82285714Y-113081545D01*
X82285714Y-113081545D02*
X82199999Y-113167260D01*
X82199999Y-113167260D02*
X82071428Y-113210117D01*
X82071428Y-113210117D02*
X81857142Y-113210117D01*
X83228571Y-113210117D02*
X82714285Y-113210117D01*
X82971428Y-113210117D02*
X82971428Y-112310117D01*
X82971428Y-112310117D02*
X82885714Y-112438688D01*
X82885714Y-112438688D02*
X82799999Y-112524402D01*
X82799999Y-112524402D02*
X82714285Y-112567260D01*
X84000000Y-112310117D02*
X83828571Y-112310117D01*
X83828571Y-112310117D02*
X83742857Y-112352974D01*
X83742857Y-112352974D02*
X83700000Y-112395831D01*
X83700000Y-112395831D02*
X83614285Y-112524402D01*
X83614285Y-112524402D02*
X83571428Y-112695831D01*
X83571428Y-112695831D02*
X83571428Y-113038688D01*
X83571428Y-113038688D02*
X83614285Y-113124402D01*
X83614285Y-113124402D02*
X83657142Y-113167260D01*
X83657142Y-113167260D02*
X83742857Y-113210117D01*
X83742857Y-113210117D02*
X83914285Y-113210117D01*
X83914285Y-113210117D02*
X84000000Y-113167260D01*
X84000000Y-113167260D02*
X84042857Y-113124402D01*
X84042857Y-113124402D02*
X84085714Y-113038688D01*
X84085714Y-113038688D02*
X84085714Y-112824402D01*
X84085714Y-112824402D02*
X84042857Y-112738688D01*
X84042857Y-112738688D02*
X84000000Y-112695831D01*
X84000000Y-112695831D02*
X83914285Y-112652974D01*
X83914285Y-112652974D02*
X83742857Y-112652974D01*
X83742857Y-112652974D02*
X83657142Y-112695831D01*
X83657142Y-112695831D02*
X83614285Y-112738688D01*
X83614285Y-112738688D02*
X83571428Y-112824402D01*
X114957142Y-96210117D02*
X114957142Y-95310117D01*
X114957142Y-95310117D02*
X115299999Y-95310117D01*
X115299999Y-95310117D02*
X115385714Y-95352974D01*
X115385714Y-95352974D02*
X115428571Y-95395831D01*
X115428571Y-95395831D02*
X115471428Y-95481545D01*
X115471428Y-95481545D02*
X115471428Y-95610117D01*
X115471428Y-95610117D02*
X115428571Y-95695831D01*
X115428571Y-95695831D02*
X115385714Y-95738688D01*
X115385714Y-95738688D02*
X115299999Y-95781545D01*
X115299999Y-95781545D02*
X114957142Y-95781545D01*
X115857142Y-96210117D02*
X115857142Y-95310117D01*
X115857142Y-95310117D02*
X116071428Y-95310117D01*
X116071428Y-95310117D02*
X116199999Y-95352974D01*
X116199999Y-95352974D02*
X116285714Y-95438688D01*
X116285714Y-95438688D02*
X116328571Y-95524402D01*
X116328571Y-95524402D02*
X116371428Y-95695831D01*
X116371428Y-95695831D02*
X116371428Y-95824402D01*
X116371428Y-95824402D02*
X116328571Y-95995831D01*
X116328571Y-95995831D02*
X116285714Y-96081545D01*
X116285714Y-96081545D02*
X116199999Y-96167260D01*
X116199999Y-96167260D02*
X116071428Y-96210117D01*
X116071428Y-96210117D02*
X115857142Y-96210117D01*
X117228571Y-96210117D02*
X116714285Y-96210117D01*
X116971428Y-96210117D02*
X116971428Y-95310117D01*
X116971428Y-95310117D02*
X116885714Y-95438688D01*
X116885714Y-95438688D02*
X116799999Y-95524402D01*
X116799999Y-95524402D02*
X116714285Y-95567260D01*
X117571428Y-95395831D02*
X117614285Y-95352974D01*
X117614285Y-95352974D02*
X117700000Y-95310117D01*
X117700000Y-95310117D02*
X117914285Y-95310117D01*
X117914285Y-95310117D02*
X118000000Y-95352974D01*
X118000000Y-95352974D02*
X118042857Y-95395831D01*
X118042857Y-95395831D02*
X118085714Y-95481545D01*
X118085714Y-95481545D02*
X118085714Y-95567260D01*
X118085714Y-95567260D02*
X118042857Y-95695831D01*
X118042857Y-95695831D02*
X117528571Y-96210117D01*
X117528571Y-96210117D02*
X118085714Y-96210117D01*
X89457142Y-96210117D02*
X89457142Y-95310117D01*
X89457142Y-95310117D02*
X89799999Y-95310117D01*
X89799999Y-95310117D02*
X89885714Y-95352974D01*
X89885714Y-95352974D02*
X89928571Y-95395831D01*
X89928571Y-95395831D02*
X89971428Y-95481545D01*
X89971428Y-95481545D02*
X89971428Y-95610117D01*
X89971428Y-95610117D02*
X89928571Y-95695831D01*
X89928571Y-95695831D02*
X89885714Y-95738688D01*
X89885714Y-95738688D02*
X89799999Y-95781545D01*
X89799999Y-95781545D02*
X89457142Y-95781545D01*
X90357142Y-96210117D02*
X90357142Y-95310117D01*
X90357142Y-95310117D02*
X90571428Y-95310117D01*
X90571428Y-95310117D02*
X90699999Y-95352974D01*
X90699999Y-95352974D02*
X90785714Y-95438688D01*
X90785714Y-95438688D02*
X90828571Y-95524402D01*
X90828571Y-95524402D02*
X90871428Y-95695831D01*
X90871428Y-95695831D02*
X90871428Y-95824402D01*
X90871428Y-95824402D02*
X90828571Y-95995831D01*
X90828571Y-95995831D02*
X90785714Y-96081545D01*
X90785714Y-96081545D02*
X90699999Y-96167260D01*
X90699999Y-96167260D02*
X90571428Y-96210117D01*
X90571428Y-96210117D02*
X90357142Y-96210117D01*
X91214285Y-95395831D02*
X91257142Y-95352974D01*
X91257142Y-95352974D02*
X91342857Y-95310117D01*
X91342857Y-95310117D02*
X91557142Y-95310117D01*
X91557142Y-95310117D02*
X91642857Y-95352974D01*
X91642857Y-95352974D02*
X91685714Y-95395831D01*
X91685714Y-95395831D02*
X91728571Y-95481545D01*
X91728571Y-95481545D02*
X91728571Y-95567260D01*
X91728571Y-95567260D02*
X91685714Y-95695831D01*
X91685714Y-95695831D02*
X91171428Y-96210117D01*
X91171428Y-96210117D02*
X91728571Y-96210117D01*
X92585714Y-96210117D02*
X92071428Y-96210117D01*
X92328571Y-96210117D02*
X92328571Y-95310117D01*
X92328571Y-95310117D02*
X92242857Y-95438688D01*
X92242857Y-95438688D02*
X92157142Y-95524402D01*
X92157142Y-95524402D02*
X92071428Y-95567260D01*
X80957142Y-79210117D02*
X80957142Y-78310117D01*
X80957142Y-78310117D02*
X81299999Y-78310117D01*
X81299999Y-78310117D02*
X81385714Y-78352974D01*
X81385714Y-78352974D02*
X81428571Y-78395831D01*
X81428571Y-78395831D02*
X81471428Y-78481545D01*
X81471428Y-78481545D02*
X81471428Y-78610117D01*
X81471428Y-78610117D02*
X81428571Y-78695831D01*
X81428571Y-78695831D02*
X81385714Y-78738688D01*
X81385714Y-78738688D02*
X81299999Y-78781545D01*
X81299999Y-78781545D02*
X80957142Y-78781545D01*
X81857142Y-79210117D02*
X81857142Y-78310117D01*
X81857142Y-78310117D02*
X82071428Y-78310117D01*
X82071428Y-78310117D02*
X82199999Y-78352974D01*
X82199999Y-78352974D02*
X82285714Y-78438688D01*
X82285714Y-78438688D02*
X82328571Y-78524402D01*
X82328571Y-78524402D02*
X82371428Y-78695831D01*
X82371428Y-78695831D02*
X82371428Y-78824402D01*
X82371428Y-78824402D02*
X82328571Y-78995831D01*
X82328571Y-78995831D02*
X82285714Y-79081545D01*
X82285714Y-79081545D02*
X82199999Y-79167260D01*
X82199999Y-79167260D02*
X82071428Y-79210117D01*
X82071428Y-79210117D02*
X81857142Y-79210117D01*
X82928571Y-78310117D02*
X83014285Y-78310117D01*
X83014285Y-78310117D02*
X83099999Y-78352974D01*
X83099999Y-78352974D02*
X83142857Y-78395831D01*
X83142857Y-78395831D02*
X83185714Y-78481545D01*
X83185714Y-78481545D02*
X83228571Y-78652974D01*
X83228571Y-78652974D02*
X83228571Y-78867260D01*
X83228571Y-78867260D02*
X83185714Y-79038688D01*
X83185714Y-79038688D02*
X83142857Y-79124402D01*
X83142857Y-79124402D02*
X83099999Y-79167260D01*
X83099999Y-79167260D02*
X83014285Y-79210117D01*
X83014285Y-79210117D02*
X82928571Y-79210117D01*
X82928571Y-79210117D02*
X82842857Y-79167260D01*
X82842857Y-79167260D02*
X82799999Y-79124402D01*
X82799999Y-79124402D02*
X82757142Y-79038688D01*
X82757142Y-79038688D02*
X82714285Y-78867260D01*
X82714285Y-78867260D02*
X82714285Y-78652974D01*
X82714285Y-78652974D02*
X82757142Y-78481545D01*
X82757142Y-78481545D02*
X82799999Y-78395831D01*
X82799999Y-78395831D02*
X82842857Y-78352974D01*
X82842857Y-78352974D02*
X82928571Y-78310117D01*
X84000000Y-78610117D02*
X84000000Y-79210117D01*
X83785714Y-78267260D02*
X83571428Y-78910117D01*
X83571428Y-78910117D02*
X84128571Y-78910117D01*
X63957142Y-70710117D02*
X63957142Y-69810117D01*
X63957142Y-69810117D02*
X64299999Y-69810117D01*
X64299999Y-69810117D02*
X64385714Y-69852974D01*
X64385714Y-69852974D02*
X64428571Y-69895831D01*
X64428571Y-69895831D02*
X64471428Y-69981545D01*
X64471428Y-69981545D02*
X64471428Y-70110117D01*
X64471428Y-70110117D02*
X64428571Y-70195831D01*
X64428571Y-70195831D02*
X64385714Y-70238688D01*
X64385714Y-70238688D02*
X64299999Y-70281545D01*
X64299999Y-70281545D02*
X63957142Y-70281545D01*
X64857142Y-70710117D02*
X64857142Y-69810117D01*
X64857142Y-69810117D02*
X65071428Y-69810117D01*
X65071428Y-69810117D02*
X65199999Y-69852974D01*
X65199999Y-69852974D02*
X65285714Y-69938688D01*
X65285714Y-69938688D02*
X65328571Y-70024402D01*
X65328571Y-70024402D02*
X65371428Y-70195831D01*
X65371428Y-70195831D02*
X65371428Y-70324402D01*
X65371428Y-70324402D02*
X65328571Y-70495831D01*
X65328571Y-70495831D02*
X65285714Y-70581545D01*
X65285714Y-70581545D02*
X65199999Y-70667260D01*
X65199999Y-70667260D02*
X65071428Y-70710117D01*
X65071428Y-70710117D02*
X64857142Y-70710117D01*
X65928571Y-69810117D02*
X66014285Y-69810117D01*
X66014285Y-69810117D02*
X66099999Y-69852974D01*
X66099999Y-69852974D02*
X66142857Y-69895831D01*
X66142857Y-69895831D02*
X66185714Y-69981545D01*
X66185714Y-69981545D02*
X66228571Y-70152974D01*
X66228571Y-70152974D02*
X66228571Y-70367260D01*
X66228571Y-70367260D02*
X66185714Y-70538688D01*
X66185714Y-70538688D02*
X66142857Y-70624402D01*
X66142857Y-70624402D02*
X66099999Y-70667260D01*
X66099999Y-70667260D02*
X66014285Y-70710117D01*
X66014285Y-70710117D02*
X65928571Y-70710117D01*
X65928571Y-70710117D02*
X65842857Y-70667260D01*
X65842857Y-70667260D02*
X65799999Y-70624402D01*
X65799999Y-70624402D02*
X65757142Y-70538688D01*
X65757142Y-70538688D02*
X65714285Y-70367260D01*
X65714285Y-70367260D02*
X65714285Y-70152974D01*
X65714285Y-70152974D02*
X65757142Y-69981545D01*
X65757142Y-69981545D02*
X65799999Y-69895831D01*
X65799999Y-69895831D02*
X65842857Y-69852974D01*
X65842857Y-69852974D02*
X65928571Y-69810117D01*
X67085714Y-70710117D02*
X66571428Y-70710117D01*
X66828571Y-70710117D02*
X66828571Y-69810117D01*
X66828571Y-69810117D02*
X66742857Y-69938688D01*
X66742857Y-69938688D02*
X66657142Y-70024402D01*
X66657142Y-70024402D02*
X66571428Y-70067260D01*
X63957142Y-121710117D02*
X63957142Y-120810117D01*
X63957142Y-120810117D02*
X64299999Y-120810117D01*
X64299999Y-120810117D02*
X64385714Y-120852974D01*
X64385714Y-120852974D02*
X64428571Y-120895831D01*
X64428571Y-120895831D02*
X64471428Y-120981545D01*
X64471428Y-120981545D02*
X64471428Y-121110117D01*
X64471428Y-121110117D02*
X64428571Y-121195831D01*
X64428571Y-121195831D02*
X64385714Y-121238688D01*
X64385714Y-121238688D02*
X64299999Y-121281545D01*
X64299999Y-121281545D02*
X63957142Y-121281545D01*
X64857142Y-121710117D02*
X64857142Y-120810117D01*
X64857142Y-120810117D02*
X65071428Y-120810117D01*
X65071428Y-120810117D02*
X65199999Y-120852974D01*
X65199999Y-120852974D02*
X65285714Y-120938688D01*
X65285714Y-120938688D02*
X65328571Y-121024402D01*
X65328571Y-121024402D02*
X65371428Y-121195831D01*
X65371428Y-121195831D02*
X65371428Y-121324402D01*
X65371428Y-121324402D02*
X65328571Y-121495831D01*
X65328571Y-121495831D02*
X65285714Y-121581545D01*
X65285714Y-121581545D02*
X65199999Y-121667260D01*
X65199999Y-121667260D02*
X65071428Y-121710117D01*
X65071428Y-121710117D02*
X64857142Y-121710117D01*
X66228571Y-121710117D02*
X65714285Y-121710117D01*
X65971428Y-121710117D02*
X65971428Y-120810117D01*
X65971428Y-120810117D02*
X65885714Y-120938688D01*
X65885714Y-120938688D02*
X65799999Y-121024402D01*
X65799999Y-121024402D02*
X65714285Y-121067260D01*
X66742857Y-121195831D02*
X66657142Y-121152974D01*
X66657142Y-121152974D02*
X66614285Y-121110117D01*
X66614285Y-121110117D02*
X66571428Y-121024402D01*
X66571428Y-121024402D02*
X66571428Y-120981545D01*
X66571428Y-120981545D02*
X66614285Y-120895831D01*
X66614285Y-120895831D02*
X66657142Y-120852974D01*
X66657142Y-120852974D02*
X66742857Y-120810117D01*
X66742857Y-120810117D02*
X66914285Y-120810117D01*
X66914285Y-120810117D02*
X67000000Y-120852974D01*
X67000000Y-120852974D02*
X67042857Y-120895831D01*
X67042857Y-120895831D02*
X67085714Y-120981545D01*
X67085714Y-120981545D02*
X67085714Y-121024402D01*
X67085714Y-121024402D02*
X67042857Y-121110117D01*
X67042857Y-121110117D02*
X67000000Y-121152974D01*
X67000000Y-121152974D02*
X66914285Y-121195831D01*
X66914285Y-121195831D02*
X66742857Y-121195831D01*
X66742857Y-121195831D02*
X66657142Y-121238688D01*
X66657142Y-121238688D02*
X66614285Y-121281545D01*
X66614285Y-121281545D02*
X66571428Y-121367260D01*
X66571428Y-121367260D02*
X66571428Y-121538688D01*
X66571428Y-121538688D02*
X66614285Y-121624402D01*
X66614285Y-121624402D02*
X66657142Y-121667260D01*
X66657142Y-121667260D02*
X66742857Y-121710117D01*
X66742857Y-121710117D02*
X66914285Y-121710117D01*
X66914285Y-121710117D02*
X67000000Y-121667260D01*
X67000000Y-121667260D02*
X67042857Y-121624402D01*
X67042857Y-121624402D02*
X67085714Y-121538688D01*
X67085714Y-121538688D02*
X67085714Y-121367260D01*
X67085714Y-121367260D02*
X67042857Y-121281545D01*
X67042857Y-121281545D02*
X67000000Y-121238688D01*
X67000000Y-121238688D02*
X66914285Y-121195831D01*
X54700000Y-84510117D02*
X54700000Y-85152974D01*
X54700000Y-85152974D02*
X54657143Y-85281545D01*
X54657143Y-85281545D02*
X54571429Y-85367260D01*
X54571429Y-85367260D02*
X54442857Y-85410117D01*
X54442857Y-85410117D02*
X54357143Y-85410117D01*
X55085714Y-84595831D02*
X55128571Y-84552974D01*
X55128571Y-84552974D02*
X55214286Y-84510117D01*
X55214286Y-84510117D02*
X55428571Y-84510117D01*
X55428571Y-84510117D02*
X55514286Y-84552974D01*
X55514286Y-84552974D02*
X55557143Y-84595831D01*
X55557143Y-84595831D02*
X55600000Y-84681545D01*
X55600000Y-84681545D02*
X55600000Y-84767260D01*
X55600000Y-84767260D02*
X55557143Y-84895831D01*
X55557143Y-84895831D02*
X55042857Y-85410117D01*
X55042857Y-85410117D02*
X55600000Y-85410117D01*
X72457142Y-104710117D02*
X72457142Y-103810117D01*
X72457142Y-103810117D02*
X72799999Y-103810117D01*
X72799999Y-103810117D02*
X72885714Y-103852974D01*
X72885714Y-103852974D02*
X72928571Y-103895831D01*
X72928571Y-103895831D02*
X72971428Y-103981545D01*
X72971428Y-103981545D02*
X72971428Y-104110117D01*
X72971428Y-104110117D02*
X72928571Y-104195831D01*
X72928571Y-104195831D02*
X72885714Y-104238688D01*
X72885714Y-104238688D02*
X72799999Y-104281545D01*
X72799999Y-104281545D02*
X72457142Y-104281545D01*
X73357142Y-104710117D02*
X73357142Y-103810117D01*
X73357142Y-103810117D02*
X73571428Y-103810117D01*
X73571428Y-103810117D02*
X73699999Y-103852974D01*
X73699999Y-103852974D02*
X73785714Y-103938688D01*
X73785714Y-103938688D02*
X73828571Y-104024402D01*
X73828571Y-104024402D02*
X73871428Y-104195831D01*
X73871428Y-104195831D02*
X73871428Y-104324402D01*
X73871428Y-104324402D02*
X73828571Y-104495831D01*
X73828571Y-104495831D02*
X73785714Y-104581545D01*
X73785714Y-104581545D02*
X73699999Y-104667260D01*
X73699999Y-104667260D02*
X73571428Y-104710117D01*
X73571428Y-104710117D02*
X73357142Y-104710117D01*
X74728571Y-104710117D02*
X74214285Y-104710117D01*
X74471428Y-104710117D02*
X74471428Y-103810117D01*
X74471428Y-103810117D02*
X74385714Y-103938688D01*
X74385714Y-103938688D02*
X74299999Y-104024402D01*
X74299999Y-104024402D02*
X74214285Y-104067260D01*
X75028571Y-103810117D02*
X75585714Y-103810117D01*
X75585714Y-103810117D02*
X75285714Y-104152974D01*
X75285714Y-104152974D02*
X75414285Y-104152974D01*
X75414285Y-104152974D02*
X75500000Y-104195831D01*
X75500000Y-104195831D02*
X75542857Y-104238688D01*
X75542857Y-104238688D02*
X75585714Y-104324402D01*
X75585714Y-104324402D02*
X75585714Y-104538688D01*
X75585714Y-104538688D02*
X75542857Y-104624402D01*
X75542857Y-104624402D02*
X75500000Y-104667260D01*
X75500000Y-104667260D02*
X75414285Y-104710117D01*
X75414285Y-104710117D02*
X75157142Y-104710117D01*
X75157142Y-104710117D02*
X75071428Y-104667260D01*
X75071428Y-104667260D02*
X75028571Y-104624402D01*
X144700000Y-71510117D02*
X144700000Y-72152974D01*
X144700000Y-72152974D02*
X144657143Y-72281545D01*
X144657143Y-72281545D02*
X144571429Y-72367260D01*
X144571429Y-72367260D02*
X144442857Y-72410117D01*
X144442857Y-72410117D02*
X144357143Y-72410117D01*
X145600000Y-72410117D02*
X145085714Y-72410117D01*
X145342857Y-72410117D02*
X145342857Y-71510117D01*
X145342857Y-71510117D02*
X145257143Y-71638688D01*
X145257143Y-71638688D02*
X145171428Y-71724402D01*
X145171428Y-71724402D02*
X145085714Y-71767260D01*
X89457142Y-87710117D02*
X89457142Y-86810117D01*
X89457142Y-86810117D02*
X89799999Y-86810117D01*
X89799999Y-86810117D02*
X89885714Y-86852974D01*
X89885714Y-86852974D02*
X89928571Y-86895831D01*
X89928571Y-86895831D02*
X89971428Y-86981545D01*
X89971428Y-86981545D02*
X89971428Y-87110117D01*
X89971428Y-87110117D02*
X89928571Y-87195831D01*
X89928571Y-87195831D02*
X89885714Y-87238688D01*
X89885714Y-87238688D02*
X89799999Y-87281545D01*
X89799999Y-87281545D02*
X89457142Y-87281545D01*
X90357142Y-87710117D02*
X90357142Y-86810117D01*
X90357142Y-86810117D02*
X90571428Y-86810117D01*
X90571428Y-86810117D02*
X90699999Y-86852974D01*
X90699999Y-86852974D02*
X90785714Y-86938688D01*
X90785714Y-86938688D02*
X90828571Y-87024402D01*
X90828571Y-87024402D02*
X90871428Y-87195831D01*
X90871428Y-87195831D02*
X90871428Y-87324402D01*
X90871428Y-87324402D02*
X90828571Y-87495831D01*
X90828571Y-87495831D02*
X90785714Y-87581545D01*
X90785714Y-87581545D02*
X90699999Y-87667260D01*
X90699999Y-87667260D02*
X90571428Y-87710117D01*
X90571428Y-87710117D02*
X90357142Y-87710117D01*
X91428571Y-86810117D02*
X91514285Y-86810117D01*
X91514285Y-86810117D02*
X91599999Y-86852974D01*
X91599999Y-86852974D02*
X91642857Y-86895831D01*
X91642857Y-86895831D02*
X91685714Y-86981545D01*
X91685714Y-86981545D02*
X91728571Y-87152974D01*
X91728571Y-87152974D02*
X91728571Y-87367260D01*
X91728571Y-87367260D02*
X91685714Y-87538688D01*
X91685714Y-87538688D02*
X91642857Y-87624402D01*
X91642857Y-87624402D02*
X91599999Y-87667260D01*
X91599999Y-87667260D02*
X91514285Y-87710117D01*
X91514285Y-87710117D02*
X91428571Y-87710117D01*
X91428571Y-87710117D02*
X91342857Y-87667260D01*
X91342857Y-87667260D02*
X91299999Y-87624402D01*
X91299999Y-87624402D02*
X91257142Y-87538688D01*
X91257142Y-87538688D02*
X91214285Y-87367260D01*
X91214285Y-87367260D02*
X91214285Y-87152974D01*
X91214285Y-87152974D02*
X91257142Y-86981545D01*
X91257142Y-86981545D02*
X91299999Y-86895831D01*
X91299999Y-86895831D02*
X91342857Y-86852974D01*
X91342857Y-86852974D02*
X91428571Y-86810117D01*
X92028571Y-86810117D02*
X92628571Y-86810117D01*
X92628571Y-86810117D02*
X92242857Y-87710117D01*
X106457142Y-87710117D02*
X106457142Y-86810117D01*
X106457142Y-86810117D02*
X106799999Y-86810117D01*
X106799999Y-86810117D02*
X106885714Y-86852974D01*
X106885714Y-86852974D02*
X106928571Y-86895831D01*
X106928571Y-86895831D02*
X106971428Y-86981545D01*
X106971428Y-86981545D02*
X106971428Y-87110117D01*
X106971428Y-87110117D02*
X106928571Y-87195831D01*
X106928571Y-87195831D02*
X106885714Y-87238688D01*
X106885714Y-87238688D02*
X106799999Y-87281545D01*
X106799999Y-87281545D02*
X106457142Y-87281545D01*
X107357142Y-87710117D02*
X107357142Y-86810117D01*
X107357142Y-86810117D02*
X107571428Y-86810117D01*
X107571428Y-86810117D02*
X107699999Y-86852974D01*
X107699999Y-86852974D02*
X107785714Y-86938688D01*
X107785714Y-86938688D02*
X107828571Y-87024402D01*
X107828571Y-87024402D02*
X107871428Y-87195831D01*
X107871428Y-87195831D02*
X107871428Y-87324402D01*
X107871428Y-87324402D02*
X107828571Y-87495831D01*
X107828571Y-87495831D02*
X107785714Y-87581545D01*
X107785714Y-87581545D02*
X107699999Y-87667260D01*
X107699999Y-87667260D02*
X107571428Y-87710117D01*
X107571428Y-87710117D02*
X107357142Y-87710117D01*
X108428571Y-86810117D02*
X108514285Y-86810117D01*
X108514285Y-86810117D02*
X108599999Y-86852974D01*
X108599999Y-86852974D02*
X108642857Y-86895831D01*
X108642857Y-86895831D02*
X108685714Y-86981545D01*
X108685714Y-86981545D02*
X108728571Y-87152974D01*
X108728571Y-87152974D02*
X108728571Y-87367260D01*
X108728571Y-87367260D02*
X108685714Y-87538688D01*
X108685714Y-87538688D02*
X108642857Y-87624402D01*
X108642857Y-87624402D02*
X108599999Y-87667260D01*
X108599999Y-87667260D02*
X108514285Y-87710117D01*
X108514285Y-87710117D02*
X108428571Y-87710117D01*
X108428571Y-87710117D02*
X108342857Y-87667260D01*
X108342857Y-87667260D02*
X108299999Y-87624402D01*
X108299999Y-87624402D02*
X108257142Y-87538688D01*
X108257142Y-87538688D02*
X108214285Y-87367260D01*
X108214285Y-87367260D02*
X108214285Y-87152974D01*
X108214285Y-87152974D02*
X108257142Y-86981545D01*
X108257142Y-86981545D02*
X108299999Y-86895831D01*
X108299999Y-86895831D02*
X108342857Y-86852974D01*
X108342857Y-86852974D02*
X108428571Y-86810117D01*
X109242857Y-87195831D02*
X109157142Y-87152974D01*
X109157142Y-87152974D02*
X109114285Y-87110117D01*
X109114285Y-87110117D02*
X109071428Y-87024402D01*
X109071428Y-87024402D02*
X109071428Y-86981545D01*
X109071428Y-86981545D02*
X109114285Y-86895831D01*
X109114285Y-86895831D02*
X109157142Y-86852974D01*
X109157142Y-86852974D02*
X109242857Y-86810117D01*
X109242857Y-86810117D02*
X109414285Y-86810117D01*
X109414285Y-86810117D02*
X109500000Y-86852974D01*
X109500000Y-86852974D02*
X109542857Y-86895831D01*
X109542857Y-86895831D02*
X109585714Y-86981545D01*
X109585714Y-86981545D02*
X109585714Y-87024402D01*
X109585714Y-87024402D02*
X109542857Y-87110117D01*
X109542857Y-87110117D02*
X109500000Y-87152974D01*
X109500000Y-87152974D02*
X109414285Y-87195831D01*
X109414285Y-87195831D02*
X109242857Y-87195831D01*
X109242857Y-87195831D02*
X109157142Y-87238688D01*
X109157142Y-87238688D02*
X109114285Y-87281545D01*
X109114285Y-87281545D02*
X109071428Y-87367260D01*
X109071428Y-87367260D02*
X109071428Y-87538688D01*
X109071428Y-87538688D02*
X109114285Y-87624402D01*
X109114285Y-87624402D02*
X109157142Y-87667260D01*
X109157142Y-87667260D02*
X109242857Y-87710117D01*
X109242857Y-87710117D02*
X109414285Y-87710117D01*
X109414285Y-87710117D02*
X109500000Y-87667260D01*
X109500000Y-87667260D02*
X109542857Y-87624402D01*
X109542857Y-87624402D02*
X109585714Y-87538688D01*
X109585714Y-87538688D02*
X109585714Y-87367260D01*
X109585714Y-87367260D02*
X109542857Y-87281545D01*
X109542857Y-87281545D02*
X109500000Y-87238688D01*
X109500000Y-87238688D02*
X109414285Y-87195831D01*
X110314285Y-131110117D02*
X110314285Y-131838688D01*
X110314285Y-131838688D02*
X110357142Y-131924402D01*
X110357142Y-131924402D02*
X110400000Y-131967260D01*
X110400000Y-131967260D02*
X110485714Y-132010117D01*
X110485714Y-132010117D02*
X110657142Y-132010117D01*
X110657142Y-132010117D02*
X110742857Y-131967260D01*
X110742857Y-131967260D02*
X110785714Y-131924402D01*
X110785714Y-131924402D02*
X110828571Y-131838688D01*
X110828571Y-131838688D02*
X110828571Y-131110117D01*
X111642857Y-131410117D02*
X111642857Y-132010117D01*
X111428571Y-131067260D02*
X111214285Y-131710117D01*
X111214285Y-131710117D02*
X111771428Y-131710117D01*
X80957142Y-96210117D02*
X80957142Y-95310117D01*
X80957142Y-95310117D02*
X81299999Y-95310117D01*
X81299999Y-95310117D02*
X81385714Y-95352974D01*
X81385714Y-95352974D02*
X81428571Y-95395831D01*
X81428571Y-95395831D02*
X81471428Y-95481545D01*
X81471428Y-95481545D02*
X81471428Y-95610117D01*
X81471428Y-95610117D02*
X81428571Y-95695831D01*
X81428571Y-95695831D02*
X81385714Y-95738688D01*
X81385714Y-95738688D02*
X81299999Y-95781545D01*
X81299999Y-95781545D02*
X80957142Y-95781545D01*
X81857142Y-96210117D02*
X81857142Y-95310117D01*
X81857142Y-95310117D02*
X82071428Y-95310117D01*
X82071428Y-95310117D02*
X82199999Y-95352974D01*
X82199999Y-95352974D02*
X82285714Y-95438688D01*
X82285714Y-95438688D02*
X82328571Y-95524402D01*
X82328571Y-95524402D02*
X82371428Y-95695831D01*
X82371428Y-95695831D02*
X82371428Y-95824402D01*
X82371428Y-95824402D02*
X82328571Y-95995831D01*
X82328571Y-95995831D02*
X82285714Y-96081545D01*
X82285714Y-96081545D02*
X82199999Y-96167260D01*
X82199999Y-96167260D02*
X82071428Y-96210117D01*
X82071428Y-96210117D02*
X81857142Y-96210117D01*
X83228571Y-96210117D02*
X82714285Y-96210117D01*
X82971428Y-96210117D02*
X82971428Y-95310117D01*
X82971428Y-95310117D02*
X82885714Y-95438688D01*
X82885714Y-95438688D02*
X82799999Y-95524402D01*
X82799999Y-95524402D02*
X82714285Y-95567260D01*
X83785714Y-95310117D02*
X83871428Y-95310117D01*
X83871428Y-95310117D02*
X83957142Y-95352974D01*
X83957142Y-95352974D02*
X84000000Y-95395831D01*
X84000000Y-95395831D02*
X84042857Y-95481545D01*
X84042857Y-95481545D02*
X84085714Y-95652974D01*
X84085714Y-95652974D02*
X84085714Y-95867260D01*
X84085714Y-95867260D02*
X84042857Y-96038688D01*
X84042857Y-96038688D02*
X84000000Y-96124402D01*
X84000000Y-96124402D02*
X83957142Y-96167260D01*
X83957142Y-96167260D02*
X83871428Y-96210117D01*
X83871428Y-96210117D02*
X83785714Y-96210117D01*
X83785714Y-96210117D02*
X83700000Y-96167260D01*
X83700000Y-96167260D02*
X83657142Y-96124402D01*
X83657142Y-96124402D02*
X83614285Y-96038688D01*
X83614285Y-96038688D02*
X83571428Y-95867260D01*
X83571428Y-95867260D02*
X83571428Y-95652974D01*
X83571428Y-95652974D02*
X83614285Y-95481545D01*
X83614285Y-95481545D02*
X83657142Y-95395831D01*
X83657142Y-95395831D02*
X83700000Y-95352974D01*
X83700000Y-95352974D02*
X83785714Y-95310117D01*
X123314285Y-123510117D02*
X123314285Y-124238688D01*
X123314285Y-124238688D02*
X123357142Y-124324402D01*
X123357142Y-124324402D02*
X123400000Y-124367260D01*
X123400000Y-124367260D02*
X123485714Y-124410117D01*
X123485714Y-124410117D02*
X123657142Y-124410117D01*
X123657142Y-124410117D02*
X123742857Y-124367260D01*
X123742857Y-124367260D02*
X123785714Y-124324402D01*
X123785714Y-124324402D02*
X123828571Y-124238688D01*
X123828571Y-124238688D02*
X123828571Y-123510117D01*
X124171428Y-123510117D02*
X124728571Y-123510117D01*
X124728571Y-123510117D02*
X124428571Y-123852974D01*
X124428571Y-123852974D02*
X124557142Y-123852974D01*
X124557142Y-123852974D02*
X124642857Y-123895831D01*
X124642857Y-123895831D02*
X124685714Y-123938688D01*
X124685714Y-123938688D02*
X124728571Y-124024402D01*
X124728571Y-124024402D02*
X124728571Y-124238688D01*
X124728571Y-124238688D02*
X124685714Y-124324402D01*
X124685714Y-124324402D02*
X124642857Y-124367260D01*
X124642857Y-124367260D02*
X124557142Y-124410117D01*
X124557142Y-124410117D02*
X124299999Y-124410117D01*
X124299999Y-124410117D02*
X124214285Y-124367260D01*
X124214285Y-124367260D02*
X124171428Y-124324402D01*
X89457142Y-70710117D02*
X89457142Y-69810117D01*
X89457142Y-69810117D02*
X89799999Y-69810117D01*
X89799999Y-69810117D02*
X89885714Y-69852974D01*
X89885714Y-69852974D02*
X89928571Y-69895831D01*
X89928571Y-69895831D02*
X89971428Y-69981545D01*
X89971428Y-69981545D02*
X89971428Y-70110117D01*
X89971428Y-70110117D02*
X89928571Y-70195831D01*
X89928571Y-70195831D02*
X89885714Y-70238688D01*
X89885714Y-70238688D02*
X89799999Y-70281545D01*
X89799999Y-70281545D02*
X89457142Y-70281545D01*
X90357142Y-70710117D02*
X90357142Y-69810117D01*
X90357142Y-69810117D02*
X90571428Y-69810117D01*
X90571428Y-69810117D02*
X90699999Y-69852974D01*
X90699999Y-69852974D02*
X90785714Y-69938688D01*
X90785714Y-69938688D02*
X90828571Y-70024402D01*
X90828571Y-70024402D02*
X90871428Y-70195831D01*
X90871428Y-70195831D02*
X90871428Y-70324402D01*
X90871428Y-70324402D02*
X90828571Y-70495831D01*
X90828571Y-70495831D02*
X90785714Y-70581545D01*
X90785714Y-70581545D02*
X90699999Y-70667260D01*
X90699999Y-70667260D02*
X90571428Y-70710117D01*
X90571428Y-70710117D02*
X90357142Y-70710117D01*
X91428571Y-69810117D02*
X91514285Y-69810117D01*
X91514285Y-69810117D02*
X91599999Y-69852974D01*
X91599999Y-69852974D02*
X91642857Y-69895831D01*
X91642857Y-69895831D02*
X91685714Y-69981545D01*
X91685714Y-69981545D02*
X91728571Y-70152974D01*
X91728571Y-70152974D02*
X91728571Y-70367260D01*
X91728571Y-70367260D02*
X91685714Y-70538688D01*
X91685714Y-70538688D02*
X91642857Y-70624402D01*
X91642857Y-70624402D02*
X91599999Y-70667260D01*
X91599999Y-70667260D02*
X91514285Y-70710117D01*
X91514285Y-70710117D02*
X91428571Y-70710117D01*
X91428571Y-70710117D02*
X91342857Y-70667260D01*
X91342857Y-70667260D02*
X91299999Y-70624402D01*
X91299999Y-70624402D02*
X91257142Y-70538688D01*
X91257142Y-70538688D02*
X91214285Y-70367260D01*
X91214285Y-70367260D02*
X91214285Y-70152974D01*
X91214285Y-70152974D02*
X91257142Y-69981545D01*
X91257142Y-69981545D02*
X91299999Y-69895831D01*
X91299999Y-69895831D02*
X91342857Y-69852974D01*
X91342857Y-69852974D02*
X91428571Y-69810117D01*
X92071428Y-69895831D02*
X92114285Y-69852974D01*
X92114285Y-69852974D02*
X92200000Y-69810117D01*
X92200000Y-69810117D02*
X92414285Y-69810117D01*
X92414285Y-69810117D02*
X92500000Y-69852974D01*
X92500000Y-69852974D02*
X92542857Y-69895831D01*
X92542857Y-69895831D02*
X92585714Y-69981545D01*
X92585714Y-69981545D02*
X92585714Y-70067260D01*
X92585714Y-70067260D02*
X92542857Y-70195831D01*
X92542857Y-70195831D02*
X92028571Y-70710117D01*
X92028571Y-70710117D02*
X92585714Y-70710117D01*
X123314285Y-99510117D02*
X123314285Y-100238688D01*
X123314285Y-100238688D02*
X123357142Y-100324402D01*
X123357142Y-100324402D02*
X123400000Y-100367260D01*
X123400000Y-100367260D02*
X123485714Y-100410117D01*
X123485714Y-100410117D02*
X123657142Y-100410117D01*
X123657142Y-100410117D02*
X123742857Y-100367260D01*
X123742857Y-100367260D02*
X123785714Y-100324402D01*
X123785714Y-100324402D02*
X123828571Y-100238688D01*
X123828571Y-100238688D02*
X123828571Y-99510117D01*
X124214285Y-99595831D02*
X124257142Y-99552974D01*
X124257142Y-99552974D02*
X124342857Y-99510117D01*
X124342857Y-99510117D02*
X124557142Y-99510117D01*
X124557142Y-99510117D02*
X124642857Y-99552974D01*
X124642857Y-99552974D02*
X124685714Y-99595831D01*
X124685714Y-99595831D02*
X124728571Y-99681545D01*
X124728571Y-99681545D02*
X124728571Y-99767260D01*
X124728571Y-99767260D02*
X124685714Y-99895831D01*
X124685714Y-99895831D02*
X124171428Y-100410117D01*
X124171428Y-100410117D02*
X124728571Y-100410117D01*
X97957142Y-79210117D02*
X97957142Y-78310117D01*
X97957142Y-78310117D02*
X98299999Y-78310117D01*
X98299999Y-78310117D02*
X98385714Y-78352974D01*
X98385714Y-78352974D02*
X98428571Y-78395831D01*
X98428571Y-78395831D02*
X98471428Y-78481545D01*
X98471428Y-78481545D02*
X98471428Y-78610117D01*
X98471428Y-78610117D02*
X98428571Y-78695831D01*
X98428571Y-78695831D02*
X98385714Y-78738688D01*
X98385714Y-78738688D02*
X98299999Y-78781545D01*
X98299999Y-78781545D02*
X97957142Y-78781545D01*
X98857142Y-79210117D02*
X98857142Y-78310117D01*
X98857142Y-78310117D02*
X99071428Y-78310117D01*
X99071428Y-78310117D02*
X99199999Y-78352974D01*
X99199999Y-78352974D02*
X99285714Y-78438688D01*
X99285714Y-78438688D02*
X99328571Y-78524402D01*
X99328571Y-78524402D02*
X99371428Y-78695831D01*
X99371428Y-78695831D02*
X99371428Y-78824402D01*
X99371428Y-78824402D02*
X99328571Y-78995831D01*
X99328571Y-78995831D02*
X99285714Y-79081545D01*
X99285714Y-79081545D02*
X99199999Y-79167260D01*
X99199999Y-79167260D02*
X99071428Y-79210117D01*
X99071428Y-79210117D02*
X98857142Y-79210117D01*
X99928571Y-78310117D02*
X100014285Y-78310117D01*
X100014285Y-78310117D02*
X100099999Y-78352974D01*
X100099999Y-78352974D02*
X100142857Y-78395831D01*
X100142857Y-78395831D02*
X100185714Y-78481545D01*
X100185714Y-78481545D02*
X100228571Y-78652974D01*
X100228571Y-78652974D02*
X100228571Y-78867260D01*
X100228571Y-78867260D02*
X100185714Y-79038688D01*
X100185714Y-79038688D02*
X100142857Y-79124402D01*
X100142857Y-79124402D02*
X100099999Y-79167260D01*
X100099999Y-79167260D02*
X100014285Y-79210117D01*
X100014285Y-79210117D02*
X99928571Y-79210117D01*
X99928571Y-79210117D02*
X99842857Y-79167260D01*
X99842857Y-79167260D02*
X99799999Y-79124402D01*
X99799999Y-79124402D02*
X99757142Y-79038688D01*
X99757142Y-79038688D02*
X99714285Y-78867260D01*
X99714285Y-78867260D02*
X99714285Y-78652974D01*
X99714285Y-78652974D02*
X99757142Y-78481545D01*
X99757142Y-78481545D02*
X99799999Y-78395831D01*
X99799999Y-78395831D02*
X99842857Y-78352974D01*
X99842857Y-78352974D02*
X99928571Y-78310117D01*
X101042857Y-78310117D02*
X100614285Y-78310117D01*
X100614285Y-78310117D02*
X100571428Y-78738688D01*
X100571428Y-78738688D02*
X100614285Y-78695831D01*
X100614285Y-78695831D02*
X100700000Y-78652974D01*
X100700000Y-78652974D02*
X100914285Y-78652974D01*
X100914285Y-78652974D02*
X101000000Y-78695831D01*
X101000000Y-78695831D02*
X101042857Y-78738688D01*
X101042857Y-78738688D02*
X101085714Y-78824402D01*
X101085714Y-78824402D02*
X101085714Y-79038688D01*
X101085714Y-79038688D02*
X101042857Y-79124402D01*
X101042857Y-79124402D02*
X101000000Y-79167260D01*
X101000000Y-79167260D02*
X100914285Y-79210117D01*
X100914285Y-79210117D02*
X100700000Y-79210117D01*
X100700000Y-79210117D02*
X100614285Y-79167260D01*
X100614285Y-79167260D02*
X100571428Y-79124402D01*
X66700000Y-131010117D02*
X66700000Y-131652974D01*
X66700000Y-131652974D02*
X66657143Y-131781545D01*
X66657143Y-131781545D02*
X66571429Y-131867260D01*
X66571429Y-131867260D02*
X66442857Y-131910117D01*
X66442857Y-131910117D02*
X66357143Y-131910117D01*
X67042857Y-131010117D02*
X67600000Y-131010117D01*
X67600000Y-131010117D02*
X67300000Y-131352974D01*
X67300000Y-131352974D02*
X67428571Y-131352974D01*
X67428571Y-131352974D02*
X67514286Y-131395831D01*
X67514286Y-131395831D02*
X67557143Y-131438688D01*
X67557143Y-131438688D02*
X67600000Y-131524402D01*
X67600000Y-131524402D02*
X67600000Y-131738688D01*
X67600000Y-131738688D02*
X67557143Y-131824402D01*
X67557143Y-131824402D02*
X67514286Y-131867260D01*
X67514286Y-131867260D02*
X67428571Y-131910117D01*
X67428571Y-131910117D02*
X67171428Y-131910117D01*
X67171428Y-131910117D02*
X67085714Y-131867260D01*
X67085714Y-131867260D02*
X67042857Y-131824402D01*
X89457142Y-121710117D02*
X89457142Y-120810117D01*
X89457142Y-120810117D02*
X89799999Y-120810117D01*
X89799999Y-120810117D02*
X89885714Y-120852974D01*
X89885714Y-120852974D02*
X89928571Y-120895831D01*
X89928571Y-120895831D02*
X89971428Y-120981545D01*
X89971428Y-120981545D02*
X89971428Y-121110117D01*
X89971428Y-121110117D02*
X89928571Y-121195831D01*
X89928571Y-121195831D02*
X89885714Y-121238688D01*
X89885714Y-121238688D02*
X89799999Y-121281545D01*
X89799999Y-121281545D02*
X89457142Y-121281545D01*
X90357142Y-121710117D02*
X90357142Y-120810117D01*
X90357142Y-120810117D02*
X90571428Y-120810117D01*
X90571428Y-120810117D02*
X90699999Y-120852974D01*
X90699999Y-120852974D02*
X90785714Y-120938688D01*
X90785714Y-120938688D02*
X90828571Y-121024402D01*
X90828571Y-121024402D02*
X90871428Y-121195831D01*
X90871428Y-121195831D02*
X90871428Y-121324402D01*
X90871428Y-121324402D02*
X90828571Y-121495831D01*
X90828571Y-121495831D02*
X90785714Y-121581545D01*
X90785714Y-121581545D02*
X90699999Y-121667260D01*
X90699999Y-121667260D02*
X90571428Y-121710117D01*
X90571428Y-121710117D02*
X90357142Y-121710117D01*
X91728571Y-121710117D02*
X91214285Y-121710117D01*
X91471428Y-121710117D02*
X91471428Y-120810117D01*
X91471428Y-120810117D02*
X91385714Y-120938688D01*
X91385714Y-120938688D02*
X91299999Y-121024402D01*
X91299999Y-121024402D02*
X91214285Y-121067260D01*
X92157142Y-121710117D02*
X92328571Y-121710117D01*
X92328571Y-121710117D02*
X92414285Y-121667260D01*
X92414285Y-121667260D02*
X92457142Y-121624402D01*
X92457142Y-121624402D02*
X92542857Y-121495831D01*
X92542857Y-121495831D02*
X92585714Y-121324402D01*
X92585714Y-121324402D02*
X92585714Y-120981545D01*
X92585714Y-120981545D02*
X92542857Y-120895831D01*
X92542857Y-120895831D02*
X92500000Y-120852974D01*
X92500000Y-120852974D02*
X92414285Y-120810117D01*
X92414285Y-120810117D02*
X92242857Y-120810117D01*
X92242857Y-120810117D02*
X92157142Y-120852974D01*
X92157142Y-120852974D02*
X92114285Y-120895831D01*
X92114285Y-120895831D02*
X92071428Y-120981545D01*
X92071428Y-120981545D02*
X92071428Y-121195831D01*
X92071428Y-121195831D02*
X92114285Y-121281545D01*
X92114285Y-121281545D02*
X92157142Y-121324402D01*
X92157142Y-121324402D02*
X92242857Y-121367260D01*
X92242857Y-121367260D02*
X92414285Y-121367260D01*
X92414285Y-121367260D02*
X92500000Y-121324402D01*
X92500000Y-121324402D02*
X92542857Y-121281545D01*
X92542857Y-121281545D02*
X92585714Y-121195831D01*
X106457142Y-104710117D02*
X106457142Y-103810117D01*
X106457142Y-103810117D02*
X106799999Y-103810117D01*
X106799999Y-103810117D02*
X106885714Y-103852974D01*
X106885714Y-103852974D02*
X106928571Y-103895831D01*
X106928571Y-103895831D02*
X106971428Y-103981545D01*
X106971428Y-103981545D02*
X106971428Y-104110117D01*
X106971428Y-104110117D02*
X106928571Y-104195831D01*
X106928571Y-104195831D02*
X106885714Y-104238688D01*
X106885714Y-104238688D02*
X106799999Y-104281545D01*
X106799999Y-104281545D02*
X106457142Y-104281545D01*
X107357142Y-104710117D02*
X107357142Y-103810117D01*
X107357142Y-103810117D02*
X107571428Y-103810117D01*
X107571428Y-103810117D02*
X107699999Y-103852974D01*
X107699999Y-103852974D02*
X107785714Y-103938688D01*
X107785714Y-103938688D02*
X107828571Y-104024402D01*
X107828571Y-104024402D02*
X107871428Y-104195831D01*
X107871428Y-104195831D02*
X107871428Y-104324402D01*
X107871428Y-104324402D02*
X107828571Y-104495831D01*
X107828571Y-104495831D02*
X107785714Y-104581545D01*
X107785714Y-104581545D02*
X107699999Y-104667260D01*
X107699999Y-104667260D02*
X107571428Y-104710117D01*
X107571428Y-104710117D02*
X107357142Y-104710117D01*
X108728571Y-104710117D02*
X108214285Y-104710117D01*
X108471428Y-104710117D02*
X108471428Y-103810117D01*
X108471428Y-103810117D02*
X108385714Y-103938688D01*
X108385714Y-103938688D02*
X108299999Y-104024402D01*
X108299999Y-104024402D02*
X108214285Y-104067260D01*
X109542857Y-103810117D02*
X109114285Y-103810117D01*
X109114285Y-103810117D02*
X109071428Y-104238688D01*
X109071428Y-104238688D02*
X109114285Y-104195831D01*
X109114285Y-104195831D02*
X109200000Y-104152974D01*
X109200000Y-104152974D02*
X109414285Y-104152974D01*
X109414285Y-104152974D02*
X109500000Y-104195831D01*
X109500000Y-104195831D02*
X109542857Y-104238688D01*
X109542857Y-104238688D02*
X109585714Y-104324402D01*
X109585714Y-104324402D02*
X109585714Y-104538688D01*
X109585714Y-104538688D02*
X109542857Y-104624402D01*
X109542857Y-104624402D02*
X109500000Y-104667260D01*
X109500000Y-104667260D02*
X109414285Y-104710117D01*
X109414285Y-104710117D02*
X109200000Y-104710117D01*
X109200000Y-104710117D02*
X109114285Y-104667260D01*
X109114285Y-104667260D02*
X109071428Y-104624402D01*
%TO.C,PD03*%
X118900000Y-74500000D02*
G75*
G02*
X114100000Y-74500000I-2400000J0D01*
G01*
X114100000Y-74500000D02*
G75*
G02*
X118900000Y-74500000I2400000J0D01*
G01*
%TO.C,PD09*%
X67900000Y-100000000D02*
G75*
G02*
X63100000Y-100000000I-2400000J0D01*
G01*
X63100000Y-100000000D02*
G75*
G02*
X67900000Y-100000000I2400000J0D01*
G01*
%TO.C,PD20*%
X118900000Y-125500000D02*
G75*
G02*
X114100000Y-125500000I-2400000J0D01*
G01*
X114100000Y-125500000D02*
G75*
G02*
X118900000Y-125500000I2400000J0D01*
G01*
%TO.C,TP02*%
D14*
X95850000Y-73230000D02*
G75*
G02*
X93750000Y-73230000I-1050000J0D01*
G01*
X93750000Y-73230000D02*
G75*
G02*
X95850000Y-73230000I1050000J0D01*
G01*
%TO.C,J4*%
D11*
X87100000Y-137000000D02*
G75*
G02*
X78900000Y-137000000I-4100000J0D01*
G01*
X78900000Y-137000000D02*
G75*
G02*
X87100000Y-137000000I4100000J0D01*
G01*
%TO.C,TP07*%
D14*
X95850000Y-90230000D02*
G75*
G02*
X93750000Y-90230000I-1050000J0D01*
G01*
X93750000Y-90230000D02*
G75*
G02*
X95850000Y-90230000I1050000J0D01*
G01*
%TO.C,PD11*%
D11*
X101900000Y-100000000D02*
G75*
G02*
X97100000Y-100000000I-2400000J0D01*
G01*
X97100000Y-100000000D02*
G75*
G02*
X101900000Y-100000000I2400000J0D01*
G01*
%TO.C,PD17*%
X101900000Y-117000000D02*
G75*
G02*
X97100000Y-117000000I-2400000J0D01*
G01*
X97100000Y-117000000D02*
G75*
G02*
X101900000Y-117000000I2400000J0D01*
G01*
%TO.C,TP16*%
D14*
X87350000Y-115730000D02*
G75*
G02*
X85250000Y-115730000I-1050000J0D01*
G01*
X85250000Y-115730000D02*
G75*
G02*
X87350000Y-115730000I1050000J0D01*
G01*
%TO.C,TP06*%
X78850000Y-90230000D02*
G75*
G02*
X76750000Y-90230000I-1050000J0D01*
G01*
X76750000Y-90230000D02*
G75*
G02*
X78850000Y-90230000I1050000J0D01*
G01*
%TO.C,TP15*%
X112850000Y-107230000D02*
G75*
G02*
X110750000Y-107230000I-1050000J0D01*
G01*
X110750000Y-107230000D02*
G75*
G02*
X112850000Y-107230000I1050000J0D01*
G01*
%TO.C,PD14*%
D11*
X93400000Y-108500000D02*
G75*
G02*
X88600000Y-108500000I-2400000J0D01*
G01*
X88600000Y-108500000D02*
G75*
G02*
X93400000Y-108500000I2400000J0D01*
G01*
%TO.C,PD06*%
X76400000Y-91500000D02*
G75*
G02*
X71600000Y-91500000I-2400000J0D01*
G01*
X71600000Y-91500000D02*
G75*
G02*
X76400000Y-91500000I2400000J0D01*
G01*
%TO.C,U1*%
X125450000Y-74000000D02*
X130550000Y-74000000D01*
X130550000Y-78000000D01*
X125450000Y-78000000D01*
X125450000Y-74000000D01*
%TO.C,PD16*%
X84900000Y-117000000D02*
G75*
G02*
X80100000Y-117000000I-2400000J0D01*
G01*
X80100000Y-117000000D02*
G75*
G02*
X84900000Y-117000000I2400000J0D01*
G01*
%TO.C,TP11*%
D14*
X104350000Y-98730000D02*
G75*
G02*
X102250000Y-98730000I-1050000J0D01*
G01*
X102250000Y-98730000D02*
G75*
G02*
X104350000Y-98730000I1050000J0D01*
G01*
%TO.C,TP01*%
X70350000Y-73230000D02*
G75*
G02*
X68250000Y-73230000I-1050000J0D01*
G01*
X68250000Y-73230000D02*
G75*
G02*
X70350000Y-73230000I1050000J0D01*
G01*
%TO.C,PD12*%
D11*
X118900000Y-100000000D02*
G75*
G02*
X114100000Y-100000000I-2400000J0D01*
G01*
X114100000Y-100000000D02*
G75*
G02*
X118900000Y-100000000I2400000J0D01*
G01*
%TO.C,TP20*%
D14*
X121350000Y-124230000D02*
G75*
G02*
X119250000Y-124230000I-1050000J0D01*
G01*
X119250000Y-124230000D02*
G75*
G02*
X121350000Y-124230000I1050000J0D01*
G01*
%TO.C,PD21*%
D11*
X93400000Y-100000000D02*
G75*
G02*
X88600000Y-100000000I-2400000J0D01*
G01*
X88600000Y-100000000D02*
G75*
G02*
X93400000Y-100000000I2400000J0D01*
G01*
%TO.C,TP12*%
D14*
X121350000Y-98730000D02*
G75*
G02*
X119250000Y-98730000I-1050000J0D01*
G01*
X119250000Y-98730000D02*
G75*
G02*
X121350000Y-98730000I1050000J0D01*
G01*
%TO.C,PD04*%
D11*
X84900000Y-83000000D02*
G75*
G02*
X80100000Y-83000000I-2400000J0D01*
G01*
X80100000Y-83000000D02*
G75*
G02*
X84900000Y-83000000I2400000J0D01*
G01*
%TO.C,PD01*%
X67900000Y-74500000D02*
G75*
G02*
X63100000Y-74500000I-2400000J0D01*
G01*
X63100000Y-74500000D02*
G75*
G02*
X67900000Y-74500000I2400000J0D01*
G01*
%TO.C,PD18*%
X67900000Y-125500000D02*
G75*
G02*
X63100000Y-125500000I-2400000J0D01*
G01*
X63100000Y-125500000D02*
G75*
G02*
X67900000Y-125500000I2400000J0D01*
G01*
%TO.C,TP21*%
D14*
X95850000Y-98730000D02*
G75*
G02*
X93750000Y-98730000I-1050000J0D01*
G01*
X93750000Y-98730000D02*
G75*
G02*
X95850000Y-98730000I1050000J0D01*
G01*
%TO.C,J2*%
D15*
X53300000Y-86500000D02*
X56700000Y-86500000D01*
X56700000Y-113500000D01*
X53300000Y-113500000D01*
X53300000Y-86500000D01*
%TO.C,PD13*%
D11*
X76400000Y-108500000D02*
G75*
G02*
X71600000Y-108500000I-2400000J0D01*
G01*
X71600000Y-108500000D02*
G75*
G02*
X76400000Y-108500000I2400000J0D01*
G01*
%TO.C,TP19*%
D14*
X95850000Y-124230000D02*
G75*
G02*
X93750000Y-124230000I-1050000J0D01*
G01*
X93750000Y-124230000D02*
G75*
G02*
X95850000Y-124230000I1050000J0D01*
G01*
%TO.C,TP17*%
X104350000Y-115730000D02*
G75*
G02*
X102250000Y-115730000I-1050000J0D01*
G01*
X102250000Y-115730000D02*
G75*
G02*
X104350000Y-115730000I1050000J0D01*
G01*
%TO.C,TP13*%
X78850000Y-107230000D02*
G75*
G02*
X76750000Y-107230000I-1050000J0D01*
G01*
X76750000Y-107230000D02*
G75*
G02*
X78850000Y-107230000I1050000J0D01*
G01*
%TO.C,TP05*%
X104350000Y-81730000D02*
G75*
G02*
X102250000Y-81730000I-1050000J0D01*
G01*
X102250000Y-81730000D02*
G75*
G02*
X104350000Y-81730000I1050000J0D01*
G01*
%TO.C,TP03*%
X121350000Y-73230000D02*
G75*
G02*
X119250000Y-73230000I-1050000J0D01*
G01*
X119250000Y-73230000D02*
G75*
G02*
X121350000Y-73230000I1050000J0D01*
G01*
%TO.C,J1*%
D15*
X141700000Y-73800000D02*
X148300000Y-73800000D01*
X148300000Y-126200000D01*
X141700000Y-126200000D01*
X141700000Y-73800000D01*
%TO.C,PD07*%
D11*
X93400000Y-91500000D02*
G75*
G02*
X88600000Y-91500000I-2400000J0D01*
G01*
X88600000Y-91500000D02*
G75*
G02*
X93400000Y-91500000I2400000J0D01*
G01*
%TO.C,PD08*%
X110400000Y-91500000D02*
G75*
G02*
X105600000Y-91500000I-2400000J0D01*
G01*
X105600000Y-91500000D02*
G75*
G02*
X110400000Y-91500000I2400000J0D01*
G01*
%TO.C,U4*%
X107300000Y-133300000D02*
X114700000Y-133300000D01*
X114700000Y-140700000D01*
X107300000Y-140700000D01*
X107300000Y-133300000D01*
%TO.C,TP04*%
D14*
X87350000Y-81730000D02*
G75*
G02*
X85250000Y-81730000I-1050000J0D01*
G01*
X85250000Y-81730000D02*
G75*
G02*
X87350000Y-81730000I1050000J0D01*
G01*
%TO.C,PD10*%
D11*
X84900000Y-100000000D02*
G75*
G02*
X80100000Y-100000000I-2400000J0D01*
G01*
X80100000Y-100000000D02*
G75*
G02*
X84900000Y-100000000I2400000J0D01*
G01*
%TO.C,U3*%
X125450000Y-122000000D02*
X130550000Y-122000000D01*
X130550000Y-126000000D01*
X125450000Y-126000000D01*
X125450000Y-122000000D01*
%TO.C,TP08*%
D14*
X112850000Y-90230000D02*
G75*
G02*
X110750000Y-90230000I-1050000J0D01*
G01*
X110750000Y-90230000D02*
G75*
G02*
X112850000Y-90230000I1050000J0D01*
G01*
%TO.C,TP10*%
X87350000Y-98730000D02*
G75*
G02*
X85250000Y-98730000I-1050000J0D01*
G01*
X85250000Y-98730000D02*
G75*
G02*
X87350000Y-98730000I1050000J0D01*
G01*
%TO.C,TP09*%
X70350000Y-98730000D02*
G75*
G02*
X68250000Y-98730000I-1050000J0D01*
G01*
X68250000Y-98730000D02*
G75*
G02*
X70350000Y-98730000I1050000J0D01*
G01*
%TO.C,PD02*%
D11*
X93400000Y-74500000D02*
G75*
G02*
X88600000Y-74500000I-2400000J0D01*
G01*
X88600000Y-74500000D02*
G75*
G02*
X93400000Y-74500000I2400000J0D01*
G01*
%TO.C,TP18*%
D14*
X70350000Y-124230000D02*
G75*
G02*
X68250000Y-124230000I-1050000J0D01*
G01*
X68250000Y-124230000D02*
G75*
G02*
X70350000Y-124230000I1050000J0D01*
G01*
%TO.C,TP14*%
X95850000Y-107230000D02*
G75*
G02*
X93750000Y-107230000I-1050000J0D01*
G01*
X93750000Y-107230000D02*
G75*
G02*
X95850000Y-107230000I1050000J0D01*
G01*
%TO.C,U2*%
D11*
X125450000Y-98000000D02*
X130550000Y-98000000D01*
X130550000Y-102000000D01*
X125450000Y-102000000D01*
X125450000Y-98000000D01*
%TO.C,PD05*%
X101900000Y-83000000D02*
G75*
G02*
X97100000Y-83000000I-2400000J0D01*
G01*
X97100000Y-83000000D02*
G75*
G02*
X101900000Y-83000000I2400000J0D01*
G01*
%TO.C,J3*%
X71100000Y-137000000D02*
G75*
G02*
X62900000Y-137000000I-4100000J0D01*
G01*
X62900000Y-137000000D02*
G75*
G02*
X71100000Y-137000000I4100000J0D01*
G01*
%TO.C,PD19*%
X93400000Y-125500000D02*
G75*
G02*
X88600000Y-125500000I-2400000J0D01*
G01*
X88600000Y-125500000D02*
G75*
G02*
X93400000Y-125500000I2400000J0D01*
G01*
%TO.C,PD15*%
X110400000Y-108500000D02*
G75*
G02*
X105600000Y-108500000I-2400000J0D01*
G01*
X105600000Y-108500000D02*
G75*
G02*
X110400000Y-108500000I2400000J0D01*
G01*
%TD*%
M02*
