M48
; DRILL file KiCad 10.0.3-10.0.3~ubuntu24.04.1 date 2026-06-08T11:09:13
; FORMAT={-:-/ absolute / metric / decimal}
; #@! TF.CreationDate,2026-06-08T11:09:13+08:00
; #@! TF.GenerationSoftware,Kicad,Pcbnew,10.0.3-10.0.3~ubuntu24.04.1
; #@! TF.FileFunction,MixedPlating,1,2
FMAT,2
METRIC
; #@! TA.AperFunction,Plated,PTH,ViaDrill
T1C0.400
; #@! TA.AperFunction,Plated,PTH,ComponentDrill
T2C0.800
; #@! TA.AperFunction,Plated,PTH,ComponentDrill
T3C0.950
; #@! TA.AperFunction,Plated,PTH,ComponentDrill
T4C1.000
; #@! TA.AperFunction,Plated,PTH,ComponentDrill
T5C1.300
; #@! TA.AperFunction,NonPlated,NPTH,ComponentDrill
T6C3.200
%
G90
G05
T1
X111.0Y-137.0
T2
X65.5Y-73.23
X65.5Y-75.77
X65.5Y-98.73
X65.5Y-101.27
X65.5Y-124.23
X65.5Y-126.77
X74.0Y-90.23
X74.0Y-92.77
X74.0Y-107.23
X74.0Y-109.77
X82.5Y-81.73
X82.5Y-84.27
X82.5Y-98.73
X82.5Y-101.27
X82.5Y-115.73
X82.5Y-118.27
X91.0Y-73.23
X91.0Y-75.77
X91.0Y-90.23
X91.0Y-92.77
X91.0Y-98.73
X91.0Y-101.27
X91.0Y-107.23
X91.0Y-109.77
X91.0Y-124.23
X91.0Y-126.77
X99.5Y-81.73
X99.5Y-84.27
X99.5Y-98.73
X99.5Y-101.27
X99.5Y-115.73
X99.5Y-118.27
X108.0Y-90.23
X108.0Y-92.77
X108.0Y-107.23
X108.0Y-109.77
X116.5Y-73.23
X116.5Y-75.77
X116.5Y-98.73
X116.5Y-101.27
X116.5Y-124.23
X116.5Y-126.77
T3
X55.0Y-88.57
X55.0Y-91.11
X55.0Y-93.65
X55.0Y-96.19
X55.0Y-98.73
X55.0Y-101.27
X55.0Y-103.81
X55.0Y-106.35
X55.0Y-108.89
X55.0Y-111.43
X143.73Y-75.87
X143.73Y-78.41
X143.73Y-80.95
X143.73Y-83.49
X143.73Y-86.03
X143.73Y-88.57
X143.73Y-91.11
X143.73Y-93.65
X143.73Y-96.19
X143.73Y-98.73
X143.73Y-101.27
X143.73Y-103.81
X143.73Y-106.35
X143.73Y-108.89
X143.73Y-111.43
X143.73Y-113.97
X143.73Y-116.51
X143.73Y-119.05
X143.73Y-121.59
X143.73Y-124.13
X146.27Y-75.87
X146.27Y-78.41
X146.27Y-80.95
X146.27Y-83.49
X146.27Y-86.03
X146.27Y-88.57
X146.27Y-91.11
X146.27Y-93.65
X146.27Y-96.19
X146.27Y-98.73
X146.27Y-101.27
X146.27Y-103.81
X146.27Y-106.35
X146.27Y-108.89
X146.27Y-111.43
X146.27Y-113.97
X146.27Y-116.51
X146.27Y-119.05
X146.27Y-121.59
X146.27Y-124.13
T4
X64.46Y-134.46
X64.46Y-139.54
X69.54Y-134.46
X69.54Y-139.54
X80.46Y-134.46
X80.46Y-139.54
X85.54Y-134.46
X85.54Y-139.54
T5
X67.0Y-137.0
X83.0Y-137.0
T6
X57.0Y-62.0
X57.0Y-138.0
X148.0Y-62.0
X148.0Y-138.0
M30
