%TF.GenerationSoftware,KiCad,Pcbnew,10.0.3-10.0.3~ubuntu24.04.1*%
%TF.CreationDate,2026-06-08T11:09:13+08:00*%
%TF.ProjectId,hybridimager-v1-weiqi-sensor,68796272-6964-4696-9d61-6765722d7631,0.1.0-draft*%
%TF.SameCoordinates,Original*%
%TF.FileFunction,Copper,L1,Top*%
%TF.FilePolarity,Positive*%
%FSLAX46Y46*%
G04 Gerber Fmt 4.6, Leading zero omitted, Abs format (unit mm)*
G04 Created by KiCad (PCBNEW 10.0.3-10.0.3~ubuntu24.04.1) date 2026-06-08 11:09:13*
%MOMM*%
%LPD*%
G01*
G04 APERTURE LIST*
G04 Aperture macros list*
%AMRoundRect*
0 Rectangle with rounded corners*
0 $1 Rounding radius*
0 $2 $3 $4 $5 $6 $7 $8 $9 X,Y pos of 4 corners*
0 Add a 4 corners polygon primitive as box body*
4,1,4,$2,$3,$4,$5,$6,$7,$8,$9,$2,$3,0*
0 Add four circle primitives for the rounded corners*
1,1,$1+$1,$2,$3*
1,1,$1+$1,$4,$5*
1,1,$1+$1,$6,$7*
1,1,$1+$1,$8,$9*
0 Add four rect primitives between the rounded corners*
20,1,$1+$1,$2,$3,$4,$5,0*
20,1,$1+$1,$4,$5,$6,$7,0*
20,1,$1+$1,$6,$7,$8,$9,0*
20,1,$1+$1,$8,$9,$2,$3,0*%
G04 Aperture macros list end*
%TA.AperFunction,ComponentPad*%
%ADD10C,1.600000*%
%TD*%
%TA.AperFunction,ComponentPad*%
%ADD11R,1.600000X1.600000*%
%TD*%
%TA.AperFunction,SMDPad,CuDef*%
%ADD12C,1.700000*%
%TD*%
%TA.AperFunction,ComponentPad*%
%ADD13C,2.200000*%
%TD*%
%TA.AperFunction,SMDPad,CuDef*%
%ADD14RoundRect,0.120000X0.180000X-0.630000X0.180000X0.630000X-0.180000X0.630000X-0.180000X-0.630000X0*%
%TD*%
%TA.AperFunction,ComponentPad*%
%ADD15R,1.700000X1.700000*%
%TD*%
%TA.AperFunction,ComponentPad*%
%ADD16C,1.700000*%
%TD*%
%TA.AperFunction,SMDPad,CuDef*%
%ADD17RoundRect,0.056000X-0.084000X-0.444000X0.084000X-0.444000X0.084000X0.444000X-0.084000X0.444000X0*%
%TD*%
%TA.AperFunction,SMDPad,CuDef*%
%ADD18RoundRect,0.056000X-0.444000X-0.084000X0.444000X-0.084000X0.444000X0.084000X-0.444000X0.084000X0*%
%TD*%
%TA.AperFunction,SMDPad,CuDef*%
%ADD19R,4.800000X4.800000*%
%TD*%
%TA.AperFunction,ViaPad*%
%ADD20C,0.800000*%
%TD*%
%TA.AperFunction,Conductor*%
%ADD21C,0.220000*%
%TD*%
G04 APERTURE END LIST*
D10*
%TO.P,PD03,G,GUARD*%
%TO.N,GND*%
X116500000Y-75770000D03*
D11*
%TO.P,PD03,S,SIGNAL*%
%TO.N,SP03*%
X116500000Y-73230000D03*
%TD*%
D10*
%TO.P,PD09,G,GUARD*%
%TO.N,GND*%
X65500000Y-101270000D03*
D11*
%TO.P,PD09,S,SIGNAL*%
%TO.N,SP09*%
X65500000Y-98730000D03*
%TD*%
D10*
%TO.P,PD20,G,GUARD*%
%TO.N,GND*%
X116500000Y-126770000D03*
D11*
%TO.P,PD20,S,SIGNAL*%
%TO.N,SP20*%
X116500000Y-124230000D03*
%TD*%
D12*
%TO.P,TP02,1,PROBE*%
%TO.N,SP02*%
X94800000Y-73230000D03*
%TD*%
D13*
%TO.P,J4,1,SIG*%
%TO.N,SYNC_OUT*%
X83000000Y-137000000D03*
D10*
%TO.P,J4,2,GND*%
%TO.N,GND*%
X80460000Y-134460000D03*
%TO.P,J4,3,GND*%
X85540000Y-134460000D03*
%TO.P,J4,4,GND*%
X80460000Y-139540000D03*
%TO.P,J4,5,GND*%
X85540000Y-139540000D03*
%TD*%
D12*
%TO.P,TP07,1,PROBE*%
%TO.N,SP07*%
X94800000Y-90230000D03*
%TD*%
D10*
%TO.P,PD11,G,GUARD*%
%TO.N,GND*%
X99500000Y-101270000D03*
D11*
%TO.P,PD11,S,SIGNAL*%
%TO.N,SP11*%
X99500000Y-98730000D03*
%TD*%
D10*
%TO.P,PD17,G,GUARD*%
%TO.N,GND*%
X99500000Y-118270000D03*
D11*
%TO.P,PD17,S,SIGNAL*%
%TO.N,SP17*%
X99500000Y-115730000D03*
%TD*%
D12*
%TO.P,TP16,1,PROBE*%
%TO.N,SP16*%
X86300000Y-115730000D03*
%TD*%
%TO.P,TP06,1,PROBE*%
%TO.N,SP06*%
X77800000Y-90230000D03*
%TD*%
%TO.P,TP15,1,PROBE*%
%TO.N,SP15*%
X111800000Y-107230000D03*
%TD*%
D10*
%TO.P,PD14,G,GUARD*%
%TO.N,GND*%
X91000000Y-109770000D03*
D11*
%TO.P,PD14,S,SIGNAL*%
%TO.N,SP14*%
X91000000Y-107230000D03*
%TD*%
D10*
%TO.P,PD06,G,GUARD*%
%TO.N,GND*%
X74000000Y-92770000D03*
D11*
%TO.P,PD06,S,SIGNAL*%
%TO.N,SP06*%
X74000000Y-90230000D03*
%TD*%
D14*
%TO.P,U1,1,P1*%
%TO.N,N/C*%
X126095000Y-78700000D03*
%TO.P,U1,2,P2*%
X127365000Y-78700000D03*
%TO.P,U1,3,P3*%
X128635000Y-78700000D03*
%TO.P,U1,4,P4*%
X129905000Y-78700000D03*
%TO.P,U1,5,P5*%
X129905000Y-73300000D03*
%TO.P,U1,6,P6*%
X128635000Y-73300000D03*
%TO.P,U1,7,P7*%
X127365000Y-73300000D03*
%TO.P,U1,8,P8*%
X126095000Y-73300000D03*
%TD*%
D10*
%TO.P,PD16,G,GUARD*%
%TO.N,GND*%
X82500000Y-118270000D03*
D11*
%TO.P,PD16,S,SIGNAL*%
%TO.N,SP16*%
X82500000Y-115730000D03*
%TD*%
D12*
%TO.P,TP11,1,PROBE*%
%TO.N,SP11*%
X103300000Y-98730000D03*
%TD*%
%TO.P,TP01,1,PROBE*%
%TO.N,SP01*%
X69300000Y-73230000D03*
%TD*%
D10*
%TO.P,PD12,G,GUARD*%
%TO.N,GND*%
X116500000Y-101270000D03*
D11*
%TO.P,PD12,S,SIGNAL*%
%TO.N,SP12*%
X116500000Y-98730000D03*
%TD*%
D12*
%TO.P,TP20,1,PROBE*%
%TO.N,SP20*%
X120300000Y-124230000D03*
%TD*%
D10*
%TO.P,PD21,G,GUARD*%
%TO.N,GND*%
X91000000Y-101270000D03*
D11*
%TO.P,PD21,S,SIGNAL*%
%TO.N,SP21*%
X91000000Y-98730000D03*
%TD*%
D12*
%TO.P,TP12,1,PROBE*%
%TO.N,SP12*%
X120300000Y-98730000D03*
%TD*%
D10*
%TO.P,PD04,G,GUARD*%
%TO.N,GND*%
X82500000Y-84270000D03*
D11*
%TO.P,PD04,S,SIGNAL*%
%TO.N,SP04*%
X82500000Y-81730000D03*
%TD*%
D10*
%TO.P,PD01,G,GUARD*%
%TO.N,GND*%
X65500000Y-75770000D03*
D11*
%TO.P,PD01,S,SIGNAL*%
%TO.N,SP01*%
X65500000Y-73230000D03*
%TD*%
D10*
%TO.P,PD18,G,GUARD*%
%TO.N,GND*%
X65500000Y-126770000D03*
D11*
%TO.P,PD18,S,SIGNAL*%
%TO.N,SP18*%
X65500000Y-124230000D03*
%TD*%
D12*
%TO.P,TP21,1,PROBE*%
%TO.N,SP21*%
X94800000Y-98730000D03*
%TD*%
D15*
%TO.P,J2,1,+5V*%
%TO.N,+5V*%
X55000000Y-88570000D03*
D16*
%TO.P,J2,2,+3V3*%
%TO.N,+3V3*%
X55000000Y-91110000D03*
%TO.P,J2,3,GND*%
%TO.N,GND*%
X55000000Y-93650000D03*
%TO.P,J2,4,FRAME_TRIG*%
%TO.N,FRAME_TRIG*%
X55000000Y-96190000D03*
%TO.P,J2,5,EVENT_SYNC*%
%TO.N,EVENT_SYNC*%
X55000000Y-98730000D03*
%TO.P,J2,6,ADC_CLK*%
%TO.N,ADC_CLK*%
X55000000Y-101270000D03*
%TO.P,J2,7,I2C_SDA*%
%TO.N,I2C_SDA*%
X55000000Y-103810000D03*
%TO.P,J2,8,I2C_SCL*%
%TO.N,I2C_SCL*%
X55000000Y-106350000D03*
%TO.P,J2,9,SCAN_TTL*%
%TO.N,SCAN_TTL*%
X55000000Y-108890000D03*
%TO.P,J2,10,GPIO0*%
%TO.N,GPIO0*%
X55000000Y-111430000D03*
%TD*%
D10*
%TO.P,PD13,G,GUARD*%
%TO.N,GND*%
X74000000Y-109770000D03*
D11*
%TO.P,PD13,S,SIGNAL*%
%TO.N,SP13*%
X74000000Y-107230000D03*
%TD*%
D12*
%TO.P,TP19,1,PROBE*%
%TO.N,SP19*%
X94800000Y-124230000D03*
%TD*%
%TO.P,TP17,1,PROBE*%
%TO.N,SP17*%
X103300000Y-115730000D03*
%TD*%
%TO.P,TP13,1,PROBE*%
%TO.N,SP13*%
X77800000Y-107230000D03*
%TD*%
%TO.P,TP05,1,PROBE*%
%TO.N,SP05*%
X103300000Y-81730000D03*
%TD*%
%TO.P,TP03,1,PROBE*%
%TO.N,SP03*%
X120300000Y-73230000D03*
%TD*%
D15*
%TO.P,J1,1,EXP_01*%
%TO.N,EXP_01*%
X143730000Y-75870000D03*
D16*
%TO.P,J1,2,GND*%
%TO.N,GND*%
X146270000Y-75870000D03*
D15*
%TO.P,J1,3,EXP_02*%
%TO.N,EXP_02*%
X143730000Y-78410000D03*
D16*
%TO.P,J1,4,GND*%
%TO.N,GND*%
X146270000Y-78410000D03*
D15*
%TO.P,J1,5,EXP_03*%
%TO.N,EXP_03*%
X143730000Y-80950000D03*
D16*
%TO.P,J1,6,GND*%
%TO.N,GND*%
X146270000Y-80950000D03*
D15*
%TO.P,J1,7,EXP_04*%
%TO.N,EXP_04*%
X143730000Y-83490000D03*
D16*
%TO.P,J1,8,GND*%
%TO.N,GND*%
X146270000Y-83490000D03*
D15*
%TO.P,J1,9,EXP_05*%
%TO.N,EXP_05*%
X143730000Y-86030000D03*
D16*
%TO.P,J1,10,GND*%
%TO.N,GND*%
X146270000Y-86030000D03*
D15*
%TO.P,J1,11,EXP_06*%
%TO.N,EXP_06*%
X143730000Y-88570000D03*
D16*
%TO.P,J1,12,GND*%
%TO.N,GND*%
X146270000Y-88570000D03*
D15*
%TO.P,J1,13,EXP_07*%
%TO.N,EXP_07*%
X143730000Y-91110000D03*
D16*
%TO.P,J1,14,GND*%
%TO.N,GND*%
X146270000Y-91110000D03*
D15*
%TO.P,J1,15,EXP_08*%
%TO.N,EXP_08*%
X143730000Y-93650000D03*
D16*
%TO.P,J1,16,GND*%
%TO.N,GND*%
X146270000Y-93650000D03*
D15*
%TO.P,J1,17,EXP_09*%
%TO.N,EXP_09*%
X143730000Y-96190000D03*
D16*
%TO.P,J1,18,GND*%
%TO.N,GND*%
X146270000Y-96190000D03*
D15*
%TO.P,J1,19,EXP_10*%
%TO.N,EXP_10*%
X143730000Y-98730000D03*
D16*
%TO.P,J1,20,GND*%
%TO.N,GND*%
X146270000Y-98730000D03*
D15*
%TO.P,J1,21,EXP_11*%
%TO.N,EXP_11*%
X143730000Y-101270000D03*
D16*
%TO.P,J1,22,GND*%
%TO.N,GND*%
X146270000Y-101270000D03*
D15*
%TO.P,J1,23,EXP_12*%
%TO.N,EXP_12*%
X143730000Y-103810000D03*
D16*
%TO.P,J1,24,GND*%
%TO.N,GND*%
X146270000Y-103810000D03*
D15*
%TO.P,J1,25,EXP_13*%
%TO.N,EXP_13*%
X143730000Y-106350000D03*
D16*
%TO.P,J1,26,GND*%
%TO.N,GND*%
X146270000Y-106350000D03*
D15*
%TO.P,J1,27,EXP_14*%
%TO.N,EXP_14*%
X143730000Y-108890000D03*
D16*
%TO.P,J1,28,GND*%
%TO.N,GND*%
X146270000Y-108890000D03*
D15*
%TO.P,J1,29,EXP_15*%
%TO.N,EXP_15*%
X143730000Y-111430000D03*
D16*
%TO.P,J1,30,GND*%
%TO.N,GND*%
X146270000Y-111430000D03*
D15*
%TO.P,J1,31,EXP_16*%
%TO.N,EXP_16*%
X143730000Y-113970000D03*
D16*
%TO.P,J1,32,GND*%
%TO.N,GND*%
X146270000Y-113970000D03*
D15*
%TO.P,J1,33,EXP_17*%
%TO.N,EXP_17*%
X143730000Y-116510000D03*
D16*
%TO.P,J1,34,GND*%
%TO.N,GND*%
X146270000Y-116510000D03*
D15*
%TO.P,J1,35,EXP_18*%
%TO.N,EXP_18*%
X143730000Y-119050000D03*
D16*
%TO.P,J1,36,GND*%
%TO.N,GND*%
X146270000Y-119050000D03*
D15*
%TO.P,J1,37,EXP_19*%
%TO.N,EXP_19*%
X143730000Y-121590000D03*
D16*
%TO.P,J1,38,GND*%
%TO.N,GND*%
X146270000Y-121590000D03*
D15*
%TO.P,J1,39,EXP_20*%
%TO.N,EXP_20*%
X143730000Y-124130000D03*
D16*
%TO.P,J1,40,GND*%
%TO.N,GND*%
X146270000Y-124130000D03*
%TD*%
D10*
%TO.P,PD07,G,GUARD*%
%TO.N,GND*%
X91000000Y-92770000D03*
D11*
%TO.P,PD07,S,SIGNAL*%
%TO.N,SP07*%
X91000000Y-90230000D03*
%TD*%
D10*
%TO.P,PD08,G,GUARD*%
%TO.N,GND*%
X108000000Y-92770000D03*
D11*
%TO.P,PD08,S,SIGNAL*%
%TO.N,SP08*%
X108000000Y-90230000D03*
%TD*%
D17*
%TO.P,U4,1,P1*%
%TO.N,N/C*%
X108250000Y-133150000D03*
%TO.P,U4,2,P2*%
X108750000Y-133150000D03*
%TO.P,U4,3,P3*%
X109250000Y-133150000D03*
%TO.P,U4,4,P4*%
X109750000Y-133150000D03*
%TO.P,U4,5,P5*%
X110250000Y-133150000D03*
%TO.P,U4,6,P6*%
X110750000Y-133150000D03*
%TO.P,U4,7,P7*%
X111250000Y-133150000D03*
%TO.P,U4,8,P8*%
X111750000Y-133150000D03*
%TO.P,U4,9,P9*%
X112250000Y-133150000D03*
%TO.P,U4,10,P10*%
X112750000Y-133150000D03*
%TO.P,U4,11,P11*%
X113250000Y-133150000D03*
%TO.P,U4,12,P12*%
X113750000Y-133150000D03*
D18*
%TO.P,U4,13,P13*%
X114850000Y-134250000D03*
%TO.P,U4,14,P14*%
X114850000Y-134750000D03*
%TO.P,U4,15,P15*%
X114850000Y-135250000D03*
%TO.P,U4,16,P16*%
X114850000Y-135750000D03*
%TO.P,U4,17,P17*%
X114850000Y-136250000D03*
%TO.P,U4,18,P18*%
X114850000Y-136750000D03*
%TO.P,U4,19,P19*%
X114850000Y-137250000D03*
%TO.P,U4,20,P20*%
X114850000Y-137750000D03*
%TO.P,U4,21,P21*%
X114850000Y-138250000D03*
%TO.P,U4,22,P22*%
X114850000Y-138750000D03*
%TO.P,U4,23,P23*%
X114850000Y-139250000D03*
%TO.P,U4,24,P24*%
X114850000Y-139750000D03*
D17*
%TO.P,U4,25,P25*%
X113750000Y-140850000D03*
%TO.P,U4,26,P26*%
X113250000Y-140850000D03*
%TO.P,U4,27,P27*%
X112750000Y-140850000D03*
%TO.P,U4,28,P28*%
X112250000Y-140850000D03*
%TO.P,U4,29,P29*%
X111750000Y-140850000D03*
%TO.P,U4,30,P30*%
X111250000Y-140850000D03*
%TO.P,U4,31,P31*%
X110750000Y-140850000D03*
%TO.P,U4,32,P32*%
X110250000Y-140850000D03*
%TO.P,U4,33,P33*%
X109750000Y-140850000D03*
%TO.P,U4,34,P34*%
X109250000Y-140850000D03*
%TO.P,U4,35,P35*%
X108750000Y-140850000D03*
%TO.P,U4,36,P36*%
X108250000Y-140850000D03*
D18*
%TO.P,U4,37,P37*%
X107150000Y-139750000D03*
%TO.P,U4,38,P38*%
X107150000Y-139250000D03*
%TO.P,U4,39,P39*%
X107150000Y-138750000D03*
%TO.P,U4,40,P40*%
%TO.N,U4_P40*%
X107150000Y-138250000D03*
%TO.P,U4,41,P41*%
%TO.N,U4_P41*%
X107150000Y-137750000D03*
%TO.P,U4,42,P42*%
%TO.N,U4_P42*%
X107150000Y-137250000D03*
%TO.P,U4,43,P43*%
%TO.N,U4_P43*%
X107150000Y-136750000D03*
%TO.P,U4,44,P44*%
%TO.N,U4_P44*%
X107150000Y-136250000D03*
%TO.P,U4,45,P45*%
%TO.N,U4_P45*%
X107150000Y-135750000D03*
%TO.P,U4,46,P46*%
%TO.N,U4_P46*%
X107150000Y-135250000D03*
%TO.P,U4,47,P47*%
%TO.N,U4_P47*%
X107150000Y-134750000D03*
%TO.P,U4,48,P48*%
%TO.N,U4_P48*%
X107150000Y-134250000D03*
D19*
%TO.P,U4,EP,EP*%
%TO.N,GND*%
X111000000Y-137000000D03*
%TD*%
D12*
%TO.P,TP04,1,PROBE*%
%TO.N,SP04*%
X86300000Y-81730000D03*
%TD*%
D10*
%TO.P,PD10,G,GUARD*%
%TO.N,GND*%
X82500000Y-101270000D03*
D11*
%TO.P,PD10,S,SIGNAL*%
%TO.N,SP10*%
X82500000Y-98730000D03*
%TD*%
D14*
%TO.P,U3,1,P1*%
%TO.N,N/C*%
X126095000Y-126700000D03*
%TO.P,U3,2,P2*%
X127365000Y-126700000D03*
%TO.P,U3,3,P3*%
X128635000Y-126700000D03*
%TO.P,U3,4,P4*%
X129905000Y-126700000D03*
%TO.P,U3,5,P5*%
X129905000Y-121300000D03*
%TO.P,U3,6,P6*%
X128635000Y-121300000D03*
%TO.P,U3,7,P7*%
X127365000Y-121300000D03*
%TO.P,U3,8,P8*%
X126095000Y-121300000D03*
%TD*%
D12*
%TO.P,TP08,1,PROBE*%
%TO.N,SP08*%
X111800000Y-90230000D03*
%TD*%
%TO.P,TP10,1,PROBE*%
%TO.N,SP10*%
X86300000Y-98730000D03*
%TD*%
%TO.P,TP09,1,PROBE*%
%TO.N,SP09*%
X69300000Y-98730000D03*
%TD*%
D10*
%TO.P,PD02,G,GUARD*%
%TO.N,GND*%
X91000000Y-75770000D03*
D11*
%TO.P,PD02,S,SIGNAL*%
%TO.N,SP02*%
X91000000Y-73230000D03*
%TD*%
D12*
%TO.P,TP18,1,PROBE*%
%TO.N,SP18*%
X69300000Y-124230000D03*
%TD*%
%TO.P,TP14,1,PROBE*%
%TO.N,SP14*%
X94800000Y-107230000D03*
%TD*%
D14*
%TO.P,U2,1,P1*%
%TO.N,N/C*%
X126095000Y-102700000D03*
%TO.P,U2,2,P2*%
X127365000Y-102700000D03*
%TO.P,U2,3,P3*%
X128635000Y-102700000D03*
%TO.P,U2,4,P4*%
X129905000Y-102700000D03*
%TO.P,U2,5,P5*%
X129905000Y-97300000D03*
%TO.P,U2,6,P6*%
X128635000Y-97300000D03*
%TO.P,U2,7,P7*%
X127365000Y-97300000D03*
%TO.P,U2,8,P8*%
X126095000Y-97300000D03*
%TD*%
D10*
%TO.P,PD05,G,GUARD*%
%TO.N,GND*%
X99500000Y-84270000D03*
D11*
%TO.P,PD05,S,SIGNAL*%
%TO.N,SP05*%
X99500000Y-81730000D03*
%TD*%
D13*
%TO.P,J3,1,SIG*%
%TO.N,SYNC_IN*%
X67000000Y-137000000D03*
D10*
%TO.P,J3,2,GND*%
%TO.N,GND*%
X64460000Y-134460000D03*
%TO.P,J3,3,GND*%
X69540000Y-134460000D03*
%TO.P,J3,4,GND*%
X64460000Y-139540000D03*
%TO.P,J3,5,GND*%
X69540000Y-139540000D03*
%TD*%
%TO.P,PD19,G,GUARD*%
%TO.N,GND*%
X91000000Y-126770000D03*
D11*
%TO.P,PD19,S,SIGNAL*%
%TO.N,SP19*%
X91000000Y-124230000D03*
%TD*%
D10*
%TO.P,PD15,G,GUARD*%
%TO.N,GND*%
X108000000Y-109770000D03*
D11*
%TO.P,PD15,S,SIGNAL*%
%TO.N,SP15*%
X108000000Y-107230000D03*
%TD*%
D20*
%TO.N,GND*%
X111000000Y-137000000D03*
%TD*%
%TO.N,SP01*%
D21*
X65500000Y-73230000D02*
X69300000Y-73230000D01*
%TO.N,SP02*%
X91000000Y-73230000D02*
X94800000Y-73230000D01*
%TO.N,SP03*%
X116500000Y-73230000D02*
X120300000Y-73230000D01*
%TO.N,SP04*%
X82500000Y-81730000D02*
X86300000Y-81730000D01*
%TO.N,SP05*%
X99500000Y-81730000D02*
X103300000Y-81730000D01*
%TO.N,SP06*%
X74000000Y-90230000D02*
X77800000Y-90230000D01*
%TO.N,SP07*%
X91000000Y-90230000D02*
X94800000Y-90230000D01*
%TO.N,SP08*%
X108000000Y-90230000D02*
X111800000Y-90230000D01*
%TO.N,SP09*%
X65500000Y-98730000D02*
X69300000Y-98730000D01*
%TO.N,SP10*%
X82500000Y-98730000D02*
X86300000Y-98730000D01*
%TO.N,SP11*%
X99500000Y-98730000D02*
X103300000Y-98730000D01*
%TO.N,SP12*%
X116500000Y-98730000D02*
X120300000Y-98730000D01*
%TO.N,SP13*%
X74000000Y-107230000D02*
X77800000Y-107230000D01*
%TO.N,SP14*%
X91000000Y-107230000D02*
X94800000Y-107230000D01*
%TO.N,SP15*%
X108000000Y-107230000D02*
X111800000Y-107230000D01*
%TO.N,SP16*%
X82500000Y-115730000D02*
X86300000Y-115730000D01*
%TO.N,SP17*%
X99500000Y-115730000D02*
X103300000Y-115730000D01*
%TO.N,SP18*%
X65500000Y-124230000D02*
X69300000Y-124230000D01*
%TO.N,SP19*%
X91000000Y-124230000D02*
X94800000Y-124230000D01*
%TO.N,SP20*%
X116500000Y-124230000D02*
X120300000Y-124230000D01*
%TO.N,SP21*%
X91000000Y-98730000D02*
X94800000Y-98730000D01*
%TD*%
M02*
