<svg xmlns="http://www.w3.org/2000/svg" width="1200" height="820" viewBox="0 0 1200 820">
<defs>
<filter id="softShadow" x="-20%" y="-20%" width="140%" height="140%"><feDropShadow dx="0" dy="8" stdDeviation="8" flood-color="#0f172a" flood-opacity="0.18"/></filter>
</defs>
<rect width="100%" height="100%" fill="#f8fafc"/>
<defs><marker id="arrow" markerWidth="10" markerHeight="10" refX="7" refY="3" orient="auto"><path d="M0,0 L0,6 L8,3 z" fill="#334155"/></marker></defs>
<text x="60" y="70" font-family="Arial" font-size="34" font-weight="700" fill="#111827">HybridCamera Weiqi-Board Sensor Concept</text>
<text x="60" y="108" font-family="Arial" font-size="18" fill="#475569">Central high dynamic range bucket detector with alternating event and frame tiles</text>
<rect x="76" y="126" width="648" height="648" rx="26" fill="#ffffff" stroke="#cbd5e1" stroke-width="2" filter="url(#softShadow)"/>
<rect x="100.0" y="150.0" width="66.7" height="66.7" fill="#dbeafe" stroke="#111827" stroke-width="1.2"/>
<text x="133.3" y="189.3" text-anchor="middle" font-family="Arial" font-size="17" font-weight="700" fill="#2563eb">EV</text>
<rect x="166.7" y="150.0" width="66.7" height="66.7" fill="#dcfce7" stroke="#111827" stroke-width="1.2"/>
<text x="200.0" y="189.3" text-anchor="middle" font-family="Arial" font-size="17" font-weight="700" fill="#16a34a">FR</text>
<rect x="233.3" y="150.0" width="66.7" height="66.7" fill="#dbeafe" stroke="#111827" stroke-width="1.2"/>
<text x="266.7" y="189.3" text-anchor="middle" font-family="Arial" font-size="17" font-weight="700" fill="#2563eb">EV</text>
<rect x="300.0" y="150.0" width="66.7" height="66.7" fill="#dcfce7" stroke="#111827" stroke-width="1.2"/>
<text x="333.3" y="189.3" text-anchor="middle" font-family="Arial" font-size="17" font-weight="700" fill="#16a34a">FR</text>
<rect x="366.7" y="150.0" width="66.7" height="66.7" fill="#dbeafe" stroke="#111827" stroke-width="1.2"/>
<text x="400.0" y="189.3" text-anchor="middle" font-family="Arial" font-size="17" font-weight="700" fill="#2563eb">EV</text>
<rect x="433.3" y="150.0" width="66.7" height="66.7" fill="#dcfce7" stroke="#111827" stroke-width="1.2"/>
<text x="466.7" y="189.3" text-anchor="middle" font-family="Arial" font-size="17" font-weight="700" fill="#16a34a">FR</text>
<rect x="500.0" y="150.0" width="66.7" height="66.7" fill="#dbeafe" stroke="#111827" stroke-width="1.2"/>
<text x="533.3" y="189.3" text-anchor="middle" font-family="Arial" font-size="17" font-weight="700" fill="#2563eb">EV</text>
<rect x="566.7" y="150.0" width="66.7" height="66.7" fill="#dcfce7" stroke="#111827" stroke-width="1.2"/>
<text x="600.0" y="189.3" text-anchor="middle" font-family="Arial" font-size="17" font-weight="700" fill="#16a34a">FR</text>
<rect x="633.3" y="150.0" width="66.7" height="66.7" fill="#dbeafe" stroke="#111827" stroke-width="1.2"/>
<text x="666.7" y="189.3" text-anchor="middle" font-family="Arial" font-size="17" font-weight="700" fill="#2563eb">EV</text>
<rect x="100.0" y="216.7" width="66.7" height="66.7" fill="#dcfce7" stroke="#111827" stroke-width="1.2"/>
<text x="133.3" y="256.0" text-anchor="middle" font-family="Arial" font-size="17" font-weight="700" fill="#16a34a">FR</text>
<rect x="166.7" y="216.7" width="66.7" height="66.7" fill="#dbeafe" stroke="#111827" stroke-width="1.2"/>
<text x="200.0" y="256.0" text-anchor="middle" font-family="Arial" font-size="17" font-weight="700" fill="#2563eb">EV</text>
<rect x="233.3" y="216.7" width="66.7" height="66.7" fill="#dcfce7" stroke="#111827" stroke-width="1.2"/>
<text x="266.7" y="256.0" text-anchor="middle" font-family="Arial" font-size="17" font-weight="700" fill="#16a34a">FR</text>
<rect x="300.0" y="216.7" width="66.7" height="66.7" fill="#dbeafe" stroke="#111827" stroke-width="1.2"/>
<text x="333.3" y="256.0" text-anchor="middle" font-family="Arial" font-size="17" font-weight="700" fill="#2563eb">EV</text>
<rect x="366.7" y="216.7" width="66.7" height="66.7" fill="#dcfce7" stroke="#111827" stroke-width="1.2"/>
<text x="400.0" y="256.0" text-anchor="middle" font-family="Arial" font-size="17" font-weight="700" fill="#16a34a">FR</text>
<rect x="433.3" y="216.7" width="66.7" height="66.7" fill="#dbeafe" stroke="#111827" stroke-width="1.2"/>
<text x="466.7" y="256.0" text-anchor="middle" font-family="Arial" font-size="17" font-weight="700" fill="#2563eb">EV</text>
<rect x="500.0" y="216.7" width="66.7" height="66.7" fill="#dcfce7" stroke="#111827" stroke-width="1.2"/>
<text x="533.3" y="256.0" text-anchor="middle" font-family="Arial" font-size="17" font-weight="700" fill="#16a34a">FR</text>
<rect x="566.7" y="216.7" width="66.7" height="66.7" fill="#dbeafe" stroke="#111827" stroke-width="1.2"/>
<text x="600.0" y="256.0" text-anchor="middle" font-family="Arial" font-size="17" font-weight="700" fill="#2563eb">EV</text>
<rect x="633.3" y="216.7" width="66.7" height="66.7" fill="#dcfce7" stroke="#111827" stroke-width="1.2"/>
<text x="666.7" y="256.0" text-anchor="middle" font-family="Arial" font-size="17" font-weight="700" fill="#16a34a">FR</text>
<rect x="100.0" y="283.3" width="66.7" height="66.7" fill="#dbeafe" stroke="#111827" stroke-width="1.2"/>
<text x="133.3" y="322.7" text-anchor="middle" font-family="Arial" font-size="17" font-weight="700" fill="#2563eb">EV</text>
<rect x="166.7" y="283.3" width="66.7" height="66.7" fill="#dcfce7" stroke="#111827" stroke-width="1.2"/>
<text x="200.0" y="322.7" text-anchor="middle" font-family="Arial" font-size="17" font-weight="700" fill="#16a34a">FR</text>
<rect x="233.3" y="283.3" width="66.7" height="66.7" fill="#dbeafe" stroke="#111827" stroke-width="1.2"/>
<text x="266.7" y="322.7" text-anchor="middle" font-family="Arial" font-size="17" font-weight="700" fill="#2563eb">EV</text>
<rect x="300.0" y="283.3" width="66.7" height="66.7" fill="#dcfce7" stroke="#111827" stroke-width="1.2"/>
<text x="333.3" y="322.7" text-anchor="middle" font-family="Arial" font-size="17" font-weight="700" fill="#16a34a">FR</text>
<rect x="366.7" y="283.3" width="66.7" height="66.7" fill="#dbeafe" stroke="#111827" stroke-width="1.2"/>
<text x="400.0" y="322.7" text-anchor="middle" font-family="Arial" font-size="17" font-weight="700" fill="#2563eb">EV</text>
<rect x="433.3" y="283.3" width="66.7" height="66.7" fill="#dcfce7" stroke="#111827" stroke-width="1.2"/>
<text x="466.7" y="322.7" text-anchor="middle" font-family="Arial" font-size="17" font-weight="700" fill="#16a34a">FR</text>
<rect x="500.0" y="283.3" width="66.7" height="66.7" fill="#dbeafe" stroke="#111827" stroke-width="1.2"/>
<text x="533.3" y="322.7" text-anchor="middle" font-family="Arial" font-size="17" font-weight="700" fill="#2563eb">EV</text>
<rect x="566.7" y="283.3" width="66.7" height="66.7" fill="#dcfce7" stroke="#111827" stroke-width="1.2"/>
<text x="600.0" y="322.7" text-anchor="middle" font-family="Arial" font-size="17" font-weight="700" fill="#16a34a">FR</text>
<rect x="633.3" y="283.3" width="66.7" height="66.7" fill="#dbeafe" stroke="#111827" stroke-width="1.2"/>
<text x="666.7" y="322.7" text-anchor="middle" font-family="Arial" font-size="17" font-weight="700" fill="#2563eb">EV</text>
<rect x="100.0" y="350.0" width="66.7" height="66.7" fill="#dcfce7" stroke="#111827" stroke-width="1.2"/>
<text x="133.3" y="389.3" text-anchor="middle" font-family="Arial" font-size="17" font-weight="700" fill="#16a34a">FR</text>
<rect x="166.7" y="350.0" width="66.7" height="66.7" fill="#dbeafe" stroke="#111827" stroke-width="1.2"/>
<text x="200.0" y="389.3" text-anchor="middle" font-family="Arial" font-size="17" font-weight="700" fill="#2563eb">EV</text>
<rect x="233.3" y="350.0" width="66.7" height="66.7" fill="#dcfce7" stroke="#111827" stroke-width="1.2"/>
<text x="266.7" y="389.3" text-anchor="middle" font-family="Arial" font-size="17" font-weight="700" fill="#16a34a">FR</text>
<rect x="300.0" y="350.0" width="66.7" height="66.7" fill="#dbeafe" stroke="#111827" stroke-width="1.2"/>
<text x="333.3" y="389.3" text-anchor="middle" font-family="Arial" font-size="17" font-weight="700" fill="#2563eb">EV</text>
<rect x="366.7" y="350.0" width="66.7" height="66.7" fill="#dcfce7" stroke="#111827" stroke-width="1.2"/>
<text x="400.0" y="389.3" text-anchor="middle" font-family="Arial" font-size="17" font-weight="700" fill="#16a34a">FR</text>
<rect x="433.3" y="350.0" width="66.7" height="66.7" fill="#dbeafe" stroke="#111827" stroke-width="1.2"/>
<text x="466.7" y="389.3" text-anchor="middle" font-family="Arial" font-size="17" font-weight="700" fill="#2563eb">EV</text>
<rect x="500.0" y="350.0" width="66.7" height="66.7" fill="#dcfce7" stroke="#111827" stroke-width="1.2"/>
<text x="533.3" y="389.3" text-anchor="middle" font-family="Arial" font-size="17" font-weight="700" fill="#16a34a">FR</text>
<rect x="566.7" y="350.0" width="66.7" height="66.7" fill="#dbeafe" stroke="#111827" stroke-width="1.2"/>
<text x="600.0" y="389.3" text-anchor="middle" font-family="Arial" font-size="17" font-weight="700" fill="#2563eb">EV</text>
<rect x="633.3" y="350.0" width="66.7" height="66.7" fill="#dcfce7" stroke="#111827" stroke-width="1.2"/>
<text x="666.7" y="389.3" text-anchor="middle" font-family="Arial" font-size="17" font-weight="700" fill="#16a34a">FR</text>
<rect x="100.0" y="416.7" width="66.7" height="66.7" fill="#dbeafe" stroke="#111827" stroke-width="1.2"/>
<text x="133.3" y="456.0" text-anchor="middle" font-family="Arial" font-size="17" font-weight="700" fill="#2563eb">EV</text>
<rect x="166.7" y="416.7" width="66.7" height="66.7" fill="#dcfce7" stroke="#111827" stroke-width="1.2"/>
<text x="200.0" y="456.0" text-anchor="middle" font-family="Arial" font-size="17" font-weight="700" fill="#16a34a">FR</text>
<rect x="233.3" y="416.7" width="66.7" height="66.7" fill="#dbeafe" stroke="#111827" stroke-width="1.2"/>
<text x="266.7" y="456.0" text-anchor="middle" font-family="Arial" font-size="17" font-weight="700" fill="#2563eb">EV</text>
<rect x="300.0" y="416.7" width="66.7" height="66.7" fill="#dcfce7" stroke="#111827" stroke-width="1.2"/>
<text x="333.3" y="456.0" text-anchor="middle" font-family="Arial" font-size="17" font-weight="700" fill="#16a34a">FR</text>
<rect x="366.7" y="416.7" width="66.7" height="66.7" fill="#fef3c7" stroke="#111827" stroke-width="1.2"/>
<circle cx="400.0" cy="450.0" r="22.0" fill="#fde68a" stroke="#d97706" stroke-width="4"/>
<text x="400.0" y="458.0" text-anchor="middle" font-family="Arial" font-size="22" font-weight="700" fill="#92400e">SP</text>
<rect x="433.3" y="416.7" width="66.7" height="66.7" fill="#dcfce7" stroke="#111827" stroke-width="1.2"/>
<text x="466.7" y="456.0" text-anchor="middle" font-family="Arial" font-size="17" font-weight="700" fill="#16a34a">FR</text>
<rect x="500.0" y="416.7" width="66.7" height="66.7" fill="#dbeafe" stroke="#111827" stroke-width="1.2"/>
<text x="533.3" y="456.0" text-anchor="middle" font-family="Arial" font-size="17" font-weight="700" fill="#2563eb">EV</text>
<rect x="566.7" y="416.7" width="66.7" height="66.7" fill="#dcfce7" stroke="#111827" stroke-width="1.2"/>
<text x="600.0" y="456.0" text-anchor="middle" font-family="Arial" font-size="17" font-weight="700" fill="#16a34a">FR</text>
<rect x="633.3" y="416.7" width="66.7" height="66.7" fill="#dbeafe" stroke="#111827" stroke-width="1.2"/>
<text x="666.7" y="456.0" text-anchor="middle" font-family="Arial" font-size="17" font-weight="700" fill="#2563eb">EV</text>
<rect x="100.0" y="483.3" width="66.7" height="66.7" fill="#dcfce7" stroke="#111827" stroke-width="1.2"/>
<text x="133.3" y="522.7" text-anchor="middle" font-family="Arial" font-size="17" font-weight="700" fill="#16a34a">FR</text>
<rect x="166.7" y="483.3" width="66.7" height="66.7" fill="#dbeafe" stroke="#111827" stroke-width="1.2"/>
<text x="200.0" y="522.7" text-anchor="middle" font-family="Arial" font-size="17" font-weight="700" fill="#2563eb">EV</text>
<rect x="233.3" y="483.3" width="66.7" height="66.7" fill="#dcfce7" stroke="#111827" stroke-width="1.2"/>
<text x="266.7" y="522.7" text-anchor="middle" font-family="Arial" font-size="17" font-weight="700" fill="#16a34a">FR</text>
<rect x="300.0" y="483.3" width="66.7" height="66.7" fill="#dbeafe" stroke="#111827" stroke-width="1.2"/>
<text x="333.3" y="522.7" text-anchor="middle" font-family="Arial" font-size="17" font-weight="700" fill="#2563eb">EV</text>
<rect x="366.7" y="483.3" width="66.7" height="66.7" fill="#dcfce7" stroke="#111827" stroke-width="1.2"/>
<text x="400.0" y="522.7" text-anchor="middle" font-family="Arial" font-size="17" font-weight="700" fill="#16a34a">FR</text>
<rect x="433.3" y="483.3" width="66.7" height="66.7" fill="#dbeafe" stroke="#111827" stroke-width="1.2"/>
<text x="466.7" y="522.7" text-anchor="middle" font-family="Arial" font-size="17" font-weight="700" fill="#2563eb">EV</text>
<rect x="500.0" y="483.3" width="66.7" height="66.7" fill="#dcfce7" stroke="#111827" stroke-width="1.2"/>
<text x="533.3" y="522.7" text-anchor="middle" font-family="Arial" font-size="17" font-weight="700" fill="#16a34a">FR</text>
<rect x="566.7" y="483.3" width="66.7" height="66.7" fill="#dbeafe" stroke="#111827" stroke-width="1.2"/>
<text x="600.0" y="522.7" text-anchor="middle" font-family="Arial" font-size="17" font-weight="700" fill="#2563eb">EV</text>
<rect x="633.3" y="483.3" width="66.7" height="66.7" fill="#dcfce7" stroke="#111827" stroke-width="1.2"/>
<text x="666.7" y="522.7" text-anchor="middle" font-family="Arial" font-size="17" font-weight="700" fill="#16a34a">FR</text>
<rect x="100.0" y="550.0" width="66.7" height="66.7" fill="#dbeafe" stroke="#111827" stroke-width="1.2"/>
<text x="133.3" y="589.3" text-anchor="middle" font-family="Arial" font-size="17" font-weight="700" fill="#2563eb">EV</text>
<rect x="166.7" y="550.0" width="66.7" height="66.7" fill="#dcfce7" stroke="#111827" stroke-width="1.2"/>
<text x="200.0" y="589.3" text-anchor="middle" font-family="Arial" font-size="17" font-weight="700" fill="#16a34a">FR</text>
<rect x="233.3" y="550.0" width="66.7" height="66.7" fill="#dbeafe" stroke="#111827" stroke-width="1.2"/>
<text x="266.7" y="589.3" text-anchor="middle" font-family="Arial" font-size="17" font-weight="700" fill="#2563eb">EV</text>
<rect x="300.0" y="550.0" width="66.7" height="66.7" fill="#dcfce7" stroke="#111827" stroke-width="1.2"/>
<text x="333.3" y="589.3" text-anchor="middle" font-family="Arial" font-size="17" font-weight="700" fill="#16a34a">FR</text>
<rect x="366.7" y="550.0" width="66.7" height="66.7" fill="#dbeafe" stroke="#111827" stroke-width="1.2"/>
<text x="400.0" y="589.3" text-anchor="middle" font-family="Arial" font-size="17" font-weight="700" fill="#2563eb">EV</text>
<rect x="433.3" y="550.0" width="66.7" height="66.7" fill="#dcfce7" stroke="#111827" stroke-width="1.2"/>
<text x="466.7" y="589.3" text-anchor="middle" font-family="Arial" font-size="17" font-weight="700" fill="#16a34a">FR</text>
<rect x="500.0" y="550.0" width="66.7" height="66.7" fill="#dbeafe" stroke="#111827" stroke-width="1.2"/>
<text x="533.3" y="589.3" text-anchor="middle" font-family="Arial" font-size="17" font-weight="700" fill="#2563eb">EV</text>
<rect x="566.7" y="550.0" width="66.7" height="66.7" fill="#dcfce7" stroke="#111827" stroke-width="1.2"/>
<text x="600.0" y="589.3" text-anchor="middle" font-family="Arial" font-size="17" font-weight="700" fill="#16a34a">FR</text>
<rect x="633.3" y="550.0" width="66.7" height="66.7" fill="#dbeafe" stroke="#111827" stroke-width="1.2"/>
<text x="666.7" y="589.3" text-anchor="middle" font-family="Arial" font-size="17" font-weight="700" fill="#2563eb">EV</text>
<rect x="100.0" y="616.7" width="66.7" height="66.7" fill="#dcfce7" stroke="#111827" stroke-width="1.2"/>
<text x="133.3" y="656.0" text-anchor="middle" font-family="Arial" font-size="17" font-weight="700" fill="#16a34a">FR</text>
<rect x="166.7" y="616.7" width="66.7" height="66.7" fill="#dbeafe" stroke="#111827" stroke-width="1.2"/>
<text x="200.0" y="656.0" text-anchor="middle" font-family="Arial" font-size="17" font-weight="700" fill="#2563eb">EV</text>
<rect x="233.3" y="616.7" width="66.7" height="66.7" fill="#dcfce7" stroke="#111827" stroke-width="1.2"/>
<text x="266.7" y="656.0" text-anchor="middle" font-family="Arial" font-size="17" font-weight="700" fill="#16a34a">FR</text>
<rect x="300.0" y="616.7" width="66.7" height="66.7" fill="#dbeafe" stroke="#111827" stroke-width="1.2"/>
<text x="333.3" y="656.0" text-anchor="middle" font-family="Arial" font-size="17" font-weight="700" fill="#2563eb">EV</text>
<rect x="366.7" y="616.7" width="66.7" height="66.7" fill="#dcfce7" stroke="#111827" stroke-width="1.2"/>
<text x="400.0" y="656.0" text-anchor="middle" font-family="Arial" font-size="17" font-weight="700" fill="#16a34a">FR</text>
<rect x="433.3" y="616.7" width="66.7" height="66.7" fill="#dbeafe" stroke="#111827" stroke-width="1.2"/>
<text x="466.7" y="656.0" text-anchor="middle" font-family="Arial" font-size="17" font-weight="700" fill="#2563eb">EV</text>
<rect x="500.0" y="616.7" width="66.7" height="66.7" fill="#dcfce7" stroke="#111827" stroke-width="1.2"/>
<text x="533.3" y="656.0" text-anchor="middle" font-family="Arial" font-size="17" font-weight="700" fill="#16a34a">FR</text>
<rect x="566.7" y="616.7" width="66.7" height="66.7" fill="#dbeafe" stroke="#111827" stroke-width="1.2"/>
<text x="600.0" y="656.0" text-anchor="middle" font-family="Arial" font-size="17" font-weight="700" fill="#2563eb">EV</text>
<rect x="633.3" y="616.7" width="66.7" height="66.7" fill="#dcfce7" stroke="#111827" stroke-width="1.2"/>
<text x="666.7" y="656.0" text-anchor="middle" font-family="Arial" font-size="17" font-weight="700" fill="#16a34a">FR</text>
<rect x="100.0" y="683.3" width="66.7" height="66.7" fill="#dbeafe" stroke="#111827" stroke-width="1.2"/>
<text x="133.3" y="722.7" text-anchor="middle" font-family="Arial" font-size="17" font-weight="700" fill="#2563eb">EV</text>
<rect x="166.7" y="683.3" width="66.7" height="66.7" fill="#dcfce7" stroke="#111827" stroke-width="1.2"/>
<text x="200.0" y="722.7" text-anchor="middle" font-family="Arial" font-size="17" font-weight="700" fill="#16a34a">FR</text>
<rect x="233.3" y="683.3" width="66.7" height="66.7" fill="#dbeafe" stroke="#111827" stroke-width="1.2"/>
<text x="266.7" y="722.7" text-anchor="middle" font-family="Arial" font-size="17" font-weight="700" fill="#2563eb">EV</text>
<rect x="300.0" y="683.3" width="66.7" height="66.7" fill="#dcfce7" stroke="#111827" stroke-width="1.2"/>
<text x="333.3" y="722.7" text-anchor="middle" font-family="Arial" font-size="17" font-weight="700" fill="#16a34a">FR</text>
<rect x="366.7" y="683.3" width="66.7" height="66.7" fill="#dbeafe" stroke="#111827" stroke-width="1.2"/>
<text x="400.0" y="722.7" text-anchor="middle" font-family="Arial" font-size="17" font-weight="700" fill="#2563eb">EV</text>
<rect x="433.3" y="683.3" width="66.7" height="66.7" fill="#dcfce7" stroke="#111827" stroke-width="1.2"/>
<text x="466.7" y="722.7" text-anchor="middle" font-family="Arial" font-size="17" font-weight="700" fill="#16a34a">FR</text>
<rect x="500.0" y="683.3" width="66.7" height="66.7" fill="#dbeafe" stroke="#111827" stroke-width="1.2"/>
<text x="533.3" y="722.7" text-anchor="middle" font-family="Arial" font-size="17" font-weight="700" fill="#2563eb">EV</text>
<rect x="566.7" y="683.3" width="66.7" height="66.7" fill="#dcfce7" stroke="#111827" stroke-width="1.2"/>
<text x="600.0" y="722.7" text-anchor="middle" font-family="Arial" font-size="17" font-weight="700" fill="#16a34a">FR</text>
<rect x="633.3" y="683.3" width="66.7" height="66.7" fill="#dbeafe" stroke="#111827" stroke-width="1.2"/>
<text x="666.7" y="722.7" text-anchor="middle" font-family="Arial" font-size="17" font-weight="700" fill="#2563eb">EV</text>
<circle cx="400.0" cy="450.0" r="70.0" fill="none" stroke="#7c3aed" stroke-width="7" stroke-dasharray="16 12"/>
<text x="400.0" y="543.3" text-anchor="middle" font-family="Arial" font-size="15" fill="#6d28d9">spectral ring / filter path</text>
<rect x="790" y="180" width="300" height="86" rx="14" fill="#eef2ff" stroke="#3730a3" stroke-width="2"/>
<text x="808" y="214" font-family="Arial" font-size="20" font-weight="700" fill="#3730a3">FPGA / MCU timing hub</text>
<text x="808" y="243" font-family="Arial" font-size="15" fill="#475569">shared timestamp, trigger, FIFO</text>
<rect x="790" y="305" width="300" height="86" rx="14" fill="#ecfeff" stroke="#0e7490" stroke-width="2"/>
<text x="808" y="339" font-family="Arial" font-size="20" font-weight="700" fill="#0e7490">Differential ADC</text>
<text x="808" y="368" font-family="Arial" font-size="15" fill="#475569">bucket trace + calibration</text>
<rect x="790" y="430" width="300" height="86" rx="14" fill="#fff7ed" stroke="#c2410c" stroke-width="2"/>
<text x="808" y="464" font-family="Arial" font-size="20" font-weight="700" fill="#c2410c">DAC thresholds</text>
<text x="808" y="493" font-family="Arial" font-size="15" fill="#475569">event ON/OFF references</text>
<rect x="790" y="555" width="300" height="86" rx="14" fill="#f0fdf4" stroke="#15803d" stroke-width="2"/>
<text x="808" y="589" font-family="Arial" font-size="20" font-weight="700" fill="#15803d">USB / Ethernet stream</text>
<text x="808" y="618" font-family="Arial" font-size="15" fill="#475569">events, frames, bucket, spectra</text>
<path d="M 710 450 C 750 420, 750 245, 790 225" fill="none" stroke="#334155" stroke-width="3" marker-end="url(#arrow)"/>
<path d="M 710 450 C 750 450, 750 350, 790 348" fill="none" stroke="#334155" stroke-width="3" marker-end="url(#arrow)"/>
<path d="M 710 450 C 750 470, 750 475, 790 473" fill="none" stroke="#334155" stroke-width="3" marker-end="url(#arrow)"/>
<path d="M 940 516 L 940 555" fill="none" stroke="#334155" stroke-width="3" marker-end="url(#arrow)"/>
<rect x="100" y="748" width="30" height="30" fill="#dbeafe" stroke="#2563eb" stroke-width="2"/>
<text x="142" y="770" font-family="Arial" font-size="16" fill="#334155">EV event tile</text>
<rect x="280" y="748" width="30" height="30" fill="#dcfce7" stroke="#16a34a" stroke-width="2"/>
<text x="322" y="770" font-family="Arial" font-size="16" fill="#334155">FR frame tile</text>
<rect x="460" y="748" width="30" height="30" fill="#fef3c7" stroke="#d97706" stroke-width="2"/>
<text x="502" y="770" font-family="Arial" font-size="16" fill="#334155">SP bucket detector</text>
<rect x="700" y="748" width="30" height="30" fill="#faf5ff" stroke="#7c3aed" stroke-width="2"/>
<text x="742" y="770" font-family="Arial" font-size="16" fill="#334155">spectral path</text>
</svg>
